<svg width="500" height="373" viewBox="0 0 500 373" fill="none" xmlns="http://www.w3.org/2000/svg">
<g clip-path="url(#clip0_1287_1162)">
<path d="M500 327.45H0V327.7H500V327.45Z" fill="#EBEBEB"/>
<path d="M449.9 343.54H428.22V343.79H449.9V343.54Z" fill="#EBEBEB"/>
<path d="M344.67 338.35H310.56V338.6H344.67V338.35Z" fill="#EBEBEB"/>
<path d="M441.12 334.26H396.59V334.51H441.12V334.26Z" fill="#EBEBEB"/>
<path d="M173.02 339.3H161.88V339.55H173.02V339.3Z" fill="#EBEBEB"/>
<path d="M152.97 339.3H114.58V339.55H152.97V339.3Z" fill="#EBEBEB"/>
<path d="M94.0101 335.08H66.3101V335.33H94.0101V335.08Z" fill="#EBEBEB"/>
<path d="M237.01 282.85H43.91C40.76 282.85 38.2 280.29 38.2 277.14V5.71C38.2 2.56 40.76 0 43.91 0H237.01C240.16 0 242.72 2.56 242.72 5.71V277.14C242.72 280.29 240.16 282.85 237.01 282.85ZM43.91 0.25C40.9 0.25 38.45 2.7 38.45 5.71V277.14C38.45 280.15 40.9 282.6 43.91 282.6H237.01C240.02 282.6 242.47 280.15 242.47 277.14V5.71C242.47 2.7 240.02 0.25 237.01 0.25H43.91Z" fill="#EBEBEB"/>
<path d="M453.31 282.85H260.21C257.06 282.85 254.5 280.29 254.5 277.14V5.71C254.5 2.56 257.06 0 260.21 0H453.31C456.46 0 459.02 2.56 459.02 5.71V277.14C459.02 280.29 456.46 282.85 453.31 282.85ZM260.21 0.25C257.2 0.25 254.75 2.7 254.75 5.71V277.14C254.75 280.15 257.2 282.6 260.21 282.6H453.31C456.32 282.6 458.77 280.15 458.77 277.14V5.71C458.77 2.7 456.32 0.25 453.31 0.25H260.21Z" fill="#EBEBEB"/>
<path d="M216.07 145.93L216.52 132.79L208.45 130.15C208.12 125.66 207.37 121.23 206.3 116.95L213.14 111.91L208.5 99.57L200.04 100.25C198.02 96.26 195.65 92.46 193 88.9L197.38 81.59L188.37 71.98L180.81 75.85C177.4 72.96 173.81 70.33 169.97 68.02L171.19 59.63L159.19 54.18L153.69 60.62C149.5 59.26 145.16 58.24 140.67 57.57L138.63 49.34L125.45 48.89L122.85 56.96C118.32 57.33 113.93 58.04 109.65 59.11L104.57 52.31L92.2301 56.92L92.9101 65.38C88.9201 67.43 85.12 69.8 81.56 72.45L74.28 68.07L64.63 77.04L68.5 84.64C65.6101 88.01 62.9801 91.64 60.7001 95.48L52.3101 94.22L46.8301 106.22L53.3101 111.72C51.9501 115.91 50.9 120.28 50.26 124.74L42 126.82L41.55 139.96L49.6501 142.6C49.9801 147.12 50.73 151.52 51.8 155.79L44.96 160.83L49.6 173.17L58.0601 172.49C60.0801 176.48 62.45 180.28 65.1 183.84L60.7201 191.15L69.7301 200.76L77.2901 196.89C80.66 199.78 84.29 202.41 88.13 204.73L86.8701 213.12L98.8701 218.57L104.4 212.13C108.59 213.49 112.93 214.51 117.42 215.18L119.46 223.41L132.64 223.86L135.24 215.79C139.76 215.42 144.16 214.71 148.43 213.64L153.47 220.44L165.81 215.83L165.16 207.37C169.15 205.32 172.91 202.95 176.51 200.29L183.79 204.67L193.44 195.7L189.57 188.1C192.46 184.73 195.09 181.1 197.37 177.26L205.76 178.52L211.24 166.52L204.76 161.02C206.12 156.83 207.17 152.49 207.81 148L216.04 145.92L216.07 145.93ZM127.27 188.5C98.4901 187.51 75.9601 163.38 76.9401 134.6C77.9301 105.79 102.06 83.25 130.84 84.24C159.62 85.23 182.15 109.36 181.17 138.17C180.18 166.95 156.05 189.48 127.27 188.5Z" fill="#F5A623"/>
<path d="M440.96 102.47L444.27 99.38L442.95 96.77C443.96 95.59 444.86 94.33 445.64 93.03L448.54 93.47L450.42 89.33L448.19 87.43C448.67 85.97 449.02 84.46 449.24 82.95L452.09 82.24L452.24 77.7L449.45 76.8C449.33 75.26 449.09 73.75 448.72 72.25L451.07 70.5L449.47 66.25L446.56 66.48C445.87 65.13 445.06 63.82 444.13 62.56L445.64 60.06L442.54 56.74L439.94 58.07C438.75 57.06 437.5 56.16 436.2 55.38L436.62 52.48L432.49 50.59L430.59 52.82C429.12 52.35 427.61 52 426.1 51.78L425.39 48.94L420.85 48.78L419.94 51.58C418.41 51.7 416.89 51.94 415.39 52.32L413.65 49.97L409.39 51.56L409.63 54.48C408.28 55.17 406.95 55.98 405.71 56.91L403.19 55.4L399.88 58.49L401.21 61.11C400.19 62.29 399.3 63.55 398.52 64.85L395.62 64.41L393.74 68.55L395.97 70.45C395.49 71.91 395.14 73.42 394.92 74.93L392.07 75.64L391.92 80.18L394.71 81.08C394.83 82.61 395.07 84.13 395.44 85.63L393.09 87.37L394.69 91.62L397.61 91.4C398.3 92.75 399.11 94.06 400.04 95.32L398.53 97.82L401.63 101.14L404.23 99.81C405.42 100.82 406.67 101.72 407.97 102.5L407.54 105.39L411.67 107.28L413.57 105.06C415.04 105.53 416.54 105.87 418.06 106.1L418.77 108.94L423.31 109.1L424.22 106.3C425.75 106.18 427.27 105.94 428.77 105.56L430.51 107.91L434.77 106.32L434.53 103.4C435.88 102.71 437.2 101.91 438.45 100.97L440.96 102.47ZM417.34 83.34C414.9 80.73 415.04 76.63 417.65 74.2C420.26 71.76 424.36 71.9 426.8 74.51C429.24 77.12 429.1 81.22 426.48 83.66C423.87 86.1 419.77 85.96 417.34 83.35V83.34Z" fill="#EBEBEB"/>
<path d="M319.99 237.38L309.65 230.24V230.22C308.63 226.46 307.22 222.85 305.49 219.45L308.14 209.05L293.14 192.99L282.58 194.92C279.31 192.97 275.8 191.31 272.13 190.04C272.13 190.04 272.11 190.04 272.1 190.04L265.68 179.23L243.72 178.48L236.58 188.82C236.58 188.82 236.55 188.82 236.54 188.82C232.79 189.84 229.17 191.25 225.78 192.97L215.39 190.32L199.33 205.32L201.26 215.86C199.27 219.17 197.65 222.68 196.38 226.35L185.57 232.77L184.82 254.74L195.17 261.89C196.19 265.67 197.56 269.28 199.32 272.71L196.68 283.08L211.68 299.14L222.17 297.22C225.48 299.18 229 300.83 232.72 302.11L239.13 312.9L261.09 313.65L268.23 303.32C272.03 302.3 275.65 300.89 279.08 299.16L289.43 301.8L305.49 286.8L303.56 276.26C305.55 272.95 307.17 269.44 308.44 265.76L319.25 259.34L320 237.37L319.99 237.38ZM251.54 270.77C237.89 270.3 227.22 258.84 227.69 245.22C228.16 231.57 239.58 220.9 253.24 221.37C266.89 221.84 277.56 233.26 277.09 246.92C276.62 260.53 265.2 271.24 251.54 270.77Z" fill="#EBEBEB"/>
<path d="M343.55 175C343.55 175 343.5 175 343.48 175L326.16 174.41C325.44 174.39 324.78 174 324.42 173.38L319.76 165.53C317.28 164.63 314.84 163.5 312.48 162.15L304.97 163.52C304.26 163.65 303.54 163.41 303.05 162.88L291.22 150.22C290.73 149.69 290.54 148.95 290.72 148.26L292.61 140.85C291.46 138.5 290.5 136 289.75 133.38L282.22 128.18C281.63 127.77 281.28 127.09 281.31 126.37L281.9 109.05C281.92 108.33 282.31 107.67 282.93 107.31L290.8 102.64C291.73 100.09 292.86 97.65 294.17 95.39L292.79 87.86C292.66 87.15 292.9 86.43 293.43 85.94L306.1 74.11C306.63 73.62 307.37 73.43 308.06 73.61L315.49 75.51C317.9 74.34 320.39 73.38 322.94 72.64L328.14 65.11C328.55 64.52 329.22 64.15 329.95 64.2L347.27 64.79C347.99 64.81 348.65 65.2 349.01 65.82L353.68 73.69C356.16 74.6 358.59 75.73 360.91 77.06L368.46 75.68C369.17 75.55 369.89 75.79 370.38 76.32L382.21 88.99C382.7 89.52 382.89 90.26 382.71 90.95L380.81 98.39C381.98 100.8 382.94 103.29 383.68 105.84L391.2 111.04C391.79 111.45 392.13 112.13 392.11 112.85L391.52 130.17C391.5 130.89 391.11 131.55 390.49 131.91L382.62 136.58C381.69 139.13 380.56 141.56 379.25 143.82L380.63 151.36C380.76 152.07 380.52 152.79 379.99 153.28L367.33 165.1C366.8 165.59 366.07 165.78 365.37 165.6L357.97 163.71C355.53 164.89 353.02 165.85 350.48 166.58L345.29 174.1C344.89 174.67 344.25 175.01 343.55 175.01V175ZM327.46 170.22L342.47 170.73L347.44 163.53C347.72 163.12 348.15 162.82 348.63 162.69C351.39 161.95 354.14 160.9 356.78 159.56C356.78 159.56 356.78 159.56 356.79 159.56C357.23 159.34 357.75 159.28 358.25 159.41L365.29 161.2L376.27 150.95L374.96 143.78C374.87 143.27 374.96 142.75 375.23 142.31C376.68 139.91 377.91 137.27 378.88 134.48C379.04 133.98 379.38 133.57 379.82 133.31L387.34 128.84L387.85 113.83L380.65 108.86C380.27 108.6 379.99 108.22 379.85 107.79C379.83 107.74 379.82 107.68 379.8 107.62C379.05 104.86 378 102.15 376.69 99.57C376.46 99.11 376.4 98.59 376.53 98.09L378.33 91.01L368.08 80.03L360.89 81.35C360.39 81.44 359.87 81.35 359.43 81.09C356.93 79.6 354.29 78.37 351.58 77.42C351.43 77.37 351.27 77.3 351.14 77.21C350.85 77.03 350.61 76.78 350.43 76.49L345.96 68.96L330.95 68.45L325.98 75.65C325.68 76.08 325.24 76.38 324.74 76.5C321.96 77.26 319.26 78.3 316.69 79.61C316.23 79.84 315.71 79.9 315.21 79.77L308.13 77.97L297.15 88.22L298.46 95.39C298.54 95.84 298.48 96.31 298.27 96.71C298.24 96.77 298.21 96.82 298.17 96.88C296.72 99.29 295.49 101.94 294.52 104.74C294.36 105.21 294.03 105.61 293.6 105.86L286.07 110.33L285.56 125.34L292.77 130.32C293.18 130.6 293.48 131.02 293.61 131.51C294.39 134.39 295.43 137.12 296.72 139.63C296.79 139.77 296.85 139.93 296.89 140.08C296.97 140.42 296.97 140.77 296.89 141.11L295.09 148.16L305.34 159.14L312.48 157.83C312.98 157.74 313.5 157.83 313.93 158.09C316.48 159.59 319.13 160.83 321.82 161.76C322.31 161.91 322.73 162.24 322.99 162.69L327.45 170.21L327.46 170.22ZM336.73 151.26C336.36 151.26 335.99 151.26 335.62 151.24C318.17 150.64 304.47 135.96 305.06 118.52C305.66 101.07 320.36 87.37 337.78 87.96C355.23 88.56 368.93 103.24 368.34 120.68C368.05 129.12 364.49 136.95 358.31 142.72C352.4 148.25 344.77 151.25 336.72 151.25L336.73 151.26ZM336.69 92.17C321.99 92.17 309.79 103.87 309.28 118.67C308.76 133.79 320.64 146.51 335.76 147.03C343.09 147.28 350.07 144.66 355.43 139.65C360.78 134.65 363.87 127.86 364.12 120.55C364.64 105.43 352.76 92.71 337.64 92.19C337.32 92.18 337 92.17 336.69 92.17Z" fill="#F5A623"/>
<path d="M383.44 50.37L376.27 48.44L374.34 41.27L377.15 38.46L380.11 44.6L386.25 47.56L383.44 50.37Z" fill="#E0E0E0"/>
<path d="M383.88 45.57C385.19 44.26 385.19 42.13 383.88 40.83C382.57 39.52 380.45 39.53 379.15 40.83L382.72 35.48L387.51 37.9L388.56 42.93L383.89 45.57H383.88Z" fill="#E0E0E0"/>
<path d="M376.58 39.03L381.84 33.77L389.01 35.7L390.94 42.87L385.68 48.13L378.51 46.2L376.58 39.03ZM386.13 43.33C387.44 42.02 387.44 39.89 386.13 38.59C384.82 37.28 382.7 37.29 381.4 38.59C380.09 39.9 380.09 42.01 381.4 43.31C382.71 44.62 384.83 44.63 386.13 43.31V43.33Z" fill="#F0F0F0"/>
<path d="M90.22 241.76L94.07 240.72L95.1 236.87L93.6 235.37L92.01 238.66L88.71 240.25L90.22 241.76Z" fill="#E0E0E0"/>
<path d="M89.98 239.18C89.28 238.48 89.28 237.34 89.98 236.63C90.68 235.92 91.82 235.93 92.52 236.63L90.61 233.76L88.04 235.06L87.48 237.76L89.98 239.18Z" fill="#E0E0E0"/>
<path d="M93.9002 235.67L91.0802 232.85L87.2302 233.88L86.2002 237.73L89.0202 240.55L92.8702 239.52L93.9002 235.67ZM88.7802 237.98C88.0802 237.28 88.0802 236.14 88.7802 235.43C89.4802 234.72 90.6202 234.73 91.3202 235.43C92.0202 236.13 92.0202 237.26 91.3202 237.97C90.6202 238.68 89.4802 238.68 88.7802 237.97V237.98Z" fill="#F0F0F0"/>
<path d="M76.3598 30.71L79.5498 33.9C80.3798 34.73 81.7398 34.73 82.5698 33.9C83.3998 33.07 83.3998 31.71 82.5698 30.88L79.3798 27.69C78.5498 26.86 77.1898 26.86 76.3598 27.69C75.5298 28.52 75.5298 29.88 76.3598 30.71Z" fill="#F0F0F0"/>
<path d="M74.1102 22.75C76.5702 21.87 79.2402 23.02 80.0702 25.33C80.9002 27.64 79.5802 30.23 77.1202 31.12C74.6602 32 71.9902 30.85 71.1602 28.54C70.3302 26.23 71.6502 23.64 74.1102 22.75Z" fill="#E0E0E0"/>
<path d="M70.6257 28.0022L71.0889 29.2915L80.5941 25.8769L80.131 24.5876L70.6257 28.0022Z" fill="#F0F0F0"/>
<path d="M250 372.61C357.082 372.61 443.89 367.542 443.89 361.29C443.89 355.038 357.082 349.97 250 349.97C142.917 349.97 56.1099 355.038 56.1099 361.29C56.1099 367.542 142.917 372.61 250 372.61Z" fill="#F5F5F5"/>
<path d="M128.68 116.63C128.62 116.63 128.56 116.62 128.5 116.6C124 114.86 121.31 113.15 119.91 111.11C118.89 111.31 117.76 111.18 116.68 110.67C115.63 110.17 114.62 109.3 113.9 108.05C113.22 108.57 112.39 108.71 111.47 108.43C110.45 108.11 109.4 107.26 108.52 106.02C107.96 106.42 107.39 106.48 106.97 106.45C104 106.21 99.97 100.29 99.68 93.98C99.67 93.7 99.88 93.47 100.16 93.46C100.43 93.44 100.67 93.66 100.68 93.94C100.95 99.93 104.79 105.27 107.05 105.45C107.42 105.49 107.72 105.37 107.98 105.17C106.62 102.79 105.92 99.39 106.96 95.76C107.82 92.76 108.58 91.58 109.49 91.8C111.21 92.23 110.99 98.77 110.07 103.09C109.86 104.07 109.56 104.77 109.22 105.27C110.01 106.44 110.94 107.22 111.76 107.48C112.49 107.71 113.03 107.52 113.43 107.13C112.64 105.19 112.48 102.56 113.55 99.19C114.95 94.76 115.52 94.64 115.86 94.57C116.1 94.52 116.34 94.6 116.5 94.79C117.42 95.83 116.32 102.71 115.16 106.11C115.01 106.55 114.82 106.94 114.6 107.27C115.22 108.49 116.14 109.32 117.09 109.77C117.86 110.14 118.65 110.27 119.36 110.2C119.27 110.01 119.19 109.82 119.12 109.62C118.33 107.47 118.71 104.99 120.3 102.04C121.36 100.08 122.22 99.17 123.01 99.17C123.25 99.17 123.68 99.26 124 99.83C124.87 101.44 124.24 106.75 122.52 109.38C122.11 110 121.55 110.47 120.9 110.78C122.24 112.54 124.78 114.09 128.85 115.67C129.11 115.77 129.24 116.06 129.14 116.32C129.06 116.52 128.87 116.64 128.67 116.64L128.68 116.63ZM123.03 100.16C123.03 100.16 122.46 100.16 121.2 102.51C119.75 105.19 119.39 107.4 120.07 109.27C120.15 109.5 120.25 109.72 120.37 109.94C120.9 109.71 121.36 109.34 121.69 108.84C123.09 106.7 123.76 102.3 123.24 100.58C123.13 100.23 123.02 100.17 123.02 100.17L123.03 100.16ZM115.86 95.95C115.6 96.44 115.17 97.43 114.52 99.48C113.66 102.19 113.66 104.36 114.14 106.03C114.17 105.95 114.2 105.86 114.23 105.78C115.41 102.34 115.98 97.61 115.86 95.95ZM109.27 92.8C109.1 92.96 108.62 93.59 107.92 96.02C107 99.23 107.57 102.16 108.65 104.27C108.86 103.84 109 103.34 109.1 102.87C110.14 97.96 109.84 93.52 109.27 92.81V92.8Z" fill="#263238"/>
<path d="M166.7 169.04C165.18 169.04 163.57 168.69 162.14 167.85C161.9 167.71 161.82 167.4 161.96 167.17C162.1 166.93 162.41 166.85 162.64 166.99C166.21 169.08 170.82 167.62 171.77 166.1C171.88 165.92 171.98 165.69 171.92 165.43C170.51 165.58 168.77 165.21 166.79 163.96C164.25 162.37 164.05 161.9 164.06 161.52C164.06 161.3 164.2 161.1 164.4 161C165.4 160.5 169.91 162.57 171.79 163.81C172.04 163.97 172.24 164.15 172.41 164.33C173.24 164.13 173.89 163.7 174.31 163.18C174.6 162.83 174.8 162.44 174.9 162.06C174.83 162.06 174.77 162.08 174.7 162.08C173.1 162.24 171.5 161.55 169.79 159.98C168.62 158.89 168.16 158.15 168.31 157.55C168.36 157.36 168.52 157.02 169.03 156.9C170.41 156.56 173.83 158.01 175.22 159.54C175.53 159.88 175.75 160.29 175.86 160.72C177.16 160.11 178.55 158.73 180.18 156.45C180.34 156.23 180.65 156.17 180.88 156.33C181.1 156.49 181.16 156.8 181 157.03C179.11 159.67 177.54 161.17 175.95 161.78C175.89 162.48 175.6 163.2 175.08 163.82C174.57 164.43 173.83 164.95 172.9 165.23C173 165.68 172.9 166.16 172.62 166.62C171.78 167.98 169.36 169.04 166.7 169.04ZM165.81 162.1C166.15 162.35 166.63 162.68 167.32 163.11C168.68 163.96 169.89 164.35 170.92 164.43C169.26 163.4 167.1 162.49 165.81 162.1ZM169.3 157.85C169.36 158.01 169.58 158.42 170.47 159.24C171.96 160.61 173.31 161.23 174.6 161.08C174.71 161.07 174.81 161.05 174.92 161.03C174.85 160.73 174.7 160.45 174.49 160.2C173.08 158.66 169.99 157.68 169.31 157.84L169.3 157.85Z" fill="#263238"/>
<path d="M179.94 167.67L164.36 170.5L150.21 93.29L120.15 98.75L71.1602 185.75L76.4202 214.46L139.26 203.05L143.56 226.53L173.62 221.07L169.32 197.59L184.9 194.76L179.94 167.68V167.67ZM101.09 181.99L127.05 136.42L134.29 175.96L101.09 181.99Z" fill="#407BFF"/>
<path d="M305.43 88.04C304.85 82.71 303.78 77.97 302.23 73.82C300.68 69.68 298.35 65.61 295.24 61.63C292.13 57.65 287.89 54.19 282.54 51.26C277.18 48.33 270.11 46.29 261.32 45.15C243.03 42.77 228.77 46.01 218.54 54.89C208.31 63.77 201.58 80.77 198.34 105.9C197.02 116.12 196.7 125.57 197.36 134.24C198.02 142.92 199.62 149.89 202.14 155.17C205.59 162.59 210.47 168.51 216.79 172.94C223.1 177.37 231.75 180.3 242.74 181.73C262.34 184.28 276.86 180.52 286.31 170.44C295.76 160.36 302.03 143.33 305.12 119.34C306.5 108.64 306.6 98.2 305.44 88.02L305.43 88.04Z" fill="#407BFF"/>
<path d="M251.77 171.48C249.37 171.4 246.81 171.18 244.16 170.84C235.01 169.65 227.92 167.33 223.11 163.95C218.36 160.62 214.76 156.23 212.12 150.54L212.07 150.44C210.15 146.42 208.89 140.69 208.34 133.41C207.73 125.52 208.04 116.74 209.26 107.31C212.83 79.59 220.2 68.02 225.76 63.2C232.24 57.58 240.98 55.04 252.49 55.43C254.85 55.51 257.35 55.72 259.91 56.06C267.3 57.02 273.14 58.66 277.28 60.92C281.29 63.11 284.42 65.63 286.59 68.41C288.99 71.49 290.79 74.6 291.94 77.68C293.16 80.95 294.03 84.84 294.51 89.24C295.58 98.55 295.47 108.19 294.22 117.96C291.45 139.5 286.09 154.63 278.3 162.94C272.52 169.11 263.85 171.9 251.79 171.49L251.77 171.48Z" fill="#263238"/>
<path d="M271.34 88.33L271.47 84.54L269.14 83.78C269.04 82.49 268.83 81.21 268.52 79.98L270.49 78.53L269.15 74.97L266.71 75.17C266.13 74.02 265.45 72.93 264.68 71.9L265.94 69.79L263.34 67.02L261.16 68.14C260.18 67.31 259.14 66.55 258.04 65.88L258.39 63.46L254.93 61.89L253.35 63.75C252.14 63.36 250.89 63.07 249.6 62.87L249.01 60.5L245.21 60.37L244.46 62.7C243.16 62.81 241.89 63.01 240.66 63.32L239.2 61.36L235.64 62.69L235.84 65.13C234.69 65.72 233.6 66.4 232.57 67.17L230.47 65.91L227.69 68.5L228.81 70.69C227.98 71.66 227.22 72.71 226.56 73.81L224.14 73.45L222.56 76.91L224.43 78.49C224.04 79.7 223.73 80.96 223.55 82.24L221.17 82.84L221.04 86.63L223.38 87.39C223.48 88.69 223.69 89.96 224 91.19L222.03 92.64L223.37 96.2L225.81 96C226.39 97.15 227.07 98.24 227.84 99.27L226.58 101.38L229.18 104.15L231.36 103.03C232.33 103.86 233.38 104.62 234.48 105.29L234.12 107.71L237.58 109.28L239.17 107.42C240.38 107.81 241.63 108.1 242.92 108.3L243.51 110.67L247.31 110.8L248.06 108.47C249.36 108.36 250.63 108.16 251.86 107.85L253.31 109.81L256.87 108.48L256.68 106.04C257.83 105.45 258.92 104.77 259.95 104L262.05 105.26L264.83 102.67L263.71 100.48C264.54 99.51 265.3 98.46 265.96 97.36L268.38 97.72L269.96 94.26L268.09 92.68C268.48 91.47 268.78 90.22 268.97 88.93L271.34 88.33ZM245.74 100.6C237.44 100.32 230.95 93.36 231.23 85.06C231.51 76.75 238.47 70.26 246.77 70.54C255.07 70.82 261.56 77.78 261.28 86.09C261 94.39 254.04 100.88 245.74 100.6Z" fill="#F5A623"/>
<path opacity="0.3" d="M287.12 157.91L287.39 155.36L285.86 154.73C285.86 153.85 285.78 152.98 285.63 152.14L287.03 151.25L286.32 148.78H284.66C284.32 147.99 283.93 147.21 283.46 146.48L284.41 145.12L282.8 143.12L281.27 143.76C280.66 143.15 280 142.59 279.28 142.09L279.65 140.46L277.4 139.22L276.22 140.41C275.41 140.07 274.58 139.82 273.74 139.62L273.46 137.98L270.91 137.69L270.28 139.22C269.4 139.22 268.54 139.31 267.69 139.46L266.8 138.05L264.33 138.77V140.43C263.55 140.77 262.77 141.16 262.03 141.63L260.67 140.67L258.67 142.28L259.31 143.81C258.72 144.42 258.14 145.08 257.64 145.8L256.03 145.44L254.79 147.69L255.97 148.85C255.64 149.67 255.38 150.49 255.18 151.34L253.54 151.61L253.27 154.16L254.8 154.8C254.8 155.67 254.88 156.53 255.03 157.38L253.62 158.27L254.34 160.74H256C256.34 161.53 256.73 162.31 257.2 163.04L256.24 164.4L257.84 166.41L259.38 165.76C259.99 166.37 260.65 166.93 261.37 167.43L261 169.06L263.25 170.3L264.43 169.12C265.24 169.45 266.07 169.7 266.91 169.9L267.19 171.54L269.74 171.83L270.37 170.29C271.24 170.29 272.11 170.2 272.96 170.05L273.85 171.46L276.31 170.74V169.08C277.1 168.74 277.88 168.35 278.62 167.88L279.97 168.84L281.98 167.24L281.33 165.71C281.94 165.1 282.5 164.44 283.01 163.72L284.62 164.08L285.86 161.83L284.68 160.67C285.01 159.85 285.26 159.03 285.46 158.19L287.11 157.91H287.12ZM274.25 156.92C273.06 159.08 270.35 159.88 268.19 158.69C266.03 157.5 265.25 154.79 266.43 152.63C267.62 150.47 270.32 149.69 272.48 150.87C274.64 152.06 275.44 154.76 274.25 156.92Z" fill="#407BFF"/>
<path d="M301.29 114.7L298.31 112.64C298.02 111.56 297.61 110.51 297.11 109.54L297.87 106.54L293.55 101.91L290.51 102.47C289.57 101.91 288.56 101.43 287.5 101.06L285.65 97.94L279.32 97.72L277.26 100.7C277.26 100.7 277.26 100.7 277.25 100.7C276.17 100.99 275.13 101.4 274.15 101.9L271.15 101.14L266.52 105.46L267.08 108.5C266.51 109.45 266.04 110.47 265.67 111.52L262.55 113.37L262.33 119.7L265.31 121.76C265.6 122.85 266 123.89 266.51 124.88L265.75 127.87L270.07 132.5L273.09 131.95C274.04 132.51 275.06 132.99 276.13 133.36L277.98 136.47L284.31 136.69L286.37 133.71C287.46 133.42 288.51 133.01 289.5 132.51L292.48 133.27L297.11 128.95L296.55 125.91C297.12 124.96 297.59 123.94 297.96 122.88L301.08 121.03L301.3 114.7H301.29ZM281.56 124.32C277.62 124.19 274.55 120.88 274.68 116.96C274.81 113.02 278.11 109.95 282.04 110.08C285.98 110.21 289.05 113.51 288.92 117.44C288.79 121.36 285.49 124.45 281.56 124.32Z" fill="white"/>
<path d="M323.04 64.17L323.56 62.91C323.93 62.72 324.29 62.48 324.61 62.23L325.77 62.27L327.13 60.32L326.69 59.25C326.82 58.86 326.92 58.45 326.97 58.03L327.97 57.11L327.55 54.77L326.29 54.25C326.1 53.88 325.87 53.53 325.61 53.21L325.65 52.05L323.7 50.69L322.63 51.13C322.23 50.99 321.83 50.9 321.41 50.85L320.49 49.85L318.15 50.27L317.63 51.53C317.25 51.72 316.9 51.95 316.58 52.21L315.42 52.17L314.06 54.12L314.5 55.19C314.37 55.58 314.27 55.99 314.22 56.42L313.22 57.34L313.64 59.68L314.9 60.2C315.09 60.58 315.33 60.93 315.59 61.25L315.55 62.4L317.5 63.76L318.57 63.32C318.97 63.46 319.37 63.55 319.79 63.6L320.72 64.6L323.06 64.18L323.04 64.17ZM317.95 57.68C317.69 56.22 318.66 54.84 320.11 54.58C321.57 54.32 322.95 55.29 323.21 56.74C323.47 58.19 322.5 59.58 321.05 59.84C319.6 60.1 318.21 59.13 317.95 57.68Z" fill="#F5A623"/>
<path d="M295.61 57.54L294.85 56.9C296.18 55.33 298.06 53.34 300.86 51.87L301.32 52.76C298.34 54.32 296.43 56.58 295.61 57.55V57.54Z" fill="#407BFF"/>
<path d="M303.59 51.85L303.2 50.93C306.98 49.31 310.93 48.68 314.94 49.05L314.85 50.05C311.01 49.68 307.23 50.3 303.6 51.85H303.59Z" fill="#407BFF"/>
<path d="M301.7 58.77L300.87 58.21C302.92 55.19 306.98 52.57 310.74 51.82L310.93 52.8C307.41 53.5 303.61 55.95 301.69 58.77H301.7Z" fill="#407BFF"/>
<path d="M235.34 155C235.21 155 235.08 154.95 234.98 154.85L232.88 152.69C231.81 152.59 230.76 152.39 229.73 152.1L226.46 153.54C226.3 153.61 226.12 153.59 225.98 153.5L220.5 149.87C220.36 149.78 220.27 149.62 220.28 149.45L220.33 145.89C219.66 145.06 219.07 144.16 218.56 143.21L215.75 142.12C215.59 142.06 215.47 141.92 215.44 141.75L214.13 135.31C214.1 135.14 214.15 134.97 214.27 134.85L216.43 132.75C216.53 131.69 216.73 130.63 217.01 129.6L215.57 126.34C215.5 126.18 215.52 126 215.61 125.86L219.24 120.38C219.33 120.24 219.47 120.15 219.66 120.16L223.22 120.21C224.06 119.54 224.96 118.95 225.9 118.45L226.99 115.64C227.05 115.48 227.19 115.36 227.36 115.33L233.8 114.02C233.97 113.99 234.14 114.04 234.26 114.16L236.35 116.32C237.41 116.42 238.47 116.62 239.5 116.9L242.76 115.46C242.92 115.39 243.1 115.41 243.24 115.5L248.72 119.13C248.86 119.22 248.95 119.38 248.94 119.55L248.89 123.12C249.56 123.95 250.15 124.85 250.65 125.79L253.46 126.88C253.62 126.94 253.74 127.08 253.77 127.25L255.08 133.69C255.11 133.86 255.06 134.03 254.94 134.15L252.78 136.25C252.68 137.3 252.48 138.36 252.19 139.39L253.63 142.66C253.7 142.82 253.68 143 253.59 143.14L249.96 148.61C249.87 148.75 249.72 148.82 249.54 148.83L245.98 148.78C245.15 149.44 244.25 150.03 243.3 150.54L242.21 153.35C242.15 153.51 242.01 153.63 241.84 153.66L235.4 154.97C235.4 154.97 235.33 154.97 235.3 154.97L235.34 155ZM229.7 151.07C229.7 151.07 229.79 151.07 229.84 151.09C230.91 151.4 232.02 151.61 233.15 151.71C233.27 151.71 233.38 151.77 233.47 151.86L235.51 153.96L241.41 152.76L242.47 150.03C242.51 149.92 242.6 149.82 242.71 149.77C243.71 149.25 244.66 148.63 245.53 147.92C245.62 147.85 245.72 147.8 245.85 147.81L249.32 147.86L252.65 142.84L251.25 139.66C251.2 139.55 251.2 139.43 251.23 139.32C251.55 138.23 251.75 137.11 251.85 136.01C251.85 135.89 251.91 135.78 252 135.69L254.1 133.65L252.9 127.75L250.17 126.69C250.05 126.65 249.96 126.56 249.9 126.45C249.38 125.45 248.76 124.51 248.05 123.64C247.97 123.55 247.93 123.43 247.94 123.31L247.99 119.84L242.97 116.51L239.79 117.91C239.68 117.96 239.56 117.96 239.45 117.93C238.37 117.61 237.25 117.41 236.13 117.31C236.01 117.31 235.9 117.25 235.81 117.16L233.78 115.06L227.88 116.26L226.82 118.99C226.78 119.1 226.69 119.2 226.58 119.25C225.58 119.77 224.64 120.39 223.76 121.1C223.67 121.17 223.55 121.23 223.43 121.21L219.96 121.16L216.63 126.18L218.03 129.36C218.09 129.5 218.09 129.65 218.02 129.79C217.74 130.79 217.53 131.9 217.44 133.02C217.44 133.14 217.38 133.25 217.29 133.34L215.19 135.38L216.39 141.28L219.12 142.34C219.24 142.39 219.34 142.48 219.39 142.6C219.91 143.59 220.53 144.53 221.23 145.39C221.31 145.48 221.35 145.6 221.35 145.72L221.3 149.19L226.32 152.52L229.5 151.12C229.56 151.09 229.63 151.08 229.7 151.08V151.07ZM234.62 147.83C232.09 147.83 229.54 147.11 227.28 145.62C224.31 143.65 222.29 140.65 221.58 137.16C220.87 133.67 221.56 130.12 223.53 127.15C227.6 121.03 235.88 119.34 242 123.4C248.12 127.46 249.8 135.75 245.74 141.87C243.18 145.73 238.94 147.83 234.62 147.83ZM224.36 127.7C222.54 130.44 221.9 133.73 222.56 136.96C223.22 140.19 225.09 142.96 227.83 144.78C233.5 148.53 241.16 146.98 244.91 141.32C248.66 135.66 247.11 127.99 241.45 124.23C235.79 120.48 228.12 122.03 224.36 127.7Z" fill="white"/>
<path d="M425.83 176.7L410.14 174.58L420.52 96.77L390.24 92.68L316.79 160.31L312.93 189.24L376.22 197.78L373.06 221.44L403.34 225.53L406.5 201.87L422.19 203.99L425.83 176.7ZM346.41 165.98L385.17 130.65L379.85 170.49L346.41 165.98Z" fill="#407BFF"/>
<path d="M394.13 224.79C394.13 224.79 394.07 224.79 394.04 224.79C393.77 224.74 393.59 224.48 393.64 224.21L416.97 96.28C417.02 96.01 417.28 95.84 417.55 95.88C417.82 95.93 418 96.19 417.95 96.46L394.62 224.39C394.58 224.63 394.37 224.8 394.13 224.8V224.79Z" fill="#263238"/>
<path d="M414.83 98.42C414.81 98.87 414.44 99.23 413.98 99.21C413.52 99.19 413.17 98.82 413.19 98.36C413.21 97.9 413.58 97.55 414.04 97.57C414.49 97.59 414.85 97.96 414.83 98.42Z" fill="#263238"/>
<path d="M411.5 115.72C411.48 116.17 411.11 116.53 410.65 116.51C410.19 116.49 409.84 116.12 409.86 115.66C409.88 115.2 410.25 114.85 410.71 114.87C411.16 114.89 411.52 115.26 411.5 115.72Z" fill="#263238"/>
<path d="M408.17 133.02C408.15 133.47 407.78 133.83 407.32 133.81C406.86 133.79 406.51 133.42 406.53 132.96C406.55 132.5 406.92 132.15 407.38 132.17C407.83 132.19 408.19 132.56 408.17 133.02Z" fill="#263238"/>
<path d="M401.61 151.03C401.59 151.48 401.22 151.84 400.76 151.82C400.3 151.8 399.95 151.43 399.97 150.97C399.99 150.51 400.36 150.16 400.82 150.18C401.28 150.2 401.63 150.57 401.61 151.03Z" fill="#263238"/>
<path d="M401.5 167.62C401.48 168.07 401.11 168.43 400.65 168.41C400.19 168.39 399.84 168.02 399.86 167.56C399.88 167.1 400.25 166.75 400.71 166.77C401.17 166.79 401.52 167.16 401.5 167.62Z" fill="#263238"/>
<path d="M398.17 184.92C398.15 185.37 397.78 185.73 397.32 185.71C396.86 185.69 396.51 185.32 396.53 184.86C396.55 184.41 396.92 184.05 397.38 184.07C397.84 184.09 398.19 184.46 398.17 184.92Z" fill="#263238"/>
<path d="M394.84 202.22C394.82 202.67 394.45 203.03 393.99 203.01C393.53 202.99 393.18 202.62 393.2 202.16C393.22 201.7 393.59 201.35 394.05 201.37C394.51 201.39 394.86 201.76 394.84 202.22Z" fill="#263238"/>
<path d="M391.5 219.52C391.48 219.97 391.11 220.33 390.65 220.31C390.19 220.29 389.84 219.92 389.86 219.46C389.88 219 390.25 218.65 390.71 218.67C391.17 218.69 391.52 219.06 391.5 219.52Z" fill="#263238"/>
<path d="M400.79 151.5C400.56 151.5 400.35 151.34 400.3 151.1C400.24 150.83 400.41 150.56 400.68 150.51L403.16 149.98C403.43 149.93 403.7 150.09 403.75 150.36C403.81 150.63 403.64 150.9 403.37 150.95L400.89 151.48C400.89 151.48 400.82 151.49 400.78 151.49L400.79 151.5Z" fill="#263238"/>
<path d="M409.08 142.29C409.08 142.29 406.84 148.12 406.09 151.65C405.34 155.18 405.29 163.07 405.29 163.07" fill="#263238"/>
<path d="M405.29 163.57C405.01 163.57 404.79 163.34 404.79 163.07C404.79 162.75 404.84 155.09 405.6 151.54C406.35 148.01 408.52 142.34 408.61 142.1C408.71 141.84 409 141.72 409.26 141.81C409.52 141.91 409.65 142.2 409.55 142.46C409.53 142.52 407.32 148.29 406.58 151.75C405.85 155.19 405.79 163 405.79 163.07C405.79 163.35 405.56 163.57 405.29 163.57Z" fill="#263238"/>
<path d="M222.45 249.89C223.84 227.49 221.28 186.76 263.39 192.15C308.53 197.93 295.61 250.71 295.61 250.71L222.44 249.89H222.45Z" fill="#263238"/>
<path d="M251.51 236.43C261.661 236.43 269.89 228.201 269.89 218.05C269.89 207.899 261.661 199.67 251.51 199.67C241.359 199.67 233.13 207.899 233.13 218.05C233.13 228.201 241.359 236.43 251.51 236.43Z" fill="white"/>
<path d="M253.93 199.7C245.23 198.21 235.92 204.63 235 211.13L269.51 214.3C268.29 206.89 260.84 200.88 253.93 199.7Z" fill="#263238"/>
<path d="M265.58 217.59C265.33 222.39 262.721 226.16 259.731 226.01C256.741 225.86 254.531 221.84 254.781 217.03C255.031 212.23 257.641 208.46 260.631 208.61C263.621 208.76 265.83 212.78 265.58 217.59Z" fill="#263238"/>
<path d="M251.51 237.42C240.83 237.42 232.13 228.73 232.13 218.04C232.13 207.35 240.82 198.66 251.51 198.66C262.2 198.66 270.89 207.35 270.89 218.04C270.89 228.73 262.2 237.42 251.51 237.42ZM251.51 200.67C241.93 200.67 234.13 208.46 234.13 218.05C234.13 227.64 241.92 235.43 251.51 235.43C261.1 235.43 268.89 227.64 268.89 218.05C268.89 208.46 261.1 200.67 251.51 200.67Z" fill="#F5A623"/>
<path opacity="0.3" d="M290.49 249.32C290.49 249.32 290.41 249.32 290.37 249.31C290.1 249.25 289.94 248.98 290 248.71C290.03 248.58 293.22 235.02 289.91 221.31C289.85 221.04 290.01 220.77 290.28 220.71C290.54 220.65 290.82 220.81 290.88 221.08C294.25 235.03 291 248.81 290.97 248.95C290.91 249.18 290.71 249.33 290.48 249.33L290.49 249.32Z" fill="white"/>
<path opacity="0.3" d="M287.7 213.81C287.51 213.81 287.33 213.7 287.25 213.52C285.96 210.71 284.37 208.14 282.51 205.86C282.34 205.65 282.37 205.33 282.58 205.16C282.79 204.98 283.11 205.02 283.28 205.23C285.19 207.57 286.84 210.22 288.16 213.1C288.28 213.35 288.16 213.65 287.91 213.76C287.84 213.79 287.77 213.81 287.7 213.81Z" fill="white"/>
<path d="M128.73 354.97C128.61 354.97 128.48 354.97 128.36 354.97C125.6 354.89 123.42 352.59 123.5 349.83C123.58 347.07 125.85 344.94 128.64 344.97C128.67 344.97 128.7 344.97 128.74 344.97C131.63 344.97 138.58 341.46 153.12 318.54C153.9 317.31 155.18 316.48 156.62 316.27C158.06 316.06 159.53 316.49 160.62 317.45C178.56 333.09 197.57 342.83 197.76 342.93C200.22 344.18 201.2 347.19 199.95 349.65C198.7 352.11 195.69 353.1 193.23 351.85C192.47 351.47 175.86 342.97 158.43 328.7C146.24 347.02 137.2 354.97 128.73 354.97Z" fill="#263238"/>
<path d="M159.67 316.55C159.53 316.55 159.39 316.55 159.24 316.52C157.6 316.29 156.46 314.77 156.69 313.13C157.4 308.15 156.52 289.5 150.22 275C149.65 273.68 150.09 272.14 151.28 271.32C164.98 261.99 194.16 260.87 195.39 260.83C197.04 260.79 198.43 262.07 198.49 263.72C198.55 265.38 197.25 266.76 195.6 266.82C195.33 266.82 169.82 267.81 156.71 275.02C162.29 289.46 163.56 307.46 162.63 313.97C162.42 315.47 161.13 316.55 159.66 316.55H159.67Z" fill="#263238"/>
<path d="M164.71 312.66C162.71 307.95 153.72 308.49 148.44 312.52C145.62 314.68 141.8 321.16 141.4 323.51C141 325.86 142.63 327.99 145.42 327.75C148.87 327.45 153.6 322.44 153.6 322.44C150.45 325.53 154.51 327.71 160.58 323.24C163.94 320.76 166.94 317.93 164.71 312.66Z" fill="#407BFF"/>
<path d="M336.71 251.21C336.71 251.21 336.62 251.21 336.57 251.19C336.3 251.11 336.15 250.84 336.23 250.57C337.56 245.93 339.02 243.1 340.93 241.52C340.64 240.52 340.67 239.38 341.08 238.26C341.48 237.17 342.26 236.09 343.44 235.26C342.86 234.63 342.65 233.81 342.85 232.88C343.08 231.84 343.83 230.71 344.99 229.72C344.54 229.2 344.43 228.63 344.42 228.21C344.39 225.23 349.93 220.68 356.18 219.83C356.45 219.78 356.71 219.98 356.74 220.26C356.78 220.53 356.59 220.79 356.31 220.82C350.37 221.63 345.39 225.93 345.41 228.2C345.41 228.57 345.55 228.86 345.77 229.1C348.02 227.53 351.34 226.52 355.05 227.24C358.12 227.83 359.37 228.48 359.22 229.41C358.95 231.16 352.41 231.53 348.03 231C347.04 230.88 346.31 230.65 345.78 230.35C344.69 231.24 343.99 232.24 343.81 233.08C343.65 233.83 343.89 234.35 344.31 234.72C346.17 233.76 348.78 233.36 352.23 234.13C356.77 235.13 356.94 235.68 357.04 236.01C357.11 236.25 357.05 236.49 356.88 236.67C355.92 237.68 348.97 237.2 345.48 236.35C345.03 236.24 344.62 236.09 344.28 235.9C343.12 236.63 342.38 237.61 342.01 238.61C341.72 239.41 341.65 240.2 341.78 240.91C341.96 240.8 342.14 240.7 342.33 240.62C344.4 239.64 346.9 239.8 349.98 241.12C352.02 242 353.01 242.77 353.08 243.56C353.1 243.79 353.06 244.24 352.51 244.6C350.99 245.61 345.64 245.46 342.86 243.98C342.2 243.63 341.69 243.11 341.32 242.49C339.69 243.98 338.37 246.66 337.16 250.85C337.1 251.07 336.9 251.21 336.68 251.21H336.71ZM342.14 241.88C342.42 242.39 342.83 242.81 343.36 243.1C345.62 244.3 350.06 244.58 351.72 243.9C352.06 243.76 352.11 243.65 352.11 243.65C352.11 243.65 352.06 243.09 349.61 242.04C346.81 240.84 344.57 240.67 342.78 241.52C342.56 241.62 342.35 241.74 342.14 241.88ZM345.47 235.31C345.56 235.34 345.64 235.36 345.73 235.38C349.26 236.24 354.03 236.39 355.66 236.12C355.15 235.91 354.12 235.56 352.02 235.1C349.25 234.49 347.08 234.68 345.46 235.3L345.47 235.31ZM346.73 229.69C347.18 229.86 347.69 229.96 348.17 230.01C353.15 230.6 357.55 229.9 358.21 229.28C358.04 229.13 357.37 228.7 354.88 228.22C351.6 227.6 348.73 228.42 346.73 229.68V229.69Z" fill="#263238"/>
<path d="M206.53 353.3C207.19 353.09 206.97 352.45 206.23 352.45H192.69C166.91 349.72 148.9 353.38 160.25 354.24C171.6 355.1 159.45 354.92 151.16 358.06C142.87 361.2 212.81 361.99 219.18 358.06C225.05 354.44 197.4 356.23 206.53 353.3Z" fill="#263238"/>
<path d="M303.47 357.29L185.67 353.38L180.78 239.16L319.89 242.27L303.47 357.29Z" fill="#407BFF"/>
<path d="M222.45 355.1C222.19 355.1 221.97 354.9 221.95 354.64L212.51 239.92C212.49 239.64 212.69 239.4 212.97 239.38C213.25 239.36 213.49 239.56 213.51 239.84L222.95 354.56C222.97 354.84 222.77 355.08 222.49 355.1C222.48 355.1 222.46 355.1 222.45 355.1Z" fill="#263238"/>
<path d="M303.47 357.29L335.13 352.47L345.1 246.26L319.89 242.27L303.47 357.29Z" fill="#407BFF"/>
<path opacity="0.2" d="M303.47 357.29L335.13 352.47L345.1 246.26L319.89 242.27L303.47 357.29Z" fill="black"/>
<path d="M195.73 331.36L192.83 263.5C192.53 256.42 198.27 250.55 205.36 250.71L293.42 252.68C300.77 252.84 306.33 259.4 305.29 266.68L295.53 335.07C294.65 341.27 289.24 345.81 282.98 345.6L207.59 343.1C201.18 342.89 196.01 337.77 195.74 331.36H195.73Z" fill="#263238"/>
<path d="M205.25 271.54L218.87 271.97L218.76 275.48L210.23 275.21L210.15 277.82L218.06 278.07L217.95 281.43L210.04 281.18L209.94 284.42L218.72 284.7L218.6 288.43L204.73 287.99L205.25 271.54Z" fill="white"/>
<path d="M221.4 288.52L221.92 272.07L230.39 272.34C231.96 272.39 233.16 272.56 233.98 272.86C234.8 273.16 235.46 273.68 235.94 274.42C236.43 275.17 236.65 276.06 236.62 277.11C236.59 278.02 236.37 278.8 235.96 279.45C235.55 280.1 235 280.62 234.3 281.01C233.86 281.26 233.26 281.46 232.49 281.6C233.09 281.82 233.52 282.04 233.79 282.25C233.97 282.39 234.23 282.69 234.58 283.14C234.93 283.59 235.15 283.94 235.26 284.18L237.57 289.03L231.83 288.85L229.27 283.74C228.95 283.08 228.65 282.65 228.39 282.44C228.03 282.17 227.62 282.03 227.16 282.02H226.71L226.5 288.68L221.39 288.52H221.4ZM226.82 278.9L228.96 278.97C229.19 278.97 229.64 278.92 230.31 278.79C230.65 278.73 230.93 278.57 231.15 278.3C231.37 278.03 231.49 277.72 231.5 277.36C231.52 276.83 231.36 276.42 231.03 276.12C230.7 275.82 230.07 275.66 229.15 275.63L226.92 275.56L226.81 278.9H226.82Z" fill="white"/>
<path d="M239.28 289.09L239.8 272.64L248.27 272.91C249.84 272.96 251.04 273.13 251.86 273.43C252.68 273.73 253.34 274.25 253.82 274.99C254.31 275.74 254.53 276.63 254.5 277.68C254.47 278.59 254.25 279.37 253.84 280.02C253.43 280.67 252.88 281.19 252.18 281.58C251.74 281.83 251.14 282.03 250.37 282.17C250.97 282.39 251.4 282.61 251.67 282.82C251.85 282.96 252.11 283.26 252.46 283.71C252.8 284.16 253.03 284.51 253.14 284.75L255.45 289.6L249.71 289.42L247.15 284.31C246.83 283.65 246.53 283.22 246.27 283.01C245.91 282.74 245.5 282.6 245.04 282.59H244.59L244.38 289.25L239.27 289.09H239.28ZM244.7 279.47L246.84 279.54C247.07 279.54 247.52 279.49 248.19 279.36C248.53 279.3 248.81 279.14 249.03 278.87C249.25 278.6 249.37 278.29 249.38 277.93C249.4 277.4 249.24 276.99 248.91 276.69C248.58 276.39 247.95 276.23 247.03 276.2L244.8 276.13L244.69 279.47H244.7Z" fill="white"/>
<path d="M256.32 281.41C256.41 278.72 257.22 276.66 258.76 275.21C260.3 273.76 262.41 273.08 265.08 273.16C267.82 273.25 269.9 274.05 271.34 275.57C272.77 277.09 273.45 279.17 273.37 281.82C273.31 283.74 272.93 285.31 272.25 286.52C271.56 287.73 270.6 288.66 269.35 289.3C268.1 289.95 266.57 290.24 264.74 290.18C262.88 290.12 261.36 289.78 260.16 289.15C258.96 288.52 258.01 287.55 257.29 286.25C256.57 284.95 256.25 283.33 256.31 281.41H256.32ZM261.4 281.59C261.35 283.25 261.62 284.45 262.21 285.2C262.8 285.95 263.63 286.33 264.69 286.37C265.78 286.4 266.64 286.08 267.26 285.38C267.88 284.69 268.22 283.42 268.28 281.58C268.33 280.03 268.05 278.89 267.45 278.16C266.85 277.43 266.01 277.04 264.94 277.01C263.91 276.98 263.08 277.31 262.44 278.02C261.8 278.73 261.45 279.92 261.39 281.59H261.4Z" fill="white"/>
<path d="M275.91 290.25L276.43 273.8L284.9 274.07C286.47 274.12 287.67 274.29 288.49 274.59C289.31 274.89 289.97 275.41 290.45 276.15C290.94 276.9 291.16 277.79 291.13 278.84C291.1 279.75 290.88 280.53 290.47 281.18C290.06 281.83 289.51 282.35 288.81 282.74C288.37 282.99 287.77 283.19 287 283.33C287.6 283.55 288.03 283.77 288.3 283.98C288.48 284.12 288.74 284.42 289.09 284.87C289.43 285.32 289.66 285.67 289.77 285.91L292.08 290.76L286.34 290.58L283.78 285.47C283.46 284.81 283.16 284.38 282.9 284.17C282.54 283.9 282.13 283.76 281.67 283.75H281.22L281.01 290.41L275.9 290.25H275.91ZM281.33 280.63L283.47 280.7C283.7 280.7 284.15 280.65 284.82 280.52C285.16 280.46 285.44 280.3 285.66 280.03C285.88 279.76 286 279.45 286.01 279.09C286.03 278.56 285.87 278.15 285.54 277.85C285.21 277.55 284.58 277.39 283.66 277.36L281.43 277.29L281.32 280.63H281.33Z" fill="white"/>
<path d="M284 318.21C283.64 318.21 283.29 318.07 283.03 317.78L274.47 308.41L265.23 316.85C264.69 317.34 263.86 317.3 263.38 316.77L254.82 307.4L245.58 315.84C245.04 316.33 244.21 316.29 243.73 315.76L235.17 306.39L225.93 314.83C225.67 315.07 225.33 315.19 224.99 315.17C224.64 315.15 224.31 315 224.08 314.74L215.52 305.37L206.28 313.81C205.75 314.3 204.91 314.26 204.43 313.73C203.94 313.19 203.98 312.36 204.51 311.88L214.72 302.55C215.25 302.06 216.09 302.1 216.57 302.63L225.13 312L234.37 303.56C234.63 303.32 234.97 303.2 235.31 303.22C235.66 303.24 235.99 303.39 236.22 303.65L244.78 313.02L254.02 304.58C254.55 304.09 255.39 304.13 255.87 304.66L264.43 314.03L273.67 305.59C274.2 305.1 275.03 305.14 275.52 305.67L284.97 316.01C285.46 316.55 285.42 317.38 284.89 317.86C284.64 318.09 284.32 318.2 284.01 318.2L284 318.21Z" fill="white"/>
<path d="M125.75 359.71L119.49 356.73L113.91 329.56L116.94 326.23L125.75 359.71Z" fill="#407BFF"/>
<path d="M125.75 359.71L134.05 354.86L126.94 332.48L116.94 326.23L125.75 359.71Z" fill="#407BFF"/>
<path opacity="0.2" d="M125.75 359.71L134.05 354.86L126.94 332.48L116.94 326.23L125.75 359.71Z" fill="black"/>
<path d="M261.95 364.65C261.71 364.65 261.48 364.65 261.26 364.65C258.5 364.57 256.32 362.27 256.4 359.51C256.48 356.75 258.76 354.58 261.54 354.65C269.24 354.9 285.55 350.17 294.86 341.13C295.44 340.57 296.14 340.16 296.91 339.93C312.7 335.19 318.57 344.76 318.82 345.17L310.21 350.26C310.21 350.26 310.24 350.33 310.33 350.44C310.23 350.31 308 347.4 300.88 349.2C289.19 359.87 271.25 364.65 261.97 364.65H261.95Z" fill="#263238"/>
<path d="M261.39 371.3L243.18 370.15L241.75 336.58L266.22 337.49L261.39 371.3Z" fill="#407BFF"/>
<path d="M261.39 371.3L265.65 367.06L268.29 346.13L266.22 337.49L261.39 371.3Z" fill="#407BFF"/>
<path opacity="0.2" d="M261.39 371.3L265.65 367.06L268.29 346.13L266.22 337.49L261.39 371.3Z" fill="black"/>
<path d="M366.91 358.58C366.28 358.58 365.64 358.38 365.1 357.97C354.71 350.07 340.65 336.04 335.26 322.51C335.18 322.31 335.12 322.11 335.09 321.9C332.46 306.27 329.95 273.36 329.84 271.97C329.71 270.32 330.95 268.88 332.6 268.75C334.25 268.63 335.69 269.86 335.82 271.51C335.85 271.85 338.38 305.08 340.95 320.58C346.33 333.74 360.91 347.25 368.73 353.19C370.05 354.19 370.31 356.07 369.3 357.39C368.71 358.17 367.81 358.57 366.91 358.57V358.58Z" fill="#263238"/>
<path d="M380.78 360.1C378.46 360.1 375.83 359.05 372.97 356.98C371.63 356.01 371.33 354.13 372.3 352.79C373.27 351.45 375.15 351.15 376.49 352.12C378.97 353.91 380.32 354.11 380.79 354.11C382.45 354.11 383.79 355.45 383.79 357.11C383.79 358.77 382.45 360.11 380.79 360.11L380.78 360.1Z" fill="#263238"/>
<path d="M373.8 356.89C377.01 347.35 390.17 349.24 394.7 350.65C399.23 352.07 403.31 353.85 405.77 355.45C408.22 357.05 408.26 359.74 404.99 361.27C400.95 363.16 390.83 361.48 390.83 361.48C396.07 363.77 390.82 367.45 381.62 363.84C378.63 362.66 372.66 360.38 373.79 356.88L373.8 356.89Z" fill="#407BFF"/>
<path d="M341.86 276.08C340.67 284.18 333.96 290.16 328.5 289.35C323.04 288.55 322.82 281.31 324.01 273.21C325.2 265.11 327.36 259.21 332.82 260.01C338.28 260.81 343.06 267.97 341.86 276.07V276.08Z" fill="#263238"/>
<path d="M209.88 243.74C210.333 243.74 210.7 243.373 210.7 242.92C210.7 242.467 210.333 242.1 209.88 242.1C209.427 242.1 209.06 242.467 209.06 242.92C209.06 243.373 209.427 243.74 209.88 243.74Z" fill="#263238"/>
<path d="M218.21 248.83C218.21 249.28 217.84 249.65 217.39 249.65C216.94 249.65 216.57 249.28 216.57 248.83C216.57 248.38 216.94 248.01 217.39 248.01C217.84 248.01 218.21 248.38 218.21 248.83Z" fill="#263238"/>
<path d="M219.12 345.73C219.12 346.18 218.75 346.55 218.3 346.55C217.85 346.55 217.48 346.18 217.48 345.73C217.48 345.28 217.85 344.91 218.3 344.91C218.75 344.91 219.12 345.28 219.12 345.73Z" fill="#263238"/>
<path d="M226.64 351.63C226.64 352.08 226.27 352.45 225.82 352.45C225.37 352.45 225 352.08 225 351.63C225 351.18 225.37 350.81 225.82 350.81C226.27 350.81 226.64 351.18 226.64 351.63Z" fill="#263238"/>
<path d="M82.5102 361.47C80.1302 361.47 76.9102 360.03 75.1802 357.52C75.0202 357.29 75.0802 356.98 75.3102 356.82C75.5402 356.66 75.8502 356.72 76.0102 356.95C77.8802 359.64 81.9902 361.08 83.8202 360.23C84.0102 360.14 84.1702 360.03 84.2902 359.89C82.6602 359.14 81.1702 357.66 80.7602 355.41C80.5302 354.14 80.3502 352.43 81.4002 352.19C82.8302 351.87 84.7102 355.34 85.4302 357.97C85.5602 358.46 85.6102 358.91 85.5602 359.31C86.1902 359.48 86.8102 359.53 87.3502 359.45C87.7802 359.39 88.4002 359.21 88.7202 358.7C87.5102 357.88 86.6902 356.43 86.4202 354.51C86.0302 351.78 86.3202 351.3 86.6302 351.07C86.8302 350.92 87.0802 350.89 87.3202 350.99C88.3902 351.45 89.6902 355.32 89.9302 357.52C89.9602 357.76 89.9602 357.99 89.9302 358.21C90.3402 358.37 90.7902 358.46 91.2802 358.47C92.1502 358.52 93.0002 358.24 93.6902 357.84C93.5502 357.75 93.4102 357.65 93.2902 357.54C92.2502 356.65 91.8302 355.24 92.0102 353.21C92.1502 351.64 92.5002 350.79 93.1302 350.52C93.3502 350.42 93.8002 350.33 94.3402 350.76C95.4202 351.62 96.4302 354.36 96.0702 356.32C95.9902 356.73 95.8202 357.11 95.5702 357.47C97.4002 357.79 99.9902 357.27 102.21 356.72C102.48 356.65 102.75 356.82 102.82 357.09C102.89 357.36 102.72 357.63 102.45 357.7C99.7402 358.37 96.8202 358.91 94.7602 358.32C93.8402 359.05 92.5502 359.49 91.2602 359.48C90.6702 359.47 90.1202 359.36 89.6202 359.17C89.2302 359.84 88.4902 360.29 87.5002 360.44C86.8402 360.54 86.0502 360.48 85.2602 360.25C85.0302 360.63 84.7002 360.93 84.2502 361.14C83.7702 361.36 83.1802 361.47 82.5302 361.47H82.5102ZM81.6502 353.19C81.5902 353.34 81.4902 353.85 81.7302 355.23C82.0602 357.07 83.2502 358.29 84.5702 358.94C84.5702 358.73 84.5202 358.49 84.4502 358.23C83.6602 355.37 82.1702 353.4 81.6402 353.19H81.6502ZM87.2202 352.32C87.2202 352.7 87.2502 353.33 87.4002 354.38C87.6002 355.81 88.1302 356.9 88.9202 357.6C88.6902 355.59 87.8002 353.27 87.2202 352.32ZM93.5102 351.45C93.5102 351.45 93.1302 351.64 92.9902 353.31C92.8402 354.99 93.1502 356.13 93.9202 356.79C94.1002 356.94 94.3002 357.07 94.5202 357.17C94.8002 356.86 95.0002 356.51 95.0602 356.14C95.3302 354.69 94.6402 352.57 93.8602 351.71C93.6602 351.49 93.5302 351.44 93.5002 351.44L93.5102 351.45Z" fill="#263238"/>
<path d="M228.87 369.03L231.58 364.33L228.87 359.63H225.97L227.61 364.33L225.97 369.03H228.87Z" fill="#263238"/>
<path d="M226.16 366.78C224.81 366.78 223.71 365.68 223.71 364.33C223.71 362.98 224.81 361.89 226.16 361.89L221.55 360.97L220.33 364.69L222.39 367.83L226.16 366.78Z" fill="#263238"/>
<path d="M226.56 359.63H221.13L218.42 364.33L221.13 369.03H226.56L229.27 364.33L226.56 359.63ZM223.85 366.78C222.5 366.78 221.4 365.68 221.4 364.33C221.4 362.98 222.5 361.89 223.85 361.89C225.2 361.89 226.29 362.98 226.29 364.33C226.29 365.68 225.2 366.78 223.85 366.78Z" fill="#407BFF"/>
<path d="M417.89 359.31L415.88 355.82L417.89 352.33H420.04L418.83 355.82L420.04 359.31H417.89Z" fill="#407BFF"/>
<path d="M419.9 357.64C420.9 357.64 421.72 356.82 421.72 355.82C421.72 354.82 420.9 354.01 419.9 354.01L423.32 353.33L424.23 356.09L422.7 358.42L419.9 357.64Z" fill="#407BFF"/>
<path d="M419.611 352.33H423.641L425.651 355.82L423.641 359.31H419.611L417.601 355.82L419.611 352.33ZM421.621 357.64C422.621 357.64 423.441 356.82 423.441 355.82C423.441 354.82 422.621 354.01 421.621 354.01C420.621 354.01 419.811 354.82 419.811 355.82C419.811 356.82 420.621 357.64 421.621 357.64Z" fill="#263238"/>
<path d="M342.951 363.95H347.471C348.651 363.95 349.611 362.99 349.611 361.81C349.611 360.63 348.651 359.67 347.471 359.67H342.951C341.771 359.67 340.811 360.63 340.811 361.81C340.811 362.99 341.771 363.95 342.951 363.95Z" fill="#263238"/>
<path d="M335.73 359.91C336.85 357.54 339.55 356.47 341.77 357.52C343.99 358.57 344.89 361.33 343.77 363.7C342.65 366.07 339.95 367.14 337.73 366.09C335.51 365.04 334.61 362.28 335.73 359.91Z" fill="#407BFF"/>
<path d="M336.959 366.083L338.198 366.667L342.504 357.531L341.265 356.947L336.959 366.083Z" fill="#263238"/>
</g>
<defs>
<clipPath id="clip0_1287_1162">
<rect width="500" height="372.61" fill="white"/>
</clipPath>
</defs>
</svg>
