<svg width="24" height="12" viewBox="0 0 24 12" fill="none" xmlns="http://www.w3.org/2000/svg">
<path fill-rule="evenodd" clip-rule="evenodd" d="M6.75 6C6.75 5.58579 7.08579 5.25 7.5 5.25H16.5C16.9142 5.25 17.25 5.58579 17.25 6C17.25 6.41421 16.9142 6.75 16.5 6.75H7.5C7.08579 6.75 6.75 6.41421 6.75 6Z" fill="#3F51B5"/>
<path fill-rule="evenodd" clip-rule="evenodd" d="M6 2.25C5.00544 2.25 4.05161 2.64509 3.34835 3.34835C2.64509 4.05161 2.25 5.00544 2.25 6C2.25 6.99456 2.64509 7.94839 3.34835 8.65165C4.05161 9.35491 5.00544 9.75 6 9.75H9.75C10.1642 9.75 10.5 10.0858 10.5 10.5C10.5 10.9142 10.1642 11.25 9.75 11.25H6C4.60761 11.25 3.27226 10.6969 2.28769 9.71231C1.30312 8.72775 0.75 7.39239 0.75 6C0.75 4.60761 1.30312 3.27226 2.28769 2.28769C3.27226 1.30312 4.60761 0.75 6 0.75H9.75C10.1642 0.75 10.5 1.08579 10.5 1.5C10.5 1.91421 10.1642 2.25 9.75 2.25H6Z" fill="#3F51B5"/>
<path fill-rule="evenodd" clip-rule="evenodd" d="M13.5 1.5C13.5 1.08579 13.8358 0.75 14.25 0.75H18C19.3924 0.75 20.7277 1.30312 21.7123 2.28769C22.6969 3.27226 23.25 4.60761 23.25 6C23.25 7.39239 22.6969 8.72775 21.7123 9.71231C20.7277 10.6969 19.3924 11.25 18 11.25H14.25C13.8358 11.25 13.5 10.9142 13.5 10.5C13.5 10.0858 13.8358 9.75 14.25 9.75H18C18.9946 9.75 19.9484 9.35491 20.6516 8.65165C21.3549 7.94839 21.75 6.99456 21.75 6C21.75 5.00544 21.3549 4.05161 20.6516 3.34835C19.9484 2.64509 18.9946 2.25 18 2.25H14.25C13.8358 2.25 13.5 1.91421 13.5 1.5Z" fill="#3F51B5"/>
</svg>
