<svg width="38" height="33" viewBox="0 0 38 33" fill="none" xmlns="http://www.w3.org/2000/svg">
<path fill-rule="evenodd" clip-rule="evenodd" d="M26.6085 1.17103C27.1699 0.609655 28.0801 0.609655 28.6415 1.17103L37.2665 9.79603C37.8278 10.3574 37.8278 11.2676 37.2665 11.829L28.6415 20.454C28.0801 21.0153 27.1699 21.0153 26.6085 20.454C26.0472 19.8926 26.0472 18.9824 26.6085 18.421L34.2171 10.8125L26.6085 3.20397C26.0472 2.64259 26.0472 1.73241 26.6085 1.17103Z" fill="white"/>
<path fill-rule="evenodd" clip-rule="evenodd" d="M11.8125 12.25C9.52501 12.25 7.33121 13.1587 5.7137 14.7762C4.0962 16.3937 3.1875 18.5875 3.1875 20.875C3.1875 23.1625 4.0962 25.3563 5.7137 26.9738C7.33121 28.5913 9.52501 29.5 11.8125 29.5H27.625C28.4189 29.5 29.0625 30.1436 29.0625 30.9375C29.0625 31.7314 28.4189 32.375 27.625 32.375H11.8125C8.76251 32.375 5.83744 31.1634 3.68077 29.0067C1.5241 26.8501 0.3125 23.925 0.3125 20.875C0.3125 17.825 1.5241 14.8999 3.68077 12.7433C5.83744 10.5866 8.76251 9.375 11.8125 9.375H36.25C37.0439 9.375 37.6875 10.0186 37.6875 10.8125C37.6875 11.6064 37.0439 12.25 36.25 12.25H11.8125Z" fill="white"/>
</svg>
