<svg width="18" height="21" viewBox="0 0 18 21" fill="none" xmlns="http://www.w3.org/2000/svg">
<path d="M17.6063 14.4991C17.0494 13.5372 16.3856 11.7156 16.3856 8.5V7.83438C16.3847 3.68313 13.0519 0.280938 8.95502 0.25H8.90252C6.90189 0.252812 5.02127 1.03469 3.60939 2.45125C2.19658 3.86781 1.42033 5.74937 1.42314 7.75V8.5C1.42314 11.7156 0.759392 13.5372 0.201579 14.5C0.0703294 14.7259 1.68474e-05 14.9838 1.68474e-05 15.2444C-0.00185815 15.6447 0.152829 16.0225 0.435954 16.3066C0.719079 16.5906 1.09408 16.7481 1.49814 16.75H5.15345C5.15345 18.8181 6.83533 20.5 8.90346 20.5C10.9716 20.5 12.6535 18.8181 12.6535 16.75H16.3125C16.5741 16.75 16.8319 16.6797 17.0569 16.5494C17.4038 16.3487 17.6522 16.0253 17.7563 15.6391C17.8603 15.2519 17.8069 14.8478 17.6063 14.5V14.4991ZM8.90439 19C7.66408 19 6.65439 17.9903 6.65439 16.75H11.1544C11.1544 17.9903 10.1447 19 8.90439 19ZM11.9091 15.25C11.9091 15.25 11.9063 15.25 11.9044 15.25C11.9025 15.25 11.9016 15.25 11.8997 15.25H5.91377C5.91377 15.25 5.9072 15.25 5.90345 15.25C5.8997 15.25 5.89689 15.25 5.89314 15.25H1.50002C2.14877 14.1287 2.92314 12.0475 2.92314 8.49906V7.74906C2.92127 6.14781 3.54189 4.64219 4.67158 3.50969C5.80127 2.37625 7.30502 1.75094 8.90627 1.74906H8.94564C12.2213 1.77437 14.8856 4.50344 14.8856 7.83344V8.49906C14.8856 12.0475 15.6591 14.1288 16.3106 15.2491H11.9091V15.25Z" fill="white"/>
</svg>
