<svg width="140" height="123" viewBox="0 0 140 123" fill="none" xmlns="http://www.w3.org/2000/svg">
<g clip-path="url(#clip0_2973_5075)">
<path d="M4.50122 26.7728C4.50122 26.7728 38.6575 8.33109 71.1103 36.0816C103.563 63.8322 92.9095 80.1929 100.182 96.1062C107.429 112.018 123.383 117.217 123.383 117.217L1.33203 112.717L4.50122 26.7728Z" fill="#F2DED5"/>
<path d="M108.147 59.2766C107.132 57.9619 107.662 55.3775 109.617 52.9623C112.076 54.8748 113.137 57.3136 112.421 58.8083C112.124 59.4245 111.361 60.2259 110.335 60.2999C109.367 60.3678 108.545 59.7688 108.156 59.2755L108.147 59.2766Z" fill="#FF6F89"/>
<path d="M114.625 49.5812C114.702 51.2474 112.785 53.0555 109.808 53.9175C108.879 50.938 109.407 48.3347 110.859 47.5249C111.454 47.1918 112.54 46.9676 113.43 47.4921C114.268 47.9839 114.594 48.953 114.625 49.5812Z" fill="#FF6F89"/>
<path d="M107.45 47.7644C109.044 48.2501 110.103 50.6699 109.896 53.7643C106.781 53.6272 104.515 52.2486 104.24 50.6136C104.128 49.937 104.285 48.8384 105.084 48.1862C105.83 47.5687 106.855 47.5808 107.459 47.7634L107.45 47.7644Z" fill="#FF6F89"/>
<path d="M114.789 56.9318C113.164 57.3012 111.049 55.7243 109.683 52.9458C112.454 51.513 115.112 51.5854 116.162 52.8676C116.593 53.3945 117.003 54.4309 116.639 55.3894C116.299 56.2976 115.406 56.7973 114.789 56.9318Z" fill="#FF6F89"/>
<path d="M105.22 57.6354C106.87 57.847 108.84 56.0905 109.929 53.1866C107.036 52.0203 104.401 52.3377 103.47 53.7123C103.082 54.2811 102.778 55.3479 103.234 56.2741C103.655 57.1466 104.59 57.5609 105.22 57.6354Z" fill="#FF6F89"/>
<path d="M109.27 51.192L109.535 51.163L110.079 56.1273L109.814 56.1563L109.27 51.192Z" fill="white"/>
<path d="M110.013 56.747C109.767 56.7739 109.547 56.5967 109.52 56.3513C109.493 56.1058 109.67 55.885 109.915 55.8581C110.161 55.8312 110.382 56.0084 110.409 56.2539C110.435 56.4993 110.258 56.7201 110.013 56.747Z" fill="white"/>
<path d="M109.44 51.5177C109.194 51.5446 108.974 51.3675 108.947 51.122C108.92 50.8766 109.097 50.6558 109.342 50.6289C109.588 50.602 109.809 50.7792 109.836 51.0246C109.862 51.2701 109.685 51.4909 109.44 51.5177Z" fill="white"/>
<path d="M107.148 53.8358L112.113 53.292L112.142 53.5568L107.177 54.1006L107.148 53.8358Z" fill="white"/>
<path d="M112.346 53.8501C112.101 53.877 111.88 53.6998 111.853 53.4544C111.826 53.209 112.003 52.9882 112.249 52.9613C112.494 52.9344 112.715 53.1116 112.742 53.357C112.769 53.6025 112.592 53.8232 112.346 53.8501Z" fill="white"/>
<path d="M107.117 54.4229C106.872 54.4498 106.651 54.2726 106.624 54.0272C106.597 53.7817 106.774 53.5609 107.02 53.534C107.265 53.5071 107.486 53.6843 107.513 53.9298C107.54 54.1752 107.363 54.396 107.117 54.4229Z" fill="white"/>
<path d="M107.796 51.9697L111.691 55.0955L111.524 55.3032L107.63 52.1774L107.796 51.9697Z" fill="white"/>
<path d="M111.782 55.778C111.536 55.8049 111.316 55.6277 111.289 55.3823C111.262 55.1368 111.439 54.916 111.684 54.8891C111.93 54.8623 112.151 55.0394 112.178 55.2849C112.204 55.5303 112.027 55.7511 111.782 55.778Z" fill="white"/>
<path d="M107.68 52.4859C107.434 52.5128 107.213 52.3356 107.186 52.0901C107.16 51.8447 107.337 51.6239 107.582 51.597C107.828 51.5701 108.048 51.7473 108.075 51.9928C108.102 52.2382 107.925 52.459 107.68 52.4859Z" fill="white"/>
<path d="M111.114 51.6851L111.321 51.8518L108.196 55.7467L107.988 55.58L111.114 51.6851Z" fill="white"/>
<path d="M111.377 52.0807C111.132 52.1076 110.911 51.9304 110.884 51.685C110.857 51.4395 111.034 51.2188 111.28 51.1919C111.525 51.165 111.746 51.3422 111.773 51.5876C111.8 51.8331 111.623 52.0538 111.377 52.0807Z" fill="white"/>
<path d="M108.085 56.183C107.839 56.2099 107.618 56.0327 107.591 55.7873C107.565 55.5418 107.742 55.3211 107.987 55.2942C108.233 55.2673 108.453 55.4445 108.48 55.6899C108.507 55.9354 108.33 56.1561 108.085 56.183Z" fill="white"/>
</g>
<path d="M136.207 72.3628C135.738 71.4982 134.846 71.3333 133.941 71.3484C133.502 71.3499 133.239 71.3889 132.918 71.0788C132.567 70.7472 132.187 70.5432 131.704 70.5125C130.698 70.4363 129.703 71.0409 128.961 71.6709C127.335 73.0318 125.353 75.9397 123.802 76.3525C123.288 76.3083 122.772 76.2722 122.258 76.2281C126.306 72.2976 130.82 68.8584 135.319 65.4582C135.376 65.4098 137.668 63.9776 137.707 62.6509C137.738 61.5135 136.924 60.7322 135.823 60.5821C134.648 60.4281 133.542 60.8568 132.595 61.5192C132.352 61.5367 132.35 61.3541 132.281 61.2185C132.17 61.0426 132.016 60.8681 131.858 60.7258C131.446 60.3674 130.887 60.1917 130.343 60.1757C129.175 60.1304 128.215 60.8733 127.691 61.8793C127.083 63.0451 127.155 64.357 127.134 65.6287C127.095 68.0566 125.252 71.4184 123.993 72.4178C121.226 74.8641 118.631 77.4714 116.342 80.3284C115.936 78.9857 115.654 77.5973 115.621 76.2007C115.983 74.8698 117.4 74.2194 118.612 73.8497C120.052 73.4102 121.733 73.1598 122.918 72.1563C123.402 71.7399 123.685 71.1825 123.627 70.5353C123.581 70.064 123.34 69.6679 123.42 69.1925C123.591 68.2108 124.274 67.4385 124.085 66.3884C123.861 65.1423 122.623 64.5223 121.44 64.5657C120.089 64.6225 118.892 65.4501 117.995 66.4106C117.019 67.4489 116.257 68.7463 115.548 69.9699C114.851 71.1707 114.348 72.4532 114.127 73.8324C114.008 74.5495 113.972 75.2639 113.976 75.985C113.973 76.0012 113.952 76.3288 113.99 76.451C114.061 78.1604 114.433 79.8617 114.982 81.485C115.025 81.6247 115.099 81.728 115.185 81.8086C113.595 83.9536 112.167 86.2168 110.975 88.6518C109.221 92.227 107.916 95.9928 106.816 99.8176C105.825 97.9057 104.737 94.2468 105.115 93.3657C105.862 91.6104 107.108 90.1946 108.359 88.846C109.429 87.6908 110.906 86.0816 110.855 84.3923C110.843 83.9183 110.666 83.4913 110.351 83.1409C110.177 82.9463 110.059 82.9101 110.077 82.6482C110.087 82.4427 110.205 82.2305 110.279 82.0358C110.603 81.2286 111.005 80.4094 110.921 79.5177C110.839 78.6677 110.359 77.8179 109.522 77.5214C108.671 77.2141 107.838 77.5891 107.245 78.2191C106.561 78.9498 106.201 79.9664 105.788 80.8582C105.321 81.8736 104.768 82.8581 104.385 83.9123C102.802 88.2529 102.937 96.506 105.984 101.633C106.062 101.762 106.156 101.844 106.254 101.902C105.613 104.263 105.033 106.651 104.458 109.014C104.213 110.042 105.819 110.342 106.063 109.322C106.988 105.502 107.923 101.674 109.11 97.9221C109.719 96.0029 110.413 94.1227 111.188 92.2975C111.316 92.3767 118.942 92.2292 125.261 84.0062C125.347 83.9377 125.421 83.8423 125.481 83.7282C126.181 82.3126 126.663 80.1075 124.788 79.3319C124.075 79.0394 123.29 79.2317 122.641 79.5958C121.855 80.0446 121.393 80.8786 120.628 81.3475C120.222 81.5948 119.787 81.5721 119.336 81.6958C118.918 81.8168 118.542 82.0358 118.22 82.33C117.556 82.9398 117.192 83.7819 116.943 84.6347C116.441 86.3564 116.743 89.0232 114.09 90.1883C113.366 90.4074 112.623 90.5903 111.873 90.7221C113.743 86.6943 116.1 82.9296 119.107 79.5379C119.647 78.9321 120.2 78.3451 120.761 77.7594C120.761 77.7594 120.777 77.7621 120.785 77.7634C123.566 77.9693 126.422 78.3699 129.213 78.1219C131.549 77.9143 134.041 77.1199 135.641 75.3159C136.345 74.5221 136.763 73.3993 136.226 72.3991L136.207 72.3628Z" fill="#F2DED5"/>
<g clip-path="url(#clip1_2973_5075)">
<path d="M55.2223 25.6691C58.4646 21.2855 62.443 17.4927 66.7651 14.1639C67.2621 13.7804 67.7803 13.3937 68.3918 13.2791C69.0063 13.1554 69.7363 13.3915 69.984 13.9655C70.148 14.331 70.0852 14.7743 70.2854 15.1212C70.5505 15.6102 71.2069 15.762 71.7675 15.7115C72.3281 15.6611 72.8814 15.4772 73.4369 15.536C73.9924 15.5947 74.5844 16.008 74.553 16.5723C74.5216 17.1366 73.8795 17.5639 73.927 18.1336C73.9678 18.6306 74.5193 18.9198 75.0112 18.9882C75.5031 19.0566 76.0242 19.0035 76.4689 19.2179C77.078 19.5157 77.3577 20.2714 77.2635 20.9364C77.1694 21.6013 76.7591 22.1842 76.2903 22.6675C75.6141 23.3559 74.797 23.8878 73.9858 24.4014C69.5501 27.24 65.0714 30.0243 60.9427 33.2846C56.814 36.545 53.0144 40.3149 50.246 44.7914C50.1145 45.0109 49.9014 45.2645 49.6492 45.203C49.5032 45.1558 49.4079 45.0141 49.3309 44.8783C48.7233 43.7344 48.2654 42.3768 48.2053 41.0673C48.1561 39.973 48.6431 38.8102 48.9555 37.7824C49.8283 34.9907 51.0357 32.3174 52.4992 29.7873C53.3235 28.3607 54.2394 26.994 55.2131 25.6661L55.2223 25.6691Z" fill="#B05A5A"/>
<path d="M51.9866 39.3172C53.9923 39.4419 55.9969 39.788 58.0068 39.7125C62.1268 39.5637 66.01 37.6853 69.3731 35.2961C72.7362 32.9068 75.6915 30.0026 78.8981 27.4116C79.4431 26.9731 80.0305 26.5281 80.7213 26.4492C81.412 26.3703 82.2104 26.7999 82.2681 27.4938C82.2984 27.8362 82.1498 28.1711 82.2255 28.498C82.3707 29.1396 83.2031 29.3081 83.8584 29.3386C84.5199 29.3813 85.3494 29.5589 85.4704 30.2129C85.5912 30.8365 84.9295 31.4489 85.1501 32.0444C85.4233 32.7576 86.6472 32.6194 86.9687 33.308C87.1697 33.7459 86.8861 34.2488 86.574 34.6215C85.776 35.593 86.1957 36.4141 85.2233 37.2082C82.333 39.569 79.4336 41.9269 76.4665 44.1822C73.4844 46.4528 68.9489 48.6341 65.3713 49.7547C63.7684 50.2541 62.0575 50.5271 60.4141 50.2172C57.2671 49.6326 54.8851 47.0882 52.8917 44.5889C52.2171 43.7458 51.5574 42.8874 50.7835 42.1331C50.3766 41.7394 49.9427 41.3672 49.476 41.0651C49.1344 40.8437 48.2411 40.6454 48.0111 40.3594C47.0573 39.1639 51.4223 39.2858 51.9958 39.3202L51.9866 39.3172Z" fill="#B05A5A"/>
<path d="M67.8851 48.3707C73.8303 47.5021 79.6427 45.6734 85.0077 42.9843C86.6199 42.1754 88.2525 41.2723 90.0459 41.0562C90.5064 41.0036 91.0922 41.0621 91.275 41.4941C91.5541 42.1891 90.4673 42.7447 90.4466 43.4939C90.4204 44.2917 91.5024 44.5611 92.2902 44.4934C93.0781 44.4258 94.1244 44.4316 94.3737 45.1876C94.71 46.1732 93.1955 47.054 93.4864 48.0552C93.6332 48.5361 94.142 48.8014 94.4608 49.1868C95.2826 50.1984 94.5895 51.7178 93.7187 52.696C91.2114 55.4931 87.4905 56.8697 83.8348 57.7331C80.3758 58.5493 76.8347 58.9962 73.2842 59.0672C71.377 59.1054 69.4172 59.0258 67.6458 58.3016C65.8683 57.5653 64.4159 56.2287 63.1205 54.8119C61.176 52.6912 58.8289 49.9767 57.8613 47.2347C61.2692 48.5084 64.1902 48.9191 67.8821 48.3799L67.8851 48.3707Z" fill="#B05A5A"/>
<path d="M54.5509 5.40521C55.0959 4.96671 55.8108 4.53275 56.4258 4.81235C57.4944 5.27896 57.1518 7.33507 58.3004 7.58566C58.8564 7.70506 59.3305 7.14285 59.9053 6.98611C61.5449 6.52877 61.1927 8.1786 61.2238 8.61199C61.2619 9.14842 61.928 9.36387 62.4615 9.33487C62.9949 9.30587 63.2558 8.96692 63.7189 9.21755C64.2339 9.495 64.3917 10.1911 64.2423 10.7777C64.0837 11.3614 63.6938 11.8501 63.3098 12.3205C61.6357 14.349 59.9339 16.3384 58.1803 18.3009C56.9822 19.6368 55.7717 20.9485 54.6957 22.3743C50.4753 27.9433 48.4525 35.1 49.1771 41.8956C49.0743 40.9049 48.1564 39.6606 47.8022 38.6994C47.3704 37.5417 47.008 36.3562 46.7031 35.1489C46.0931 32.704 45.7401 30.181 45.6477 27.6314C45.4886 23.0445 45.9089 17.1029 48.2281 12.9246C49.7951 10.1056 52.0427 7.42599 54.5571 5.41729L54.5509 5.40521Z" fill="#B05A5A"/>
<path d="M71.9801 48.4859C73.4305 47.5542 75.2421 44.9452 76.2883 43.5803C76.756 42.9757 77.0603 42.0663 76.5729 41.4853C76.3676 41.2476 76.0601 41.1077 75.894 40.8424C75.3438 40.0194 76.4351 38.6086 75.6325 38.0365C75.3883 37.8567 75.0427 37.8659 74.7805 37.7105C73.6681 37.0987 74.8893 34.9438 73.8218 34.2558C73.6052 34.1152 73.3229 34.0843 73.1063 33.9437C72.539 33.5788 72.5954 32.7504 72.2959 32.1496C72.0055 31.5517 71.2927 31.2002 70.6417 31.3121C69.9907 31.4241 69.8085 30.3673 69.9574 29.72C70.1063 29.0728 70.223 28.2135 69.632 27.9216C69.3275 27.7726 68.9461 27.861 68.6265 27.7273C67.7407 27.3501 68.1968 25.7842 67.4065 25.2363C66.964 24.9218 66.3135 25.0944 65.838 24.8196C64.8381 24.2341 65.3903 22.2156 64.2715 21.904C63.7547 21.757 63.1638 22.1504 62.6735 21.9213C62.0584 21.6417 62.1502 20.7038 61.7028 20.1862C61.3596 19.7829 60.7617 19.7306 60.2341 19.7413C55.765 19.8478 51.7267 23.0467 49.8401 27.1028C47.9444 31.1561 47.9623 35.8989 49.0168 40.2413C49.4009 41.8269 49.949 43.4354 51.0605 44.6416C51.9762 45.6433 53.3716 46.0342 54.4195 46.9074C62.2011 53.3856 67.816 51.1704 71.9863 48.498L71.9801 48.4859Z" fill="#F9C485"/>
<path d="M92.0528 53.9511C91.3736 53.2779 90.2216 53.6611 89.4042 54.1627C88.5869 54.6643 87.6278 55.2611 86.742 54.8839C86.3432 54.7145 86.0458 54.3563 85.7098 54.0864C84.7752 53.3305 83.4667 53.1692 82.2766 53.3587C81.0864 53.5482 79.9779 54.0463 78.8538 54.4991C77.0497 55.2157 74.4307 56.364 72.4913 56.5329C70.0762 56.7394 68.3061 56.5095 66.9313 56.0547C66.9587 56.0635 66.977 56.0694 67.0043 56.0783C68.3501 56.3423 69.749 56.4421 71.0932 56.1814C73.7149 55.679 75.9129 53.9005 77.7027 51.9195C78.0781 51.5068 78.4562 51.0546 78.5909 50.5136C78.7256 49.9726 78.5469 49.31 78.0442 49.0567C77.6087 48.8453 76.9665 48.9298 76.7443 48.4951C76.6024 48.2174 76.7419 47.8795 76.7421 47.5672C76.7488 46.9545 76.1405 46.405 75.5316 46.4801C75.0681 46.5419 74.4641 46.8202 74.2542 46.4096C74.1802 46.2647 74.2089 46.0825 74.2196 45.9247C74.237 45.1543 73.6214 44.4714 72.8944 44.2261C72.1674 43.9809 71.3557 44.0912 70.6239 44.3282C68.1232 45.1419 66.0868 47.3556 63.4618 47.4942C61.637 47.5893 57.5816 46.1363 55.9125 45.3142C57.4914 45.5427 61.4606 46.1716 63.0203 45.9303C63.9319 45.7918 64.8332 45.529 65.6511 45.0881C67.3624 44.1601 68.5669 42.5239 69.571 40.8531C69.8131 40.4476 70.0634 39.9541 69.8594 39.5253C69.5071 38.7763 68.2109 38.9819 67.8315 38.2545C67.4241 37.4575 68.5275 36.3832 67.9693 35.6786C67.4264 34.9889 66.0224 35.6837 65.5699 34.9327C65.2283 34.3686 65.8586 33.6352 65.6469 33.0123C65.4848 32.5164 64.8796 32.3308 64.3666 32.2656C61.2727 31.8594 58.1288 32.9791 55.5302 34.7186C54.255 35.5761 52.3807 37.6003 51.2802 38.6654C51.7589 37.248 51.2414 35.3269 55.2225 30.8093C56.2553 29.6417 57.169 28.3751 58.0888 27.1205C58.6821 26.3146 59.287 25.4419 59.369 24.4404C59.3768 24.2918 59.3784 24.131 59.3105 23.9982C58.9592 23.3705 57.695 24.1005 57.3891 23.4573C57.7624 22.802 58.1563 22.0828 58.0586 21.3255C57.97 20.5711 57.133 19.8872 56.4567 20.2328C56.2847 20.3284 56.1162 20.4754 55.9157 20.4408C55.5543 20.3743 55.6224 19.8521 55.7163 19.4995C55.9135 18.8275 55.7353 17.8829 55.0397 17.7587C54.5264 17.6632 54.1333 18.1307 53.7267 18.4527C51.9651 19.8482 50.4334 20.8444 48.4552 24.498C47.8526 25.6133 47.5848 26.8773 47.4019 28.1283C47.122 30.0838 47.0153 32.065 47.2057 34.0315C47.2661 34.686 47.3538 35.3493 47.4051 36.0009C46.6753 32.3683 45.2848 26.3852 50.3753 18.4067C51.0663 17.33 52.1391 16.2257 51.7703 14.9978C51.5704 14.3384 51.0232 13.849 50.7749 13.2144C50.3155 12.0175 51.0257 10.7254 51.6069 9.58302C52.1881 8.44063 52.5839 6.90566 51.6811 5.98874C50.9896 5.29133 49.8072 5.33217 48.9533 5.82194C48.1024 6.30259 47.5124 7.12967 46.9403 7.93232C46.2933 8.84179 45.6617 9.76628 44.9965 10.6698C39.9418 17.5715 41.2766 24.1009 41.8149 30.413C41.9602 32.0827 46.497 41.3008 45.8702 43.7992C45.4103 45.6259 45.2606 46.5249 45.9549 46.8401C46.2015 46.9502 47.7523 47.4216 48.2235 47.5539C51.5101 48.486 54.4585 50.2763 57.3919 52.0819C59.7658 54.0593 60.5634 55.4259 63.1176 57.2197C66.9047 59.876 71.7109 60.8461 76.3265 60.5049C80.9421 60.1636 85.3891 58.5987 89.5468 56.5572C90.6851 55.9981 91.9396 55.2046 92.0437 53.9482L92.0528 53.9511Z" fill="#D96F6F"/>
<path d="M57.1663 51.9384C57.4354 51.1687 52.3712 46.7589 50.2936 46.0465C51.7596 46.1881 52.8166 45.6935 54.1452 45.0449C55.03 44.6155 55.6324 43.8125 56.235 43.0399C55.4211 42.565 54.5412 42.1695 53.6006 42.1172C52.7298 42.0673 51.8738 42.3145 51.0637 42.6068C50.1416 42.9334 49.408 43.3008 48.5385 43.7452C49.4259 42.591 50.3222 41.4094 50.777 40.0346C51.202 38.7208 50.5278 36.5676 50.3549 35.2014C49.5662 35.5208 48.9475 36.1874 48.5264 36.9281C48.1054 37.6687 47.8489 38.4928 47.6045 39.3108C47.3598 40.0984 47.096 40.7891 46.8513 41.5767C46.8115 38.4596 45.5238 35.1807 42.9307 33.4448C42.6194 34.9366 42.6426 36.5164 43.1528 37.9614C43.6257 39.3037 44.4973 40.4726 45.0488 41.7899C45.5912 43.1042 45.7424 44.7557 44.8332 45.8524C44.5032 46.2496 44.6063 46.928 45.0305 47.2366C45.4457 47.5422 45.995 47.5889 46.5105 47.5843C47.026 47.5797 47.553 47.5083 48.0605 47.6221C49.4978 47.9459 50.7524 48.8658 51.7957 49.9088C54.5709 52.6711 56.3049 52.2645 57.1601 51.9263L57.1663 51.9384Z" fill="#489C9E"/>
<path d="M47.3078 47.8926C39.4791 51.4678 32.8098 57.5347 28.4389 64.9397C23.9425 72.546 22.0411 81.4151 22.835 90.2086C23.2954 95.2659 24.662 100.264 26.8922 104.835C27.1517 105.373 27.1238 105.988 26.5933 106.351C26.1532 106.652 25.3399 106.581 25.0774 106.052C20.8983 97.504 19.5079 87.7818 21.1592 78.4085C22.7496 69.3481 27.3114 60.9164 33.908 54.5136C37.6272 50.899 41.9105 47.9709 46.6283 45.8183C47.9058 45.2337 48.5824 47.3172 47.3169 47.8955L47.3078 47.8926Z" fill="#489C9E"/>
<path d="M54.8382 60.5685C54.2591 61.2681 53.6801 61.9678 53.098 62.6765C56.6693 63.227 60.1085 64.6217 63.0505 66.7123C62.6469 67.0252 62.2342 67.3352 61.8277 67.6572C66.9961 68.7849 70.0086 74.0227 72.3796 78.7507C70.1417 80.1231 67.4912 80.8078 64.8761 80.6976C65.2553 81.3947 65.6345 82.0919 66.0046 82.7861C62.7431 83.3033 59.3686 83.0483 56.2179 82.0391C56.8612 83.1039 57.4924 84.1749 58.1356 85.2397C51.2016 87.4514 43.9064 84.5171 38.5735 79.5668C28.2382 69.9847 29.959 61.2689 29.959 61.2689C29.959 61.2689 38.947 53.3618 54.8353 60.5777L54.8382 60.5685Z" fill="#68ACAF"/>
<path d="M38.5764 79.5576C43.9093 84.5079 51.2045 87.4423 58.1386 85.2305C57.4953 84.1657 56.8641 83.0948 56.2208 82.03C59.3654 83.027 62.749 83.2851 66.0076 82.7769C65.6283 82.0798 65.2491 81.3826 64.8791 80.6884C67.5032 80.8016 70.1475 80.1048 72.3826 78.7415C69.5119 76.1499 62.5084 73.965 51.2718 72.1544C39.8894 70.3268 29.9619 61.2597 29.9619 61.2597C29.9619 61.2597 29.923 61.6604 29.8619 62.2856C29.7573 64.8521 30.3509 71.9279 38.5764 79.5576Z" fill="#489C9E"/>
</g>
<path d="M19.4737 17.9401C18.4589 16.6255 18.9891 14.0411 20.9446 11.6259C23.4029 13.5384 24.4644 15.9771 23.7477 17.4719C23.4516 18.0881 22.6877 18.8895 21.6623 18.9635C20.6937 19.0314 19.8721 18.4324 19.4831 17.9391L19.4737 17.9401Z" fill="#FF6F89"/>
<path d="M25.9518 8.24492C26.0291 9.91109 24.1124 11.7192 21.135 12.5812C20.2058 9.60168 20.734 6.99837 22.1859 6.18859C22.781 5.85545 23.8665 5.63127 24.7565 6.15578C25.5951 6.64764 25.9213 7.61669 25.9518 8.24492Z" fill="#FF6F89"/>
<path d="M18.7768 6.42802C20.3707 6.9137 21.43 9.33351 21.2236 12.4279C18.1081 12.2907 15.8422 10.9122 15.5674 9.27722C15.455 8.60054 15.6122 7.50198 16.4115 6.84982C17.1573 6.23224 18.1825 6.24433 18.7863 6.42699L18.7768 6.42802Z" fill="#FF6F89"/>
<path d="M26.1162 15.5954C24.4916 15.9648 22.3763 14.3879 21.0097 11.6094C23.7809 10.1766 26.4396 10.249 27.4891 11.5311C27.9201 12.0581 28.3303 13.0945 27.9664 14.053C27.6257 14.9611 26.733 15.4608 26.1162 15.5954Z" fill="#FF6F89"/>
<path d="M16.547 16.299C18.197 16.5106 20.1673 14.7541 21.2558 11.8501C18.3625 10.6839 15.7275 11.0012 14.7967 12.3759C14.4093 12.9447 14.1051 14.0115 14.5606 14.9377C14.9815 15.8102 15.9169 16.2245 16.547 16.299Z" fill="#FF6F89"/>
<path d="M20.5968 9.85567L20.8616 9.82666L21.4054 14.791L21.1407 14.82L20.5968 9.85567Z" fill="white"/>
<path d="M21.3395 15.4106C21.094 15.4375 20.8732 15.2603 20.8464 15.0148C20.8195 14.7694 20.9966 14.5486 21.2421 14.5217C21.4875 14.4948 21.7083 14.672 21.7352 14.9174C21.7621 15.1629 21.5849 15.3837 21.3395 15.4106Z" fill="white"/>
<path d="M20.7662 10.1813C20.5208 10.2082 20.3 10.031 20.2731 9.78558C20.2462 9.54013 20.4234 9.31935 20.6689 9.29246C20.9143 9.26557 21.1351 9.44275 21.162 9.6882C21.1889 9.93365 21.0117 10.1544 20.7662 10.1813Z" fill="white"/>
<path d="M18.4754 12.4994L23.4397 11.9556L23.4687 12.2203L18.5044 12.7642L18.4754 12.4994Z" fill="white"/>
<path d="M23.673 12.5137C23.4275 12.5406 23.2067 12.3634 23.1799 12.118C23.153 11.8725 23.3301 11.6517 23.5756 11.6249C23.821 11.598 24.0418 11.7751 24.0687 12.0206C24.0956 12.266 23.9184 12.4868 23.673 12.5137Z" fill="white"/>
<path d="M18.444 13.0865C18.1985 13.1134 17.9777 12.9362 17.9508 12.6907C17.924 12.4453 18.1011 12.2245 18.3466 12.1976C18.592 12.1707 18.8128 12.3479 18.8397 12.5934C18.8666 12.8388 18.6894 13.0596 18.444 13.0865Z" fill="white"/>
<path d="M19.1229 10.6332L23.0178 13.7589L22.8511 13.9666L18.9562 10.8409L19.1229 10.6332Z" fill="white"/>
<path d="M23.1085 14.4416C22.8631 14.4685 22.6423 14.2913 22.6154 14.0458C22.5885 13.8004 22.7657 13.5796 23.0111 13.5527C23.2566 13.5258 23.4774 13.703 23.5043 13.9485C23.5311 14.1939 23.354 14.4147 23.1085 14.4416Z" fill="white"/>
<path d="M19.006 11.1495C18.7605 11.1763 18.5398 10.9992 18.5129 10.7537C18.486 10.5083 18.6632 10.2875 18.9086 10.2606C19.1541 10.2337 19.3748 10.4109 19.4017 10.6563C19.4286 10.9018 19.2514 11.1226 19.006 11.1495Z" fill="white"/>
<path d="M22.4402 10.3487L22.6479 10.5154L19.5222 14.4103L19.3145 14.2435L22.4402 10.3487Z" fill="white"/>
<path d="M22.7037 10.7443C22.4583 10.7712 22.2375 10.594 22.2106 10.3486C22.1837 10.1031 22.3609 9.88234 22.6064 9.85545C22.8518 9.82856 23.0726 10.0057 23.0995 10.2512C23.1264 10.4966 22.9492 10.7174 22.7037 10.7443Z" fill="white"/>
<path d="M19.4112 14.8466C19.1658 14.8735 18.945 14.6963 18.9181 14.4509C18.8912 14.2054 19.0684 13.9846 19.3139 13.9577C19.5593 13.9309 19.7801 14.108 19.807 14.3535C19.8339 14.5989 19.6567 14.8197 19.4112 14.8466Z" fill="white"/>
<defs>
<clipPath id="clip0_2973_5075">
<rect width="122.134" height="93.0012" fill="white" transform="matrix(0.999321 0.0368501 0.0368501 -0.999321 1.33203 112.717)"/>
</clipPath>
<clipPath id="clip1_2973_5075">
<rect width="61.9579" height="106.223" fill="white" transform="matrix(0.951457 0.307781 0.307781 -0.951457 12.969 102.387)"/>
</clipPath>
</defs>
</svg>
