<svg width="26" height="26" viewBox="0 0 26 26" fill="none" xmlns="http://www.w3.org/2000/svg">
<path fill-rule="evenodd" clip-rule="evenodd" d="M13 2C6.92487 2 2 6.92487 2 13C2 19.0751 6.92487 24 13 24C19.0751 24 24 19.0751 24 13C24 6.92487 19.0751 2 13 2ZM0 13C0 5.8203 5.8203 0 13 0C20.1797 0 26 5.8203 26 13C26 20.1797 20.1797 26 13 26C5.8203 26 0 20.1797 0 13Z" fill="black"/>
<path fill-rule="evenodd" clip-rule="evenodd" d="M13 5C13.5523 5 14 5.44772 14 6V12H20C20.5523 12 21 12.4477 21 13C21 13.5523 20.5523 14 20 14H13C12.4477 14 12 13.5523 12 13V6C12 5.44772 12.4477 5 13 5Z" fill="black"/>
</svg>
