<svg width="30" height="22" viewBox="0 0 30 22" fill="none" xmlns="http://www.w3.org/2000/svg">
<path fill-rule="evenodd" clip-rule="evenodd" d="M4.3393 3.22994C2.59225 4.01611 2 4.89598 2 5.5C2 6.10402 2.59225 6.98389 4.3393 7.77006C5.99248 8.51399 8.34649 9 11 9C13.6535 9 16.0075 8.51399 17.6607 7.77006C19.4077 6.98389 20 6.10402 20 5.5C20 4.89598 19.4077 4.01611 17.6607 3.22994C16.0075 2.48601 13.6535 2 11 2C8.34649 2 5.99248 2.48601 4.3393 3.22994ZM3.51857 1.4061C5.48468 0.521349 8.13066 0 11 0C13.8693 0 16.5153 0.521349 18.4814 1.4061C20.3537 2.24861 22 3.61874 22 5.5C22 7.38126 20.3537 8.75139 18.4814 9.5939C16.5153 10.4787 13.8693 11 11 11C8.13066 11 5.48468 10.4787 3.51857 9.5939C1.64633 8.75139 0 7.38126 0 5.5C0 3.61874 1.64633 2.24861 3.51857 1.4061Z" fill="#F5A623"/>
<path fill-rule="evenodd" clip-rule="evenodd" d="M1 4.5C1.55228 4.5 2 4.94772 2 5.5V10.5C2 11.1054 2.59221 11.9852 4.33842 12.7709C5.99122 13.5145 8.34521 14 11 14C13.6548 14 16.0088 13.5145 17.6616 12.7709C19.4078 11.9852 20 11.1054 20 10.5V5.5C20 4.94772 20.4477 4.5 21 4.5C21.5523 4.5 22 4.94772 22 5.5V10.5C22 12.3821 20.3547 13.7523 18.4822 14.5948C16.5162 15.4793 13.8702 16 11 16C8.12979 16 5.48378 15.4793 3.51783 14.5948C1.64529 13.7523 0 12.3821 0 10.5V5.5C0 4.94772 0.447715 4.5 1 4.5Z" fill="#F5A623"/>
<path fill-rule="evenodd" clip-rule="evenodd" d="M7 8.625C7.55228 8.625 8 9.07271 8 9.625V14.625C8 15.1773 7.55228 15.625 7 15.625C6.44772 15.625 6 15.1773 6 14.625V9.625C6 9.07271 6.44772 8.625 7 8.625Z" fill="#F5A623"/>
<path fill-rule="evenodd" clip-rule="evenodd" d="M20.0043 6.99472C20.0556 6.44482 20.5429 6.04056 21.0928 6.09178C23.4676 6.31299 25.6083 6.89883 27.189 7.75913C28.7143 8.58928 30 9.84589 30 11.5C30 13.382 28.3547 14.7523 26.4822 15.5947C24.5162 16.4792 21.8702 17 19 17C16.4495 17 14.0783 16.5847 12.2121 15.8866C11.6949 15.6931 11.4324 15.1169 11.6259 14.5996C11.8194 14.0823 12.3956 13.8199 12.9129 14.0134C14.5217 14.6152 16.6505 15 19 15C21.6548 15 24.0088 14.5144 25.6616 13.7708C27.4078 12.9852 28 12.1054 28 11.5C28 10.979 27.567 10.2419 26.2329 9.5158C24.9542 8.81986 23.095 8.28694 20.9073 8.08316C20.3574 8.03193 19.9531 7.54462 20.0043 6.99472Z" fill="#F5A623"/>
<path fill-rule="evenodd" clip-rule="evenodd" d="M29 10.5C29.5523 10.5 30 10.9477 30 11.5L30 16.5C30 18.3821 28.3547 19.7523 26.4822 20.5948C24.5162 21.4793 21.8702 22 19 22C16.1298 22 13.4838 21.4793 11.5178 20.5948C9.64529 19.7523 8 18.3821 8 16.5V14.9125C8 14.3602 8.44771 13.9125 9 13.9125C9.55229 13.9125 10 14.3602 10 14.9125V16.5C10 17.1054 10.5922 17.9852 12.3384 18.7709C13.9912 19.5145 16.3452 20 19 20C21.6548 20 24.0088 19.5145 25.6616 18.7709C27.4078 17.9852 28 17.1054 28 16.5L28 11.5C28 10.9477 28.4477 10.5 29 10.5Z" fill="#F5A623"/>
<path fill-rule="evenodd" clip-rule="evenodd" d="M23 14.625C23.5523 14.625 24 15.0727 24 15.625V20.625C24 21.1773 23.5523 21.625 23 21.625C22.4477 21.625 22 21.1773 22 20.625V15.625C22 15.0727 22.4477 14.625 23 14.625Z" fill="#F5A623"/>
<path fill-rule="evenodd" clip-rule="evenodd" d="M15 8.625C15.5523 8.625 16 9.07271 16 9.625V20.625C16 21.1773 15.5523 21.625 15 21.625C14.4477 21.625 14 21.1773 14 20.625V9.625C14 9.07271 14.4477 8.625 15 8.625Z" fill="#F5A623"/>
</svg>
