<svg width="366" height="366" viewBox="0 0 366 366" fill="none" xmlns="http://www.w3.org/2000/svg">
<path d="M80.52 311.832C139.153 339.772 234.167 339.772 292.8 311.832C351.433 283.891 351.36 238.632 292.8 210.691C234.24 182.751 139.182 182.758 80.5785 210.691C21.9746 238.624 21.96 283.906 80.52 311.832Z" fill="#EBEBEB"/>
<path d="M269.435 104.163L272.128 102.092V96.1627C272.128 91.4705 275.869 86.0171 279.939 83.6674C284.009 81.3177 287.31 83.2209 287.31 87.9203V88.7768C288.166 87.3875 289.334 86.217 290.721 85.3583C293.649 83.6674 296.028 85.0363 296.028 88.4181V88.8134L301.416 85.7024C303.341 84.5897 304.907 85.4901 304.907 87.7154C304.841 88.9266 304.49 90.1052 303.884 91.1557C303.277 92.2061 302.432 93.0989 301.416 93.7617L269.435 112.223C267.509 113.335 265.943 112.435 265.943 110.21C266.009 108.999 266.36 107.82 266.966 106.769C267.573 105.719 268.419 104.826 269.435 104.163Z" fill="#EBEBEB"/>
<path d="M76.1939 265.306C75.8133 265.24 75.4107 265.123 74.9569 265.006C73.4273 264.596 71.9198 264.107 70.4404 263.542C67.4897 262.471 64.7069 260.985 62.1762 259.128C60.7882 258.141 59.6008 256.899 58.6772 255.468C57.7541 254.019 57.4263 252.27 57.7622 250.586C57.9482 249.754 58.3681 248.993 58.9726 248.393C59.577 247.792 60.3406 247.377 61.1733 247.196C61.9566 247.072 62.7691 247.196 63.5523 247.057C63.9533 247.025 64.3336 246.866 64.6378 246.603C64.942 246.339 65.1541 245.986 65.2432 245.593C65.2464 245.144 65.1247 244.703 64.8919 244.32C63.4697 241.715 62.2462 239.006 61.2319 236.216C60.3828 233.727 60.3316 231.035 61.0855 228.516C61.7256 226.009 63.0964 223.749 65.0236 222.023C65.902 221.291 67.1171 220.661 68.1785 221.123C68.516 221.294 68.8124 221.537 69.0474 221.834C69.2824 222.131 69.4505 222.475 69.5401 222.843C69.7039 223.578 69.7874 224.329 69.7889 225.083C69.8935 226.704 70.2034 228.305 70.7113 229.848C70.9386 230.812 71.4919 231.668 72.2777 232.271C73.6393 233.12 75.5132 232.454 76.9625 233.142C78.4119 233.83 78.9097 235.411 78.9755 236.905C79.0414 238.398 78.7413 239.906 78.9097 241.392C78.9391 241.86 79.0878 242.314 79.3415 242.709C79.7445 243.141 80.2111 243.509 80.725 243.8C81.4003 244.359 81.9416 245.062 82.309 245.857C82.6764 246.653 82.8605 247.521 82.8478 248.397C82.8034 250.148 82.4695 251.879 81.8596 253.521C81.1876 255.816 80.6981 258.161 80.3956 260.533C80.157 261.987 79.5411 263.353 78.6096 264.494C78.3332 264.854 77.9559 265.123 77.5256 265.268C77.0954 265.413 76.6318 265.426 76.1939 265.306Z" fill="#407BFF"/>
<path d="M78.6243 264.091C78.5811 264.09 78.5389 264.078 78.5017 264.057C78.4644 264.035 78.4335 264.004 78.412 263.966C69.8695 249.561 67.1685 239.415 66.3999 233.435C65.5581 226.92 66.7439 223.867 66.7951 223.743C66.8072 223.712 66.8251 223.684 66.848 223.66C66.8709 223.636 66.8982 223.617 66.9284 223.604C66.9587 223.591 66.9913 223.584 67.0243 223.583C67.0573 223.582 67.0901 223.588 67.1209 223.6C67.1516 223.612 67.1797 223.63 67.2036 223.653C67.2274 223.676 67.2465 223.703 67.2597 223.734C67.273 223.764 67.2801 223.796 67.2808 223.829C67.2815 223.862 67.2756 223.895 67.2636 223.926C67.2636 223.977 66.0778 227.044 66.9049 233.442C67.6369 239.364 70.3746 249.422 78.8439 263.717C78.861 263.746 78.8723 263.777 78.8771 263.81C78.882 263.843 78.8803 263.876 78.8721 263.908C78.8639 263.94 78.8494 263.97 78.8295 263.996C78.8096 264.023 78.7846 264.045 78.756 264.062C78.7149 264.081 78.6698 264.091 78.6243 264.091Z" fill="white"/>
<path d="M74.0565 255.739C63.6475 254.597 60.7048 251.178 60.5804 251.032C60.5339 250.985 60.5078 250.922 60.5078 250.856C60.5078 250.791 60.5339 250.727 60.5804 250.681C60.603 250.657 60.6302 250.638 60.6604 250.625C60.6906 250.612 60.7232 250.605 60.7561 250.605C60.789 250.605 60.8215 250.612 60.8517 250.625C60.882 250.638 60.9092 250.657 60.9318 250.681C60.9318 250.717 63.9037 254.092 74.0712 255.212C74.1308 255.222 74.1848 255.253 74.2238 255.299C74.2628 255.345 74.2842 255.404 74.2842 255.464C74.2842 255.525 74.2628 255.583 74.2238 255.63C74.1848 255.676 74.1308 255.707 74.0712 255.717L74.0565 255.739Z" fill="white"/>
<path d="M71.1211 249.253C71.0657 249.253 71.0117 249.235 70.9674 249.202C70.9413 249.182 70.9194 249.157 70.903 249.128C70.8867 249.1 70.8761 249.068 70.872 249.035C70.868 249.003 70.8704 248.97 70.8792 248.938C70.8881 248.906 70.9031 248.876 70.9235 248.851C74.2248 244.51 74.4371 237.395 74.4444 237.322C74.4443 237.289 74.451 237.256 74.4641 237.226C74.4771 237.195 74.4962 237.168 74.5202 237.145C74.5442 237.123 74.5726 237.105 74.6037 237.094C74.6347 237.083 74.6677 237.078 74.7006 237.08C74.7336 237.08 74.7662 237.087 74.7965 237.1C74.8269 237.113 74.8542 237.132 74.8768 237.156C74.8994 237.18 74.9169 237.208 74.9281 237.239C74.9394 237.27 74.9442 237.303 74.9422 237.336C74.9422 237.636 74.7226 244.656 71.3261 249.151C71.3022 249.183 71.2713 249.208 71.2357 249.226C71.2001 249.244 71.1609 249.253 71.1211 249.253Z" fill="white"/>
<path d="M284.455 220.815C285.466 214.007 285.48 205.699 280.481 193.563C275.481 181.426 277.033 175.065 282.391 173.33C287.749 171.595 299.622 180.811 299.183 196.308C298.751 211.27 288.642 223.626 288.642 223.626L284.455 220.815Z" fill="#407BFF"/>
<path opacity="0.1" d="M284.455 220.815C285.466 214.007 285.48 205.699 280.481 193.563C275.481 181.426 277.033 175.065 282.391 173.33C287.749 171.595 299.622 180.811 299.183 196.308C298.751 211.27 288.642 223.626 288.642 223.626L284.455 220.815Z" fill="black"/>
<path d="M287.069 222.821C287.037 222.827 287.005 222.827 286.974 222.821C286.942 222.809 286.914 222.79 286.89 222.767C286.867 222.744 286.848 222.716 286.836 222.685C286.823 222.654 286.817 222.621 286.819 222.587C286.82 222.554 286.827 222.521 286.842 222.491C286.893 222.367 292.368 209.579 291.966 197.969C291.512 184.61 284.111 177.261 284.038 177.188C284.015 177.165 283.996 177.137 283.983 177.107C283.97 177.077 283.963 177.044 283.963 177.011C283.963 176.978 283.969 176.945 283.981 176.915C283.993 176.884 284.012 176.856 284.035 176.833C284.058 176.809 284.085 176.79 284.115 176.777C284.146 176.765 284.178 176.758 284.211 176.757C284.244 176.757 284.277 176.763 284.308 176.775C284.338 176.788 284.366 176.806 284.39 176.829C284.463 176.902 292.002 184.376 292.442 197.955C292.844 209.667 287.318 222.564 287.274 222.689C287.253 222.726 287.224 222.758 287.188 222.781C287.152 222.804 287.111 222.817 287.069 222.821Z" fill="white"/>
<path d="M284.748 226.854C284.748 226.854 287.574 210.399 297.602 200.941C307.63 191.484 324.349 189.683 329.59 194.734C334.831 199.785 331.472 204.696 324.086 206.402C315.741 208.327 310.624 211.694 315.741 214.271C320.492 216.657 319.957 221.833 315.009 224.314C307.103 228.281 292.829 224.504 289.389 232.307L284.748 226.854Z" fill="#407BFF"/>
<path d="M286.871 230.338H286.79C286.728 230.315 286.677 230.269 286.648 230.208C286.619 230.148 286.615 230.079 286.636 230.016C288.948 223.581 292.511 217.668 297.119 212.617C300.73 208.71 304.959 205.424 309.636 202.888C314.282 200.324 319.341 198.59 324.583 197.764C324.65 197.758 324.717 197.778 324.769 197.821C324.821 197.863 324.854 197.924 324.862 197.991C324.866 198.024 324.863 198.057 324.854 198.089C324.845 198.121 324.83 198.15 324.81 198.176C324.789 198.202 324.764 198.224 324.735 198.24C324.706 198.256 324.675 198.266 324.642 198.269C319.452 199.103 314.448 200.837 309.856 203.393C302.536 207.368 292.602 215.252 287.09 230.221C287.066 230.257 287.034 230.287 286.995 230.307C286.957 230.328 286.914 230.338 286.871 230.338Z" fill="white"/>
<path d="M291.958 219.988C291.905 219.988 291.854 219.972 291.811 219.942C291.768 219.912 291.735 219.869 291.717 219.819C291.695 219.756 291.699 219.687 291.728 219.627C291.757 219.567 291.808 219.521 291.87 219.497C300.427 216.511 312.696 218.077 312.82 218.092C312.853 218.096 312.884 218.107 312.913 218.124C312.941 218.14 312.966 218.162 312.986 218.188C313.007 218.214 313.021 218.244 313.03 218.276C313.038 218.308 313.04 218.341 313.036 218.374C313.032 218.406 313.021 218.438 313.005 218.467C312.988 218.495 312.966 218.52 312.94 218.54C312.914 218.56 312.884 218.575 312.852 218.583C312.82 218.592 312.787 218.594 312.754 218.59C312.637 218.59 300.479 217.023 292.039 219.973C292.013 219.985 291.986 219.99 291.958 219.988Z" fill="white"/>
<path d="M86.7054 51.2402C86.6442 50.1097 86.3174 49.0095 85.7514 48.029C85.1855 47.0484 84.3963 46.215 83.448 45.5965L80.7909 44.0593C79.7815 43.5469 78.6655 43.2798 77.5335 43.2798C76.4014 43.2798 75.2854 43.5469 74.2761 44.0593L53.2603 56.1886C52.2595 56.8175 51.4416 57.6985 50.8887 58.7432C50.4126 59.5733 50.1135 60.493 50.0103 61.4443C50.0103 61.5761 50.0103 61.7078 50.0103 61.8396V86.0981C50.0723 87.2293 50.4002 88.3299 50.9675 89.3105C51.5347 90.2911 52.3253 91.1241 53.275 91.7418L55.9248 93.279L56.2615 93.4547L56.386 93.5059L56.6129 93.6011L56.7886 93.667L56.9789 93.7328L57.1912 93.7914L57.3522 93.8353L57.6011 93.8939H57.7255L58.0257 93.9451H58.0842C59.5849 94.1911 61.1249 93.9473 62.4762 93.2497L83.448 81.1498C84.3978 80.5305 85.1884 79.6961 85.7556 78.7143C86.3228 77.7325 86.6507 76.6309 86.7127 75.4987L86.7054 51.2402Z" fill="#407BFF"/>
<path opacity="0.4" d="M60.1265 63.9258C59.7501 64.5491 59.4689 65.2251 59.292 65.9315C59.729 64.1019 60.8535 62.5108 62.4323 61.4882L83.448 49.359C85.2488 48.3196 86.7128 49.1614 86.7128 51.2402C86.6507 50.1091 86.3228 49.0085 85.7555 48.0278C85.1883 47.0472 84.3977 46.2142 83.448 45.5965L80.7909 44.0593C79.7815 43.5469 78.6655 43.2798 77.5335 43.2798C76.4015 43.2798 75.2854 43.5469 74.2761 44.0593L53.2604 56.1886C52.2595 56.8175 51.4416 57.6985 50.8887 58.7432L50.9546 58.6261L60.1265 63.9258Z" fill="white"/>
<path opacity="0.1" d="M61.7589 93.5863L61.6051 93.6302L61.3416 93.6815H61.0927H60.8365C60.5338 93.6592 60.244 93.5499 60.0021 93.3667L59.8849 93.2569L59.8191 93.1983L59.7312 93.0885L59.658 92.9934L59.5848 92.8763L59.5189 92.7591C59.5189 92.7591 59.5189 92.6786 59.4677 92.6347C59.4451 92.5897 59.4255 92.5432 59.4091 92.4956L59.292 92.3785V92.2321C59.292 92.1882 59.292 92.1443 59.292 92.1003C59.288 92.0296 59.288 91.9588 59.292 91.8881C59.288 91.8491 59.288 91.8099 59.292 91.7709C59.292 91.6611 59.292 91.544 59.292 91.4196V67.1391C59.2924 66.8767 59.3145 66.6147 59.3579 66.3559C59.3579 66.2607 59.3579 66.1583 59.4165 66.0631V65.946C59.5841 65.2413 59.8555 64.5653 60.2217 63.9403L50.9545 58.626L50.8887 58.7431C50.4126 59.5732 50.1135 60.4928 50.0103 61.4442C50.0103 61.5759 50.0103 61.7077 50.0103 61.8395V86.0979C50.0723 87.2291 50.4002 88.3297 50.9675 89.3103C51.5347 90.291 52.3253 91.124 53.275 91.7417L55.9248 93.2789L56.2615 93.4545L56.386 93.5058L56.6129 93.6009L56.7886 93.6668L56.9789 93.7327L57.1912 93.7913L57.3522 93.8352L57.6011 93.8937H57.7255L58.0257 93.945H58.0842C59.3199 94.1327 60.5828 94.0095 61.7589 93.5863Z" fill="black"/>
<path d="M77.5262 73.4855C78.9299 70.35 79.6486 66.9511 79.6343 63.5157C80.3202 62.4518 80.8965 61.3212 81.3545 60.1412C80.7636 60.8341 80.0984 61.46 79.3708 62.0078C80.1091 60.9758 80.6251 59.8018 80.8861 58.5601C80.2526 59.4408 79.5153 60.242 78.6901 60.9464C78.3251 60.6748 77.8823 60.5282 77.4274 60.5282C76.9725 60.5282 76.5297 60.6748 76.1647 60.9464C73.9687 62.2347 72.2997 65.9533 72.8048 68.5445C69.9353 70.0085 67.388 69.6425 65.6897 67.8125C64.7821 70.4038 65.2213 72.8633 66.7585 73.3391C66.2881 73.6216 65.7363 73.7376 65.192 73.6685C65.192 75.8645 66.2973 77.1602 67.9589 76.6405C67.5185 77.0791 66.9859 77.4142 66.3998 77.6213C66.839 79.1951 68.1127 79.8173 69.6279 78.9609C68.4484 81.0583 66.6622 82.75 64.5039 83.8141C66.0265 84.2386 67.8418 83.9531 69.7963 82.8259C73.2074 80.8568 75.8279 77.2919 77.5042 73.4343" fill="white"/>
<path d="M86.7054 139.571C86.6397 138.445 86.3108 137.351 85.745 136.376C85.1792 135.401 84.3925 134.572 83.448 133.956L80.7909 132.419C79.7815 131.907 78.6655 131.64 77.5335 131.64C76.4015 131.64 75.2854 131.907 74.2761 132.419L53.2677 144.548C52.2668 145.177 51.4489 146.058 50.896 147.103C50.4199 147.933 50.1208 148.853 50.0176 149.804C50.0176 149.936 50.0176 150.068 50.0176 150.199V174.458C50.0816 175.582 50.4084 176.676 50.9715 177.651C51.5347 178.626 52.3186 179.455 53.2603 180.072L55.9102 181.61L56.2469 181.778L56.3713 181.837L56.5983 181.932L56.7739 181.998L56.9643 182.063L57.1765 182.122L57.3376 182.166L57.5865 182.224H57.7109L58.011 182.276H58.0696C59.5742 182.51 61.1144 182.254 62.4616 181.544L83.448 169.48C84.3978 168.861 85.1884 168.027 85.7556 167.045C86.3228 166.063 86.6507 164.961 86.7127 163.829L86.7054 139.571Z" fill="#407BFF"/>
<path opacity="0.4" d="M60.1265 152.256C59.7604 152.881 59.489 153.557 59.3213 154.262C59.7511 152.437 60.8646 150.847 62.4323 149.819L83.448 137.69C85.2488 136.65 86.7128 137.492 86.7128 139.571C86.6462 138.445 86.3162 137.35 85.7491 136.375C85.182 135.4 84.3939 134.571 83.448 133.956L80.7909 132.419C79.7815 131.907 78.6655 131.64 77.5335 131.64C76.4015 131.64 75.2854 131.907 74.2761 132.419L53.2677 144.548C52.2668 145.177 51.4489 146.058 50.896 147.103L50.9619 146.986L60.1265 152.256Z" fill="white"/>
<path opacity="0.1" d="M61.7589 181.917L61.6052 181.961C61.5191 181.987 61.4309 182.007 61.3417 182.019H61.0928H60.8366C60.5339 181.997 60.2441 181.888 60.0021 181.705L59.885 181.595L59.8191 181.536L59.7313 181.419L59.6581 181.331L59.5849 181.214L59.519 181.097C59.519 181.053 59.519 181.017 59.4678 180.973C59.4439 180.926 59.4243 180.877 59.4092 180.826L59.3653 180.702L59.3214 180.526C59.3214 180.526 59.3214 180.446 59.3214 180.402C59.3173 180.331 59.3173 180.26 59.3214 180.189C59.3174 180.15 59.3174 180.111 59.3214 180.072C59.3214 179.962 59.3214 179.838 59.3214 179.714V155.47C59.3218 155.207 59.3438 154.945 59.3872 154.686C59.3872 154.584 59.3872 154.489 59.4458 154.394V154.277C59.6135 153.572 59.8848 152.896 60.251 152.271L51.079 146.971L51.0132 147.088C50.5371 147.918 50.238 148.838 50.1348 149.789C50.1348 149.921 50.1348 150.053 50.1348 150.185V174.443C50.1834 175.56 50.4911 176.649 51.0336 177.626C51.5761 178.603 52.3385 179.441 53.2604 180.072L55.9102 181.609L56.247 181.778L56.3714 181.836L56.5983 181.932L56.774 181.997L56.9643 182.063L57.1766 182.122L57.3376 182.166L57.5865 182.224H57.711L58.0111 182.276H58.0696C59.3101 182.466 60.5784 182.342 61.7589 181.917Z" fill="black"/>
<path d="M72.9365 150.792C75.0886 149.548 75.3448 149.416 76.1939 148.977C76.6409 148.709 77.14 148.539 77.6579 148.479C77.9889 148.446 78.32 148.543 78.5802 148.75C78.8728 148.972 79.0859 149.283 79.1878 149.636C79.3764 150.23 79.4702 150.85 79.4659 151.473C79.5025 152.578 79.5099 152.937 79.5099 155.785C79.5099 158.632 79.5099 158.991 79.4659 160.177C79.4531 160.902 79.3598 161.624 79.1878 162.329C79.0553 162.88 78.8511 163.412 78.5802 163.91C78.3374 164.397 78.0269 164.848 77.6579 165.249C77.2275 165.723 76.7351 166.137 76.1939 166.479C75.3448 167.021 75.0886 167.211 72.9365 168.419C70.7844 169.627 70.5355 169.802 69.6864 170.242C69.2388 170.507 68.7397 170.674 68.2224 170.732C67.8891 170.766 67.5557 170.669 67.2928 170.461C67.0044 170.237 66.7943 169.927 66.6925 169.575C66.5044 168.984 66.4105 168.366 66.4144 167.745C66.4144 166.633 66.3631 166.281 66.3631 163.434C66.3631 160.586 66.3631 160.22 66.4144 159.042C66.4252 158.302 66.5185 157.565 66.6925 156.846C66.827 156.296 67.0286 155.765 67.2928 155.265C67.5417 154.779 67.8544 154.328 68.2224 153.925C68.6511 153.45 69.1438 153.036 69.6864 152.696C70.5355 152.154 70.7917 151.964 72.9365 150.756M72.9365 148.823C70.7405 150.082 70.477 150.287 69.6205 150.8C68.8974 151.252 68.2398 151.801 67.6661 152.432C67.0846 153.046 66.5918 153.738 66.2021 154.489C65.7939 155.26 65.4817 156.079 65.2725 156.926C65.0447 157.852 64.9195 158.799 64.8991 159.752C64.8991 160.916 64.8479 161.289 64.8479 164.203C64.8479 167.116 64.8479 167.482 64.8991 168.595C64.8993 169.407 65.0252 170.214 65.2725 170.988C65.4346 171.527 65.7593 172.003 66.2021 172.35C66.6174 172.674 67.1424 172.823 67.6661 172.767C68.355 172.699 69.0213 172.484 69.6205 172.137C70.477 171.691 70.7478 171.545 72.9365 170.285C75.1252 169.026 75.396 168.821 76.2598 168.302C77.6987 167.412 78.8678 166.146 79.6416 164.642C80.0488 163.871 80.3586 163.052 80.5639 162.204C80.7946 161.282 80.9223 160.337 80.9446 159.386C80.9446 158.215 80.9885 157.841 80.9885 154.928C80.9885 152.015 80.9885 151.656 80.9446 150.536C80.9436 149.726 80.8151 148.92 80.5639 148.15C80.4029 147.61 80.0812 147.133 79.6416 146.781C79.226 146.458 78.7004 146.311 78.1776 146.371C77.488 146.436 76.8209 146.651 76.2232 147.001C75.3594 147.44 75.0886 147.586 72.8999 148.853M72.8999 154.072C70.6161 155.389 68.7641 158.925 68.7641 161.97C68.7641 165.015 70.6161 166.413 72.8999 165.096C75.1837 163.778 77.0357 160.242 77.0357 157.197C77.0357 154.152 75.1837 152.754 72.8999 154.072ZM72.8999 163.163C71.4359 164.02 70.2208 163.112 70.2208 161.135C70.2208 159.159 71.4213 156.861 72.8999 156.011C74.3785 155.162 75.5863 156.063 75.5863 158.046C75.5863 160.03 74.3859 162.314 72.8999 163.17M78.163 150.822C78.163 150.09 77.7311 149.782 77.1967 150.09C76.9017 150.301 76.6605 150.579 76.4927 150.9C76.3248 151.222 76.235 151.579 76.2305 151.942C76.2305 152.674 76.6624 152.974 77.1967 152.674C77.4908 152.463 77.7314 152.186 77.8992 151.866C78.067 151.546 78.1573 151.191 78.163 150.829" fill="white"/>
<path d="M123.276 83.0894C123.219 81.9614 122.897 80.8627 122.336 79.8822C121.775 78.9017 120.991 78.0671 120.048 77.4457L117.391 75.9085C116.38 75.396 115.263 75.1289 114.13 75.1289C112.997 75.1289 111.879 75.396 110.869 75.9085L89.8604 88.0378C88.972 88.6272 88.222 89.4023 87.6621 90.3097C87.1023 91.217 86.7459 92.2351 86.6177 93.2935C86.6177 93.4253 86.6177 93.557 86.6177 93.6888V117.947C86.6783 119.078 87.0049 120.178 87.5709 121.159C88.1369 122.14 88.9264 122.973 89.8751 123.591L92.5322 125.128L92.869 125.304L92.9934 125.355L93.2203 125.45L93.3887 125.516L93.5863 125.582L93.7913 125.641L93.9596 125.685L94.2085 125.743H94.333L94.6331 125.794H94.6916C96.1923 126.04 97.7322 125.796 99.0836 125.099L120.048 112.999C120.997 112.379 121.786 111.545 122.352 110.563C122.918 109.581 123.245 108.48 123.306 107.348L123.276 83.0894Z" fill="#407BFF"/>
<path opacity="0.4" d="M96.7047 95.775C96.3395 96.4014 96.0659 97.0768 95.8921 97.7807C96.3237 95.9547 97.44 94.3641 99.0105 93.3374L120.048 81.2082C121.849 80.1688 123.306 81.0106 123.306 83.0894C123.245 81.9588 122.918 80.8584 122.352 79.8777C121.786 78.897 120.997 78.0638 120.048 77.4457L117.391 75.9085C116.38 75.396 115.263 75.1289 114.13 75.1289C112.997 75.1289 111.88 75.396 110.869 75.9085L89.8605 88.0378C88.8634 88.669 88.0484 89.5496 87.4961 90.5924L87.5547 90.4753L96.7047 95.775Z" fill="white"/>
<path opacity="0.1" d="M98.3368 125.436L98.1757 125.48C98.0921 125.506 98.0064 125.526 97.9195 125.538H97.678H97.3559C97.0557 125.515 96.7685 125.406 96.5287 125.224L96.4116 125.114L96.3457 125.055L96.2506 124.938L96.1847 124.85C96.1561 124.814 96.1315 124.775 96.1115 124.733L96.0456 124.616C96.0456 124.579 96.0456 124.536 95.9871 124.492L95.9358 124.353L95.8919 124.221C95.8919 124.167 95.8773 124.109 95.848 124.045C95.8438 124.004 95.8438 123.962 95.848 123.921C95.8439 123.85 95.8439 123.779 95.848 123.708C95.844 123.669 95.844 123.63 95.848 123.591C95.8405 123.474 95.8405 123.357 95.848 123.24V98.9887C95.852 98.7265 95.874 98.4648 95.9139 98.2055C95.9139 98.103 95.9139 98.0079 95.9651 97.9127C95.9679 97.8737 95.9679 97.8346 95.9651 97.7956C96.1389 97.0917 96.4125 96.4163 96.7776 95.7899L87.5983 90.4902L87.5398 90.6074C87.0605 91.436 86.7612 92.3564 86.6614 93.3084C86.6614 93.4402 86.6614 93.5719 86.6614 93.7037V117.962C86.722 119.093 87.0486 120.193 87.6146 121.174C88.1806 122.155 88.9701 122.988 89.9188 123.606L92.5759 125.143L92.9127 125.319L93.0371 125.37L93.264 125.465L93.4324 125.531L93.63 125.597L93.835 125.656L94.0033 125.699L94.2522 125.758H94.3767L94.6768 125.809H94.7353C95.9483 125.98 97.1846 125.852 98.3368 125.436Z" fill="black"/>
<path d="M107.245 116.622L110.752 114.595V102.883L113.196 101.47L113.453 97.3999L110.752 98.9591V96.7265C110.752 95.8042 110.891 95.3576 111.557 94.977L113.453 93.879V89.8091L111.03 91.2145C109.831 91.8464 108.838 92.8078 108.167 93.9854C107.497 95.163 107.177 96.5077 107.245 97.8611V101.016L105.408 102.048V106.016L107.231 104.969L107.245 116.622Z" fill="white"/>
<path d="M75.8059 269.376L159.788 317.849C160.775 318.35 161.866 318.612 162.972 318.612C164.079 318.612 165.17 318.35 166.157 317.849L297.126 242.24C298.883 241.223 298.883 239.583 297.126 238.58L213.144 190.078C212.158 189.577 211.069 189.315 209.963 189.315C208.858 189.315 207.768 189.577 206.783 190.078L75.8059 265.716C74.0491 266.711 74.0491 268.351 75.8059 269.376Z" fill="#E0E0E0"/>
<path d="M78.4483 257.664L160.052 304.783C161.049 305.288 162.151 305.552 163.269 305.552C164.387 305.552 165.489 305.288 166.486 304.783L295.867 230.097C297.646 229.072 297.646 227.411 295.867 226.386L214.256 179.267C213.259 178.761 212.157 178.498 211.039 178.498C209.921 178.498 208.819 178.761 207.822 179.267L78.4483 254.004C76.6696 254.992 76.6696 256.654 78.4483 257.664Z" fill="#37474F"/>
<path d="M160.052 304.798L78.4483 257.664C76.8599 256.749 76.6915 255.322 77.9433 254.297C77.1479 254.928 76.4948 255.719 76.0268 256.62C75.5587 257.521 75.2864 258.51 75.2275 259.523V262.547C75.2885 263.664 75.6118 264.751 76.1714 265.72C76.731 266.689 77.511 267.513 78.4483 268.124L160.052 315.236C161.042 315.762 162.151 316.027 163.273 316.004V305.566C162.151 305.588 161.042 305.324 160.052 304.798Z" fill="#455A64"/>
<path d="M295.867 240.55C296.803 239.94 297.582 239.117 298.141 238.149C298.699 237.181 299.021 236.095 299.08 234.979V231.956C299.022 230.943 298.75 229.953 298.282 229.052C297.814 228.151 297.16 227.36 296.365 226.729C297.616 227.754 297.455 229.182 295.867 230.097L166.486 304.797C165.497 305.322 164.392 305.587 163.272 305.566V316.019C164.392 316.04 165.497 315.775 166.486 315.25L295.867 240.55Z" fill="#263238"/>
<path d="M122.244 279.426C123.628 280.13 125.16 280.497 126.713 280.497C128.266 280.497 129.797 280.13 131.182 279.426C133.649 277.962 133.649 275.693 131.182 274.266C129.796 273.566 128.265 273.201 126.713 273.201C125.16 273.201 123.63 273.566 122.244 274.266C119.806 275.693 119.806 278.006 122.244 279.426Z" fill="#263238"/>
<path d="M172.752 294.798L94.6403 249.67C93.5789 249.055 93.5789 248.053 94.6403 247.438L196.388 188.673C196.986 188.37 197.647 188.212 198.317 188.212C198.987 188.212 199.648 188.37 200.246 188.673L278.358 233.8C279.426 234.415 279.426 235.411 278.358 235.996L176.61 294.769C176.014 295.076 175.355 295.239 174.684 295.244C174.014 295.249 173.352 295.096 172.752 294.798Z" fill="white"/>
<path d="M249.158 206.138C249.509 206.315 249.896 206.408 250.289 206.408C250.682 206.408 251.069 206.315 251.42 206.138C251.542 206.078 251.644 205.984 251.716 205.869C251.788 205.753 251.826 205.619 251.826 205.483C251.826 205.347 251.788 205.214 251.716 205.098C251.644 204.982 251.542 204.889 251.42 204.828C251.069 204.651 250.682 204.559 250.289 204.559C249.896 204.559 249.509 204.651 249.158 204.828C248.529 205.187 248.529 205.772 249.158 206.138Z" fill="#263238"/>
<path d="M252.774 216.401C253.476 216.755 254.25 216.939 255.036 216.939C255.822 216.939 256.597 216.755 257.298 216.401C258.55 215.669 258.55 214.505 257.298 213.788C256.598 213.43 255.822 213.244 255.036 213.244C254.25 213.244 253.475 213.43 252.774 213.788C251.523 214.476 251.523 215.676 252.774 216.401Z" fill="#263238"/>
<path d="M249.612 211.848C250.446 211.372 250.402 210.567 249.509 210.054L234.62 201.453C234.142 201.199 233.61 201.062 233.068 201.051C232.526 201.041 231.99 201.159 231.502 201.395C230.668 201.878 230.711 202.683 231.605 203.196L246.493 211.797C246.973 212.05 247.505 212.186 248.046 212.195C248.588 212.204 249.124 212.085 249.612 211.848Z" fill="#263238"/>
<path d="M195.071 200.81C194.002 201.424 194.002 202.42 195.071 203.006L254.582 237.373C255.181 237.676 255.843 237.834 256.515 237.834C257.186 237.834 257.848 237.676 258.447 237.373L271.623 229.782L208.247 193.182L195.071 200.81Z" fill="#EBEBEB"/>
<path d="M195.51 206.775L190.759 204.037C190.561 203.936 190.341 203.884 190.119 203.884C189.896 203.884 189.677 203.936 189.478 204.037L186.484 205.765C186.126 205.97 186.126 206.299 186.484 206.497L186.894 206.738L185.379 207.544C185.203 207.639 185.218 207.697 185.423 207.683L188.087 207.426L191.235 209.242C191.435 209.34 191.656 209.391 191.879 209.391C192.102 209.391 192.323 209.34 192.523 209.242L195.51 207.514C195.585 207.486 195.649 207.435 195.695 207.369C195.741 207.303 195.765 207.225 195.765 207.145C195.765 207.064 195.741 206.986 195.695 206.92C195.649 206.854 195.585 206.803 195.51 206.775Z" fill="#EBEBEB"/>
<path d="M196.908 213.919L196.557 213.187C196.103 212.229 195.825 210.926 197.142 210.172C197.641 209.919 198.193 209.787 198.753 209.787C199.312 209.787 199.864 209.919 200.363 210.172C201.051 210.567 201.205 211.16 200.824 211.636C201.679 211.402 202.59 211.496 203.379 211.899C203.574 211.963 203.745 212.086 203.866 212.253C203.987 212.419 204.052 212.619 204.052 212.825C204.052 213.031 203.987 213.231 203.866 213.397C203.745 213.564 203.574 213.688 203.379 213.751C202.09 214.483 199.836 214.351 198.174 214.095L196.908 213.919Z" fill="#EBEBEB"/>
<path d="M131.687 239.627L191.206 273.995C191.805 274.298 192.467 274.455 193.138 274.455C193.81 274.455 194.472 274.298 195.071 273.995L241.421 247.225C242.482 246.611 242.482 245.615 241.421 245.029L181.902 210.633C181.303 210.33 180.641 210.172 179.97 210.172C179.298 210.172 178.636 210.33 178.037 210.633L131.687 237.402C130.618 238.017 130.618 239.012 131.687 239.627Z" fill="#EBEBEB"/>
<path d="M132.141 243.368L127.368 240.623C127.167 240.525 126.947 240.474 126.724 240.474C126.501 240.474 126.28 240.525 126.08 240.623L123.086 242.35C123.013 242.38 122.951 242.431 122.907 242.496C122.863 242.561 122.84 242.638 122.84 242.716C122.84 242.795 122.863 242.872 122.907 242.937C122.951 243.002 123.013 243.053 123.086 243.082L123.503 243.324L121.988 244.122C121.805 244.217 121.827 244.283 121.988 244.261L124.652 244.012L127.8 245.827C128 245.926 128.221 245.977 128.444 245.977C128.667 245.977 128.888 245.926 129.088 245.827L132.082 244.093C132.158 244.071 132.226 244.027 132.276 243.966C132.326 243.904 132.357 243.829 132.363 243.751C132.369 243.672 132.351 243.593 132.312 243.524C132.272 243.456 132.212 243.401 132.141 243.368Z" fill="#EBEBEB"/>
<path d="M133.502 250.505L133.158 249.773C132.697 248.814 132.426 247.511 133.744 246.75C134.242 246.497 134.792 246.365 135.35 246.365C135.909 246.365 136.459 246.497 136.957 246.75C137.689 247.152 137.806 247.745 137.418 248.214C138.276 247.988 139.187 248.082 139.98 248.477C140.175 248.543 140.344 248.668 140.464 248.834C140.584 249.001 140.648 249.201 140.648 249.407C140.648 249.612 140.584 249.812 140.464 249.979C140.344 250.146 140.175 250.271 139.98 250.336C138.692 251.068 136.438 250.937 134.769 250.68L133.502 250.505Z" fill="#EBEBEB"/>
<path d="M114.668 247.225C115.267 246.922 115.929 246.765 116.6 246.765C117.272 246.765 117.934 246.922 118.533 247.225L178.044 281.586C179.113 282.2 179.113 283.203 178.044 283.818L165.9 290.831L102.539 254.231L114.668 247.225Z" fill="#EBEBEB"/>
<path d="M180.804 239.312L146.927 248.411L191.22 273.987C191.819 274.29 192.481 274.448 193.153 274.448C193.824 274.448 194.486 274.29 195.085 273.987L196.044 273.431L215.157 245.388L174.567 253.352L180.804 239.312Z" fill="#E0E0E0"/>
<path d="M197.486 219.636L181.902 210.633C181.303 210.33 180.641 210.172 179.97 210.172C179.298 210.172 178.636 210.33 178.037 210.633L160.615 220.698C161.413 222.213 163.06 223.626 165.556 224.848C172.876 228.347 184.793 228.347 192.135 224.848C195.21 223.384 196.989 221.54 197.486 219.636Z" fill="#E0E0E0"/>
<path opacity="0.2" d="M272.641 216.467L194.522 171.347C193.924 171.044 193.263 170.886 192.593 170.886C191.923 170.886 191.262 171.044 190.664 171.347L88.9159 230.111C87.8545 230.726 87.8545 231.722 88.9159 232.307L105.43 241.823L167.057 277.421C167.655 277.724 168.316 277.881 168.986 277.881C169.656 277.881 170.317 277.724 170.915 277.421L262.502 224.504L272.633 218.648C273.709 218.085 273.709 217.082 272.641 216.467Z" fill="white"/>
<path d="M272.831 216.145L208.239 178.813L194.712 171.024C194.057 170.689 193.332 170.514 192.597 170.514C191.861 170.514 191.136 170.689 190.481 171.024L88.7331 229.789C88.4431 229.901 88.1938 230.098 88.0179 230.354C87.842 230.61 87.7478 230.913 87.7478 231.224C87.7478 231.535 87.842 231.838 88.0179 232.094C88.1938 232.35 88.4431 232.547 88.7331 232.659L105.247 242.175L166.896 277.794C167.55 278.13 168.276 278.306 169.012 278.306C169.747 278.306 170.473 278.13 171.127 277.794L262.708 224.878L272.846 219.022C273.135 218.908 273.384 218.711 273.559 218.454C273.734 218.197 273.828 217.894 273.828 217.583C273.828 217.273 273.734 216.969 273.559 216.712C273.384 216.456 273.135 216.258 272.846 216.145H272.831ZM272.458 218.377L262.32 224.233L170.739 277.15C170.197 277.42 169.599 277.561 168.993 277.561C168.387 277.561 167.79 277.42 167.247 277.15L105.62 241.56L89.1138 232.044C88.9374 231.999 88.7811 231.896 88.6695 231.752C88.5579 231.609 88.4973 231.432 88.4973 231.25C88.4973 231.068 88.5579 230.891 88.6695 230.747C88.7811 230.603 88.9374 230.501 89.1138 230.455L190.862 171.69C191.404 171.421 192.002 171.282 192.608 171.282C193.213 171.282 193.811 171.421 194.353 171.69L207.888 179.486L272.48 216.818C272.656 216.863 272.812 216.966 272.924 217.11C273.036 217.254 273.096 217.43 273.096 217.612C273.096 217.795 273.036 217.971 272.924 218.115C272.812 218.259 272.656 218.362 272.48 218.407L272.458 218.377Z" fill="white"/>
<path d="M237.585 33.4817C238.661 32.8595 239.54 33.3646 239.54 34.609V178.513C239.502 179.191 239.305 179.851 238.966 180.44C238.626 181.029 238.154 181.53 237.585 181.902L181.426 214.33L174.838 236.29C174.245 238.281 173.059 238.368 172.196 236.473L166.164 223.158L149.767 232.622C148.691 233.245 147.813 232.739 147.813 231.495V87.5911C147.849 86.9124 148.045 86.2518 148.385 85.663C148.725 85.0742 149.198 84.5736 149.767 84.202L237.585 33.4817Z" fill="#407BFF"/>
<path d="M230.412 144.57C230.345 145.502 230.058 146.405 229.576 147.205C229.094 148.005 228.43 148.68 227.637 149.174L196.784 166.991C195.254 167.87 194.009 167.248 194.009 165.586C194.079 164.655 194.366 163.753 194.848 162.953C195.33 162.153 195.993 161.478 196.784 160.982L227.652 143.172C229.175 142.286 230.412 142.916 230.412 144.57Z" fill="white"/>
<path d="M224.724 162.365C224.655 163.296 224.368 164.198 223.886 164.998C223.404 165.798 222.741 166.473 221.95 166.969L196.322 181.785C194.792 182.671 193.555 182.041 193.555 180.38C193.623 179.45 193.908 178.549 194.389 177.75C194.87 176.951 195.532 176.277 196.322 175.783L221.979 160.967C223.509 160.081 224.724 160.711 224.724 162.365Z" fill="white"/>
<path d="M178.498 187.678L178.432 186.814C177.034 190.342 174.926 192.875 172.576 194.229C168.426 196.63 164.715 194.5 164.715 188.146C164.715 182.158 167.643 175.592 172.203 172.979C175.197 171.252 177.239 172.525 177.576 173.279V171.815C177.576 171.003 178.403 169.868 179.413 169.283C180.423 168.697 181.258 169.231 181.258 170.483V184.062C181.258 185.789 181.902 186.14 182.817 185.606C184.486 184.647 186.023 180.541 186.023 175.863C186.023 166.83 181.287 162.621 173.733 166.984C166.655 171.069 161.04 181.39 161.04 190.408C161.04 199.258 166.347 202.632 173.294 198.628C175.289 197.389 177.057 195.817 178.52 193.98C179.311 193.014 180.175 192.721 180.555 193.409C180.936 194.097 180.702 195.517 179.918 196.484C178.066 198.808 175.84 200.807 173.33 202.398C164.685 207.383 158.149 203.035 158.149 192.099C158.149 180.929 164.993 168.404 173.77 163.331C182.546 158.259 188.981 162.768 188.981 174.07C188.981 180.921 186.294 186.924 182.48 189.12C180.372 190.276 178.872 190.005 178.498 187.678ZM168.697 185.621C168.697 189.12 170.395 191.038 172.986 189.544C175.578 188.051 177.378 184.215 177.378 180.68C177.378 177.276 175.643 175.556 172.95 177.108C170.395 178.557 168.697 182.268 168.697 185.621Z" fill="white"/>
<path d="M193.658 79.7881C208.818 71.0041 221.101 78.1338 221.101 95.6359C221.101 113.138 208.818 134.432 193.658 143.172C178.498 151.912 166.215 144.826 166.215 127.324C166.215 109.822 178.498 88.5721 193.658 79.7881Z" fill="white"/>
<path d="M193.658 79.7881C208.818 71.0041 221.101 78.1338 221.101 95.6359C221.101 113.138 208.818 134.432 193.658 143.172C178.498 151.912 166.215 144.826 166.215 127.324C166.215 109.822 178.498 88.5721 193.658 79.7881Z" fill="#F5F5F5"/>
<mask id="mask0_2482_6102" style="mask-type:luminance" maskUnits="userSpaceOnUse" x="166" y="76" width="56" height="71">
<path d="M193.658 79.7881C208.818 71.0041 221.101 78.1338 221.101 95.6359C221.101 113.138 208.818 134.432 193.658 143.172C178.498 151.912 166.215 144.826 166.215 127.324C166.215 109.822 178.498 88.5721 193.658 79.7881Z" fill="white"/>
</mask>
<g mask="url(#mask0_2482_6102)">
<path d="M183.652 103.029C182.394 103.247 181.27 103.945 180.519 104.976C179.172 106.711 179.45 109.185 180.519 114.756L184.684 114.119L183.652 103.029Z" fill="#263238"/>
<path d="M207.925 94.8307C208.86 94.5808 209.743 94.1642 210.531 93.6009C211.812 92.5249 212.141 93.8937 211.438 95.343C210.972 96.3762 210.306 97.3068 209.478 98.0808C208.65 98.8547 207.677 99.4568 206.615 99.8522C206.571 99.6765 205.414 96.9242 205.414 96.9242L207.925 94.8307Z" fill="#263238"/>
<path d="M186.045 131.76C186.045 131.76 178.286 136.767 176.603 138.531C174.919 140.295 174.224 145.793 173.601 152.52C173.601 152.52 182.437 156.246 196.293 149.387C210.15 142.528 211.402 137.104 211.402 137.104C211.402 137.104 209.608 128.957 208.942 126.695C208.1 123.833 206.475 121.768 197.025 126.058L186.045 131.76Z" fill="#263238"/>
<path d="M185.606 113.877C184.984 114.412 184.106 113.46 183.344 112.867C182.583 112.274 180.094 111.85 178.85 114.8C177.605 117.75 180.46 120.575 182.144 121.3C182.72 121.542 183.354 121.611 183.969 121.5C184.583 121.388 185.152 121.1 185.606 120.67L186.045 131.76C186.045 131.76 188.241 135.559 194.244 134.769C200.246 133.978 198.994 127.946 197.033 126.058V123.774C197.033 123.774 200.129 123.569 201.586 122.793C202.369 122.376 204.228 119.623 205.429 116.783C207.904 111.552 208.469 105.618 207.025 100.013C204.88 91.4634 195.078 93.8131 189.237 99.0543C183.396 104.295 185.606 113.877 185.606 113.877Z" fill="#FFA8A7"/>
<path d="M209.616 86.2518C209.089 84.5243 208.767 84.8317 204.528 87.8109C201.291 90.0901 197.679 91.7823 193.856 92.8105C190.869 93.7182 186.785 94.4355 184.684 97.2025C183.78 98.3925 183.319 99.8601 183.381 101.353C183.203 101.188 182.986 101.07 182.751 101.009C181.719 100.731 180.453 101.485 179.918 102.7L183.578 103.673C183.293 105.782 182.473 112.289 183.366 112.86C184.135 113.35 185.313 114.997 185.628 114.91C186.675 114.609 187.092 109.969 187.663 107.158C188.285 103.959 188.527 102.766 189.676 102.634C193.409 102.045 197.083 101.132 200.656 99.9036C204.609 98.3591 205.743 97.0488 205.743 97.0488L207.852 95.7092C208.793 94.3448 209.436 92.7976 209.74 91.1682C210.044 89.5388 210.001 87.8637 209.616 86.2518Z" fill="#263238"/>
<path d="M197.018 123.774C197.018 123.774 191.477 124.148 189.544 123.635C188.431 123.37 187.468 122.675 186.865 121.703C187.139 122.72 187.662 123.654 188.388 124.418C189.801 125.882 197.018 125.253 197.018 125.253V123.774Z" fill="#F28F8F"/>
<path d="M195.605 117.34L198.138 117.611C198.034 117.986 197.809 118.317 197.498 118.553C197.187 118.788 196.808 118.915 196.418 118.914C195.715 118.84 195.356 118.138 195.605 117.34Z" fill="#F28F8F"/>
<path d="M199.265 107.458L199.631 114.039L203.123 111.923L199.265 107.458Z" fill="#F28F8F"/>
<path d="M195.686 109.8C195.679 110.129 195.568 110.448 195.37 110.711C195.171 110.974 194.895 111.167 194.58 111.264C194.449 111.309 194.308 111.321 194.171 111.298C194.034 111.276 193.904 111.22 193.794 111.135C193.684 111.05 193.596 110.939 193.539 110.812C193.482 110.685 193.458 110.546 193.468 110.408C193.476 110.078 193.588 109.759 193.788 109.496C193.988 109.233 194.265 109.04 194.58 108.944C194.712 108.898 194.852 108.886 194.989 108.908C195.126 108.931 195.255 108.987 195.365 109.072C195.475 109.157 195.562 109.268 195.618 109.396C195.674 109.523 195.697 109.662 195.686 109.8Z" fill="#263238"/>
<path d="M194.507 105.913L192.135 107.86C191.982 107.508 191.953 107.113 192.055 106.741C192.156 106.37 192.38 106.044 192.692 105.818C192.809 105.689 192.953 105.587 193.114 105.521C193.274 105.454 193.448 105.425 193.622 105.434C193.796 105.443 193.966 105.491 194.119 105.574C194.272 105.657 194.405 105.773 194.507 105.913Z" fill="#263238"/>
<path d="M205.59 103.864L203.394 102.78C203.559 102.441 203.841 102.174 204.188 102.027C204.535 101.881 204.924 101.865 205.282 101.982C205.432 102.081 205.559 102.209 205.657 102.36C205.754 102.51 205.819 102.679 205.848 102.856C205.877 103.032 205.869 103.213 205.825 103.387C205.78 103.56 205.7 103.723 205.59 103.864Z" fill="#263238"/>
<path d="M204.96 106.997C204.951 107.325 204.84 107.643 204.642 107.905C204.444 108.168 204.169 108.362 203.855 108.461C203.723 108.506 203.583 108.518 203.446 108.495C203.308 108.473 203.179 108.416 203.069 108.332C202.958 108.247 202.871 108.136 202.814 108.009C202.757 107.882 202.732 107.743 202.742 107.604C202.751 107.275 202.863 106.956 203.063 106.693C203.262 106.43 203.539 106.237 203.855 106.14C203.986 106.095 204.127 106.083 204.264 106.105C204.401 106.128 204.53 106.184 204.64 106.269C204.75 106.354 204.836 106.465 204.892 106.592C204.948 106.719 204.972 106.858 204.96 106.997Z" fill="#263238"/>
</g>
</svg>
