<svg width="24" height="16" viewBox="0 0 24 16" fill="none" xmlns="http://www.w3.org/2000/svg">
<path fill-rule="evenodd" clip-rule="evenodd" d="M3.40717 4.09467C5.19504 2.3068 8.00057 0.5 12 0.5C15.9994 0.5 18.805 2.3068 20.5928 4.09467C21.4846 4.98644 22.1276 5.87691 22.5487 6.5457C22.7597 6.88068 22.916 7.16176 23.0208 7.36196C23.0733 7.46211 23.113 7.54218 23.1402 7.59883C23.1539 7.62716 23.1644 7.64965 23.1719 7.66588L23.1809 7.68548L23.1837 7.69167L23.1847 7.69384L23.185 7.6947C23.185 7.6947 23.1854 7.6954 22.5 8C23.1854 8.3046 23.185 8.3053 23.185 8.3053L23.1847 8.30616L23.1837 8.30833L23.1809 8.31452L23.1719 8.33412C23.1644 8.35035 23.1539 8.37284 23.1402 8.40117C23.113 8.45782 23.0733 8.53789 23.0208 8.63804C22.916 8.83824 22.7597 9.11932 22.5487 9.4543C22.1276 10.1231 21.4846 11.0136 20.5928 11.9053C18.805 13.6932 15.9994 15.5 12 15.5C8.00057 15.5 5.19504 13.6932 3.40717 11.9053C2.5154 11.0136 1.87235 10.1231 1.45126 9.4543C1.24035 9.11932 1.08405 8.83824 0.979181 8.63804C0.92672 8.53789 0.887047 8.45782 0.859771 8.40117C0.846131 8.37284 0.835583 8.35035 0.82808 8.33412L0.819098 8.31452L0.816307 8.30833L0.815334 8.30616L0.814952 8.3053C0.814952 8.3053 0.814641 8.3046 1.5 8C0.814641 7.6954 0.814952 7.6947 0.814952 7.6947L0.815334 7.69384L0.816307 7.69167L0.819098 7.68548L0.82808 7.66588C0.835583 7.64965 0.846131 7.62716 0.859771 7.59883C0.887047 7.54218 0.92672 7.46211 0.979181 7.36196C1.08405 7.16176 1.24035 6.88068 1.45126 6.5457C1.87235 5.87691 2.5154 4.98644 3.40717 4.09467ZM1.5 8L0.814641 7.6954C0.728453 7.88932 0.728453 8.11068 0.814641 8.3046L1.5 8ZM2.33859 8C2.42682 8.16527 2.55353 8.38971 2.72061 8.65508C3.0964 9.25191 3.6721 10.0489 4.46783 10.8447C6.05496 12.4318 8.49943 14 12 14C15.5006 14 17.945 12.4318 19.5322 10.8447C20.3279 10.0489 20.9036 9.25191 21.2794 8.65508C21.4465 8.38971 21.5732 8.16527 21.6614 8C21.5732 7.83473 21.4465 7.61029 21.2794 7.34492C20.9036 6.74809 20.3279 5.95106 19.5322 5.15533C17.945 3.5682 15.5006 2 12 2C8.49943 2 6.05496 3.5682 4.46783 5.15533C3.6721 5.95106 3.0964 6.74809 2.72061 7.34492C2.55353 7.61029 2.42682 7.83473 2.33859 8ZM22.5 8L23.1854 8.3046C23.2715 8.11068 23.2715 7.88932 23.1854 7.6954L22.5 8Z" fill="#3F51B5"/>
<path fill-rule="evenodd" clip-rule="evenodd" d="M12 5C10.3431 5 9 6.34315 9 8C9 9.65685 10.3431 11 12 11C13.6569 11 15 9.65685 15 8C15 6.34315 13.6569 5 12 5ZM7.5 8C7.5 5.51472 9.51472 3.5 12 3.5C14.4853 3.5 16.5 5.51472 16.5 8C16.5 10.4853 14.4853 12.5 12 12.5C9.51472 12.5 7.5 10.4853 7.5 8Z" fill="#3F51B5"/>
</svg>
