<svg width="371" height="371" viewBox="0 0 371 371" fill="none" xmlns="http://www.w3.org/2000/svg">
<path d="M40.8101 224.032L47.2284 219.877C47.2284 219.877 50.3448 203.323 48.0297 188.713C44.7798 168.1 30.7708 161.014 25.6807 163.047C20.5906 165.08 19.3885 171.209 28.5819 183.081C34.0059 190.1 40.9807 204.933 40.8101 224.032Z" fill="#407BFF"/>
<g opacity="0.3">
<path d="M40.8101 224.032L47.2284 219.877C47.2284 219.877 50.3448 203.323 48.0297 188.713C44.7798 168.1 30.7708 161.014 25.6807 163.047C20.5906 165.08 19.3885 171.209 28.5819 183.081C34.0059 190.1 40.9807 204.933 40.8101 224.032Z" fill="white"/>
</g>
<path d="M43.1473 215.862H43.0805C42.9603 215.844 42.8519 215.779 42.7785 215.682C42.7051 215.585 42.6724 215.464 42.6873 215.343C45.351 196.051 37.6046 174.963 28.8935 166.453C28.8059 166.367 28.7559 166.25 28.7545 166.128C28.7532 166.005 28.8005 165.887 28.8861 165.8C28.9717 165.712 29.0886 165.662 29.211 165.661C29.3335 165.659 29.4515 165.707 29.539 165.792C38.4059 174.451 46.3008 195.888 43.5999 215.462C43.5856 215.572 43.5319 215.673 43.4487 215.747C43.3655 215.82 43.2584 215.862 43.1473 215.862Z" fill="white"/>
<path d="M24.6493 234.472C23.6847 235.021 20.9392 232.906 20.1972 232.394C18.8941 231.506 17.8413 230.298 17.1402 228.885C16.3579 227.273 16.0985 225.457 16.3982 223.691C16.5526 222.759 16.7707 221.84 17.0512 220.938C17.3109 220.048 17.5631 219.157 17.7932 218.267C18.1053 217.405 18.2366 216.488 18.179 215.573C17.949 213.748 16.324 212.472 14.8549 211.366C13.2225 210.149 11.5307 208.539 11.5381 206.343C11.6551 204.637 12.3364 203.018 13.4747 201.742C14.5284 200.407 15.7749 199.234 16.7247 197.825C17.4724 196.847 17.8626 195.642 17.8303 194.412C17.728 193.659 17.4757 192.935 17.0883 192.282C16.3463 190.85 15.2926 189.537 14.7584 188.001C14.2241 186.465 14.2983 184.55 15.5004 183.452C16.4798 182.547 17.949 182.421 19.2772 182.51C20.5256 182.663 21.7258 183.085 22.7942 183.749C26.2817 185.686 28.2776 189.819 31.9802 191.31C33.4395 191.77 34.9265 192.136 36.4322 192.408C37.9162 192.801 39.4373 193.566 40.1422 194.938C41.5001 197.654 38.9773 201 39.9345 203.879C40.7803 206.432 43.2586 207.404 44.6461 209.704C45.2133 210.719 45.442 211.889 45.2991 213.043C45.178 214.993 44.7001 216.905 43.8893 218.682C42.9738 220.527 41.9454 222.314 40.81 224.032L24.6493 234.472Z" fill="#407BFF"/>
<g opacity="0.65">
<path d="M24.6493 234.472C23.6847 235.021 20.9392 232.906 20.1972 232.394C18.8941 231.506 17.8413 230.298 17.1402 228.885C16.3579 227.273 16.0985 225.457 16.3982 223.691C16.5526 222.759 16.7707 221.84 17.0512 220.938C17.3109 220.048 17.5631 219.157 17.7932 218.267C18.1053 217.405 18.2366 216.488 18.179 215.573C17.949 213.748 16.324 212.472 14.8549 211.366C13.2225 210.149 11.5307 208.539 11.5381 206.343C11.6551 204.637 12.3364 203.018 13.4747 201.742C14.5284 200.407 15.7749 199.234 16.7247 197.825C17.4724 196.847 17.8626 195.642 17.8303 194.412C17.728 193.659 17.4757 192.935 17.0883 192.282C16.3463 190.85 15.2926 189.537 14.7584 188.001C14.2241 186.465 14.2983 184.55 15.5004 183.452C16.4798 182.547 17.949 182.421 19.2772 182.51C20.5256 182.663 21.7258 183.085 22.7942 183.749C26.2817 185.686 28.2776 189.819 31.9802 191.31C33.4395 191.77 34.9265 192.136 36.4322 192.408C37.9162 192.801 39.4373 193.566 40.1422 194.938C41.5001 197.654 38.9773 201 39.9345 203.879C40.7803 206.432 43.2586 207.404 44.6461 209.704C45.2133 210.719 45.442 211.889 45.2991 213.043C45.178 214.993 44.7001 216.905 43.8893 218.682C42.9738 220.527 41.9454 222.314 40.81 224.032L24.6493 234.472Z" fill="white"/>
</g>
<path d="M33.9688 229.011C33.9116 229.009 33.8554 228.996 33.8034 228.972C33.7514 228.948 33.7047 228.914 33.666 228.872C33.6273 228.829 33.5974 228.78 33.5781 228.726C33.5587 228.672 33.5503 228.615 33.5533 228.558C34.2953 211.314 26.1333 192.267 20.1973 186.739C20.1251 186.658 20.0858 186.552 20.0871 186.443C20.0884 186.334 20.1301 186.23 20.2043 186.15C20.2784 186.071 20.3796 186.021 20.488 186.012C20.5965 186.003 20.7045 186.035 20.7909 186.101C26.8159 191.747 35.1115 211.106 34.3843 228.595C34.3789 228.704 34.3334 228.806 34.2566 228.883C34.1799 228.96 34.0773 229.005 33.9688 229.011Z" fill="white"/>
<path d="M31.164 207.931H31.0379C26.961 206.802 22.774 206.118 18.55 205.89C18.4928 205.888 18.4366 205.875 18.3846 205.851C18.3326 205.827 18.2859 205.793 18.2472 205.751C18.2086 205.709 18.1787 205.66 18.1593 205.606C18.1399 205.552 18.1315 205.495 18.1345 205.438C18.1354 205.38 18.148 205.323 18.1715 205.271C18.195 205.218 18.229 205.171 18.2714 205.132C18.3137 205.093 18.3636 205.064 18.4179 205.045C18.4722 205.026 18.5298 205.018 18.5871 205.022C22.8954 205.246 27.1669 205.936 31.3273 207.077C31.4361 207.115 31.5263 207.193 31.5788 207.295C31.6314 207.397 31.6423 207.516 31.6092 207.626C31.5796 207.72 31.5197 207.8 31.439 207.855C31.3583 207.91 31.2615 207.937 31.164 207.931Z" fill="white"/>
<path d="M188.231 359.885C282.889 359.885 359.625 315.582 359.625 260.932C359.625 206.281 282.889 161.979 188.231 161.979C93.5719 161.979 16.8359 206.281 16.8359 260.932C16.8359 315.582 93.5719 359.885 188.231 359.885Z" fill="#FAFAFA"/>
<path d="M97.1426 218.749C133.449 197.795 192.304 197.795 228.603 218.749C259.373 236.513 264.048 263.633 242.656 284.253L322.533 329.782C327.4 332.594 327.4 337.15 322.533 339.962L315.35 344.11C310.482 346.922 302.736 346.7 298.017 343.62L228.269 294.841C191.911 315.617 133.352 315.536 97.1723 294.648C60.844 273.687 60.844 239.711 97.1426 218.749Z" fill="#E6E6E6"/>
<path d="M111.857 34.5028L105.564 38.1386C105.596 37.8627 105.614 37.5853 105.616 37.3076V35.4822C105.616 32.2323 103.338 30.9189 100.526 32.5142C99.3143 33.2537 98.2786 34.2489 97.4914 35.4303C97.0239 31.3493 93.8259 29.8282 89.9304 32.069C85.7233 34.5028 82.3175 40.4091 82.3175 45.2692V47.9924C82.2883 49.0839 82.5091 50.1676 82.963 51.1607L77.769 54.1806C76.9413 54.7175 76.2533 55.4437 75.7617 56.2991C75.2701 57.1545 74.9892 58.1146 74.942 59.1001C74.942 60.9032 76.2034 61.6303 77.769 60.7325L111.901 41.025C112.725 40.491 113.41 39.7695 113.902 38.9196C114.393 38.0697 114.676 37.1156 114.728 36.1352C114.684 34.3321 113.422 33.605 111.857 34.5028Z" fill="#EBEBEB"/>
<path d="M28.8638 50.8715L32.4106 48.1335V40.3128C32.4106 34.1097 37.3597 26.9123 42.7244 23.8182C48.0964 20.7166 52.452 23.232 52.452 29.4277V30.563C53.5843 28.7287 55.129 27.1839 56.9633 26.0516C60.8292 23.8256 63.9604 25.6287 63.9604 30.0881V30.6075L68.9095 27.7508C71.4546 26.2668 73.5174 27.4688 73.5174 30.4071C73.431 32.0065 72.9687 33.5629 72.1681 34.9501C71.3675 36.3373 70.2511 37.5162 68.9095 38.3911L28.8638 61.5118C26.3187 62.9958 24.256 61.7863 24.256 58.848C24.3423 57.2497 24.8046 55.6943 25.6053 54.3083C26.406 52.9223 27.5224 51.7448 28.8638 50.8715Z" fill="#EBEBEB"/>
<path d="M81.4939 232.387V254.966C81.4939 267.224 89.5965 279.452 105.794 288.838C138.19 307.544 190.724 307.544 223.119 288.838C239.317 279.482 247.42 267.224 247.42 254.966V232.387C247.42 220.129 239.317 207.901 223.119 198.522C190.724 179.816 138.19 179.816 105.794 198.522C89.5965 207.871 81.4939 220.129 81.4939 232.387ZM239.392 232.387C239.392 242.196 232.187 251.753 219.105 259.307C204.636 267.662 185.233 272.262 164.457 272.262C143.681 272.262 124.278 267.662 109.809 259.307C96.7272 251.753 89.5223 242.196 89.5223 232.387C89.5223 222.578 96.7272 213.021 109.809 205.467C124.278 197.112 143.681 192.512 164.457 192.512C185.233 192.512 204.644 197.112 219.105 205.467C232.194 213.021 239.392 222.6 239.392 232.387Z" fill="#407BFF"/>
<path opacity="0.2" d="M81.4939 232.387V254.966C81.4939 267.224 89.5965 279.452 105.794 288.838C138.19 307.544 190.724 307.544 223.119 288.838C239.317 279.482 247.42 267.224 247.42 254.966V232.387C247.42 220.129 239.317 207.901 223.119 198.522C190.724 179.816 138.19 179.816 105.794 198.522C89.5965 207.871 81.4939 220.129 81.4939 232.387ZM239.392 232.387C239.392 242.196 232.187 251.753 219.105 259.307C204.636 267.662 185.233 272.262 164.457 272.262C143.681 272.262 124.278 267.662 109.809 259.307C96.7272 251.753 89.5223 242.196 89.5223 232.387C89.5223 222.578 96.7272 213.021 109.809 205.467C124.278 197.112 143.681 192.512 164.457 192.512C185.233 192.512 204.644 197.112 219.105 205.467C232.194 213.021 239.392 222.6 239.392 232.387Z" fill="white"/>
<path opacity="0.6" d="M247.338 257.073C246.047 264.842 242.627 270.689 228.848 281.44C209.37 296.651 160.049 302.862 131.423 293.416C104.422 284.512 95.8071 267.083 95.8071 255.129L95.8813 248.102C91.7112 243.138 89.5149 237.803 89.5149 232.387C89.5149 226.837 91.8225 221.368 96.1929 216.3L96.2894 206.402H94.7534C85.9162 214.289 81.4939 223.334 81.4939 232.372V254.951C81.4939 267.209 89.5965 279.437 105.794 288.823C138.19 307.529 190.724 307.529 223.119 288.823C238.39 280.023 246.463 268.604 247.338 257.073Z" fill="#407BFF"/>
<path d="M223.127 198.522C190.724 179.816 138.198 179.816 105.802 198.522C73.4062 217.228 73.3988 247.553 105.802 266.259C138.205 284.965 190.724 284.965 223.127 266.259C255.53 247.553 255.523 217.228 223.127 198.522ZM219.113 259.307C204.644 267.662 185.233 272.262 164.464 272.262C143.696 272.262 124.285 267.662 109.809 259.307C96.7272 251.753 89.5224 242.196 89.5224 232.387C89.5224 222.578 96.7272 213.021 109.809 205.467C124.278 197.112 143.688 192.512 164.464 192.512C185.24 192.512 204.644 197.112 219.113 205.467C232.194 213.021 239.399 222.585 239.399 232.387C239.399 242.189 232.194 251.753 219.113 259.307Z" fill="#407BFF"/>
<path opacity="0.5" d="M223.127 198.522C190.724 179.816 138.198 179.816 105.802 198.522C73.4062 217.228 73.3988 247.553 105.802 266.259C138.205 284.965 190.724 284.965 223.127 266.259C255.53 247.553 255.523 217.228 223.127 198.522ZM219.113 259.307C204.644 267.662 185.233 272.262 164.464 272.262C143.696 272.262 124.285 267.662 109.809 259.307C96.7272 251.753 89.5224 242.196 89.5224 232.387C89.5224 222.578 96.7272 213.021 109.809 205.467C124.278 197.112 143.688 192.512 164.464 192.512C185.24 192.512 204.644 197.112 219.113 205.467C232.194 213.021 239.399 222.585 239.399 232.387C239.399 242.189 232.194 251.753 219.113 259.307Z" fill="white"/>
<path d="M239.406 232.387C239.359 236.374 238.239 240.275 236.164 243.68C232.877 237.989 227.082 232.646 219.098 228.054C204.644 219.691 185.226 215.091 164.45 215.091C143.674 215.091 124.27 219.691 109.809 228.054C101.832 232.646 96.0445 237.989 92.7426 243.68C90.6843 240.269 89.5727 236.371 89.5223 232.387C89.5223 222.585 96.7272 213.021 109.816 205.46C124.278 197.12 143.688 192.512 164.457 192.512C185.225 192.512 204.651 197.12 219.105 205.46C232.202 213.021 239.406 222.6 239.406 232.387Z" fill="#407BFF"/>
<path opacity="0.3" d="M239.406 232.387C239.359 236.374 238.239 240.275 236.164 243.68C232.877 237.989 227.082 232.646 219.098 228.054C204.644 219.691 185.226 215.091 164.45 215.091C143.674 215.091 124.27 219.691 109.809 228.054C101.832 232.646 96.0445 237.989 92.7426 243.68C90.6843 240.269 89.5727 236.371 89.5223 232.387C89.5223 222.585 96.7272 213.021 109.816 205.46C124.278 197.12 143.688 192.512 164.457 192.512C185.225 192.512 204.651 197.12 219.105 205.46C232.202 213.021 239.406 222.6 239.406 232.387Z" fill="white"/>
<path opacity="0.6" d="M109.816 205.46C96.7272 213.021 89.5223 222.585 89.5223 232.387C89.575 236.371 90.6892 240.27 92.75 243.68C96.0594 237.989 101.847 232.646 109.816 228.053C113.186 226.126 116.687 224.438 120.293 223C117.132 224.225 107.427 227.349 110.966 218.096C115.173 207.107 135.704 195.205 150.789 193.231C135.274 194.767 121.05 198.982 109.816 205.46Z" fill="#407BFF"/>
<path opacity="0.4" d="M219.113 215.692C204.644 207.337 185.233 202.737 164.464 202.737C143.696 202.737 124.278 207.337 109.809 215.692C99.02 221.925 92.2381 229.523 90.1902 237.499C92.2381 245.476 99.02 253.082 109.809 259.307C124.285 267.662 143.688 272.262 164.464 272.262C185.24 272.262 204.644 267.662 219.113 259.307C229.909 253.074 236.691 245.476 238.731 237.499C236.698 229.523 229.909 221.925 219.113 215.692Z" fill="white"/>
<path d="M104.266 242.679C108.903 246.314 114.164 248.615 119.529 250.44C124.908 252.221 130.418 253.581 136.009 254.506C147.18 256.32 158.509 256.967 169.814 256.435C175.461 256.183 181.115 255.656 186.732 254.899C192.331 254.147 197.879 253.054 203.345 251.627C208.785 250.266 214.047 248.274 219.024 245.691C220.252 245.037 221.441 244.311 222.585 243.517C223.734 242.733 224.823 241.865 225.843 240.92C226.871 239.97 227.79 238.907 228.581 237.752C229.399 236.565 230.022 235.255 230.428 233.871C230.452 235.388 230.201 236.896 229.686 238.323C229.141 239.757 228.429 241.122 227.564 242.389C226.709 243.665 225.735 244.858 224.655 245.951C223.587 247.048 222.449 248.077 221.25 249.03C216.414 252.716 211.055 255.657 205.349 257.756C199.723 259.876 193.92 261.492 188.008 262.587C182.128 263.699 176.177 264.406 170.2 264.701C158.202 265.328 146.181 264.049 134.584 260.91C128.783 259.32 123.18 257.08 117.882 254.232C115.243 252.785 112.736 251.112 110.387 249.231C109.801 248.763 109.252 248.251 108.688 247.747C108.124 247.242 107.59 246.73 107.078 246.188C106.045 245.099 105.104 243.925 104.266 242.679Z" fill="white"/>
<path d="M220.656 280.632C220.756 278.614 221.331 276.648 222.334 274.895C223.337 273.141 224.74 271.649 226.429 270.541C228.017 269.613 229.464 269.517 230.517 270.11L249.008 280.684C250.054 281.285 250.707 282.583 250.714 284.394C250.613 286.411 250.037 288.376 249.034 290.129C248.031 291.883 246.629 293.375 244.942 294.485C243.339 295.42 241.885 295.516 240.831 294.908L222.348 284.342C221.324 283.793 220.663 282.494 220.656 280.632Z" fill="#37474F"/>
<path d="M222.385 284.394C221.324 283.793 220.663 282.494 220.656 280.632C220.682 279.13 221.018 277.65 221.643 276.284L248.214 291.51C247.349 292.725 246.249 293.755 244.979 294.537C243.376 295.472 241.922 295.568 240.868 294.96L222.385 284.394Z" fill="#263238"/>
<path d="M311.966 310.757L253.126 280.773L253.052 280.728C251.686 279.986 249.831 280.12 247.791 281.307C243.621 283.741 240.26 289.618 240.282 294.441C240.282 296.859 241.15 298.551 242.508 299.338L297.809 334.954C299.4 335.961 301.178 336.637 303.036 336.942C304.894 337.248 306.795 337.176 308.625 336.73C310.454 336.285 312.176 335.476 313.686 334.351C315.196 333.226 316.465 331.809 317.415 330.183C318.366 328.558 318.979 326.758 319.219 324.89C319.459 323.022 319.32 321.125 318.811 319.312C318.302 317.499 317.432 315.807 316.255 314.338C315.078 312.868 313.617 311.65 311.959 310.757H311.966Z" fill="#455A64"/>
<path d="M242.515 299.352L297.817 334.968C299.873 336.259 302.229 336.993 304.654 337.099C307.079 337.205 309.49 336.679 311.651 335.572C313.811 334.466 315.647 332.817 316.979 330.787C318.31 328.757 319.091 326.417 319.246 323.994C318.185 328.602 310.572 332.52 301.133 327.244C291.695 321.968 256.732 299.864 240.846 290.715C240.473 291.917 240.278 293.167 240.267 294.425C240.275 296.874 241.15 298.566 242.515 299.352Z" fill="#37474F"/>
<path d="M242.515 299.353C241.135 298.566 240.289 296.874 240.289 294.455C240.289 289.632 243.628 283.756 247.798 281.322C249.839 280.135 251.694 280.009 253.059 280.743L258.253 283.385C256.851 282.643 254.959 282.762 252.859 283.978C248.585 286.472 245.135 292.504 245.157 297.453C245.157 299.931 246.01 301.705 247.42 302.506" fill="#407BFF"/>
<path opacity="0.2" d="M247.413 302.506C246.003 301.704 245.187 299.931 245.149 297.453C245.157 296.141 245.36 294.839 245.75 293.587C243.977 292.533 242.322 291.569 240.846 290.715C240.659 291.336 240.512 291.968 240.408 292.607C240.364 292.919 240.326 293.231 240.297 293.542C240.297 293.854 240.26 294.158 240.297 294.455C240.297 296.874 241.165 298.566 242.523 299.352L247.413 302.506Z" fill="black"/>
<path d="M101.81 333.722L57.2898 311.455L39.556 319.305L101.81 333.722Z" fill="#407BFF"/>
<g opacity="0.15">
<path d="M101.81 333.722L57.2898 311.455L39.556 319.305L101.81 333.722Z" fill="white"/>
</g>
<path d="M101.81 333.722L62.5951 307.507L69.6144 297.416L101.81 333.722Z" fill="#407BFF"/>
<g opacity="0.15">
<path d="M101.81 333.722L62.5951 307.507L69.6144 297.416L101.81 333.722Z" fill="white"/>
</g>
<path d="M62.5951 307.507L63.3297 314.475L101.81 333.722L62.5951 307.507Z" fill="#407BFF"/>
<g opacity="0.2">
<path d="M62.5951 307.507L63.3297 314.475L101.81 333.722L62.5951 307.507Z" fill="black"/>
</g>
<path d="M56.2437 306.172C56.3515 306.169 56.4545 306.127 56.533 306.053C56.6239 305.963 56.6786 305.844 56.6868 305.716C56.695 305.589 56.6561 305.463 56.5776 305.363L55.7243 304.22C55.6897 304.172 55.6452 304.132 55.5937 304.102C55.5423 304.073 55.4852 304.054 55.4261 304.049C55.3671 304.043 55.3075 304.05 55.2514 304.07C55.1953 304.089 55.144 304.12 55.101 304.161C55.0105 304.25 54.9554 304.369 54.9458 304.496C54.9363 304.623 54.9729 304.749 55.049 304.851C55.331 305.229 55.6204 305.593 55.9098 305.971C55.9462 306.028 55.9953 306.076 56.0532 306.111C56.1111 306.145 56.1763 306.166 56.2437 306.172Z" fill="#455A64"/>
<path d="M52.3333 301.111C51.804 300.34 51.292 299.561 50.7974 298.774C50.7304 298.666 50.7048 298.537 50.7253 298.412C50.7457 298.286 50.8109 298.173 50.9087 298.091C50.9548 298.055 51.0084 298.029 51.0656 298.015C51.1228 298.001 51.1824 297.999 51.2402 298.011C51.298 298.022 51.3527 298.046 51.4005 298.08C51.4483 298.115 51.4881 298.159 51.5171 298.21C52.0142 298.989 52.5188 299.761 53.0011 300.525C53.0738 300.63 53.1049 300.757 53.0884 300.884C53.072 301.01 53.0091 301.125 52.9121 301.208C52.8401 301.27 52.7478 301.305 52.6524 301.304C52.5882 301.298 52.5264 301.277 52.4713 301.243C52.4161 301.21 52.369 301.165 52.3333 301.111ZM48.4081 294.738C47.9555 293.914 47.5103 293.075 47.0874 292.237C47.0292 292.124 47.0145 291.994 47.046 291.871C47.0774 291.748 47.1528 291.64 47.258 291.569C47.3091 291.538 47.3663 291.518 47.4259 291.511C47.4854 291.503 47.5458 291.509 47.6029 291.527C47.66 291.546 47.7125 291.576 47.7567 291.617C47.8009 291.657 47.8358 291.707 47.859 291.762C48.2746 292.586 48.7123 293.409 49.1575 294.226C49.2207 294.336 49.2413 294.466 49.2153 294.59C49.1893 294.714 49.1186 294.825 49.0166 294.901C48.9473 294.943 48.8678 294.966 48.7865 294.968C48.7087 294.966 48.6326 294.944 48.5661 294.904C48.4996 294.864 48.445 294.806 48.4081 294.738ZM45.0988 287.941C44.7278 287.058 44.3568 286.167 44.0452 285.284C43.9996 285.168 43.9987 285.038 44.0424 284.92C44.0862 284.803 44.1717 284.705 44.2826 284.646C44.3379 284.623 44.3974 284.611 44.4574 284.612C44.5175 284.613 44.5766 284.627 44.6311 284.652C44.6856 284.677 44.7343 284.713 44.7739 284.758C44.8136 284.803 44.8434 284.856 44.8614 284.913C45.1804 285.782 45.5292 286.657 45.9002 287.525C45.95 287.642 45.9557 287.772 45.9161 287.893C45.8764 288.013 45.7943 288.114 45.685 288.178C45.6273 288.207 45.5639 288.222 45.4995 288.223C45.4124 288.22 45.3281 288.192 45.2569 288.142C45.1856 288.092 45.1307 288.022 45.0988 287.941ZM42.5315 280.758C42.2644 279.831 42.0121 278.888 41.7895 277.976C41.754 277.855 41.7667 277.725 41.8247 277.613C41.8828 277.501 41.9818 277.416 42.1011 277.375C42.1592 277.359 42.2198 277.356 42.2791 277.365C42.3385 277.374 42.3953 277.396 42.4461 277.428C42.4969 277.46 42.5406 277.502 42.5744 277.551C42.6083 277.601 42.6315 277.657 42.6428 277.716C42.858 278.621 43.1028 279.541 43.3848 280.454C43.4225 280.573 43.4146 280.703 43.3625 280.816C43.3104 280.93 43.2178 281.021 43.1028 281.07H42.9693C42.8726 281.072 42.7779 281.042 42.6991 280.986C42.6203 280.93 42.5616 280.85 42.5315 280.758ZM40.81 273.257C40.6616 272.314 40.5281 271.35 40.4168 270.393C40.3951 270.27 40.4226 270.143 40.4934 270.04C40.5642 269.938 40.6726 269.867 40.7952 269.843C40.9169 269.835 41.0369 269.875 41.1298 269.954C41.2227 270.033 41.281 270.145 41.2923 270.266C41.3962 271.209 41.5298 272.159 41.6782 273.086C41.7032 273.207 41.6809 273.333 41.6161 273.437C41.5512 273.542 41.4486 273.618 41.3294 273.65H41.2478C41.1408 273.644 41.039 273.602 40.9593 273.531C40.8796 273.459 40.8269 273.362 40.81 273.257ZM40.068 265.57C40.068 264.828 40.0235 264.086 40.0235 263.292V262.668C40.0205 262.608 40.0295 262.547 40.0499 262.491C40.0703 262.434 40.1017 262.381 40.1424 262.336C40.183 262.292 40.2321 262.255 40.2868 262.229C40.3416 262.204 40.4009 262.189 40.4613 262.186C40.584 262.196 40.6981 262.253 40.7787 262.346C40.8592 262.439 40.8998 262.56 40.8917 262.683V263.292C40.8917 264.034 40.8917 264.776 40.8917 265.518C40.902 265.641 40.8636 265.764 40.7846 265.86C40.7055 265.956 40.5921 266.016 40.4687 266.03C40.3573 266.015 40.255 265.96 40.1811 265.876C40.1073 265.791 40.0671 265.682 40.068 265.57ZM40.6542 258.38C40.5328 258.358 40.4243 258.29 40.3511 258.191C40.278 258.091 40.2457 257.968 40.261 257.845C40.3426 256.888 40.4465 255.916 40.5652 254.959C40.5697 254.898 40.5866 254.839 40.6148 254.785C40.643 254.732 40.6819 254.684 40.7292 254.646C40.7765 254.608 40.8311 254.579 40.8896 254.563C40.9482 254.547 41.0095 254.543 41.0697 254.551C41.1909 254.576 41.2975 254.647 41.3668 254.75C41.4361 254.853 41.4626 254.978 41.4407 255.1C41.322 256.042 41.2181 256.999 41.1365 257.934C41.1313 258.049 41.0837 258.159 41.0029 258.241C40.9221 258.323 40.8137 258.372 40.6987 258.38H40.6542ZM41.693 250.796C41.5742 250.759 41.4743 250.677 41.4136 250.568C41.3529 250.459 41.3361 250.331 41.3665 250.21C41.5595 249.268 41.7821 248.325 42.0269 247.398C42.038 247.339 42.0613 247.283 42.0952 247.234C42.1291 247.185 42.173 247.143 42.224 247.111C42.275 247.08 42.332 247.06 42.3913 247.051C42.4506 247.043 42.511 247.048 42.5686 247.064C42.686 247.109 42.7824 247.197 42.8386 247.309C42.8949 247.422 42.9071 247.551 42.8728 247.673C42.6354 248.578 42.4128 249.513 42.2198 250.433C42.2044 250.535 42.1537 250.629 42.0765 250.698C41.9993 250.767 41.9004 250.807 41.7969 250.811L41.693 250.796ZM43.6964 243.458C43.5835 243.403 43.4956 243.308 43.4501 243.191C43.4047 243.074 43.4052 242.944 43.4516 242.827C43.7706 241.937 44.1268 241.039 44.4978 240.163C44.5187 240.108 44.551 240.057 44.5925 240.015C44.634 239.972 44.6838 239.939 44.7389 239.916C44.794 239.894 44.853 239.883 44.9124 239.885C44.9718 239.887 45.0302 239.901 45.084 239.926C45.1921 239.991 45.2732 240.093 45.3127 240.213C45.3522 240.332 45.3474 240.462 45.2991 240.579C44.9281 241.44 44.5571 242.315 44.2678 243.191C44.2399 243.278 44.1856 243.354 44.1125 243.408C44.0393 243.463 43.9509 243.493 43.8597 243.495C43.8029 243.497 43.7467 243.484 43.6964 243.458ZM46.746 236.565C46.6415 236.491 46.5678 236.382 46.5391 236.257C46.5103 236.132 46.5285 236.002 46.5902 235.89C47.0428 235.066 47.5177 234.242 48 233.448C48.0285 233.396 48.0681 233.35 48.1159 233.314C48.1638 233.278 48.2188 233.253 48.2773 233.24C48.3358 233.228 48.3963 233.228 48.4547 233.241C48.5132 233.253 48.5681 233.279 48.6159 233.315C48.7136 233.396 48.7792 233.509 48.8009 233.634C48.8227 233.759 48.7992 233.888 48.7346 233.997C48.2523 234.777 47.7848 235.585 47.3471 236.394C47.3118 236.465 47.2578 236.524 47.1911 236.566C47.1243 236.608 47.0474 236.63 46.9686 236.632C46.8895 236.631 46.8122 236.608 46.746 236.565ZM50.6861 230.265C50.5961 230.177 50.5413 230.059 50.5317 229.934C50.5221 229.808 50.5585 229.683 50.6341 229.583C51.1906 228.841 51.7768 228.099 52.363 227.401C52.4013 227.356 52.449 227.319 52.5028 227.294C52.5567 227.269 52.6153 227.256 52.6746 227.256C52.7339 227.256 52.7926 227.269 52.8464 227.294C52.9002 227.319 52.9479 227.356 52.9863 227.401C53.0707 227.496 53.1174 227.619 53.1174 227.746C53.1174 227.873 53.0707 227.996 52.9863 228.091C52.4075 228.781 51.8362 229.494 51.2871 230.228C51.2483 230.283 51.1972 230.327 51.1379 230.358C51.0785 230.389 51.0127 230.406 50.9458 230.406C50.8891 230.405 50.8334 230.392 50.7822 230.368C50.7311 230.343 50.6857 230.308 50.649 230.265H50.6861ZM55.4571 224.715C55.3726 224.62 55.326 224.497 55.326 224.37C55.326 224.243 55.3726 224.12 55.4571 224.025C56.1101 223.379 56.7853 222.749 57.4605 222.155C57.505 222.115 57.5576 222.086 57.6146 222.068C57.6716 222.051 57.7317 222.046 57.7908 222.053C57.8499 222.061 57.9067 222.082 57.9573 222.113C58.0078 222.145 58.051 222.187 58.0838 222.237C58.1556 222.342 58.1876 222.469 58.174 222.595C58.1604 222.722 58.1021 222.839 58.0096 222.927C57.3418 223.506 56.6814 224.121 56.0359 224.752C55.9598 224.831 55.8558 224.876 55.7465 224.878C55.6833 224.877 55.6212 224.862 55.5647 224.834C55.5082 224.805 55.4588 224.765 55.42 224.715H55.4571ZM60.9182 220.018C60.8573 219.908 60.8373 219.78 60.8618 219.656C60.8862 219.533 60.9535 219.422 61.0518 219.343C61.7938 218.809 62.5358 218.312 63.2778 217.859C63.3286 217.829 63.3852 217.81 63.4439 217.803C63.5026 217.797 63.5621 217.803 63.6182 217.821C63.6744 217.839 63.726 217.869 63.7697 217.909C63.8133 217.949 63.848 217.998 63.8714 218.052C63.9291 218.164 63.9435 218.293 63.912 218.415C63.8806 218.536 63.8053 218.642 63.7007 218.712C62.9587 219.157 62.2167 219.647 61.4747 220.196C61.4052 220.245 61.3222 220.271 61.2373 220.27C61.1615 220.262 61.0891 220.234 61.0268 220.19C60.9645 220.146 60.9144 220.087 60.8811 220.018H60.9182Z" fill="#455A64"/>
<path d="M67.4478 216.813H67.5814C67.9733 216.664 68.3782 216.552 68.7908 216.479C68.9126 216.452 69.0193 216.379 69.0885 216.275C69.1576 216.171 69.1839 216.045 69.1618 215.922C69.1572 215.862 69.1406 215.803 69.1129 215.75C69.0853 215.696 69.0471 215.648 69.0008 215.61C68.9545 215.571 68.9009 215.542 68.8432 215.524C68.7854 215.507 68.7248 215.501 68.6647 215.507C68.205 215.593 67.7533 215.717 67.3142 215.878C67.1968 215.924 67.1014 216.014 67.0477 216.128C66.9939 216.243 66.9858 216.373 67.0249 216.494C67.0529 216.584 67.1089 216.664 67.1848 216.721C67.2607 216.779 67.3527 216.811 67.4478 216.813Z" fill="#455A64"/>
<path d="M275.801 46.1156L230.168 32.1289L265.324 56.281L275.801 46.1156Z" fill="#407BFF"/>
<path opacity="0.15" d="M275.801 46.1156L230.168 32.1289L265.324 56.281L275.801 46.1156Z" fill="white"/>
<path d="M230.168 32.1288L279.281 40.0311L289.758 29.8657L230.168 32.1288Z" fill="#407BFF"/>
<path opacity="0.15" d="M230.168 32.1288L279.281 40.0311L289.758 29.8657L230.168 32.1288Z" fill="white"/>
<path d="M279.281 40.0312L279.326 52.1703L275.801 46.1156L230.168 32.1289L279.281 40.0312Z" fill="#407BFF"/>
<path opacity="0.2" d="M279.281 40.0312L279.326 52.1703L275.801 46.1156L230.168 32.1289L279.281 40.0312Z" fill="black"/>
<path d="M279.326 52.1704L272.307 49.5067L275.801 46.1157L279.326 52.1704Z" fill="#407BFF"/>
<path opacity="0.2" d="M275.801 46.1157L272.307 49.5067L273.427 49.9296L275.801 46.1157Z" fill="black"/>
<path d="M288.534 43.9787C288.491 44.0104 288.456 44.0504 288.429 44.0963C288.402 44.1422 288.385 44.1931 288.378 44.2458C288.363 44.3725 288.393 44.5005 288.464 44.6066C288.535 44.7128 288.641 44.7901 288.764 44.8246L290.115 45.1882C290.171 45.206 290.231 45.2113 290.29 45.2036C290.349 45.1959 290.405 45.1754 290.456 45.1436C290.506 45.1118 290.548 45.0694 290.58 45.0195C290.613 44.9695 290.633 44.9131 290.641 44.8543C290.659 44.7294 290.631 44.6023 290.563 44.496C290.495 44.3898 290.391 44.3116 290.27 44.2755L288.905 43.9119C288.842 43.8936 288.776 43.8901 288.712 43.9017C288.647 43.9133 288.587 43.9397 288.534 43.9787Z" fill="#455A64"/>
<path d="M294.715 45.6334C295.598 45.9302 296.481 46.2418 297.349 46.5609C297.468 46.6059 297.567 46.692 297.628 46.8035C297.689 46.9151 297.709 47.0448 297.683 47.1693C297.668 47.2268 297.64 47.2802 297.602 47.326C297.564 47.3719 297.517 47.4091 297.464 47.4351C297.41 47.4611 297.352 47.4754 297.292 47.4769C297.233 47.4784 297.174 47.4671 297.119 47.4439C296.258 47.1248 295.383 46.8206 294.507 46.5238C294.388 46.4831 294.288 46.4004 294.225 46.2912C294.162 46.182 294.141 46.0537 294.166 45.9302C294.183 45.835 294.236 45.75 294.314 45.6928C294.371 45.6501 294.437 45.6224 294.507 45.612C294.577 45.6016 294.649 45.609 294.715 45.6334ZM301.697 48.3194C302.565 48.7053 303.419 49.0614 304.265 49.5141C304.379 49.5676 304.47 49.6617 304.519 49.7782C304.568 49.8946 304.573 50.0252 304.532 50.1448C304.51 50.2001 304.476 50.2502 304.433 50.2916C304.39 50.3331 304.339 50.365 304.283 50.3854C304.227 50.4057 304.167 50.4139 304.108 50.4095C304.048 50.4052 303.99 50.3883 303.938 50.3599C303.107 49.9518 302.261 49.5586 301.408 49.1876C301.293 49.1355 301.201 49.044 301.148 48.9296C301.094 48.8152 301.084 48.6856 301.118 48.5643C301.143 48.4842 301.192 48.414 301.259 48.364C301.322 48.3178 301.395 48.2893 301.472 48.2815C301.549 48.2737 301.627 48.2868 301.697 48.3194ZM308.449 51.7252C309.28 52.2001 310.097 52.6972 310.898 53.2092C311.005 53.2754 311.084 53.3781 311.121 53.4981C311.157 53.6182 311.149 53.7475 311.098 53.8622C311.069 53.9147 311.029 53.9604 310.98 53.9964C310.932 54.0325 310.877 54.0579 310.818 54.0712C310.759 54.0845 310.698 54.0853 310.639 54.0736C310.58 54.0619 310.524 54.0379 310.475 54.0032C309.689 53.506 308.88 53.0237 308.064 52.5192C307.954 52.4578 307.87 52.358 307.829 52.2389C307.788 52.1198 307.792 51.9898 307.841 51.8736C307.866 51.8118 307.907 51.7579 307.96 51.7178C308.033 51.671 308.119 51.6468 308.206 51.6481C308.293 51.6494 308.377 51.6762 308.449 51.7252ZM314.845 55.8878C315.625 56.4592 316.389 57.0528 317.123 57.6464C317.223 57.723 317.29 57.8345 317.31 57.9584C317.331 58.0823 317.304 58.2094 317.235 58.3142C317.198 58.3622 317.152 58.402 317.099 58.431C317.046 58.46 316.987 58.4775 316.927 58.4824C316.867 58.4873 316.806 58.4795 316.75 58.4594C316.693 58.4394 316.64 58.4076 316.597 58.3661C315.855 57.7799 315.113 57.2012 314.371 56.6373C314.266 56.5649 314.193 56.4561 314.166 56.3323C314.138 56.2086 314.158 56.0791 314.222 55.9695C314.244 55.9306 314.274 55.8975 314.311 55.873C314.391 55.8195 314.485 55.7922 314.581 55.7949C314.676 55.7975 314.769 55.83 314.845 55.8878ZM320.744 60.8444C321.442 61.5048 322.132 62.1874 322.8 62.8849C322.886 62.9747 322.934 63.0943 322.934 63.2188C322.934 63.3432 322.886 63.4629 322.8 63.5527C322.757 63.5958 322.706 63.63 322.65 63.6533C322.594 63.6766 322.534 63.6886 322.473 63.6886C322.413 63.6886 322.352 63.6766 322.296 63.6533C322.24 63.63 322.189 63.5958 322.147 63.5527C321.494 62.8701 320.811 62.1948 320.128 61.5493C320.036 61.4664 319.978 61.3512 319.967 61.2271C319.956 61.1031 319.992 60.9795 320.069 60.8815L320.128 60.8221C320.216 60.749 320.327 60.7108 320.441 60.7149C320.554 60.719 320.663 60.7652 320.744 60.8444ZM326.005 66.4984C326.487 67.0846 326.955 67.6782 327.422 68.2867L327.793 68.7838C327.871 68.8787 327.908 69.0003 327.897 69.1224C327.886 69.2446 327.828 69.3575 327.734 69.4368C327.684 69.4715 327.627 69.4959 327.567 69.5084C327.507 69.5208 327.445 69.5212 327.385 69.5095C327.325 69.4977 327.267 69.4741 327.216 69.4399C327.166 69.4058 327.122 69.3618 327.088 69.3106L326.717 68.8209C326.265 68.2273 325.805 67.6411 325.33 67.0624C325.244 66.9738 325.196 66.8554 325.196 66.7322C325.196 66.6089 325.244 66.4905 325.33 66.402C325.377 66.3594 325.433 66.3272 325.494 66.3073C325.555 66.2875 325.619 66.2805 325.682 66.2868C325.746 66.293 325.807 66.3125 325.863 66.3438C325.918 66.3751 325.967 66.4177 326.005 66.4688V66.4984ZM329.901 72.5828C330.01 72.5254 330.136 72.5119 330.255 72.545C330.374 72.5781 330.475 72.6554 330.539 72.7609C331.051 73.5771 331.555 74.4082 332.023 75.2466C332.055 75.2976 332.077 75.3545 332.087 75.414C332.097 75.4735 332.095 75.5345 332.081 75.5932C332.068 75.652 332.042 75.7074 332.007 75.7562C331.971 75.805 331.926 75.8462 331.874 75.8773C331.761 75.9277 331.634 75.9335 331.517 75.8935C331.4 75.8536 331.302 75.771 331.244 75.6621C330.769 74.8385 330.272 74.0149 329.76 73.221C329.694 73.1267 329.666 73.0112 329.681 72.8972C329.696 72.7832 329.753 72.679 329.841 72.6051L329.901 72.5828ZM333.663 79.2608C333.781 79.2182 333.911 79.2221 334.027 79.2716C334.142 79.3212 334.235 79.4128 334.286 79.528C334.694 80.3961 335.095 81.2791 335.458 82.1621C335.484 82.2164 335.498 82.2754 335.501 82.3355C335.503 82.3956 335.493 82.4556 335.472 82.5117C335.45 82.5679 335.417 82.6191 335.376 82.6623C335.334 82.7055 335.284 82.7398 335.228 82.7631C335.107 82.7974 334.978 82.7852 334.865 82.7289C334.752 82.6726 334.665 82.5763 334.62 82.4589C334.264 81.5907 333.878 80.7226 333.47 79.8767C333.419 79.7847 333.402 79.6776 333.422 79.5744C333.442 79.4711 333.499 79.3785 333.581 79.3128C333.6 79.2726 333.628 79.2371 333.663 79.2089V79.2608ZM336.519 86.3098C336.643 86.2864 336.771 86.31 336.878 86.3759C336.985 86.4417 337.063 86.5452 337.098 86.666C337.38 87.5712 337.647 88.4987 337.877 89.4188C337.895 89.4759 337.9 89.536 337.893 89.5954C337.886 89.6547 337.866 89.7118 337.836 89.763C337.805 89.8142 337.763 89.8582 337.714 89.8923C337.665 89.9263 337.609 89.9496 337.551 89.9605C337.427 89.9766 337.301 89.9461 337.198 89.8748C337.095 89.8035 337.023 89.6965 336.994 89.5746C336.764 88.6694 336.504 87.7567 336.252 86.8738C336.221 86.7884 336.217 86.6953 336.241 86.6076C336.265 86.5198 336.315 86.4417 336.386 86.384C336.419 86.3317 336.465 86.2883 336.519 86.2579V86.3098ZM338.3 93.6185C338.427 93.6154 338.551 93.659 338.648 93.7411C338.745 93.8231 338.809 93.9379 338.827 94.0637C338.975 94.9912 339.094 95.9336 339.19 96.8685C339.198 96.9266 339.193 96.9857 339.176 97.0417C339.159 97.0978 339.13 97.1496 339.091 97.1937C339.053 97.2379 339.005 97.2734 338.952 97.2979C338.899 97.3224 338.841 97.3354 338.782 97.336C338.655 97.3346 338.533 97.286 338.44 97.1996C338.347 97.1132 338.289 96.9952 338.278 96.8685C338.181 95.9558 338.07 95.0358 337.922 94.1231C337.908 94.0462 337.916 93.9672 337.943 93.8941C337.97 93.8211 338.017 93.7567 338.077 93.7076C338.134 93.6377 338.213 93.5882 338.3 93.5666V93.6185Z" fill="#455A64"/>
<path d="M346.425 212.086C344.436 210.899 341.632 211.062 338.515 212.828L282.004 245.476C275.972 248.956 271.075 257.237 271.075 263.966C271.075 267.254 272.247 269.554 274.147 270.644L280.209 274.139C282.19 275.267 284.958 275.089 288.03 273.316L344.548 240.668C350.58 237.188 355.47 228.907 355.47 222.177C355.47 218.912 354.312 216.605 352.428 215.499C351.396 214.935 347.419 212.679 346.425 212.086Z" fill="#E0E0E0"/>
<path d="M283.014 274.54C279.6 274.54 277.478 271.839 277.478 267.498C277.478 260.902 282.294 252.747 288.215 249.334L344.733 216.686C346.188 215.783 347.852 215.272 349.564 215.202C352.977 215.202 355.099 217.903 355.099 222.244C355.099 228.848 350.283 236.995 344.362 240.415L287.844 273.063C286.39 273.967 284.725 274.476 283.014 274.54Z" fill="#FAFAFA"/>
<path d="M349.564 215.544C352.747 215.544 354.758 218.104 354.758 222.222C354.758 228.707 350.024 236.713 344.206 240.03L287.688 272.678C286.29 273.55 284.69 274.046 283.043 274.117C282.338 274.141 281.638 274.003 280.994 273.713C280.351 273.424 279.783 272.991 279.333 272.448C278.279 271 277.755 269.235 277.849 267.447C277.849 260.969 282.583 252.963 288.401 249.639L344.919 216.991C346.317 216.118 347.917 215.622 349.564 215.551M349.564 214.809C347.785 214.876 346.056 215.408 344.548 216.352L288.03 249C281.997 252.488 277.107 260.761 277.107 267.491C277.107 272.203 279.504 274.911 283.043 274.911C284.82 274.842 286.549 274.313 288.059 273.375L344.577 240.727C350.61 237.247 355.5 228.966 355.5 222.237C355.5 217.525 353.103 214.817 349.564 214.817V214.809Z" fill="#EBEBEB"/>
<path d="M296.889 256.257C297.119 255.827 297.082 255.382 296.889 255.263L294.997 254.172C294.957 254.151 294.912 254.141 294.867 254.141C294.822 254.141 294.777 254.151 294.737 254.172L293.001 254.84L292.43 253.623C292.401 253.563 292.354 253.514 292.296 253.482L290.404 252.384C290.166 252.25 289.773 252.555 289.617 253.059L288.438 256.925C288.373 257.158 288.238 257.365 288.052 257.519L285.418 259.559C284.995 259.878 284.831 260.665 285.136 260.88L287.043 262.26C287.108 262.328 287.156 262.41 287.182 262.501C287.208 262.592 287.211 262.687 287.191 262.779L286.738 266.541C286.701 266.816 286.783 267.001 286.909 267.068L288.801 268.166C288.95 268.248 289.172 268.166 289.372 267.921L291.732 264.909C291.781 264.827 291.851 264.758 291.934 264.71C292.017 264.662 292.111 264.636 292.207 264.634L294.574 264.894C294.945 264.946 295.383 264.263 295.316 263.751L294.863 260.509C294.843 260.269 294.894 260.029 295.012 259.819L296.889 256.257Z" fill="#407BFF"/>
<path opacity="0.15" d="M296.867 255.248C296.826 255.229 296.782 255.22 296.737 255.22C296.692 255.22 296.648 255.229 296.607 255.248L293.965 256.257C293.931 256.274 293.894 256.284 293.855 256.285C293.817 256.287 293.779 256.281 293.743 256.267C293.708 256.253 293.675 256.231 293.649 256.204C293.622 256.177 293.601 256.144 293.587 256.109L292.979 254.818L294.715 254.157C294.755 254.137 294.8 254.126 294.845 254.126C294.89 254.126 294.934 254.137 294.975 254.157L296.867 255.248Z" fill="white"/>
<path opacity="0.15" d="M290.308 258.008C290.241 258.24 290.107 258.447 289.922 258.602L287.288 260.635C287.166 260.729 287.07 260.851 287.006 260.991L285.114 259.893C285.181 259.756 285.278 259.634 285.395 259.537L288.03 257.504C288.215 257.352 288.349 257.147 288.415 256.917L290.308 258.008Z" fill="white"/>
<path opacity="0.1" d="M292.289 253.474C292.051 253.319 291.651 253.623 291.487 254.142L290.307 258.008L288.415 256.91L289.595 253.044C289.751 252.54 290.144 252.235 290.382 252.369C290.434 252.369 292.036 253.333 292.281 253.467L292.289 253.474Z" fill="black"/>
<path opacity="0.25" d="M288.913 263.343L287.035 262.26L285.128 260.88C284.906 260.716 284.935 260.271 285.128 259.908L287.02 261.006C286.828 261.362 286.798 261.815 287.02 261.978L288.913 263.343Z" fill="black"/>
<path opacity="0.15" d="M288.638 267.624C288.638 267.899 288.683 268.084 288.824 268.159L286.924 267.06C286.849 266.997 286.794 266.914 286.765 266.821C286.736 266.728 286.735 266.628 286.761 266.534L287.213 262.772C287.232 262.683 287.23 262.591 287.207 262.503C287.184 262.416 287.14 262.335 287.08 262.267L288.957 263.35C289.018 263.416 289.062 263.496 289.085 263.583C289.108 263.669 289.11 263.76 289.091 263.848L288.638 267.624Z" fill="black"/>
<path d="M292.407 253.608L293.587 256.116C293.601 256.152 293.622 256.184 293.649 256.212C293.676 256.239 293.708 256.26 293.743 256.274C293.779 256.288 293.817 256.294 293.856 256.293C293.894 256.291 293.931 256.281 293.966 256.264L296.607 255.255C297.023 255.092 297.193 255.686 296.889 256.257L294.982 259.833C294.865 260.043 294.813 260.284 294.834 260.523L295.286 263.766C295.353 264.278 294.915 264.961 294.544 264.909L292.185 264.619C292.089 264.621 291.995 264.647 291.912 264.695C291.829 264.743 291.759 264.811 291.71 264.894L289.38 267.906C289.002 268.389 288.564 268.218 288.638 267.617L289.091 263.855C289.112 263.763 289.11 263.667 289.084 263.576C289.058 263.485 289.009 263.403 288.942 263.336L287.035 261.963C286.731 261.74 286.902 260.961 287.317 260.635L289.951 258.602C290.138 258.448 290.273 258.241 290.337 258.008L291.517 254.142C291.673 253.526 292.214 253.215 292.407 253.608Z" fill="#407BFF"/>
<path opacity="0.5" d="M292.407 253.608L293.587 256.116C293.601 256.152 293.622 256.184 293.649 256.212C293.676 256.239 293.708 256.26 293.743 256.274C293.779 256.288 293.817 256.294 293.856 256.293C293.894 256.291 293.931 256.281 293.966 256.264L296.607 255.255C297.023 255.092 297.193 255.686 296.889 256.257L294.982 259.833C294.865 260.043 294.813 260.284 294.834 260.523L295.286 263.766C295.353 264.278 294.915 264.961 294.544 264.909L292.185 264.619C292.089 264.621 291.995 264.647 291.912 264.695C291.829 264.743 291.759 264.811 291.71 264.894L289.38 267.906C289.002 268.389 288.564 268.218 288.638 267.617L289.091 263.855C289.112 263.763 289.11 263.667 289.084 263.576C289.058 263.485 289.009 263.403 288.942 263.336L287.035 261.963C286.731 261.74 286.902 260.961 287.317 260.635L289.951 258.602C290.138 258.448 290.273 258.241 290.337 258.008L291.517 254.142C291.673 253.526 292.214 253.215 292.407 253.608Z" fill="white"/>
<path d="M310.156 248.615C310.386 248.184 310.341 247.746 310.156 247.628L308.271 246.537C308.23 246.516 308.184 246.505 308.138 246.505C308.091 246.505 308.046 246.516 308.004 246.537L306.275 247.205L305.697 245.988C305.673 245.927 305.628 245.877 305.57 245.847L303.678 244.749C303.441 244.615 303.048 244.919 302.892 245.424L301.66 249.312C301.593 249.544 301.458 249.75 301.274 249.906L298.64 251.939C298.217 252.265 298.054 253.052 298.351 253.267L300.265 254.647C300.331 254.715 300.378 254.798 300.403 254.889C300.427 254.979 300.428 255.075 300.406 255.166L299.961 258.928C299.924 259.203 299.998 259.388 300.124 259.455L301.994 260.516C302.142 260.598 302.358 260.516 302.565 260.271L304.925 257.259C304.974 257.176 305.044 257.108 305.127 257.06C305.21 257.012 305.304 256.986 305.4 256.984L307.759 257.274C308.13 257.318 308.568 256.643 308.501 256.131L308.056 252.888C308.032 252.649 308.084 252.407 308.205 252.198L310.156 248.615Z" fill="#407BFF"/>
<path opacity="0.15" d="M310.112 247.62C310.071 247.602 310.026 247.593 309.982 247.593C309.937 247.593 309.893 247.602 309.852 247.62L307.188 248.629C307.153 248.646 307.115 248.656 307.076 248.658C307.038 248.659 306.999 248.653 306.963 248.639C306.927 248.625 306.894 248.604 306.866 248.577C306.838 248.55 306.817 248.517 306.802 248.481L306.201 247.19L307.93 246.529C307.972 246.509 308.017 246.499 308.064 246.499C308.11 246.499 308.156 246.509 308.197 246.529L310.112 247.62Z" fill="white"/>
<path opacity="0.15" d="M303.552 250.373C303.486 250.605 303.352 250.812 303.166 250.967L300.51 253.022C300.389 253.117 300.292 253.239 300.228 253.378L298.351 252.28C298.424 252.144 298.522 252.023 298.64 251.924L301.274 249.891C301.458 249.735 301.593 249.529 301.66 249.297L303.552 250.373Z" fill="white"/>
<path opacity="0.1" d="M305.533 245.84C305.296 245.684 304.895 245.988 304.732 246.507L303.552 250.373L301.66 249.312L302.84 245.446C302.996 244.942 303.389 244.638 303.626 244.771C303.678 244.771 305.281 245.736 305.518 245.862L305.533 245.84Z" fill="black"/>
<path opacity="0.25" d="M302.157 255.7L300.28 254.625L298.373 253.244C298.158 253.081 298.187 252.636 298.373 252.272L300.273 253.371C300.08 253.727 300.05 254.179 300.273 254.335L302.157 255.7Z" fill="black"/>
<path opacity="0.15" d="M301.853 259.982C301.816 260.264 301.898 260.45 302.031 260.524L300.139 259.426C300.013 259.351 299.939 259.173 299.976 258.899L300.428 255.137C300.445 255.048 300.442 254.957 300.419 254.869C300.396 254.782 300.354 254.701 300.295 254.632L302.172 255.708C302.233 255.774 302.277 255.854 302.3 255.94C302.323 256.027 302.325 256.118 302.306 256.205L301.853 259.982Z" fill="black"/>
<path d="M305.645 245.973L306.824 248.481C306.839 248.517 306.861 248.55 306.888 248.577C306.916 248.604 306.949 248.626 306.985 248.64C307.021 248.654 307.06 248.66 307.099 248.658C307.137 248.656 307.175 248.647 307.21 248.63L309.852 247.62C310.267 247.457 310.438 248.051 310.134 248.615L308.227 252.199C308.106 252.407 308.054 252.649 308.078 252.889L308.524 256.131C308.598 256.643 308.16 257.318 307.782 257.274L305.422 256.985C305.326 256.986 305.232 257.012 305.149 257.06C305.066 257.108 304.996 257.177 304.947 257.259L302.588 260.272C302.209 260.754 301.771 260.583 301.846 259.982L302.298 256.22C302.318 256.128 302.315 256.033 302.289 255.942C302.263 255.851 302.215 255.768 302.15 255.701L300.243 254.328C299.939 254.106 300.102 253.326 300.525 253L303.159 250.967C303.346 250.814 303.48 250.606 303.545 250.373L304.725 246.507C304.917 245.892 305.459 245.602 305.645 245.973Z" fill="#407BFF"/>
<path opacity="0.5" d="M305.645 245.973L306.824 248.481C306.839 248.517 306.861 248.55 306.888 248.577C306.916 248.604 306.949 248.626 306.985 248.64C307.021 248.654 307.06 248.66 307.099 248.658C307.137 248.656 307.175 248.647 307.21 248.63L309.852 247.62C310.267 247.457 310.438 248.051 310.134 248.615L308.227 252.199C308.106 252.407 308.054 252.649 308.078 252.889L308.524 256.131C308.598 256.643 308.16 257.318 307.782 257.274L305.422 256.985C305.326 256.986 305.232 257.012 305.149 257.06C305.066 257.108 304.996 257.177 304.947 257.259L302.588 260.272C302.209 260.754 301.771 260.583 301.846 259.982L302.298 256.22C302.318 256.128 302.315 256.033 302.289 255.942C302.263 255.851 302.215 255.768 302.15 255.701L300.243 254.328C299.939 254.106 300.102 253.326 300.525 253L303.159 250.967C303.346 250.814 303.48 250.606 303.545 250.373L304.725 246.507C304.917 245.892 305.459 245.602 305.645 245.973Z" fill="white"/>
<path d="M323.378 240.98C323.601 240.549 323.564 240.111 323.378 239.993L321.464 238.924C321.422 238.905 321.377 238.896 321.33 238.896C321.284 238.896 321.239 238.905 321.197 238.924L319.461 239.592L318.889 238.375C318.866 238.314 318.821 238.264 318.763 238.234L316.871 237.136C316.634 237.002 316.233 237.307 316.085 237.811L314.905 241.677C314.837 241.909 314.703 242.115 314.519 242.271L311.877 244.304C311.462 244.63 311.291 245.409 311.595 245.632L313.502 247.012C313.571 247.078 313.621 247.16 313.647 247.252C313.673 247.343 313.674 247.439 313.651 247.531L313.198 251.293C313.198 251.568 313.243 251.746 313.369 251.82L315.261 252.918C315.417 253 315.632 252.918 315.84 252.673L318.192 249.661C318.242 249.577 318.312 249.508 318.397 249.46C318.481 249.412 318.577 249.387 318.674 249.386L321.026 249.676C321.405 249.72 321.842 249.045 321.768 248.533L321.323 245.291C321.3 245.052 321.349 244.811 321.464 244.6L323.378 240.98Z" fill="#407BFF"/>
<path opacity="0.15" d="M323.356 239.985C323.314 239.967 323.269 239.957 323.223 239.957C323.177 239.957 323.131 239.967 323.089 239.985L320.455 240.994C320.42 241.011 320.382 241.021 320.343 241.023C320.305 241.025 320.266 241.018 320.23 241.004C320.193 240.99 320.161 240.969 320.133 240.942C320.105 240.915 320.084 240.882 320.069 240.846L319.461 239.555L321.197 238.895C321.237 238.874 321.282 238.864 321.327 238.864C321.372 238.864 321.416 238.874 321.457 238.895L323.356 239.985Z" fill="white"/>
<path opacity="0.15" d="M316.834 242.73C316.767 242.964 316.633 243.173 316.448 243.331L313.814 245.364C313.693 245.46 313.594 245.582 313.525 245.721L311.633 244.622C311.706 244.487 311.804 244.366 311.922 244.266L314.556 242.233C314.74 242.078 314.875 241.871 314.942 241.64L316.834 242.73Z" fill="white"/>
<path opacity="0.1" d="M318.778 238.182C318.541 238.026 318.132 238.331 317.977 238.843L316.834 242.731L314.942 241.64L316.122 237.774C316.277 237.27 316.671 236.965 316.908 237.099C316.96 237.099 318.555 238.063 318.8 238.19L318.778 238.182Z" fill="black"/>
<path opacity="0.25" d="M315.394 248.065L313.525 246.989L311.595 245.602C311.38 245.439 311.402 244.993 311.595 244.63L313.488 245.728C313.302 246.084 313.272 246.537 313.488 246.693L315.394 248.065Z" fill="black"/>
<path opacity="0.15" d="M315.098 252.347C315.061 252.629 315.142 252.814 315.276 252.889L313.384 251.79C313.258 251.716 313.183 251.538 313.213 251.264L313.666 247.494C313.685 247.407 313.683 247.317 313.662 247.231C313.64 247.144 313.598 247.064 313.54 246.997L315.409 248.073C315.468 248.14 315.51 248.22 315.533 248.306C315.556 248.392 315.559 248.483 315.543 248.57L315.098 252.347Z" fill="black"/>
<path d="M318.889 238.338L320.069 240.846C320.084 240.882 320.105 240.915 320.133 240.942C320.161 240.969 320.193 240.99 320.23 241.004C320.266 241.018 320.305 241.025 320.343 241.023C320.382 241.021 320.42 241.012 320.455 240.994L323.089 239.985C323.512 239.822 323.675 240.416 323.378 240.98L321.464 244.563C321.349 244.774 321.3 245.015 321.323 245.254L321.768 248.496C321.843 249.008 321.405 249.683 321.026 249.639L318.674 249.349C318.577 249.35 318.481 249.375 318.397 249.423C318.312 249.471 318.242 249.54 318.192 249.624L315.84 252.636C315.461 253.119 315.024 252.948 315.098 252.347L315.543 248.585C315.565 248.494 315.564 248.398 315.539 248.307C315.515 248.216 315.467 248.133 315.402 248.066L313.488 246.686C313.191 246.47 313.354 245.684 313.777 245.365L316.411 243.332C316.595 243.176 316.73 242.97 316.797 242.738L317.977 238.872C318.162 238.256 318.704 237.945 318.889 238.338Z" fill="#407BFF"/>
<path opacity="0.5" d="M318.889 238.338L320.069 240.846C320.084 240.882 320.105 240.915 320.133 240.942C320.161 240.969 320.193 240.99 320.23 241.004C320.266 241.018 320.305 241.025 320.343 241.023C320.382 241.021 320.42 241.012 320.455 240.994L323.089 239.985C323.512 239.822 323.675 240.416 323.378 240.98L321.464 244.563C321.349 244.774 321.3 245.015 321.323 245.254L321.768 248.496C321.843 249.008 321.405 249.683 321.026 249.639L318.674 249.349C318.577 249.35 318.481 249.375 318.397 249.423C318.312 249.471 318.242 249.54 318.192 249.624L315.84 252.636C315.461 253.119 315.024 252.948 315.098 252.347L315.543 248.585C315.565 248.494 315.564 248.398 315.539 248.307C315.515 248.216 315.467 248.133 315.402 248.066L313.488 246.686C313.191 246.47 313.354 245.684 313.777 245.365L316.411 243.332C316.595 243.176 316.73 242.97 316.797 242.738L317.977 238.872C318.162 238.256 318.704 237.945 318.889 238.338Z" fill="white"/>
<path d="M336.616 233.344C336.846 232.914 336.809 232.476 336.616 232.357L334.731 231.259C334.689 231.24 334.643 231.231 334.597 231.231C334.551 231.231 334.506 231.24 334.464 231.259L332.728 231.927L332.156 230.71C332.131 230.648 332.087 230.596 332.03 230.562C331.793 230.436 330.19 229.501 330.138 229.471C329.901 229.337 329.5 229.642 329.344 230.146L328.164 234.012C328.1 234.243 327.968 234.45 327.786 234.606L325.144 236.639C324.729 236.965 324.558 237.744 324.862 237.967L326.769 239.347C326.837 239.412 326.886 239.493 326.912 239.583C326.938 239.673 326.94 239.768 326.918 239.859L326.465 243.621C326.465 243.895 326.51 244.081 326.636 244.155L328.528 245.253C328.676 245.335 328.899 245.253 329.099 245.008L331.459 241.996C331.508 241.913 331.578 241.845 331.661 241.797C331.744 241.749 331.838 241.723 331.934 241.721L334.293 242.011C334.672 242.055 335.109 241.38 335.035 240.868L334.583 237.625C334.565 237.386 334.616 237.146 334.731 236.935L336.616 233.344Z" fill="#407BFF"/>
<path opacity="0.15" d="M336.593 232.35C336.553 232.331 336.508 232.322 336.464 232.322C336.419 232.322 336.374 232.331 336.334 232.35L333.692 233.359C333.658 233.376 333.62 233.386 333.582 233.387C333.544 233.389 333.506 233.383 333.47 233.369C333.434 233.355 333.402 233.333 333.375 233.306C333.348 233.279 333.327 233.246 333.314 233.211L332.705 231.92L334.442 231.259C334.481 231.237 334.526 231.226 334.571 231.226C334.617 231.226 334.662 231.237 334.701 231.259L336.593 232.35Z" fill="white"/>
<path opacity="0.15" d="M330.042 235.095C329.974 235.329 329.84 235.538 329.656 235.696L327.022 237.729C326.9 237.825 326.801 237.947 326.732 238.085L324.84 236.987C324.911 236.852 325.006 236.731 325.122 236.631L327.756 234.598C327.945 234.445 328.083 234.238 328.15 234.004L330.042 235.095Z" fill="white"/>
<path opacity="0.1" d="M332.023 230.569C331.785 230.413 331.377 230.718 331.221 231.23L330.042 235.095L328.149 234.005L329.329 230.139C329.478 229.634 329.878 229.33 330.116 229.464C330.168 229.464 331.763 230.428 332.008 230.554L332.023 230.569Z" fill="black"/>
<path opacity="0.25" d="M328.639 240.408L326.769 239.332L324.862 237.952C324.64 237.789 324.67 237.344 324.862 236.98L326.755 238.078C326.562 238.434 326.539 238.887 326.755 239.043L328.639 240.408Z" fill="black"/>
<path opacity="0.15" d="M328.335 244.712C328.335 244.994 328.387 245.179 328.521 245.253L326.614 244.118C326.487 244.044 326.413 243.866 326.443 243.591L326.896 239.822C326.913 239.735 326.911 239.645 326.889 239.559C326.867 239.473 326.826 239.393 326.769 239.325L328.639 240.401C328.698 240.468 328.739 240.548 328.761 240.634C328.783 240.721 328.785 240.811 328.765 240.898L328.335 244.712Z" fill="black"/>
<path d="M332.134 230.703L333.314 233.21C333.328 233.246 333.35 233.279 333.378 233.306C333.405 233.334 333.438 233.355 333.474 233.369C333.511 233.383 333.549 233.389 333.588 233.387C333.627 233.386 333.665 233.376 333.7 233.359L336.334 232.35C336.757 232.187 336.92 232.78 336.616 233.344L334.709 236.928C334.594 237.139 334.543 237.378 334.56 237.618L335.013 240.86C335.087 241.372 334.649 242.048 334.271 242.003L331.911 241.714C331.815 241.715 331.721 241.741 331.638 241.789C331.555 241.837 331.486 241.906 331.437 241.988L329.077 245.001C328.706 245.483 328.268 245.312 328.335 244.711L328.788 240.95C328.811 240.858 328.81 240.761 328.784 240.67C328.758 240.578 328.708 240.496 328.639 240.43L326.732 239.05C326.428 238.835 326.599 238.048 327.014 237.729L329.656 235.696C329.839 235.539 329.973 235.333 330.042 235.103L331.221 231.229C331.407 230.621 331.949 230.309 332.134 230.703Z" fill="#407BFF"/>
<path opacity="0.5" d="M332.134 230.703L333.314 233.21C333.328 233.246 333.35 233.279 333.378 233.306C333.405 233.334 333.438 233.355 333.474 233.369C333.511 233.383 333.549 233.389 333.588 233.387C333.627 233.386 333.665 233.376 333.7 233.359L336.334 232.35C336.757 232.187 336.92 232.78 336.616 233.344L334.709 236.928C334.594 237.139 334.543 237.378 334.56 237.618L335.013 240.86C335.087 241.372 334.649 242.048 334.271 242.003L331.911 241.714C331.815 241.715 331.721 241.741 331.638 241.789C331.555 241.837 331.486 241.906 331.437 241.988L329.077 245.001C328.706 245.483 328.268 245.312 328.335 244.711L328.788 240.95C328.811 240.858 328.81 240.761 328.784 240.67C328.758 240.578 328.708 240.496 328.639 240.43L326.732 239.05C326.428 238.835 326.599 238.048 327.014 237.729L329.656 235.696C329.839 235.539 329.973 235.333 330.042 235.103L331.221 231.229C331.407 230.621 331.949 230.309 332.134 230.703Z" fill="white"/>
<path d="M349.86 225.709C350.09 225.279 350.053 224.841 349.86 224.715L347.968 223.624C347.928 223.605 347.883 223.596 347.838 223.596C347.794 223.596 347.749 223.605 347.709 223.624L345.972 224.292L345.401 223.075C345.371 223.016 345.328 222.966 345.275 222.926C345.03 222.8 343.427 221.865 343.383 221.836C343.138 221.702 342.745 221.999 342.589 222.511L341.409 226.377C341.345 226.61 341.21 226.817 341.023 226.97L338.352 228.996C337.929 229.322 337.766 230.102 338.07 230.324L339.977 231.704C340.044 231.769 340.094 231.851 340.12 231.94C340.146 232.03 340.148 232.125 340.125 232.216L339.688 235.956C339.688 236.23 339.732 236.416 339.858 236.49L341.75 237.588C341.899 237.67 342.121 237.588 342.322 237.343L344.681 234.331C344.73 234.249 344.8 234.18 344.883 234.132C344.966 234.084 345.06 234.058 345.156 234.056L347.516 234.346C347.887 234.39 348.324 233.715 348.258 233.203L347.805 229.961C347.784 229.721 347.836 229.48 347.953 229.27L349.86 225.709Z" fill="#407BFF"/>
<path opacity="0.15" d="M349.838 224.715C349.798 224.695 349.753 224.684 349.708 224.684C349.663 224.684 349.619 224.695 349.578 224.715L346.937 225.724C346.903 225.741 346.865 225.751 346.827 225.752C346.789 225.754 346.751 225.747 346.715 225.733C346.679 225.719 346.647 225.698 346.62 225.671C346.593 225.644 346.572 225.611 346.559 225.576L345.95 224.284L347.686 223.617C347.726 223.596 347.771 223.585 347.816 223.585C347.861 223.585 347.906 223.596 347.946 223.617L349.838 224.715Z" fill="white"/>
<path opacity="0.15" d="M343.286 227.46C343.217 227.694 343.08 227.903 342.893 228.061L340.259 230.094C340.14 230.19 340.043 230.312 339.977 230.45L338.085 229.352C338.153 229.215 338.249 229.093 338.367 228.996L341.001 226.963C341.188 226.809 341.322 226.602 341.387 226.369L343.286 227.46Z" fill="white"/>
<path opacity="0.1" d="M345.267 222.927C345.03 222.778 344.622 223.082 344.466 223.594L343.286 227.46L341.387 226.369L342.566 222.504C342.722 221.999 343.123 221.695 343.36 221.828C343.412 221.828 345.008 222.793 345.253 222.919L345.267 222.927Z" fill="black"/>
<path opacity="0.25" d="M341.884 232.795L340.007 231.719L338.1 230.339C337.877 230.176 337.907 229.731 338.1 229.367L339.992 230.465C339.799 230.822 339.769 231.274 339.992 231.43L341.884 232.795Z" fill="black"/>
<path opacity="0.15" d="M341.58 237.076C341.58 237.358 341.624 237.544 341.765 237.611L339.836 236.513C339.71 236.438 339.636 236.26 339.665 235.978L340.118 232.216C340.136 232.129 340.134 232.038 340.11 231.952C340.087 231.866 340.044 231.786 339.984 231.719L341.862 232.795C341.92 232.862 341.963 232.942 341.985 233.029C342.006 233.115 342.008 233.205 341.988 233.292L341.58 237.076Z" fill="black"/>
<path d="M345.379 223.068L346.558 225.576C346.573 225.612 346.595 225.644 346.622 225.671C346.65 225.699 346.683 225.72 346.719 225.734C346.755 225.748 346.794 225.754 346.833 225.752C346.871 225.751 346.909 225.741 346.944 225.724L349.578 224.715C349.994 224.552 350.165 225.145 349.86 225.709L347.953 229.278C347.836 229.488 347.784 229.728 347.805 229.968L348.258 233.211C348.324 233.723 347.887 234.398 347.516 234.353L345.156 234.064C345.06 234.066 344.966 234.092 344.883 234.14C344.8 234.188 344.73 234.256 344.681 234.339L342.322 237.351C341.951 237.833 341.513 237.655 341.58 237.062L342.032 233.3C342.054 233.208 342.051 233.112 342.025 233.021C341.999 232.93 341.951 232.847 341.884 232.78L339.977 231.4C339.673 231.185 339.843 230.399 340.259 230.079L342.9 228.046C343.079 227.888 343.21 227.682 343.279 227.453L344.459 223.58C344.652 222.986 345.193 222.667 345.379 223.068Z" fill="#407BFF"/>
<path opacity="0.5" d="M345.379 223.068L346.558 225.576C346.573 225.612 346.595 225.644 346.622 225.671C346.65 225.699 346.683 225.72 346.719 225.734C346.755 225.748 346.794 225.754 346.833 225.752C346.871 225.751 346.909 225.741 346.944 225.724L349.578 224.715C349.994 224.552 350.165 225.145 349.86 225.709L347.953 229.278C347.836 229.488 347.784 229.728 347.805 229.968L348.258 233.211C348.324 233.723 347.887 234.398 347.516 234.353L345.156 234.064C345.06 234.066 344.966 234.092 344.883 234.14C344.8 234.188 344.73 234.256 344.681 234.339L342.322 237.351C341.951 237.833 341.513 237.655 341.58 237.062L342.032 233.3C342.054 233.208 342.051 233.112 342.025 233.021C341.999 232.93 341.951 232.847 341.884 232.78L339.977 231.4C339.673 231.185 339.843 230.399 340.259 230.079L342.9 228.046C343.079 227.888 343.21 227.682 343.279 227.453L344.459 223.58C344.652 222.986 345.193 222.667 345.379 223.068Z" fill="white"/>
<path d="M354.913 42.294L348.977 44.839L347.709 51.1683C347.672 51.3422 347.588 51.5025 347.466 51.6314C347.344 51.7603 347.188 51.8526 347.016 51.8981C346.845 51.9435 346.664 51.9403 346.494 51.8887C346.324 51.8371 346.171 51.7393 346.054 51.6061L341.802 46.746L335.384 47.488C335.2 47.5158 335.012 47.4891 334.843 47.4111C334.675 47.3332 334.533 47.2074 334.435 47.0494C334.337 46.8914 334.287 46.7081 334.292 46.5223C334.298 46.3365 334.357 46.1562 334.464 46.004L337.766 40.4612L335.08 34.592C335.014 34.4344 334.993 34.2621 335.017 34.0932C335.041 33.9244 335.11 33.7651 335.217 33.6323C335.325 33.4994 335.465 33.3978 335.625 33.3382C335.785 33.2786 335.958 33.2632 336.126 33.2935L342.418 34.7256L347.167 30.3552C347.297 30.2333 347.459 30.1506 347.635 30.1165C347.81 30.0825 347.991 30.0986 348.158 30.1629C348.324 30.2271 348.469 30.3371 348.576 30.48C348.683 30.623 348.748 30.7932 348.762 30.9711L349.348 37.3968L354.973 40.5577C355.138 40.6378 355.277 40.7644 355.372 40.9219C355.467 41.0795 355.515 41.2612 355.508 41.4452C355.502 41.6291 355.443 41.8072 355.337 41.9579C355.231 42.1086 355.084 42.2254 354.913 42.294Z" fill="#E0E0E0"/>
<path d="M322.199 31.2975C322.146 31.3659 322.084 31.426 322.013 31.4756C321.887 31.5662 321.739 31.6197 321.584 31.6302C321.429 31.6407 321.274 31.6077 321.138 31.5349L317.836 29.7986L314.526 31.5349C314.389 31.6077 314.235 31.6407 314.08 31.6302C313.925 31.6197 313.777 31.5662 313.651 31.4756C313.523 31.3855 313.425 31.2605 313.367 31.1157C313.309 30.9709 313.294 30.8124 313.324 30.6594L313.955 26.9494L311.276 24.3449C311.165 24.2368 311.086 24.0993 311.049 23.9483C311.012 23.7973 311.019 23.639 311.069 23.4916C311.115 23.344 311.202 23.2126 311.321 23.1128C311.439 23.0129 311.583 22.9487 311.736 22.9277L315.446 22.3935L317.101 19.0396C317.169 18.9011 317.275 18.7846 317.406 18.7032C317.537 18.6219 317.689 18.579 317.843 18.5796C317.997 18.5807 318.148 18.6243 318.279 18.7054C318.41 18.7866 318.516 18.9022 318.585 19.0396L320.24 22.3935L323.95 22.9277C324.103 22.9501 324.247 23.015 324.366 23.115C324.484 23.2149 324.572 23.346 324.62 23.4934C324.668 23.6408 324.673 23.7987 324.636 23.9492C324.599 24.0996 324.521 24.2367 324.41 24.3449L321.731 26.9494L322.369 30.6594C322.398 30.8862 322.337 31.1152 322.199 31.2975ZM311.64 23.5881L311.595 23.6846C311.577 23.74 311.575 23.7995 311.589 23.8561C311.604 23.9127 311.634 23.9639 311.677 24.0036L314.541 26.801L313.866 30.7484C313.857 30.8065 313.864 30.866 313.886 30.9203C313.909 30.9746 313.946 31.0217 313.994 31.0562C314.041 31.0908 314.098 31.1115 314.156 31.1161C314.215 31.1207 314.274 31.109 314.326 31.0823L317.873 29.2199L321.412 31.0823C321.463 31.1116 321.52 31.127 321.579 31.127C321.638 31.127 321.695 31.1116 321.746 31.0823C321.795 31.0485 321.834 31.0009 321.856 30.9455C321.878 30.8901 321.884 30.8292 321.872 30.7707L321.197 26.8232L324.061 24.0259C324.102 23.9851 324.132 23.9339 324.146 23.8777C324.161 23.8215 324.159 23.7624 324.143 23.7068C324.126 23.6504 324.093 23.6 324.048 23.5618C324.004 23.5236 323.949 23.4993 323.89 23.4916L319.921 22.9129L318.11 19.2919C318.086 19.238 318.046 19.1924 317.996 19.1608C317.946 19.1292 317.887 19.1128 317.828 19.1138C317.775 19.1197 317.723 19.1392 317.679 19.1703C317.635 19.2015 317.599 19.2433 317.576 19.2919L315.81 22.8832L311.84 23.462C311.76 23.4781 311.689 23.523 311.64 23.5881Z" fill="#E0E0E0"/>
<path d="M280.877 80.878C275.289 77.6429 267.61 78.0807 259.121 82.9779C242.055 92.8465 228.187 117.013 228.187 136.966C228.187 147.005 231.704 154.032 237.366 157.319C238.679 158.061 243.814 161.029 243.814 161.029C243.573 163.287 242.793 165.454 241.539 167.347C240.285 169.24 238.594 170.804 236.609 171.907C236.282 172.092 236.483 172.411 236.772 172.574L244.615 177.108C244.721 177.171 244.841 177.207 244.964 177.212C252.688 177.212 261.629 172.018 264.122 161.229C265.057 160.784 266 160.302 266.957 159.745C284.023 149.884 297.891 125.71 297.891 105.765C297.891 95.718 294.381 88.6987 288.72 85.3894L280.877 80.878Z" fill="#37474F"/>
<path d="M266.957 87.5041C249.891 97.3653 236.023 121.54 236.023 141.485C236.023 155.026 242.396 163.129 251.835 163.871C251.479 168.174 250.225 173.012 244.415 176.433C243.955 176.707 244.556 177.219 244.942 177.219C252.666 177.219 261.607 172.025 264.1 161.237C265.035 160.791 265.977 160.309 266.934 159.753C284 149.891 297.868 125.717 297.868 105.772C297.868 85.8272 284.038 77.643 266.957 87.5041Z" fill="#455A64"/>
<path d="M244.437 176.433C244.155 176.611 244.281 176.871 244.519 177.049L236.772 172.597C236.483 172.419 236.282 172.114 236.609 171.922C238.598 170.817 240.292 169.249 241.546 167.35C242.801 165.451 243.578 163.278 243.814 161.014L244.667 161.519L245.454 161.979C247.419 163.059 249.597 163.698 251.835 163.849C251.486 168.174 250.225 173.012 244.437 176.433Z" fill="#263238"/>
<path d="M263.692 144.609C262.868 144.022 262.453 142.969 262.453 141.448C262.471 139.863 262.889 138.308 263.67 136.929C264.378 135.55 265.458 134.396 266.786 133.597C268.047 132.87 269.084 132.784 269.895 133.338C270.704 133.887 271.112 134.925 271.112 136.447C271.088 138.059 270.662 139.64 269.873 141.047C269.181 142.44 268.112 143.61 266.786 144.423C265.554 145.128 264.523 145.195 263.692 144.609ZM262.586 104.273L270.978 99.4282L269.576 127.713L263.989 130.941L262.586 104.273Z" fill="#FAFAFA"/>
<path opacity="0.2" d="M271.082 157.044C280.194 150.366 288.052 139.778 292.86 128.411C283.748 135.096 275.89 145.677 271.082 157.044Z" fill="black"/>
<path d="M329.344 195.703C326.183 195.74 323.831 193.528 322.354 190.746C331.822 179.104 338.226 163.596 338.226 150.032C338.226 139.978 334.701 132.914 329.025 129.65L321.197 125.138C315.61 121.911 307.937 122.356 299.456 127.246C282.39 137.114 268.522 161.281 268.522 181.234C268.522 191.273 272.032 198.3 277.693 201.601C279.014 202.343 284.216 205.356 285.499 206.105C291.094 209.363 298.789 208.932 307.292 204.02C309.569 202.695 311.731 201.181 313.755 199.494C319.498 204.043 326.502 199.086 329.277 196.712C329.648 196.4 329.693 195.703 329.344 195.703Z" fill="#E0E0E0"/>
<path d="M293.602 207.76C283.259 207.76 276.84 199.338 276.84 185.79C276.84 166.023 290.612 142.012 307.529 132.225C312.263 129.494 316.789 128.106 320.982 128.106C331.318 128.106 337.744 136.521 337.744 150.077C337.744 163.04 331.704 178.525 321.983 190.479L321.783 190.731L321.932 191.013C323.675 194.3 326.205 196.14 329.07 196.207C329.049 196.27 329.014 196.326 328.966 196.37C326.992 198.062 323.074 200.889 319.015 200.889C317.208 200.897 315.454 200.278 314.052 199.138L313.747 198.901L313.443 199.146C311.438 200.804 309.298 202.293 307.047 203.598C302.32 206.336 297.794 207.76 293.602 207.76Z" fill="#FAFAFA"/>
<path d="M320.982 127.624V128.589C331.021 128.589 337.261 136.825 337.261 150.07C337.261 162.936 331.266 178.303 321.612 190.175L321.204 190.672L321.508 191.236C323.111 194.263 325.367 196.125 327.956 196.593C325.901 198.233 322.495 200.422 319.015 200.422C317.316 200.43 315.666 199.847 314.348 198.774L313.74 198.292L313.139 198.789C311.155 200.445 309.038 201.934 306.809 203.241C302.15 205.927 297.705 207.293 293.602 207.293C283.563 207.293 277.322 199.056 277.322 185.775C277.322 166.163 290.983 142.323 307.744 132.625C312.404 129.939 316.849 128.574 320.952 128.574V127.624M320.952 127.624C316.826 127.624 312.182 128.967 307.262 131.809C290.196 141.67 276.328 165.837 276.328 185.789C276.328 199.999 283.355 208.242 293.572 208.242C297.698 208.242 302.343 206.899 307.262 204.057C309.539 202.732 311.701 201.218 313.725 199.531C315.209 200.743 317.07 201.399 318.986 201.386C323.23 201.386 327.289 198.418 329.248 196.749C329.619 196.437 329.663 195.74 329.314 195.74H329.24C326.124 195.74 323.794 193.551 322.325 190.783C331.793 179.141 338.196 163.633 338.196 150.07C338.196 135.86 331.169 127.624 320.952 127.624Z" fill="#407BFF"/>
<path d="M305.704 171.291C306.604 169.131 307.637 167.03 308.798 164.999C309.598 163.604 310.326 162.171 310.98 160.702C311.43 159.695 311.67 158.607 311.685 157.504C311.685 156.02 311.239 155.108 310.349 154.752C309.459 154.395 308.286 154.655 306.81 155.494C305.35 156.35 304.072 157.485 303.048 158.833C301.904 160.326 300.97 161.968 300.273 163.715L294.819 162.594C296.039 159.372 297.767 156.366 299.939 153.69C302.063 151.065 304.654 148.854 307.581 147.168C311.044 145.19 313.817 144.571 315.899 145.313C317.982 146.055 319.025 148.177 319.03 151.68C319.04 153.261 318.835 154.836 318.422 156.362C318.056 157.744 317.559 159.088 316.938 160.376C316.352 161.578 315.587 163.01 314.66 164.672C313.761 166.206 312.948 167.789 312.226 169.413C311.729 170.587 311.476 171.849 311.484 173.123L304.68 177.056C304.653 175.087 305 173.13 305.704 171.291ZM304.962 190.382C304.138 189.796 303.723 188.743 303.723 187.214C303.741 185.629 304.159 184.075 304.94 182.695C305.648 181.319 306.724 180.165 308.049 179.364C309.318 178.622 310.349 178.547 311.165 179.104C311.981 179.66 312.382 180.699 312.382 182.22C312.357 183.831 311.931 185.409 311.143 186.813C310.451 188.208 309.378 189.379 308.049 190.189C306.854 190.902 305.83 190.961 304.999 190.382H304.962Z" fill="#455A64"/>
<path d="M148.979 137.493L114.847 157.26L128.403 180.306C128.664 180.928 129.12 181.449 129.702 181.79C131.319 182.703 140.898 188.253 141.425 188.557C141.836 188.794 142.295 188.935 142.768 188.969C143.242 189.004 143.716 188.93 144.157 188.754C144.597 188.579 144.993 188.305 145.312 187.955C145.632 187.605 145.868 187.187 146.003 186.732L160.725 144.304L148.979 137.493Z" fill="#407BFF"/>
<path opacity="0.2" d="M148.979 137.493L114.847 157.26L128.403 180.306C128.664 180.928 129.12 181.449 129.702 181.79C131.319 182.703 140.898 188.253 141.425 188.557C141.836 188.794 142.295 188.935 142.768 188.969C143.242 189.004 143.716 188.93 144.157 188.754C144.597 188.579 144.993 188.305 145.312 187.955C145.632 187.605 145.868 187.187 146.003 186.732L160.725 144.304L148.979 137.493Z" fill="black"/>
<path d="M126.593 164.041L140.149 187.088C140.408 187.673 140.841 188.165 141.388 188.496C141.936 188.828 142.572 188.983 143.211 188.941C143.85 188.899 144.46 188.661 144.96 188.261C145.459 187.86 145.823 187.316 146.003 186.702L160.725 144.274L126.593 164.041Z" fill="#407BFF"/>
<path d="M187.058 19.292L58.3435 93.5884C57.4806 94.1478 56.7619 94.9031 56.2462 95.7928C55.7304 96.6825 55.4321 97.6814 55.3755 98.7082V188.038C55.4302 189.061 55.7279 190.056 56.2441 190.942C56.7602 191.827 57.4799 192.576 58.3435 193.128L68.9318 199.064C69.8526 199.527 70.8691 199.768 71.8998 199.768C72.9306 199.768 73.947 199.527 74.8678 199.064L203.59 124.723C204.452 124.162 205.169 123.406 205.685 122.517C206.201 121.628 206.5 120.629 206.558 119.603V30.2736C206.503 29.2505 206.205 28.2552 205.689 27.3701C205.173 26.485 204.453 25.7355 203.59 25.1834L193.009 19.2474C192.083 18.7898 191.062 18.5554 190.028 18.5632C188.995 18.5709 187.978 18.8205 187.058 19.292Z" fill="#407BFF"/>
<path opacity="0.3" d="M206.506 29.7317C206.269 28.2477 205.059 27.7134 203.583 28.5593L74.8753 102.878C73.9982 103.426 73.2795 104.193 72.7902 105.104L56.3104 95.7177C56.805 94.8612 57.5033 94.1399 58.3435 93.6179L187.066 19.2917C187.987 18.8302 189.003 18.5898 190.034 18.5898C191.064 18.5898 192.08 18.8302 193.002 19.2917L203.583 25.2277C204.362 25.728 205.025 26.3883 205.529 27.1649C206.033 27.9415 206.366 28.8165 206.506 29.7317Z" fill="white"/>
<path d="M71.9147 197.669V108.332C71.9712 107.306 72.2696 106.308 72.7854 105.42C73.3013 104.531 74.0199 103.777 74.8827 103.219L203.59 28.9377C205.215 27.9954 206.558 28.7597 206.558 30.6443V119.944C206.5 120.97 206.201 121.969 205.685 122.858C205.169 123.748 204.452 124.503 203.59 125.064L74.8678 199.375C73.2354 200.34 71.9147 199.553 71.9147 197.669Z" fill="#407BFF"/>
<path opacity="0.2" d="M74.8679 199.034C73.9436 199.486 72.9285 199.72 71.8999 199.72C70.8712 199.72 69.8561 199.486 68.9319 199.034L58.3509 193.098C57.4881 192.549 56.7686 191.802 56.2524 190.92C55.7362 190.037 55.4381 189.044 55.3829 188.023V98.6858C55.4356 97.6317 55.7603 96.6092 56.3253 95.7178L72.7903 105.089C72.2475 105.962 71.9455 106.963 71.9147 107.99V197.32C71.9147 199.049 73.1316 200.043 74.8679 199.034Z" fill="black"/>
<path d="M108.028 126.14L106.744 125.398C106.253 125.117 105.696 124.969 105.13 124.969C104.564 124.969 104.008 125.117 103.516 125.398L95.6734 129.924V119.21L110.194 110.832C110.874 110.431 111.437 109.859 111.828 109.173C112.218 108.488 112.422 107.711 112.42 106.922V100.912C112.422 100.123 112.218 99.3465 111.828 98.6605C111.437 97.9746 110.874 97.4027 110.194 97.0016C109.508 96.6042 108.728 96.395 107.935 96.395C107.142 96.395 106.362 96.6042 105.676 97.0016L85.5377 108.629C84.3455 109.316 83.3556 110.306 82.6678 111.498C81.98 112.69 81.6185 114.042 81.6199 115.418V171.209C81.6165 172 81.8202 172.777 82.2107 173.465C82.6013 174.152 83.165 174.725 83.8459 175.127C84.5331 175.523 85.3122 175.731 86.1053 175.731C86.8984 175.731 87.6775 175.523 88.3647 175.127L93.388 172.233C94.0689 171.831 94.6327 171.258 95.0232 170.571C95.4138 169.883 95.6175 169.106 95.614 168.315V146.426L107.976 139.288C108.466 139.004 108.872 138.596 109.155 138.105C109.437 137.614 109.586 137.057 109.586 136.491V128.952C109.596 128.388 109.457 127.831 109.184 127.337C108.91 126.843 108.512 126.43 108.028 126.14Z" fill="#E0E0E0"/>
<path opacity="0.1" d="M88.8248 174.86L88.3944 175.112C87.7072 175.507 86.9284 175.715 86.1358 175.714C85.3431 175.714 84.5645 175.505 83.8779 175.109C83.1912 174.713 82.6206 174.144 82.223 173.458C81.8255 172.772 81.615 171.994 81.6125 171.202V115.411C81.6145 114.115 81.9383 112.84 82.5549 111.701L87.0737 114.305C86.4544 115.444 86.1305 116.719 86.1313 118.015V173.287C86.1326 173.602 86.2161 173.911 86.3735 174.184C86.5309 174.457 86.7567 174.684 87.0287 174.843C87.3008 175.001 87.6095 175.087 87.9245 175.09C88.2395 175.093 88.5498 175.013 88.8248 174.86Z" fill="black"/>
<path d="M95.6735 119.21V135.148L108.013 128.032C108.178 127.935 108.366 127.883 108.558 127.883C108.749 127.882 108.938 127.932 109.104 128.028C109.27 128.123 109.407 128.262 109.502 128.428C109.598 128.594 109.647 128.783 109.645 128.974V136.528C109.645 137.091 109.497 137.645 109.216 138.133C108.934 138.621 108.53 139.027 108.043 139.31L95.6735 146.448V168.33C95.6766 169.119 95.4726 169.894 95.0819 170.579C94.6913 171.264 94.1277 171.834 93.4475 172.233L88.8768 174.875C88.6023 175.034 88.2906 175.118 87.9732 175.118C87.6558 175.119 87.3439 175.035 87.0691 174.876C86.7943 174.717 86.5664 174.489 86.4082 174.214C86.2501 173.938 86.1674 173.626 86.1685 173.309V118.015C86.1686 116.639 86.5307 115.288 87.2183 114.096C87.906 112.904 88.8951 111.914 90.0862 111.226L110.031 99.7099C110.28 99.5665 110.561 99.4911 110.848 99.4912C111.135 99.4914 111.417 99.5671 111.665 99.7108C111.913 99.8545 112.119 100.061 112.262 100.31C112.405 100.558 112.48 100.84 112.48 101.127V106.937C112.482 107.723 112.277 108.496 111.887 109.179C111.496 109.861 110.933 110.429 110.254 110.825L95.6735 119.21Z" fill="#FAFAFA"/>
<path d="M138.754 85.5081C138.525 84.7334 138.124 84.0207 137.58 83.4236C137.036 82.8264 136.364 82.3603 135.614 82.0603C134.864 81.7604 134.056 81.6343 133.251 81.6917C132.445 81.7491 131.663 81.9884 130.963 82.3917L125.969 85.278C125.326 85.6487 124.767 86.1498 124.329 86.7491C123.891 87.3484 123.583 88.0326 123.424 88.758L108.532 156.562C108.416 157.133 108.481 157.727 108.719 158.259C108.958 158.792 109.357 159.236 109.86 159.53L111.226 160.316C111.649 160.561 112.129 160.689 112.617 160.689C113.105 160.689 113.585 160.561 114.008 160.316L120.026 156.844C120.863 156.331 121.546 155.6 122 154.729C122.507 153.85 122.88 152.9 123.105 151.91L125.524 139.548L137.693 132.521L138.954 137.545C139.133 138.2 139.541 138.768 140.104 139.147C140.609 139.444 144.119 141.455 144.623 141.759C144.949 141.899 145.307 141.947 145.658 141.9C146.009 141.853 146.341 141.712 146.619 141.492L153.965 137.248L138.754 85.5081ZM128.863 122.482L131.468 109.074L131.623 108.332L134.384 119.291L128.863 122.482Z" fill="#E0E0E0"/>
<path opacity="0.1" d="M144.564 141.722C143.903 141.329 140.594 139.437 140.112 139.147C139.548 138.768 139.14 138.2 138.962 137.545L137.7 132.521L141.069 130.577L143.48 140.149C143.658 140.778 144.039 141.331 144.564 141.722Z" fill="black"/>
<path opacity="0.1" d="M138.902 121.895L134.384 119.284L131.623 108.332C131.623 108.332 131.623 108.332 131.623 108.287C131.861 107.219 132.098 106.002 132.365 104.651C132.684 102.967 132.981 101.171 133.263 99.2495C133.585 100.793 133.904 102.215 134.22 103.516C134.539 104.815 134.836 105.928 135.118 106.862L138.902 121.895Z" fill="black"/>
<path opacity="0.1" d="M113.133 158.788C113.092 158.966 113.099 159.151 113.152 159.326C113.205 159.501 113.303 159.659 113.435 159.784C113.567 159.91 113.73 159.999 113.908 160.043C114.085 160.087 114.27 160.084 114.446 160.034V160.094L114.023 160.331C113.6 160.575 113.12 160.704 112.632 160.704C112.143 160.704 111.664 160.575 111.241 160.331L109.86 159.53C109.357 159.236 108.958 158.792 108.719 158.259C108.481 157.727 108.416 157.133 108.532 156.562L123.417 88.7874C123.553 88.1604 123.805 87.5641 124.159 87.0288L128.678 89.6406C128.32 90.171 128.068 90.7656 127.936 91.3918L113.133 158.788Z" fill="black"/>
<path d="M153.972 137.27L146.619 141.514C145.796 141.989 145.135 142.078 144.631 141.781C144.068 141.401 143.66 140.833 143.481 140.178L141.069 130.592L125.487 139.562L123.076 151.924C122.843 152.915 122.468 153.868 121.963 154.751C121.511 155.622 120.828 156.351 119.989 156.858L114.669 159.938C114.49 160.039 114.285 160.087 114.08 160.075C113.874 160.064 113.677 159.993 113.51 159.871C113.344 159.75 113.217 159.583 113.143 159.391C113.07 159.198 113.053 158.989 113.096 158.788L127.899 91.3696C128.058 90.6455 128.366 89.9627 128.805 89.3647C129.243 88.7668 129.801 88.2669 130.444 87.897L135.244 85.1219C135.586 84.9252 135.967 84.8084 136.36 84.7805C136.753 84.7525 137.147 84.8141 137.513 84.9605C137.879 85.107 138.206 85.3345 138.472 85.6259C138.737 85.9173 138.932 86.2651 139.043 86.643L153.972 137.27ZM138.902 121.91L135.118 106.848C134.836 105.92 134.539 104.8 134.22 103.501C133.901 102.203 133.582 100.778 133.263 99.2348C132.989 101.157 132.684 102.945 132.373 104.637C132.061 106.328 131.749 107.783 131.468 109.044L127.713 128.336L138.902 121.91Z" fill="#FAFAFA"/>
<path d="M189.143 111.3C190.439 109.072 191.577 106.756 192.549 104.37C193.553 101.909 194.395 99.3858 195.072 96.8159C195.754 94.2191 196.275 91.5824 196.63 88.9211C196.994 86.233 197.177 83.5236 197.179 80.811C197.258 76.8229 196.748 72.8449 195.665 69.0058C194.893 66.1208 193.414 63.4737 191.362 61.3038C190.715 60.6847 189.992 60.151 189.21 59.716L184.758 57.1338C183.348 56.3167 181.763 55.851 180.135 55.7759C177.523 55.6275 174.63 56.4709 171.454 58.3062C168.13 60.2579 165.185 62.7913 162.758 65.7855C160.081 69.0345 157.827 72.6098 156.05 76.4258C152.226 84.6559 150.231 93.6173 150.203 102.693C150.126 106.686 150.641 110.67 151.732 114.513C152.501 117.406 153.986 120.06 156.05 122.229C156.694 122.868 157.42 123.417 158.209 123.862C158.951 124.277 161.882 125.984 162.609 126.407C164.037 127.233 165.644 127.699 167.291 127.765C169.903 127.893 172.802 127.04 175.988 125.205C177.343 124.422 178.631 123.529 179.839 122.534L181.679 124.648C181.93 124.906 182.214 125.128 182.525 125.309C183.044 125.613 186.739 127.735 187.021 127.906C187.517 128.21 188.096 128.351 188.676 128.306C189.75 128.178 190.782 127.811 191.696 127.231L199.494 122.734L189.143 111.3ZM182.183 92.6756C181.711 95.2934 180.952 97.8514 179.92 100.303C179.016 102.476 177.804 104.508 176.321 106.336C174.968 108.004 173.324 109.414 171.469 110.498C170.11 111.379 168.545 111.89 166.928 111.982C166.114 110.664 165.535 109.216 165.214 107.701C164.643 105.079 164.379 102.4 164.427 99.7172C164.413 96.746 164.677 93.78 165.214 90.8577C165.674 88.2413 166.421 85.6834 167.44 83.2299C168.353 81.0475 169.572 79.0063 171.061 77.1678C172.424 75.4772 174.083 74.0491 175.958 72.9532C177.293 72.0996 178.827 71.6086 180.41 71.5286C181.232 72.8579 181.819 74.3187 182.146 75.847C182.728 78.4726 183.005 81.1567 182.97 83.8458C182.979 86.8168 182.715 89.7823 182.183 92.7053V92.6756Z" fill="#E0E0E0"/>
<path opacity="0.1" d="M162.424 126.325C161.481 125.784 158.892 124.277 158.209 123.891C157.42 123.446 156.694 122.897 156.05 122.259C153.986 120.089 152.501 117.436 151.732 114.542C150.641 110.699 150.126 106.716 150.203 102.722C150.203 98.1531 150.716 93.5983 151.732 89.1436C152.637 85.0867 153.949 81.1315 155.649 77.3384L160.168 79.9502C156.599 87.9485 154.744 96.6053 154.722 105.364C154.644 109.355 155.159 113.336 156.25 117.176C157.019 120.073 158.504 122.729 160.569 124.901C161.133 125.442 161.755 125.92 162.424 126.325Z" fill="black"/>
<path opacity="0.1" d="M184.439 73.458C184.003 72.9109 183.457 72.4603 182.838 72.1347C182.219 71.809 181.538 71.6153 180.84 71.5659C180.714 71.5659 180.581 71.5659 180.454 71.5659C181.273 72.8936 181.857 74.3517 182.183 75.8769C182.751 78.4943 183.014 81.1683 182.97 83.846C182.981 86.8319 182.718 89.8124 182.183 92.75C181.711 95.3679 180.952 97.9258 179.92 100.378C179.016 102.551 177.804 104.582 176.321 106.41C174.968 108.078 173.324 109.489 171.469 110.573C170.11 111.453 168.545 111.965 166.928 112.057C167.09 112.317 167.271 112.565 167.469 112.799C167.905 113.35 168.453 113.802 169.078 114.123C169.702 114.444 170.389 114.628 171.09 114.661C172.832 114.653 174.534 114.137 175.988 113.177C177.842 112.093 179.486 110.683 180.84 109.015C182.319 107.184 183.531 105.153 184.439 102.982C185.472 100.528 186.23 97.9675 186.702 95.347C187.237 92.4095 187.501 89.4289 187.489 86.443C187.532 83.7727 187.268 81.1063 186.702 78.4962C186.348 76.6641 185.574 74.9393 184.439 73.458Z" fill="black"/>
<path opacity="0.1" d="M181.122 121.45C180.699 121.836 180.276 122.192 179.839 122.563L181.679 124.678C181.929 124.935 182.214 125.157 182.525 125.338C183.029 125.635 186.509 127.631 186.977 127.913C186.689 127.737 186.425 127.525 186.19 127.282L181.122 121.45Z" fill="black"/>
<path d="M199.494 122.764L191.696 127.268C190.782 127.841 189.754 128.206 188.683 128.336C188.216 128.359 187.75 128.276 187.32 128.094C186.889 127.912 186.506 127.634 186.197 127.283L181.122 121.45C179.553 122.895 177.831 124.163 175.987 125.235C172.802 127.07 169.903 127.923 167.291 127.795C164.762 127.701 162.361 126.657 160.569 124.871C158.506 122.698 157.022 120.042 156.25 117.147C155.166 113.315 154.651 109.345 154.722 105.364C154.75 96.2886 156.744 87.3272 160.569 79.097C162.349 75.2724 164.608 71.6896 167.291 68.4345C169.72 65.442 172.665 62.9088 175.987 60.9551C179.163 59.115 182.057 58.2716 184.669 58.4249C187.188 58.5452 189.57 59.604 191.347 61.3929C193.403 63.5626 194.883 66.2132 195.65 69.1023C196.74 72.9277 197.255 76.8937 197.179 80.8704C197.18 83.5828 196.999 86.2923 196.637 88.9805C196.275 91.654 195.749 94.3029 195.064 96.9125C194.385 99.48 193.54 102.001 192.534 104.459C191.565 106.847 190.427 109.163 189.128 111.389L199.494 122.764ZM164.427 99.7617C164.379 102.447 164.643 105.129 165.214 107.753C165.563 109.575 166.325 111.293 167.44 112.776C167.878 113.325 168.427 113.774 169.051 114.095C169.675 114.416 170.36 114.601 171.061 114.639C172.802 114.629 174.504 114.114 175.958 113.155C177.813 112.071 179.457 110.66 180.81 108.992C182.292 107.162 183.506 105.131 184.417 102.96C185.436 100.504 186.183 97.9436 186.643 95.3246C187.182 92.3876 187.445 89.4066 187.429 86.4206C187.476 83.7501 187.212 81.0833 186.643 78.4738C186.295 76.651 185.533 74.9325 184.417 73.4504C183.979 72.9031 183.432 72.4525 182.812 72.1268C182.191 71.8012 181.51 71.6076 180.81 71.5583C179.088 71.5442 177.399 72.0399 175.958 72.983C174.082 74.0737 172.422 75.4998 171.061 77.1901C169.574 79.0304 168.355 81.0713 167.44 83.2522C166.424 85.7069 165.678 88.2644 165.214 90.88C164.677 93.7999 164.414 96.7634 164.427 99.7321V99.7617Z" fill="#FAFAFA"/>
</svg>
