<svg width="24" height="20" viewBox="0 0 24 20" fill="none" xmlns="http://www.w3.org/2000/svg">
<path fill-rule="evenodd" clip-rule="evenodd" d="M0 15.5C0 14.9477 0.447715 14.5 1 14.5H13C13.5523 14.5 14 14.9477 14 15.5C14 16.0523 13.5523 16.5 13 16.5H1C0.447715 16.5 0 16.0523 0 15.5Z" fill="#3F51B5"/>
<path fill-rule="evenodd" clip-rule="evenodd" d="M16 15.5C16 14.9477 16.4477 14.5 17 14.5H23C23.5523 14.5 24 14.9477 24 15.5C24 16.0523 23.5523 16.5 23 16.5H17C16.4477 16.5 16 16.0523 16 15.5Z" fill="#3F51B5"/>
<path fill-rule="evenodd" clip-rule="evenodd" d="M0 4.5C0 3.94772 0.447715 3.5 1 3.5H5C5.55228 3.5 6 3.94772 6 4.5C6 5.05228 5.55228 5.5 5 5.5H1C0.447715 5.5 0 5.05228 0 4.5Z" fill="#3F51B5"/>
<path fill-rule="evenodd" clip-rule="evenodd" d="M8 4.5C8 3.94772 8.44771 3.5 9 3.5H23C23.5523 3.5 24 3.94772 24 4.5C24 5.05228 23.5523 5.5 23 5.5H9C8.44771 5.5 8 5.05228 8 4.5Z" fill="#3F51B5"/>
<path fill-rule="evenodd" clip-rule="evenodd" d="M9 0.5C9.55229 0.5 10 0.947715 10 1.5V7.5C10 8.05228 9.55229 8.5 9 8.5C8.44771 8.5 8 8.05228 8 7.5V1.5C8 0.947715 8.44771 0.5 9 0.5Z" fill="#3F51B5"/>
<path fill-rule="evenodd" clip-rule="evenodd" d="M17 11.5C17.5523 11.5 18 11.9477 18 12.5V18.5C18 19.0523 17.5523 19.5 17 19.5C16.4477 19.5 16 19.0523 16 18.5V12.5C16 11.9477 16.4477 11.5 17 11.5Z" fill="#3F51B5"/>
</svg>
