<svg width="349" height="349" viewBox="0 0 349 349" fill="none" xmlns="http://www.w3.org/2000/svg">
<path d="M174.5 339.354C267.983 339.354 343.765 294.978 343.765 240.238C343.765 185.497 267.983 141.122 174.5 141.122C81.0176 141.122 5.23511 185.497 5.23511 240.238C5.23511 294.978 81.0176 339.354 174.5 339.354Z" fill="#FAFAFA"/>
<path d="M104.7 159.933L22.0568 207.655C20.3118 208.667 20.3118 210.3 22.0568 211.305L213.804 322.141C215.864 323.2 218.226 323.516 220.491 323.034C256.885 313.067 285.321 296.084 303.553 275.375C303.865 275.045 304.096 274.647 304.228 274.213C304.359 273.778 304.387 273.319 304.31 272.872C304.233 272.425 304.052 272.002 303.783 271.636C303.513 271.271 303.162 270.974 302.757 270.768L111.045 159.933C110.062 159.431 108.975 159.17 107.872 159.17C106.77 159.17 105.682 159.431 104.7 159.933Z" fill="#EBEBEB"/>
<path d="M79.3974 276.917C92.9399 276.917 103.918 270.58 103.918 262.762C103.918 254.944 92.9399 248.606 79.3974 248.606C65.855 248.606 54.8767 254.944 54.8767 262.762C54.8767 270.58 65.855 276.917 79.3974 276.917Z" fill="#EBEBEB"/>
<path d="M277.043 191.95C267.969 197.185 267.969 205.672 277.043 210.907C286.117 216.142 300.775 216.142 309.849 210.907C318.923 205.672 318.923 197.185 309.849 191.95C300.775 186.715 286.103 186.715 277.043 191.95Z" fill="#EBEBEB"/>
<path d="M305.724 147.571L303.895 146.643L295.163 166.124V142.734H291.764V161.58L282.864 144.863L281.126 145.945L291.764 165.489V200.961C291.777 201.112 291.83 201.257 291.919 201.379C292.007 201.502 292.127 201.599 292.267 201.659C292.641 201.852 293.056 201.953 293.478 201.953C293.899 201.953 294.314 201.852 294.689 201.659C294.826 201.597 294.944 201.5 295.031 201.377C295.119 201.255 295.171 201.111 295.184 200.961V170.661L305.724 147.571Z" fill="#E0E0E0"/>
<path d="M337.301 130.78C340.634 116.661 331.89 102.515 317.771 99.1826C303.653 95.8504 289.507 104.594 286.175 118.713C282.842 132.831 291.586 146.977 305.704 150.309C319.823 153.642 333.969 144.898 337.301 130.78Z" fill="#F0F0F0"/>
<path d="M319.984 118.039C323.37 107.366 326.964 103.192 324.689 101.894C320.337 99.4324 315.374 98.264 310.382 98.5258C305.389 98.7876 300.575 100.469 296.505 103.372C292.435 106.275 289.278 110.279 287.405 114.914C285.531 119.549 285.02 124.622 285.93 129.538C286.841 134.454 289.135 139.008 292.544 142.665C295.952 146.322 300.334 148.93 305.174 150.183C310.013 151.436 315.11 151.282 319.865 149.738C324.62 148.195 328.836 145.327 332.018 141.47C324.235 143.746 315.594 131.873 319.984 118.039Z" fill="#E0E0E0"/>
<path d="M288.832 132.187C288.832 135.839 287.75 139.408 285.721 142.444C283.692 145.48 280.809 147.847 277.435 149.244C274.062 150.641 270.35 151.007 266.769 150.295C263.187 149.582 259.898 147.824 257.316 145.242C254.734 142.66 252.975 139.37 252.263 135.789C251.551 132.208 251.916 128.496 253.314 125.122C254.711 121.749 257.077 118.865 260.113 116.837C263.149 114.808 266.719 113.725 270.37 113.725C275.267 113.725 279.963 115.67 283.425 119.133C286.887 122.595 288.832 127.291 288.832 132.187Z" fill="#F0F0F0"/>
<path d="M270.37 113.725C266.496 113.724 262.719 114.945 259.579 117.215C259.077 128.495 268.653 139.495 265.98 143.188C263.307 146.88 256.71 144.619 254.414 141.478C256.042 144.277 258.378 146.598 261.187 148.209C263.997 149.82 267.18 150.664 270.418 150.656C273.657 150.648 276.836 149.789 279.637 148.164C282.438 146.539 284.762 144.205 286.377 141.398C287.991 138.591 288.839 135.409 288.834 132.17C288.83 128.932 287.974 125.752 286.353 122.949C284.731 120.146 282.401 117.819 279.595 116.201C276.79 114.583 273.609 113.732 270.37 113.732V113.725Z" fill="#E0E0E0"/>
<path d="M327.362 112.28C327.363 118.98 325.378 125.53 321.657 131.101C317.935 136.673 312.645 141.016 306.456 143.58C300.266 146.145 293.455 146.817 286.884 145.511C280.312 144.205 274.276 140.979 269.538 136.242C264.8 131.505 261.573 125.469 260.265 118.898C258.958 112.327 259.628 105.516 262.192 99.3257C264.755 93.1356 269.097 87.8448 274.668 84.1224C280.239 80.3999 286.788 78.4131 293.488 78.4131C302.471 78.4131 311.086 81.981 317.438 88.3321C323.79 94.6832 327.36 103.297 327.362 112.28Z" fill="#F0F0F0"/>
<path d="M326.427 120.056C325.241 125.107 322.91 129.818 319.615 133.826C316.319 137.833 312.147 141.03 307.419 143.169C302.692 145.309 297.537 146.333 292.351 146.164C287.165 145.994 282.087 144.636 277.51 142.193C272.932 139.75 268.978 136.287 265.95 132.073C262.923 127.859 260.905 123.006 260.051 117.888C259.197 112.77 259.531 107.524 261.026 102.556C262.521 97.5873 265.138 93.0287 268.674 89.232C271.027 86.7052 271.173 86.6005 268.856 89.0435C268.266 91.5794 267.967 94.1739 267.962 96.7773C267.959 103.557 269.991 110.181 273.794 115.792C277.598 121.404 282.999 125.744 289.297 128.252C295.595 130.76 302.501 131.319 309.121 129.858C315.741 128.396 321.769 124.982 326.427 120.056Z" fill="#EBEBEB"/>
<path d="M57.7596 27.9202L52.3501 31.0403C52.3795 30.8087 52.3958 30.5757 52.3989 30.3423V28.7578C52.3989 25.9658 50.4375 24.849 48.0294 26.2381C46.9908 26.8755 46.1026 27.7304 45.4259 28.7439C45.028 25.2539 42.2779 23.9347 38.9415 25.8611C35.3328 27.9551 32.4082 33.0156 32.4082 37.1827V39.521C32.3828 40.4563 32.5714 41.385 32.9596 42.2362L28.4785 44.8258C27.7743 45.2847 27.1882 45.903 26.7674 46.6306C26.3466 47.3582 26.103 48.1746 26.0564 49.0138C26.0564 50.5564 27.1383 51.1846 28.4785 50.4098L57.7596 33.5042C58.4646 33.0457 59.0518 32.4276 59.4738 31.7001C59.8958 30.9725 60.1406 30.1559 60.1886 29.3162C60.1886 27.7737 59.0997 27.1524 57.7596 27.9202Z" fill="#F0F0F0"/>
<path d="M90.74 39.2769L86.6637 41.6292C86.6855 41.4508 86.6972 41.2714 86.6986 41.0917V39.9121C86.6986 37.8181 85.2189 36.9526 83.3971 38.0066C82.6162 38.4904 81.9475 39.1353 81.4357 39.8982C81.1356 37.2527 79.0625 36.2686 76.5497 37.7204C75.1145 38.6575 73.92 39.9191 73.0628 41.4033C72.2055 42.8875 71.7095 44.5525 71.6148 46.2639V48.0298C71.5985 48.7367 71.7416 49.4381 72.0336 50.082L68.6483 52.0364C68.1161 52.3839 67.6733 52.8519 67.3556 53.4025C67.0378 53.953 66.8542 54.5706 66.8196 55.2053C66.8196 56.3709 67.6362 56.8456 68.6483 56.2593L90.74 43.4998C91.273 43.1531 91.7165 42.6853 92.0343 42.1346C92.3521 41.5839 92.5352 40.9659 92.5688 40.3309C92.5479 39.1653 91.7312 38.6906 90.74 39.2769Z" fill="#F0F0F0"/>
<path d="M76.2074 211.264C76.2613 213.452 75.8497 215.627 74.9999 217.644C74.3622 219.142 73.2775 220.407 71.8938 221.266L71.7891 221.329L64.0134 225.81L60.8584 219.528L60.642 219.109C58.8677 217.725 57.2835 216.113 55.9305 214.314C55.5815 213.874 55.2325 213.421 54.9394 212.953C53.0012 210.139 51.4911 207.053 50.4582 203.795C49.6551 201.332 49.1993 198.769 49.1041 196.18L49.0483 196.075L48.2525 194.498L46.5564 191.252L45.8584 189.856L52.7895 185.843L53.2572 185.571L53.4526 185.459C54.5164 184.856 55.7199 184.543 56.9426 184.551C58.9473 184.619 60.8991 185.211 62.6034 186.269C70.1279 190.645 76.2074 201.82 76.2074 211.264Z" fill="#263238"/>
<path d="M41.1819 200.144C41.1819 208.29 45.7049 217.72 51.7566 222.934C52.6805 223.733 53.6758 224.446 54.7301 225.063C62.2336 229.405 68.3201 225.251 68.3131 215.8C68.3131 208.667 64.8231 200.535 59.9371 195.126C59.9371 195.126 59.9371 195.126 59.8953 195.084C58.4088 193.42 56.6763 191.993 54.758 190.854C47.2266 186.554 41.1819 190.7 41.1819 200.144Z" fill="#37474F"/>
<path d="M54.723 196.585C49.9557 193.828 46.0818 196.696 46.0818 202.999C46.0818 209.302 49.9557 216.638 54.723 219.395C59.4904 222.153 63.3713 219.277 63.3713 212.981C63.3713 206.685 59.4974 199.342 54.723 196.585Z" fill="#455A64"/>
<path d="M41.1819 200.145C41.1819 208.29 45.7049 217.72 51.7566 222.934C47.5537 218.174 44.5946 212.448 43.1433 206.266C41.9916 200.822 42.4453 193.004 47.1009 191.029C51.7566 189.053 57.9478 193.213 59.8953 195.112C58.4088 193.448 56.6763 192.022 54.758 190.882C47.2266 186.555 41.1819 190.701 41.1819 200.145Z" fill="#455A64"/>
<path d="M54.7231 202.071C52.2452 200.64 50.2419 202.127 50.2419 205.401C50.2419 208.674 52.2452 212.478 54.7231 213.909C57.201 215.34 59.2112 213.846 59.2112 210.58C59.2112 207.313 57.2359 203.502 54.7231 202.071Z" fill="#E0E0E0"/>
<path d="M53.2923 202.008C52.9851 201.829 52.6537 201.695 52.3081 201.61C51.0657 201.945 50.2141 203.306 50.2141 205.4C50.294 207.883 51.1893 210.27 52.7618 212.192C52.9308 212.324 53.108 212.445 53.2923 212.555C55.498 213.825 57.2779 212.506 57.2779 209.595C57.2779 206.685 55.498 203.286 53.2923 202.008Z" fill="#F5F5F5"/>
<path d="M45.2512 180.963V184.258L142.21 240.238V236.943L45.2512 180.963Z" fill="#455A64"/>
<path d="M75.1745 201.541L69.8767 198.477V216.478C69.8767 217.448 70.5747 217.839 71.3914 217.35L75.5794 214.942L75.1815 214.705L75.1745 201.541Z" fill="#407BFF"/>
<path opacity="0.7" d="M75.1745 201.541L69.8767 198.477V216.478C69.8767 217.448 70.5747 217.839 71.3914 217.35L75.5794 214.942L75.1815 214.705L75.1745 201.541Z" fill="white"/>
<path d="M75.1746 201.541V211.417L99.4301 225.419V215.542L75.1746 201.541Z" fill="#37474F"/>
<path d="M99.4301 225.419L75.1746 211.417L73.7646 212.255L99.4301 227.053V225.419Z" fill="#263238"/>
<path d="M73.7715 213.902V212.262L99.43 227.052V228.714L73.7715 213.902Z" fill="#455A64"/>
<path d="M99.4299 212.248V232.008L119.393 243.532V223.772L99.4299 212.248Z" fill="#37474F"/>
<path d="M119.393 223.772V243.532L139.356 255.056V235.303L119.393 223.772Z" fill="#37474F"/>
<path d="M139.356 255.056L145.058 251.762V235.296L142.211 236.943L139.356 235.303V255.056Z" fill="#263238"/>
<path d="M118.674 243.113V223.36L120.098 224.183V243.937L118.674 243.113Z" fill="#263238"/>
<path d="M128.655 235.708V232.413L130.079 233.237L130.086 236.531L128.655 235.708Z" fill="#E0E0E0"/>
<path d="M108.692 224.191V220.896L110.116 221.713L110.123 225.014L108.692 224.191Z" fill="#E0E0E0"/>
<path opacity="0.2" d="M97.9713 211.403V224.582L96.5823 225.412V227.066L99.4301 228.714V212.248L97.9713 211.403Z" fill="black"/>
<path d="M39.5486 177.676L142.21 236.943L142.217 230.382L39.5486 171.115V177.676Z" fill="#407BFF"/>
<g opacity="0.6">
<path d="M39.5486 177.676L142.21 236.943L142.217 230.382L39.5486 171.115V177.676Z" fill="white"/>
</g>
<path d="M142.21 236.943L145.058 235.296V228.714L142.21 230.361V236.943Z" fill="#407BFF"/>
<g opacity="0.5">
<path d="M142.21 236.943L145.058 235.296V228.714L142.21 230.361V236.943Z" fill="white"/>
</g>
<g opacity="0.1">
<path d="M142.21 236.943L145.058 235.296V228.714L142.21 230.361V236.943Z" fill="black"/>
</g>
<path d="M110.842 129.926L39.5486 171.115L142.21 230.361L213.504 189.2L110.842 129.926Z" fill="#407BFF"/>
<g opacity="0.8">
<path d="M110.842 129.926L39.5486 171.115L142.21 230.361L213.504 189.2L110.842 129.926Z" fill="white"/>
</g>
<path d="M48.0991 90.4119L139.356 143.097L204.947 105.23L113.69 52.5454L48.0991 90.4119Z" fill="#455A64"/>
<path d="M139.356 225.419V143.097L48.0991 90.4121V172.734L139.356 225.419Z" fill="#37474F"/>
<path d="M139.356 225.419L204.947 187.553V105.23L139.356 143.097V225.419Z" fill="#263238"/>
<path d="M113.013 200.145C112.497 199.783 112.075 199.304 111.781 198.747C111.488 198.19 111.331 197.57 111.324 196.941V192.055L114.758 194.072L114.981 194.03V194.358V198.742C115.006 199.029 114.955 199.318 114.832 199.579C114.709 199.84 114.52 200.064 114.283 200.228C114.119 200.319 113.934 200.367 113.746 200.368C113.487 200.356 113.235 200.279 113.013 200.145ZM113.397 194.868L113.146 196.585H111.875V196.941C111.885 197.472 112.016 197.994 112.258 198.467C112.5 198.94 112.846 199.351 113.271 199.67C113.378 199.746 113.502 199.792 113.631 199.806C113.761 199.819 113.892 199.799 114.011 199.747C114.158 199.627 114.271 199.472 114.341 199.296C114.41 199.12 114.434 198.929 114.409 198.742V194.679L113.397 194.868ZM112.908 194.393L113.921 194.212L111.875 193.004V196.033H112.671L112.908 194.393Z" fill="#E0E0E0"/>
<path d="M113.153 203.865C113.189 203.865 113.225 203.857 113.258 203.843C113.292 203.829 113.322 203.808 113.348 203.782C113.373 203.756 113.393 203.726 113.406 203.692C113.419 203.658 113.426 203.622 113.425 203.585V199.907C113.425 199.835 113.396 199.766 113.345 199.714C113.294 199.663 113.225 199.635 113.153 199.635C113.08 199.635 113.011 199.663 112.96 199.714C112.909 199.766 112.88 199.835 112.88 199.907V203.585C112.88 203.622 112.886 203.658 112.899 203.692C112.912 203.726 112.932 203.756 112.958 203.782C112.983 203.808 113.013 203.829 113.047 203.843C113.08 203.857 113.116 203.865 113.153 203.865Z" fill="#E0E0E0"/>
<path d="M114.751 204.786C114.8 204.787 114.847 204.774 114.889 204.75C114.931 204.725 114.965 204.689 114.988 204.647C115.007 204.616 115.02 204.581 115.025 204.545C115.03 204.509 115.028 204.473 115.019 204.438C115.01 204.403 114.994 204.37 114.972 204.341C114.95 204.312 114.922 204.288 114.891 204.27L111.68 202.42C111.65 202.4 111.616 202.387 111.58 202.382C111.544 202.376 111.508 202.378 111.473 202.387C111.438 202.396 111.406 202.413 111.378 202.435C111.35 202.458 111.327 202.486 111.31 202.518C111.291 202.549 111.279 202.583 111.274 202.619C111.268 202.655 111.27 202.692 111.279 202.727C111.289 202.762 111.305 202.795 111.327 202.824C111.349 202.853 111.376 202.877 111.408 202.895L114.611 204.744C114.654 204.769 114.702 204.783 114.751 204.786Z" fill="#E0E0E0"/>
<path d="M124.349 210.475C124.454 210.478 124.558 210.451 124.649 210.398C124.76 210.329 124.85 210.231 124.908 210.114C124.966 209.996 124.99 209.865 124.977 209.735V208.981C124.966 208.916 124.933 208.856 124.882 208.813C124.832 208.77 124.768 208.746 124.701 208.746C124.635 208.746 124.571 208.77 124.52 208.813C124.469 208.856 124.436 208.916 124.425 208.981V209.735C124.425 209.847 124.425 209.909 124.37 209.923C124.307 209.931 124.245 209.913 124.195 209.875C124.024 209.716 123.89 209.522 123.801 209.306C123.712 209.091 123.67 208.858 123.679 208.625V203.739C123.68 203.703 123.673 203.667 123.66 203.633C123.647 203.599 123.627 203.568 123.601 203.542C123.576 203.516 123.546 203.495 123.512 203.481C123.479 203.467 123.443 203.46 123.406 203.46C123.332 203.46 123.261 203.489 123.209 203.542C123.157 203.594 123.127 203.665 123.127 203.739V208.625C123.113 208.954 123.176 209.281 123.312 209.581C123.448 209.88 123.652 210.143 123.909 210.349C124.042 210.428 124.194 210.472 124.349 210.475Z" fill="#E0E0E0"/>
<path d="M119.923 201.966V201.806C119.839 201.334 119.903 200.848 120.105 200.414C120.307 199.979 120.638 199.618 121.053 199.378C121.468 199.139 121.947 199.033 122.424 199.075C122.901 199.117 123.354 199.306 123.72 199.614C124.747 200.283 125.602 201.184 126.214 202.246C126.827 203.307 127.18 204.498 127.245 205.722V206.196L119.923 201.966ZM121.319 199.872C121.037 200.075 120.811 200.346 120.662 200.659C120.513 200.973 120.446 201.32 120.468 201.666L126.666 205.247C126.529 204.209 126.171 203.213 125.614 202.327C125.058 201.44 124.316 200.684 123.441 200.11C123.021 199.848 122.54 199.702 122.045 199.684C121.795 199.679 121.548 199.737 121.326 199.851L121.319 199.872Z" fill="#E0E0E0"/>
<path d="M135.412 216.659C135.448 216.659 135.484 216.652 135.518 216.638C135.551 216.624 135.582 216.603 135.607 216.577C135.632 216.551 135.652 216.52 135.666 216.486C135.679 216.452 135.685 216.416 135.684 216.38V207.006C135.685 206.969 135.679 206.933 135.666 206.899C135.652 206.866 135.632 206.835 135.607 206.809C135.582 206.783 135.551 206.762 135.518 206.748C135.484 206.734 135.448 206.727 135.412 206.727C135.338 206.727 135.267 206.756 135.215 206.808C135.162 206.861 135.133 206.932 135.133 207.006V216.38C135.133 216.454 135.162 216.525 135.215 216.577C135.267 216.63 135.338 216.659 135.412 216.659Z" fill="#E0E0E0"/>
<path d="M136.229 209.142C136.265 209.149 136.303 209.149 136.34 209.142C136.373 209.127 136.403 209.106 136.429 209.08C136.454 209.054 136.473 209.023 136.486 208.99C136.499 208.956 136.505 208.92 136.504 208.884C136.503 208.847 136.495 208.812 136.48 208.779L135.503 206.51L134.407 207.781C134.36 207.836 134.336 207.908 134.342 207.981C134.348 208.053 134.383 208.121 134.438 208.168C134.494 208.215 134.566 208.238 134.638 208.233C134.711 208.227 134.778 208.192 134.826 208.137L135.342 207.536L135.977 208.995C136.001 209.041 136.037 209.079 136.082 209.105C136.126 209.131 136.177 209.144 136.229 209.142Z" fill="#E0E0E0"/>
<path d="M132.878 215.208C132.951 215.206 133.02 215.175 133.071 215.123C133.122 215.071 133.15 215.001 133.15 214.928V205.554C133.157 205.514 133.154 205.473 133.143 205.435C133.133 205.396 133.113 205.36 133.087 205.329C133.061 205.298 133.028 205.274 132.992 205.257C132.955 205.24 132.915 205.231 132.875 205.231C132.834 205.231 132.794 205.24 132.758 205.257C132.721 205.274 132.688 205.298 132.662 205.329C132.636 205.36 132.617 205.396 132.606 205.435C132.595 205.473 132.593 205.514 132.599 205.554V214.928C132.599 215.002 132.628 215.073 132.681 215.126C132.733 215.178 132.804 215.208 132.878 215.208Z" fill="#E0E0E0"/>
<path d="M133.681 207.69C133.718 207.697 133.756 207.697 133.793 207.69C133.826 207.676 133.856 207.655 133.881 207.629C133.906 207.603 133.926 207.572 133.939 207.538C133.952 207.504 133.958 207.468 133.957 207.432C133.956 207.396 133.947 207.36 133.932 207.327L132.955 205.059L131.859 206.322C131.821 206.379 131.805 206.447 131.814 206.515C131.823 206.582 131.857 206.644 131.908 206.689C131.96 206.733 132.026 206.757 132.094 206.757C132.162 206.756 132.227 206.731 132.278 206.685L132.794 206.085L133.43 207.543C133.453 207.589 133.49 207.627 133.534 207.653C133.579 207.679 133.629 207.692 133.681 207.69Z" fill="#E0E0E0"/>
<path d="M77.5268 166.99V182.087C77.5268 182.667 77.115 182.904 76.6124 182.611L53.0479 169C52.7812 168.828 52.5591 168.596 52.4001 168.322C52.2411 168.047 52.1497 167.739 52.1335 167.422V152.318C52.1335 151.731 52.5454 151.501 53.0479 151.787L76.6194 165.426C76.8818 165.598 77.1005 165.829 77.258 166.1C77.4156 166.372 77.5076 166.676 77.5268 166.99Z" fill="#FAFAFA"/>
<path d="M53.5923 153.951L54.3531 154.39V168.113L53.5923 167.673V153.951Z" fill="#455A64"/>
<path d="M56.6914 155.738L58.0036 156.513V170.235L56.6914 169.467V155.738Z" fill="#455A64"/>
<path d="M59.7905 157.524L60.5513 157.964V171.694L59.7905 171.254V157.524Z" fill="#455A64"/>
<path d="M62.1289 158.851L63.6505 159.758V173.481L62.1289 172.58V158.851Z" fill="#455A64"/>
<path d="M65.9888 161.105L66.7496 161.545V175.268L65.9888 174.828V161.105Z" fill="#455A64"/>
<path d="M68.2156 162.362L69.8489 163.332V177.055L68.2156 176.091V162.362Z" fill="#455A64"/>
<path d="M72.187 164.679L72.9478 165.119L72.9409 178.849L72.187 178.402V164.679Z" fill="#455A64"/>
<path d="M73.9531 165.684L74.33 165.907V179.63L73.9531 179.414V165.684Z" fill="#455A64"/>
<path d="M70.7703 163.932L71.1542 164.149V177.878L70.7703 177.655V163.932Z" fill="#455A64"/>
<path d="M64.53 160.275L64.9139 160.498V174.221L64.53 174.005V160.275Z" fill="#455A64"/>
<path d="M61.1099 158.313L61.4938 158.537V172.26L61.1099 172.043V158.313Z" fill="#455A64"/>
<path d="M58.6598 156.959L59.0367 157.182V170.905L58.6528 170.682L58.6598 156.959Z" fill="#455A64"/>
<path d="M55.3303 154.935L55.7072 155.158V168.881L55.3303 168.665V154.935Z" fill="#455A64"/>
<path d="M75.2863 166.466L76.0401 166.906V180.635L75.2793 180.195L75.2863 166.466Z" fill="#455A64"/>
<path d="M99.43 202.371V120.049L88.0247 113.46V195.782L99.43 202.371Z" fill="#407BFF"/>
<g opacity="0.3">
<path d="M99.43 202.371V120.049L88.0247 113.46V195.782L99.43 202.371Z" fill="black"/>
</g>
<path d="M166.459 209.777V127.455L177.864 120.866V203.188L166.459 209.777Z" fill="#407BFF"/>
<g opacity="0.45">
<path d="M166.459 209.777V127.455L177.864 120.866V203.188L166.459 209.777Z" fill="black"/>
</g>
<path d="M88.0247 113.46L153.616 75.5933L165.021 82.1754L99.43 120.049L88.0247 113.46Z" fill="#407BFF"/>
<g opacity="0.15">
<path d="M88.0247 113.46L153.616 75.5933L165.021 82.1754L99.43 120.049L88.0247 113.46Z" fill="black"/>
</g>
<g opacity="0.15">
<path d="M113.041 99.0184L124.502 105.573L126.526 104.407L115.121 97.8179L113.041 99.0184Z" fill="black"/>
</g>
<path d="M177.864 120.866L86.5938 68.1875L75.1885 74.7696L166.459 127.455L177.864 120.866Z" fill="#407BFF"/>
<g opacity="0.15">
<path d="M177.864 120.866L86.5938 68.1875L75.1885 74.7696L166.459 127.455L177.864 120.866Z" fill="black"/>
</g>
<path opacity="0.2" d="M131.531 97.022C131.531 97.022 147.725 111.163 174.172 108.099C174.172 108.099 163.381 115.777 149.637 114.137C149.637 114.137 151.368 121.745 162.069 125.863C162.069 125.863 131.699 125.417 126.38 100.477L131.531 97.022Z" fill="black"/>
<path d="M130.854 95.563C130.854 95.563 147.048 109.006 173.495 105.942C173.495 105.942 162.271 113.292 148.527 111.631C148.527 111.631 150.496 116.643 162.069 122.75C162.069 122.75 133.164 123.008 125.696 99.0181L130.854 95.563Z" fill="#407BFF"/>
<path opacity="0.25" d="M130.854 95.563C130.854 95.563 147.048 109.006 173.495 105.942C173.495 105.942 162.271 113.292 148.527 111.631C148.527 111.631 150.496 116.643 162.069 122.75C162.069 122.75 133.164 123.008 125.696 99.0181L130.854 95.563Z" fill="white"/>
<path opacity="0.1" d="M129.716 102.341C135.412 103.855 141.059 101.399 141.059 101.399L139.998 100.931L139.837 100.854L138.895 100.414L138.686 100.31L137.827 99.8839L137.611 99.7792L136.829 99.3673L136.613 99.2487L135.915 98.8578C135.849 98.8165 135.782 98.7792 135.712 98.7461L135.056 98.3622L134.874 98.2575L134.274 97.8946L134.107 97.7899L133.569 97.4618L133.416 97.3571L132.948 97.05L132.808 96.9592L132.404 96.687L132.278 96.6033L131.943 96.3659L131.831 96.2892L131.559 96.0867L131.468 96.0169L131.259 95.8704L131.168 95.7936L131.049 95.7028L130.966 95.633H130.917L130.875 95.5981L129.186 96.7289L125.696 99.0463C133.164 123.043 162.062 122.778 162.069 122.778C147.194 122.059 131.573 110.773 129.716 102.341Z" fill="black"/>
<path d="M166.759 77.9735C166.759 77.9735 163.541 74.2183 153.679 75.9144C147.725 76.9405 137.625 83.8786 132.627 95.4584C131.992 96.9242 130.575 97.4128 129.835 98.397C129.66 98.618 129.469 98.8256 129.263 99.0182H126.143C126.143 88.2271 132.194 77.3314 137.925 71.0284C143.655 64.7255 153.078 61.6403 159.807 61.3821C162.192 61.2747 164.57 61.7314 166.745 62.7152C168.56 67.8386 169.314 72.8991 166.759 77.9735Z" fill="#407BFF"/>
<path opacity="0.5" d="M166.759 77.9735C166.759 77.9735 163.541 74.2183 153.679 75.9144C147.725 76.9405 137.625 83.8786 132.627 95.4584C131.992 96.9242 130.575 97.4128 129.835 98.397C129.66 98.618 129.469 98.8256 129.263 99.0182H126.143C126.143 88.2271 132.194 77.3314 137.925 71.0284C143.655 64.7255 153.078 61.6403 159.807 61.3821C162.192 61.2747 164.57 61.7314 166.745 62.7152C168.56 67.8386 169.314 72.8991 166.759 77.9735Z" fill="white"/>
<path opacity="0.3" d="M133.318 93.9788C133.318 93.9788 127.699 92.0802 130.016 83.083C127.593 88.0538 126.274 93.4899 126.149 99.0183H129.269C129.475 98.8258 129.667 98.6181 129.842 98.3971C130.603 97.4129 132.02 96.9243 132.634 95.4585C132.836 94.9281 133.074 94.4604 133.318 93.9788Z" fill="#407BFF"/>
<path opacity="0.1" d="M133.318 93.9788C133.318 93.9788 127.699 92.0802 130.016 83.083C127.593 88.0538 126.274 93.4899 126.149 99.0183H129.269C129.475 98.8258 129.667 98.6181 129.842 98.3971C130.603 97.4129 132.02 96.9243 132.634 95.4585C132.836 94.9281 133.074 94.4604 133.318 93.9788Z" fill="black"/>
<path opacity="0.3" d="M166.759 77.9735C166.759 77.9735 167.255 66.1075 159.779 61.3821C162.164 61.2747 164.541 61.7314 166.717 62.7152C168.56 67.8386 169.314 72.8991 166.759 77.9735Z" fill="#407BFF"/>
<path opacity="0.1" d="M166.759 77.9735C166.759 77.9735 167.255 66.1075 159.779 61.3821C162.164 61.2747 164.541 61.7314 166.717 62.7152C168.56 67.8386 169.314 72.8991 166.759 77.9735Z" fill="black"/>
<path d="M161.001 84.8909C163.367 82.9941 165.325 80.6389 166.759 77.9668C169.321 72.8923 168.56 67.8318 166.759 62.7085C172.545 65.2702 176.001 72.7876 177.32 78.8463C178.018 82.2385 178.102 85.1981 177.529 86.5592C175.91 90.3772 166.403 105.81 125.724 99.0115L125.772 94.7397C135.921 94.1255 153.713 91.0264 161.001 84.8909Z" fill="#407BFF"/>
<path opacity="0.4" d="M161.001 84.8909C163.367 82.9941 165.325 80.6389 166.759 77.9668C169.321 72.8923 168.56 67.8318 166.759 62.7085C172.545 65.2702 176.001 72.7876 177.32 78.8463C178.018 82.2385 178.102 85.1981 177.529 86.5592C175.91 90.3772 166.403 105.81 125.724 99.0115L125.772 94.7397C135.921 94.1255 153.713 91.0264 161.001 84.8909Z" fill="white"/>
<path opacity="0.2" d="M121.543 97.022C121.543 97.022 105.349 111.163 78.9019 108.099C78.9019 108.099 89.6929 115.777 103.437 114.137C103.437 114.137 101.706 121.745 91.0052 125.863C91.0052 125.863 121.375 125.417 126.694 100.477L121.543 97.022Z" fill="black"/>
<path d="M122.22 95.563C122.22 95.563 106.026 109.006 79.572 105.942C79.572 105.942 90.7959 113.292 104.539 111.631C104.539 111.631 102.571 116.643 90.9983 122.75C90.9983 122.75 119.902 123.008 127.371 99.0181L122.22 95.563Z" fill="#407BFF"/>
<path opacity="0.25" d="M122.22 95.563C122.22 95.563 106.026 109.006 79.572 105.942C79.572 105.942 90.7959 113.292 104.539 111.631C104.539 111.631 102.571 116.643 90.9983 122.75C90.9983 122.75 119.902 123.008 127.371 99.0181L122.22 95.563Z" fill="white"/>
<path opacity="0.1" d="M123.364 102.341C117.662 103.855 112.015 101.399 112.015 101.399L113.076 100.931L113.236 100.854L114.179 100.414L114.388 100.31L115.247 99.8839L115.463 99.7792L116.252 99.3673L116.461 99.2487L117.159 98.8578L117.362 98.7461L118.018 98.3622L118.199 98.2575L118.799 97.8946L118.967 97.7899L119.504 97.4618L119.658 97.3571L120.126 97.05L120.265 96.9592L120.67 96.687L120.796 96.6033L121.138 96.3659L121.242 96.2892L121.515 96.0867L121.605 96.0169L121.815 95.8704L121.906 95.7936L122.024 95.7028L122.108 95.633H122.157L122.199 95.5981L123.888 96.7289L127.378 99.0463C119.909 123.043 91.0121 122.778 91.0051 122.778C105.88 122.059 121.501 110.773 123.364 102.341Z" fill="black"/>
<path d="M86.3216 77.9735C86.3216 77.9735 89.5324 74.2183 99.3951 75.9144C105.349 76.9405 115.449 83.8786 120.454 95.4584C121.082 96.9242 122.499 97.4128 123.246 98.397C123.421 98.618 123.612 98.8256 123.818 99.0182H126.938C126.938 88.2271 120.887 77.3314 115.156 71.0284C109.425 64.7255 100.002 61.6403 93.2737 61.3821C90.8883 61.2747 88.5112 61.7314 86.3356 62.7152C84.5138 67.8386 83.7599 72.8991 86.3216 77.9735Z" fill="#407BFF"/>
<path opacity="0.5" d="M86.3216 77.9735C86.3216 77.9735 89.5324 74.2183 99.3951 75.9144C105.349 76.9405 115.449 83.8786 120.454 95.4584C121.082 96.9242 122.499 97.4128 123.246 98.397C123.421 98.618 123.612 98.8256 123.818 99.0182H126.938C126.938 88.2271 120.887 77.3314 115.156 71.0284C109.425 64.7255 100.002 61.6403 93.2737 61.3821C90.8883 61.2747 88.5112 61.7314 86.3356 62.7152C84.5138 67.8386 83.7599 72.8991 86.3216 77.9735Z" fill="white"/>
<path opacity="0.3" d="M119.77 93.9788C119.77 93.9788 125.354 92.0802 123.071 83.083C125.494 88.0538 126.814 93.4899 126.938 99.0183H123.818C123.612 98.8258 123.421 98.6181 123.246 98.3971C122.485 97.4129 121.068 96.9243 120.454 95.4585C120.237 94.9281 120 94.4604 119.77 93.9788Z" fill="#407BFF"/>
<path opacity="0.1" d="M119.77 93.9788C119.77 93.9788 125.354 92.0802 123.071 83.083C125.494 88.0538 126.814 93.4899 126.938 99.0183H123.818C123.612 98.8258 123.421 98.6181 123.246 98.3971C122.485 97.4129 121.068 96.9243 120.454 95.4585C120.237 94.9281 120 94.4604 119.77 93.9788Z" fill="black"/>
<path opacity="0.3" d="M86.3216 77.9735C86.3216 77.9735 85.8191 66.1075 93.3016 61.3821C90.9163 61.2747 88.5392 61.7314 86.3635 62.7152C84.5138 67.8386 83.76 72.8991 86.3216 77.9735Z" fill="#407BFF"/>
<path opacity="0.1" d="M86.3216 77.9735C86.3216 77.9735 85.8191 66.1075 93.3016 61.3821C90.9163 61.2747 88.5392 61.7314 86.3635 62.7152C84.5138 67.8386 83.76 72.8991 86.3216 77.9735Z" fill="black"/>
<path d="M92.0731 84.8909C89.7071 82.9941 87.7484 80.6389 86.3146 77.9668C83.753 72.8923 84.5138 67.8318 86.3146 62.7085C80.5212 65.2702 77.0661 72.7876 75.7539 78.8463C75.0559 82.2385 74.9651 85.1981 75.5375 86.5592C77.1569 90.3772 86.6636 105.81 127.343 99.0115L127.301 94.7397C117.152 94.1255 99.3602 91.0264 92.0731 84.8909Z" fill="#407BFF"/>
<path opacity="0.4" d="M92.0731 84.8909C89.7071 82.9941 87.7484 80.6389 86.3146 77.9668C83.753 72.8923 84.5138 67.8318 86.3146 62.7085C80.5212 65.2702 77.0661 72.7876 75.7539 78.8463C75.0559 82.2385 74.9651 85.1981 75.5375 86.5592C77.1569 90.3772 86.6636 105.81 127.343 99.0115L127.301 94.7397C117.152 94.1255 99.3602 91.0264 92.0731 84.8909Z" fill="white"/>
<path d="M132.104 96.1983C132.06 95.7866 131.907 95.3939 131.662 95.0603C131.417 94.7268 131.087 94.4643 130.708 94.2998C129.365 93.8246 127.942 93.6182 126.52 93.6925C125.049 93.6209 123.579 93.8587 122.206 94.3905C121.856 94.5626 121.556 94.8207 121.334 95.1406C121.112 95.4606 120.975 95.8317 120.936 96.2193C120.789 97.5036 120.698 99.6674 121.543 100.889C122.929 102.08 124.706 102.719 126.533 102.683C128.353 102.723 130.123 102.083 131.496 100.889C132.334 99.6395 132.25 97.4827 132.104 96.1983Z" fill="#407BFF"/>
<path opacity="0.5" d="M132.104 96.1983C132.06 95.7866 131.907 95.3939 131.662 95.0603C131.417 94.7268 131.087 94.4643 130.708 94.2998C129.365 93.8246 127.942 93.6182 126.52 93.6925C125.049 93.6209 123.579 93.8587 122.206 94.3905C121.856 94.5626 121.556 94.8207 121.334 95.1406C121.112 95.4606 120.975 95.8317 120.936 96.2193C120.789 97.5036 120.698 99.6674 121.543 100.889C122.929 102.08 124.706 102.719 126.533 102.683C128.353 102.723 130.123 102.083 131.496 100.889C132.334 99.6395 132.25 97.4827 132.104 96.1983Z" fill="white"/>
<path opacity="0.3" d="M132.187 98.2156C132.187 98.7182 131.629 99.5209 130.54 100.31C129.623 100.84 128.597 101.155 127.54 101.23C126.483 101.305 125.422 101.138 124.439 100.742C123.54 100.479 122.731 99.9723 122.103 99.2773C121.474 98.5824 121.051 97.7268 120.88 96.8057C120.782 98.09 120.817 99.828 121.543 100.882C122.929 102.073 124.706 102.712 126.533 102.676C128.353 102.716 130.123 102.077 131.496 100.882C131.962 100.072 132.201 99.1504 132.187 98.2156Z" fill="#407BFF"/>
<path opacity="0.1" d="M132.187 98.2156C132.187 98.7182 131.629 99.5209 130.54 100.31C129.623 100.84 128.597 101.155 127.54 101.23C126.483 101.305 125.422 101.138 124.439 100.742C123.54 100.479 122.731 99.9723 122.103 99.2773C121.474 98.5824 121.051 97.7268 120.88 96.8057C120.782 98.09 120.817 99.828 121.543 100.882C122.929 102.073 124.706 102.712 126.533 102.676C128.353 102.716 130.123 102.077 131.496 100.882C131.962 100.072 132.201 99.1504 132.187 98.2156Z" fill="black"/>
<path d="M276.547 174.758L281.796 171.708C281.972 171.58 282.178 171.502 282.394 171.481C282.61 171.46 282.828 171.498 283.025 171.59C283.332 171.771 283.953 172.148 284.26 172.288C284.439 172.411 284.581 172.581 284.672 172.779C284.763 172.976 284.799 173.195 284.777 173.411V186.017C284.744 186.616 284.57 187.199 284.27 187.719C283.969 188.238 283.549 188.679 283.046 189.005L277.804 192.09C277.629 192.217 277.424 192.295 277.21 192.317C276.995 192.339 276.779 192.304 276.582 192.215C276.268 192.034 275.647 191.65 275.333 191.476C275.156 191.35 275.015 191.18 274.926 190.983C274.836 190.785 274.801 190.567 274.823 190.352V177.746C274.855 177.147 275.028 176.565 275.327 176.046C275.627 175.526 276.045 175.085 276.547 174.758Z" fill="#FAFAFA"/>
<path d="M274.816 177.746V190.352C274.793 190.568 274.828 190.786 274.918 190.983C275.007 191.181 275.148 191.351 275.326 191.476C275.633 191.643 276.101 191.943 276.54 192.174C276.377 192.044 276.249 191.876 276.167 191.685C276.086 191.494 276.053 191.285 276.073 191.078V178.486C276.092 177.887 276.265 177.303 276.575 176.79L275.326 176.05C275.013 176.562 274.837 177.146 274.816 177.746Z" fill="#E0E0E0"/>
<path d="M283.046 189.04L277.804 192.09C276.847 192.641 276.08 192.195 276.08 191.099V178.486C276.112 177.887 276.285 177.305 276.584 176.786C276.884 176.267 277.302 175.826 277.804 175.498L283.053 172.448C284.009 171.897 284.784 172.343 284.784 173.446V186.052C284.75 186.652 284.576 187.235 284.274 187.755C283.971 188.274 283.551 188.714 283.046 189.04Z" fill="#F0F0F0"/>
<path d="M276.24 199.516C276.164 199.515 276.089 199.493 276.023 199.454C275.957 199.415 275.902 199.359 275.863 199.293C275.835 199.243 275.816 199.189 275.809 199.132C275.801 199.076 275.805 199.018 275.82 198.963C275.835 198.908 275.861 198.856 275.896 198.811C275.931 198.766 275.974 198.728 276.024 198.7L279.681 196.606C279.747 196.567 279.802 196.512 279.84 196.446C279.878 196.38 279.898 196.305 279.898 196.229V182.401C279.89 182.339 279.895 182.276 279.914 182.217C279.932 182.157 279.963 182.102 280.004 182.055C280.045 182.008 280.096 181.971 280.153 181.945C280.21 181.92 280.272 181.906 280.334 181.906C280.396 181.906 280.458 181.92 280.515 181.945C280.572 181.971 280.623 182.008 280.664 182.055C280.705 182.102 280.736 182.157 280.754 182.217C280.773 182.276 280.778 182.339 280.77 182.401V196.208C280.77 196.438 280.709 196.664 280.594 196.864C280.479 197.064 280.313 197.23 280.114 197.345L276.457 199.439C276.393 199.485 276.318 199.512 276.24 199.516Z" fill="#263238"/>
<path d="M167.408 270.992L182.241 264.137C182.241 264.137 181.082 250.177 171.289 253.521C161.496 256.864 167.408 270.992 167.408 270.992Z" fill="#407BFF"/>
<g opacity="0.5">
<path d="M167.408 270.992L182.241 264.137C182.241 264.137 181.082 250.177 171.289 253.521C161.496 256.864 167.408 270.992 167.408 270.992Z" fill="black"/>
</g>
<path d="M175.568 269.246L172.406 262.909L180 258.511C182.422 257.115 185.633 257.283 189.165 259.321C196.668 263.655 202.748 274.823 202.748 284.274C202.748 289.216 201.08 292.713 198.413 294.298L198.302 294.36L190.519 298.856L187.148 292.169C180.733 287.297 175.812 277.678 175.568 269.246Z" fill="#263238"/>
<path d="M167.646 273.148C167.646 281.294 172.169 290.724 178.227 295.938C179.155 296.74 180.152 297.457 181.208 298.081C188.711 302.409 194.798 298.262 194.791 288.812C194.791 281.678 191.301 273.546 186.415 268.137L186.373 268.095C184.888 266.429 183.155 265.002 181.236 263.865C173.725 259.558 167.646 263.704 167.646 273.148Z" fill="#37474F"/>
<path d="M181.229 269.588C176.454 266.796 172.587 269.7 172.587 276.003C172.587 282.306 176.454 289.642 181.229 292.399C186.003 295.156 189.87 292.28 189.87 285.984C189.87 279.689 186.003 272.346 181.229 269.588Z" fill="#455A64"/>
<path d="M181.228 275.075C178.751 273.679 176.747 275.131 176.747 278.404C176.747 281.678 178.751 285.482 181.228 286.913C183.706 288.344 185.717 286.85 185.717 283.583C185.717 280.317 183.706 276.506 181.228 275.075Z" fill="#E0E0E0"/>
<path d="M179.798 275.012C179.49 274.834 179.159 274.7 178.813 274.614C177.571 274.949 176.719 276.31 176.719 278.404C176.799 280.872 177.681 283.247 179.232 285.168C179.405 285.299 179.584 285.42 179.77 285.531C181.975 286.801 183.755 285.482 183.755 282.571C183.755 279.661 182.003 276.282 179.798 275.012Z" fill="#F5F5F5"/>
<path d="M167.646 273.149C167.646 281.294 172.169 290.724 178.227 295.938C174.024 291.178 171.065 285.452 169.614 279.27C168.462 273.826 168.916 266.008 173.572 264.033C178.227 262.057 184.418 266.217 186.366 268.116C184.881 266.45 183.149 265.023 181.229 263.886C173.725 259.558 167.646 263.705 167.646 273.149Z" fill="#455A64"/>
<path d="M220.093 301.39L206.657 293.628L204.891 292.609L201.506 290.641L199.9 289.705C199.957 289.554 199.981 289.392 199.97 289.231C200.025 288.986 200.047 288.734 200.033 288.484C200.033 278.09 192.739 265.45 183.693 260.257C182.844 259.764 181.959 259.335 181.047 258.972C180.649 258.819 180.272 258.686 179.895 258.574C172.748 256.411 167.422 260.752 167.422 269.645V270.992L145.086 258.086V156.269L172.846 172.323L197.08 190.17L208.067 243.602L216.589 256.124L217.043 256.788L222.25 264.424L223.939 285.203L224.358 289.747L224.54 291.618L224.958 296.113L225.154 298.207C225.206 298.822 225.088 299.439 224.813 299.992C224.537 300.544 224.115 301.011 223.593 301.339C223.07 301.668 222.467 301.846 221.85 301.855C221.233 301.864 220.625 301.703 220.093 301.39Z" fill="#407BFF"/>
<g opacity="0.15">
<path d="M220.093 301.39L206.657 293.628L204.891 292.609L201.506 290.641L199.9 289.705C199.957 289.554 199.981 289.392 199.97 289.231C200.025 288.986 200.047 288.734 200.033 288.484C200.033 278.09 192.739 265.45 183.693 260.257C182.844 259.764 181.959 259.335 181.047 258.972C180.649 258.819 180.272 258.686 179.895 258.574C172.748 256.411 167.422 260.752 167.422 269.645V270.992L145.086 258.086V156.269L172.846 172.323L197.08 190.17L208.067 243.602L216.589 256.124L217.043 256.788L222.25 264.424L223.939 285.203L224.358 289.747L224.54 291.618L224.958 296.113L225.154 298.207C225.206 298.822 225.088 299.439 224.813 299.992C224.537 300.544 224.115 301.011 223.593 301.339C223.07 301.668 222.467 301.846 221.85 301.855C221.233 301.864 220.625 301.703 220.093 301.39Z" fill="black"/>
</g>
<path d="M183.713 191.818V224.756C183.713 225.971 182.869 226.459 181.822 225.852L154.502 210.098C153.949 209.738 153.489 209.253 153.159 208.682C152.829 208.111 152.639 207.469 152.604 206.811V172.141C152.604 170.933 153.448 170.445 154.502 171.045L170.926 180.531C171.973 181.138 173.613 182.206 174.584 182.925L181.947 188.335C182.467 188.761 182.893 189.291 183.197 189.89C183.501 190.49 183.677 191.146 183.713 191.818Z" fill="#455A64"/>
<path d="M192.494 231.987C191.574 231.388 190.808 230.58 190.258 229.629C189.709 228.679 189.392 227.612 189.332 226.515V197.387C189.332 195.37 190.079 194.295 191.001 194.986L192.669 196.236C193.91 197.273 194.79 198.679 195.182 200.249L201.91 235.219C202.182 236.615 201.415 237.139 200.207 236.434L192.494 231.987Z" fill="#455A64"/>
<g opacity="0.15">
<path d="M185.102 186.764L174.067 178.723C173.243 178.123 171.854 177.215 170.975 176.713L151.396 165.426C151.183 165.275 150.932 165.184 150.672 165.165C150.411 165.145 150.15 165.197 149.916 165.315C149.698 165.46 149.523 165.66 149.409 165.896C149.295 166.132 149.246 166.394 149.267 166.655V255.468C149.296 256.082 149.471 256.68 149.779 257.211C150.086 257.743 150.516 258.194 151.033 258.525L163.883 265.938C164.151 266.107 164.46 266.198 164.777 266.203C164.969 266.207 165.16 266.166 165.335 266.085C165.571 265.975 165.772 265.801 165.914 265.582C166.07 265.346 166.175 265.08 166.222 264.8C166.682 262.455 168.106 258.253 172.504 256.487C174.809 255.64 177.328 255.567 179.679 256.278C180.917 256.606 182.119 257.057 183.267 257.625C183.769 257.869 184.23 258.114 184.663 258.323C184.874 258.476 185.123 258.57 185.384 258.594C185.644 258.619 185.906 258.573 186.142 258.463C186.287 258.374 186.409 258.252 186.498 258.107C186.672 257.821 186.756 257.491 186.743 257.157V189.961C186.712 189.342 186.549 188.737 186.266 188.186C185.984 187.635 185.587 187.15 185.102 186.764ZM185.626 257.876C185.454 257.897 185.279 257.861 185.13 257.772L185.012 257.716C183.151 256.624 181.13 255.833 179.023 255.37C176.768 254.841 174.407 254.991 172.238 255.803C168.008 257.506 166.354 261.262 165.712 263.816C165.628 264.116 165.565 264.382 165.517 264.647C165.502 264.803 165.451 264.953 165.367 265.085C165.283 265.217 165.17 265.328 165.035 265.408C164.905 265.453 164.766 265.465 164.629 265.445C164.493 265.424 164.364 265.371 164.253 265.289L151.396 257.883C150.992 257.615 150.655 257.257 150.413 256.837C150.171 256.416 150.029 255.945 150 255.461V166.641C149.986 166.51 150.004 166.379 150.053 166.257C150.101 166.135 150.179 166.027 150.279 165.943C150.352 165.904 150.434 165.885 150.517 165.887C150.7 165.897 150.878 165.955 151.033 166.054L170.612 177.362C171.477 177.858 172.832 178.758 173.634 179.323L184.677 187.371C185.065 187.691 185.383 188.087 185.611 188.535C185.839 188.983 185.973 189.473 186.003 189.975V257.185C186.024 257.312 186.014 257.442 185.973 257.564C185.931 257.686 185.86 257.796 185.766 257.883C185.728 257.902 185.688 257.914 185.647 257.918L185.626 257.876Z" fill="black"/>
</g>
<path d="M295.386 255.377C295.386 255.377 285.258 269.379 263.167 282.599C244.83 293.558 224.847 296.12 224.847 296.12L222.236 264.416L292.776 223.681L295.386 255.377Z" fill="#407BFF"/>
<g opacity="0.3">
<path d="M295.386 255.377C295.386 255.377 285.258 269.379 263.167 282.599C244.83 293.558 224.847 296.12 224.847 296.12L222.236 264.416L292.776 223.681L295.386 255.377Z" fill="black"/>
</g>
<path d="M292.776 223.667C292.776 223.667 282.648 237.676 260.556 250.889C242.22 261.848 222.236 264.41 222.236 264.41L208.094 243.602L278.648 202.874L292.776 223.667Z" fill="#407BFF"/>
<path d="M296.65 250.708C296.524 250.575 296.413 250.596 296.28 250.819C296.28 250.819 286.152 264.821 264.053 278.041C245.696 288.972 225.726 291.555 225.726 291.555C217.155 292.337 206.657 283.283 206.657 283.283L208.102 282.229C208.102 282.229 218.055 289.768 223.116 289.768C227.478 289.768 243.071 287.786 264.228 275.808C285.384 263.83 294.94 249.347 294.94 249.347C295.318 249.407 295.674 249.564 295.974 249.802C296.274 250.041 296.506 250.353 296.65 250.708Z" fill="#37474F"/>
<path d="M296.273 250.819C296.273 250.819 286.138 264.821 264.046 278.041C245.717 289 225.726 291.562 225.726 291.562C217.155 292.343 206.657 283.304 206.657 283.304V295.394C206.657 295.394 217.127 304.468 225.726 303.658C225.726 303.658 245.717 301.089 264.046 290.138C286.138 276.931 296.273 262.916 296.273 262.916C298.046 259.921 297.292 249.025 296.273 250.819Z" fill="#455A64"/>
<path d="M231.575 270.747C234.73 270 237.585 272.143 237.948 275.515C238.11 277.17 237.68 278.83 236.732 280.198C235.785 281.566 234.383 282.553 232.776 282.983C232.037 283.168 231.266 283.187 230.519 283.036C229.772 282.886 229.068 282.571 228.458 282.115C227.848 281.658 227.348 281.071 226.994 280.396C226.64 279.722 226.44 278.977 226.41 278.216C226.11 274.837 228.42 271.522 231.575 270.747Z" fill="white"/>
<path d="M287.708 238.618C285.789 240.531 284.56 244.628 284.958 247.776C285.356 250.924 287.157 251.915 288.972 249.989C290.787 248.062 292.015 243.965 291.722 240.831C291.429 237.697 289.621 236.706 287.708 238.618Z" fill="white"/>
<path d="M243.344 266.636C249.444 264.715 255.3 262.092 260.794 258.818C261.666 258.309 262.364 258.707 262.364 259.712V260.989C262.339 261.54 262.183 262.077 261.91 262.557C261.637 263.036 261.255 263.444 260.794 263.746C255.3 267.02 249.444 269.643 243.344 271.564C243.138 271.641 242.916 271.665 242.699 271.633C242.481 271.602 242.275 271.516 242.1 271.384C241.925 271.252 241.785 271.077 241.695 270.877C241.605 270.677 241.567 270.457 241.585 270.238V268.96C241.607 268.44 241.787 267.939 242.101 267.524C242.416 267.108 242.849 266.799 243.344 266.636Z" fill="#37474F"/>
<path d="M281.294 245.878V247.155C281.234 248.3 280.734 249.378 279.898 250.163C275.723 253.659 271.359 256.921 266.824 259.935C265.987 260.487 265.296 260.11 265.296 259.105V257.841C265.333 257.293 265.489 256.759 265.753 256.277C266.017 255.795 266.382 255.376 266.824 255.049C271.358 252.033 275.722 248.771 279.898 245.277C280.694 244.586 281.294 244.872 281.294 245.878Z" fill="#37474F"/>
<path d="M243.344 275.557C249.443 273.638 255.299 271.017 260.794 267.746C261.666 267.236 262.364 267.627 262.364 268.639V269.917C262.336 270.467 262.179 271.003 261.906 271.482C261.633 271.96 261.252 272.369 260.794 272.674C255.298 275.942 249.442 278.563 243.344 280.484C243.138 280.564 242.915 280.589 242.697 280.558C242.479 280.528 242.272 280.442 242.096 280.309C241.92 280.177 241.781 280.001 241.692 279.8C241.602 279.599 241.565 279.378 241.585 279.158V277.881C241.61 277.361 241.791 276.862 242.105 276.447C242.419 276.032 242.85 275.722 243.344 275.557Z" fill="#37474F"/>
<path d="M281.294 254.833V256.11C281.232 257.253 280.732 258.328 279.898 259.112C275.723 262.607 271.359 265.87 266.824 268.884C265.987 269.442 265.296 269.065 265.296 268.053V266.776C265.333 266.227 265.489 265.694 265.753 265.211C266.017 264.729 266.382 264.31 266.824 263.984C271.354 260.963 275.719 257.701 279.898 254.212C280.694 253.535 281.294 253.821 281.294 254.833Z" fill="#37474F"/>
<g opacity="0.15">
<path d="M245.968 230.731C236.586 235.803 226.871 240.234 216.889 243.993C216.68 244.061 216.489 244.178 216.333 244.334C216.177 244.49 216.06 244.68 215.992 244.89C215.924 245.1 215.907 245.323 215.941 245.54C215.976 245.758 216.062 245.965 216.191 246.143L216.24 246.213C216.555 246.644 216.981 246.98 217.473 247.186C217.966 247.391 218.505 247.458 219.032 247.378C223.318 246.443 234.905 243.428 249.305 235.687C249.511 235.58 249.691 235.43 249.835 235.247C249.978 235.065 250.08 234.853 250.134 234.627C250.189 234.402 250.194 234.167 250.149 233.939C250.105 233.711 250.012 233.495 249.877 233.307L248.572 231.366C248.288 230.964 247.868 230.677 247.389 230.561C246.91 230.444 246.406 230.504 245.968 230.731Z" fill="black"/>
</g>
<g opacity="0.15">
<path d="M276.094 209.847C268.6 216.3 260.572 222.105 252.096 227.199C251.893 227.317 251.716 227.476 251.577 227.666C251.438 227.856 251.341 228.072 251.29 228.302C251.24 228.532 251.237 228.77 251.284 229C251.33 229.231 251.424 229.449 251.559 229.642L252.878 231.596C253.16 232 253.583 232.284 254.064 232.391C254.544 232.498 255.048 232.422 255.475 232.176C268.527 224.309 275.507 217.385 278.704 213.616C279.022 213.199 279.205 212.695 279.229 212.171C279.253 211.647 279.116 211.128 278.837 210.684L278.481 210.154C278.359 209.959 278.195 209.793 278.001 209.669C277.807 209.545 277.588 209.465 277.36 209.436C277.132 209.406 276.9 209.428 276.681 209.499C276.462 209.57 276.261 209.689 276.094 209.847Z" fill="black"/>
</g>
<path d="M278.648 202.839C278.648 202.839 266.992 214.558 247.783 225.74C228.574 236.922 208.102 243.56 208.102 243.56L197.073 190.115L241.159 164.672L261.436 152.974L267.62 149.386L278.648 202.839Z" fill="#455A64"/>
<path d="M267.62 149.372L261.436 152.953L241.159 164.672L197.073 190.114L208.102 243.56L208.855 243.309L209.009 243.26L209.777 242.995L210.098 242.904H210.168H210.238L210.761 242.716L211.578 242.429L212.387 242.136L212.918 241.941L213.616 241.683L215.975 240.789L216.506 240.587C218.397 239.854 220.54 239.002 222.864 238.032L225.154 237.062L225.524 236.901L225.943 236.727C226.424 236.503 226.927 236.294 227.429 236.071L227.862 235.882L228.867 235.428L230.019 234.912C230.856 234.535 231.708 234.137 232.567 233.732C233.425 233.327 234.291 232.916 235.163 232.497C235.819 232.176 236.475 231.855 237.131 231.52L238.723 230.724L238.89 230.64L240.517 229.796L240.649 229.726L242.08 228.972L243.225 228.358C244.156 227.86 245.061 227.357 245.94 226.85L247.748 225.817L249.395 224.756C249.863 224.484 250.324 224.198 250.791 223.918C250.966 223.814 251.147 223.709 251.315 223.597C251.838 223.283 252.369 222.955 252.878 222.634L253.067 222.515L253.814 222.041C254.142 221.831 254.456 221.622 254.784 221.42L255.712 220.805L256.634 220.205C257.017 219.954 257.401 219.703 257.771 219.444C258.532 218.928 259.272 218.425 259.998 217.916L260.145 217.811L260.982 217.232C262.085 216.45 263.146 215.682 264.151 214.942L264.905 214.377L265.603 213.832L266.301 213.288C266.776 212.932 267.229 212.59 267.697 212.234L267.753 212.192L268.318 211.752L269.609 210.719L270.426 210.07C270.594 209.931 270.754 209.791 270.915 209.665C271.075 209.54 271.236 209.393 271.389 209.274L271.857 208.891C271.856 208.879 271.856 208.867 271.857 208.856L272.918 208.004C274.223 206.901 275.319 205.91 276.185 205.142C276.294 205.03 276.41 204.925 276.534 204.828L276.603 204.758L276.966 204.423C277.992 203.481 278.551 202.923 278.628 202.846L267.62 149.372ZM243.853 224.058C243.856 224.072 243.856 224.086 243.853 224.1C243.839 224.208 243.818 224.315 243.79 224.421V224.512C243.755 224.596 243.728 224.686 243.693 224.77C243.679 224.808 243.663 224.846 243.644 224.882C243.607 224.986 243.561 225.087 243.504 225.182C243.318 225.519 243.067 225.816 242.764 226.054C242.665 226.134 242.558 226.202 242.443 226.257C239.847 227.653 237.25 229.007 234.716 230.242L233.383 230.898C232.318 231.406 231.264 231.899 230.221 232.378L228.769 233.076L226.285 234.179C225.873 234.368 225.468 234.542 225.07 234.71L223.89 235.219C222.327 235.917 220.833 236.503 219.423 237.076C218.676 237.383 217.943 237.669 217.245 237.948L216.219 238.346C214.537 238.995 213.057 239.554 211.808 240.007C211.404 240.171 210.955 240.185 210.543 240.045C210.13 239.905 209.781 239.622 209.56 239.247C209.454 239.049 209.376 238.838 209.33 238.618L202.546 204.821C202.448 204.204 202.532 203.572 202.787 203.002C203.042 202.432 203.458 201.948 203.983 201.61L232.601 185.089C232.817 184.942 233.066 184.852 233.325 184.827C233.585 184.803 233.846 184.844 234.085 184.948C234.325 185.052 234.533 185.215 234.693 185.421C234.852 185.628 234.956 185.871 234.996 186.129L241.773 214.426L243.825 222.997L243.86 223.137V223.241C243.867 223.281 243.867 223.321 243.86 223.36C243.864 223.4 243.864 223.439 243.86 223.479C243.867 223.562 243.867 223.646 243.86 223.73C243.867 223.839 243.864 223.949 243.853 224.058ZM269.065 208.367L268.562 208.793C266.894 210.14 264.996 211.585 262.909 213.169C262.211 213.7 261.464 214.23 260.703 214.775L259.886 215.368C258.776 216.164 257.625 216.959 256.396 217.776L255.21 218.572C254.812 218.844 254.4 219.109 253.988 219.374C253.576 219.64 253.158 219.926 252.739 220.191C251.238 221.161 249.682 222.132 248.076 223.088C247.865 223.238 247.619 223.331 247.362 223.358C247.104 223.385 246.844 223.346 246.607 223.244C246.369 223.141 246.161 222.979 246.004 222.774C245.847 222.568 245.746 222.325 245.71 222.069L245.661 221.859L243.602 213.316L236.887 185.089C236.77 184.474 236.84 183.839 237.089 183.265C237.338 182.691 237.754 182.205 238.283 181.871L243.707 178.751L265.784 165.977L266.769 165.419L266.852 165.377C267.063 165.247 267.303 165.173 267.55 165.161C267.797 165.149 268.043 165.199 268.266 165.308C268.488 165.417 268.679 165.58 268.821 165.782C268.964 165.985 269.052 166.22 269.079 166.466L275.829 199.97C275.983 201.001 275.752 202.052 275.179 202.923C275.103 203.041 275.019 203.16 274.935 203.265C274.852 203.36 274.764 203.451 274.67 203.537L274.314 203.858C274.153 204.012 273.986 204.158 273.818 204.305L272.311 205.617C271.773 206.085 271.18 206.587 270.552 207.111L269.232 208.2L269.072 208.325L269.065 208.367Z" fill="#407BFF"/>
<g opacity="0.3">
<path d="M267.62 149.372L261.436 152.953L241.159 164.672L197.073 190.114L208.102 243.56L208.855 243.309L209.009 243.26L209.777 242.995L210.098 242.904H210.168H210.238L210.761 242.716L211.578 242.429L212.387 242.136L212.918 241.941L213.616 241.683L215.975 240.789L216.506 240.587C218.397 239.854 220.54 239.002 222.864 238.032L225.154 237.062L225.524 236.901L225.943 236.727C226.424 236.503 226.927 236.294 227.429 236.071L227.862 235.882L228.867 235.428L230.019 234.912C230.856 234.535 231.708 234.137 232.567 233.732C233.425 233.327 234.291 232.916 235.163 232.497C235.819 232.176 236.475 231.855 237.131 231.52L238.723 230.724L238.89 230.64L240.517 229.796L240.649 229.726L242.08 228.972L243.225 228.358C244.156 227.86 245.061 227.357 245.94 226.85L247.748 225.817L249.395 224.756C249.863 224.484 250.324 224.198 250.791 223.918C250.966 223.814 251.147 223.709 251.315 223.597C251.838 223.283 252.369 222.955 252.878 222.634L253.067 222.515L253.814 222.041C254.142 221.831 254.456 221.622 254.784 221.42L255.712 220.805L256.634 220.205C257.017 219.954 257.401 219.703 257.771 219.444C258.532 218.928 259.272 218.425 259.998 217.916L260.145 217.811L260.982 217.232C262.085 216.45 263.146 215.682 264.151 214.942L264.905 214.377L265.603 213.832L266.301 213.288C266.776 212.932 267.229 212.59 267.697 212.234L267.753 212.192L268.318 211.752L269.609 210.719L270.426 210.07C270.594 209.931 270.754 209.791 270.915 209.665C271.075 209.54 271.236 209.393 271.389 209.274L271.857 208.891C271.856 208.879 271.856 208.867 271.857 208.856L272.918 208.004C274.223 206.901 275.319 205.91 276.185 205.142C276.294 205.03 276.41 204.925 276.534 204.828L276.603 204.758L276.966 204.423C277.992 203.481 278.551 202.923 278.628 202.846L267.62 149.372ZM243.853 224.058C243.856 224.072 243.856 224.086 243.853 224.1C243.839 224.208 243.818 224.315 243.79 224.421V224.512C243.755 224.596 243.728 224.686 243.693 224.77C243.679 224.808 243.663 224.846 243.644 224.882C243.607 224.986 243.561 225.087 243.504 225.182C243.318 225.519 243.067 225.816 242.764 226.054C242.665 226.134 242.558 226.202 242.443 226.257C239.847 227.653 237.25 229.007 234.716 230.242L233.383 230.898C232.318 231.406 231.264 231.899 230.221 232.378L228.769 233.076L226.285 234.179C225.873 234.368 225.468 234.542 225.07 234.71L223.89 235.219C222.327 235.917 220.833 236.503 219.423 237.076C218.676 237.383 217.943 237.669 217.245 237.948L216.219 238.346C214.537 238.995 213.057 239.554 211.808 240.007C211.404 240.171 210.955 240.185 210.543 240.045C210.13 239.905 209.781 239.622 209.56 239.247C209.454 239.049 209.376 238.838 209.33 238.618L202.546 204.821C202.448 204.204 202.532 203.572 202.787 203.002C203.042 202.432 203.458 201.948 203.983 201.61L232.601 185.089C232.817 184.942 233.066 184.852 233.325 184.827C233.585 184.803 233.846 184.844 234.085 184.948C234.325 185.052 234.533 185.215 234.693 185.421C234.852 185.628 234.956 185.871 234.996 186.129L241.773 214.426L243.825 222.997L243.86 223.137V223.241C243.867 223.281 243.867 223.321 243.86 223.36C243.864 223.4 243.864 223.439 243.86 223.479C243.867 223.562 243.867 223.646 243.86 223.73C243.867 223.839 243.864 223.949 243.853 224.058ZM269.065 208.367L268.562 208.793C266.894 210.14 264.996 211.585 262.909 213.169C262.211 213.7 261.464 214.23 260.703 214.775L259.886 215.368C258.776 216.164 257.625 216.959 256.396 217.776L255.21 218.572C254.812 218.844 254.4 219.109 253.988 219.374C253.576 219.64 253.158 219.926 252.739 220.191C251.238 221.161 249.682 222.132 248.076 223.088C247.865 223.238 247.619 223.331 247.362 223.358C247.104 223.385 246.844 223.346 246.607 223.244C246.369 223.141 246.161 222.979 246.004 222.774C245.847 222.568 245.746 222.325 245.71 222.069L245.661 221.859L243.602 213.316L236.887 185.089C236.77 184.474 236.84 183.839 237.089 183.265C237.338 182.691 237.754 182.205 238.283 181.871L243.707 178.751L265.784 165.977L266.769 165.419L266.852 165.377C267.063 165.247 267.303 165.173 267.55 165.161C267.797 165.149 268.043 165.199 268.266 165.308C268.488 165.417 268.679 165.58 268.821 165.782C268.964 165.985 269.052 166.22 269.079 166.466L275.829 199.97C275.983 201.001 275.752 202.052 275.179 202.923C275.103 203.041 275.019 203.16 274.935 203.265C274.852 203.36 274.764 203.451 274.67 203.537L274.314 203.858C274.153 204.012 273.986 204.158 273.818 204.305L272.311 205.617C271.773 206.085 271.18 206.587 270.552 207.111L269.232 208.2L269.072 208.325L269.065 208.367Z" fill="black"/>
</g>
<path d="M202.915 198.763L266.566 161.999C266.976 161.737 267.302 161.361 267.502 160.917C267.703 160.474 267.771 159.981 267.697 159.5L266.538 153.756C266.518 153.557 266.446 153.368 266.329 153.206C266.213 153.044 266.056 152.916 265.874 152.834C265.693 152.752 265.493 152.719 265.294 152.739C265.096 152.759 264.906 152.83 264.744 152.946L201.101 189.709C200.689 189.972 200.362 190.348 200.161 190.793C199.96 191.239 199.894 191.733 199.97 192.215L201.122 197.953C201.142 198.151 201.214 198.341 201.33 198.502C201.447 198.664 201.604 198.792 201.785 198.874C201.967 198.956 202.167 198.989 202.365 198.969C202.564 198.95 202.753 198.879 202.915 198.763Z" fill="#455A64"/>
<path d="M243.811 223.109C243.934 223.713 243.865 224.341 243.615 224.905C243.365 225.469 242.946 225.942 242.415 226.257C232.542 231.557 222.302 236.143 211.773 239.979C211.52 240.081 211.247 240.125 210.974 240.107C210.702 240.089 210.437 240.01 210.199 239.876C209.961 239.742 209.756 239.557 209.6 239.333C209.443 239.109 209.339 238.853 209.295 238.583L208.848 236.357C215.033 231.862 230.054 221.133 241.585 214.474C241.63 214.444 241.676 214.416 241.724 214.391L243.811 223.109Z" fill="#37474F"/>
<path d="M275.207 202.944C275.061 203.179 274.883 203.393 274.677 203.579C266.441 210.908 257.537 217.451 248.083 223.123C247.872 223.273 247.626 223.366 247.369 223.393C247.111 223.42 246.851 223.381 246.613 223.278C246.376 223.176 246.168 223.014 246.011 222.808C245.854 222.603 245.753 222.36 245.717 222.104L243.623 213.33C252.607 208.375 261.957 204.117 271.592 200.591L275.207 202.944Z" fill="#37474F"/>
<path opacity="0.1" d="M270.768 195.691L263.055 191.252C262.134 190.652 261.367 189.843 260.818 188.891C260.268 187.939 259.951 186.87 259.893 185.773V169.405L265.805 165.984L266.782 165.419C266.81 165.399 266.841 165.382 266.873 165.37L272.457 194.47C272.743 195.845 271.975 196.389 270.768 195.691Z" fill="white"/>
<path opacity="0.1" d="M254.274 172.65V183.986C254.274 185.2 253.43 185.689 252.376 185.082L242.569 179.421L243.735 178.723L254.274 172.65Z" fill="white"/>
<path d="M267.62 149.379L197.073 190.107L172.825 172.287L145.065 156.261L215.612 115.54L243.372 131.566L267.62 149.379Z" fill="#407BFF"/>
<path d="M189.856 224.093L195.112 221.043C195.286 220.915 195.491 220.837 195.706 220.816C195.921 220.795 196.138 220.832 196.333 220.924L197.576 221.664C197.753 221.787 197.895 221.956 197.984 222.152C198.074 222.349 198.109 222.566 198.085 222.781V235.387C198.054 235.985 197.881 236.568 197.581 237.087C197.282 237.606 196.864 238.047 196.361 238.374L191.105 241.424C190.932 241.553 190.727 241.632 190.512 241.654C190.297 241.676 190.08 241.64 189.884 241.55C189.577 241.369 188.949 240.985 188.642 240.81C188.464 240.686 188.323 240.516 188.233 240.318C188.144 240.12 188.109 239.902 188.132 239.686V227.081C188.164 226.482 188.337 225.9 188.637 225.381C188.936 224.862 189.354 224.42 189.856 224.093Z" fill="#FAFAFA"/>
<path d="M188.111 227.081V239.694C188.088 239.908 188.124 240.125 188.213 240.322C188.303 240.518 188.443 240.687 188.62 240.81C188.921 240.978 189.395 241.278 189.828 241.508C189.665 241.379 189.537 241.211 189.455 241.02C189.373 240.829 189.341 240.62 189.36 240.413V227.821C189.384 227.232 189.554 226.658 189.856 226.152L188.6 225.413C188.301 225.92 188.133 226.493 188.111 227.081Z" fill="#E0E0E0"/>
<path d="M196.34 238.374L191.084 241.425C190.135 241.976 189.36 241.529 189.36 240.434V227.828C189.393 227.228 189.566 226.645 189.866 226.125C190.165 225.605 190.583 225.162 191.084 224.833L196.34 221.783C197.29 221.239 198.064 221.678 198.064 222.781V235.387C198.033 235.986 197.86 236.568 197.56 237.087C197.261 237.607 196.843 238.048 196.34 238.374Z" fill="#F0F0F0"/>
<path d="M201.024 240.468C201.539 240.805 201.967 241.259 202.274 241.793C202.581 242.326 202.757 242.925 202.79 243.539C202.79 244.67 202.001 245.131 201.024 244.566C200.508 244.229 200.079 243.776 199.772 243.242C199.465 242.708 199.289 242.109 199.258 241.494C199.258 240.364 200.047 239.903 201.024 240.468Z" fill="#37474F"/>
<path d="M194.812 246.394C194.581 246.391 194.355 246.329 194.156 246.212C193.956 246.099 193.791 245.934 193.677 245.736C193.563 245.537 193.504 245.311 193.506 245.082V232.294C193.499 232.232 193.504 232.17 193.522 232.11C193.541 232.05 193.571 231.995 193.613 231.948C193.654 231.901 193.705 231.864 193.762 231.838C193.819 231.813 193.88 231.799 193.943 231.799C194.005 231.799 194.067 231.813 194.124 231.838C194.181 231.864 194.231 231.901 194.273 231.948C194.314 231.995 194.345 232.05 194.363 232.11C194.381 232.17 194.387 232.232 194.379 232.294V245.096C194.376 245.172 194.395 245.248 194.433 245.315C194.472 245.382 194.528 245.436 194.595 245.473C194.661 245.512 194.735 245.533 194.812 245.533C194.888 245.533 194.963 245.512 195.028 245.473L200.807 242.136C200.857 242.107 200.912 242.089 200.968 242.081C201.025 242.074 201.082 242.078 201.138 242.093C201.193 242.108 201.244 242.133 201.29 242.168C201.335 242.203 201.373 242.247 201.401 242.297C201.457 242.398 201.472 242.517 201.442 242.629C201.412 242.741 201.34 242.837 201.24 242.897L195.44 246.226C195.248 246.333 195.032 246.391 194.812 246.394Z" fill="#263238"/>
<path d="M126.519 94.3977C126.349 94.3992 126.184 94.3382 126.055 94.2263C125.927 94.1145 125.843 93.9594 125.821 93.7904C122.576 70.4423 139.621 56.1962 156.652 50.6471C174.423 44.8606 186.973 52.5666 187.504 52.8946C187.662 52.9937 187.774 53.1515 187.816 53.3335C187.858 53.5154 187.826 53.7066 187.727 53.8648C187.628 54.0231 187.47 54.1356 187.288 54.1775C187.106 54.2194 186.915 54.1872 186.757 54.0882C186.631 54.0114 174.193 46.4102 157.092 51.9942C140.598 57.3688 124.083 71.1194 127.217 93.609C127.231 93.7008 127.226 93.7944 127.204 93.8843C127.181 93.9743 127.14 94.0588 127.084 94.1329C127.028 94.207 126.958 94.2692 126.878 94.3158C126.798 94.3625 126.709 94.3927 126.617 94.4047L126.519 94.3977Z" fill="#37474F"/>
<path d="M234.605 11.3076L189.807 37.1685L178.402 60.2025L189.807 70.0862L191.091 70.8261L235.924 44.9791V12.0475L234.605 11.3076ZM188.243 55.9796C188.294 55.029 188.568 54.1038 189.044 53.2791C189.519 52.4543 190.182 51.7534 190.98 51.2332C191.336 51.015 191.742 50.8901 192.159 50.8703C192.348 51.2418 192.441 51.6543 192.431 52.0708C192.379 53.021 192.104 53.9457 191.629 54.7701C191.154 55.5946 190.491 56.2958 189.695 56.8172C189.333 57.0337 188.923 57.1583 188.502 57.1802C188.316 56.8031 188.227 56.3857 188.243 55.9657V55.9796Z" fill="#407BFF"/>
<path d="M191.091 37.9152L179.686 60.9492L191.091 70.8259L235.924 44.979V12.0474L191.091 37.9152ZM190.98 57.543C189.465 58.4225 188.244 57.7105 188.244 55.9655C188.294 55.0149 188.568 54.0897 189.044 53.265C189.519 52.4402 190.182 51.7393 190.98 51.2191C192.487 50.3466 193.716 51.0586 193.716 52.7966C193.665 53.7471 193.39 54.6721 192.915 55.4967C192.44 56.3214 191.777 57.0224 190.98 57.543Z" fill="#407BFF"/>
<path opacity="0.3" d="M193.716 52.7969C193.665 53.7473 193.39 54.6724 192.915 55.497C192.439 56.3216 191.776 57.0227 190.98 57.5433C189.884 58.1785 188.941 57.983 188.502 57.1664C188.925 57.1483 189.336 57.0208 189.695 56.7964C190.492 56.2773 191.155 55.5776 191.63 54.7541C192.106 53.9306 192.38 53.0065 192.431 52.057C192.442 51.6448 192.349 51.2366 192.159 50.8704C192.348 50.8609 192.538 50.8901 192.715 50.9561C192.893 51.0221 193.055 51.1236 193.192 51.2543C193.378 51.4634 193.52 51.7076 193.61 51.9726C193.7 52.2375 193.736 52.5178 193.716 52.7969Z" fill="black"/>
<path opacity="0.6" d="M235.889 12.0475L234.605 11.3076L189.807 37.1685L191.091 37.9154L235.889 12.0475Z" fill="white"/>
<path opacity="0.15" d="M191.091 37.9153L179.686 60.9703L178.402 60.2234L189.807 37.1685L191.091 37.9153Z" fill="black"/>
<path opacity="0.3" d="M179.686 60.9705L191.091 70.8472L189.807 70.1073L178.402 60.2236L179.686 60.9705Z" fill="black"/>
<path d="M204.94 35.0744C204.972 35.046 205.015 35.0303 205.058 35.0303C205.102 35.0303 205.144 35.046 205.177 35.0744C205.248 35.1629 205.283 35.2752 205.275 35.3885V37.4337C205.272 37.5786 205.239 37.7214 205.177 37.8525C205.13 37.9727 205.047 38.0752 204.94 38.1456L201.191 40.3094V42.9479L204.681 40.9307C204.715 40.9035 204.757 40.8886 204.8 40.8886C204.843 40.8886 204.885 40.9035 204.919 40.9307C204.99 41.0163 205.025 41.1266 205.016 41.2378V43.2829C205.013 43.43 204.98 43.575 204.919 43.7087C204.87 43.8259 204.787 43.9256 204.681 43.9949L201.191 46.0191V50.2071C201.19 50.3544 201.156 50.4996 201.094 50.6329C201.043 50.7505 200.961 50.8519 200.856 50.926L199.209 51.8753C199.175 51.9025 199.134 51.9174 199.09 51.9174C199.047 51.9174 199.005 51.9025 198.972 51.8753C198.9 51.7897 198.865 51.6794 198.874 51.5682V39.0879C198.877 38.9408 198.91 38.7959 198.972 38.6622C199.022 38.5445 199.104 38.4431 199.209 38.369L204.94 35.0744Z" fill="#FAFAFA"/>
<path d="M210.649 31.7801C211.102 31.496 211.604 31.2972 212.129 31.1938C212.505 31.1147 212.896 31.1742 213.232 31.3613C213.572 31.5946 213.819 31.9407 213.93 32.3385C214.109 32.9262 214.192 33.5391 214.174 34.1533C214.184 35.0433 214.052 35.9292 213.783 36.7778C213.543 37.5359 213.17 38.2451 212.68 38.8718L214.244 42.5781C214.269 42.6377 214.281 42.702 214.279 42.7666C214.277 42.887 214.251 43.0058 214.202 43.1156C214.162 43.2125 214.094 43.2951 214.007 43.3529L212.303 44.3371C212.136 44.4348 212.017 44.4418 211.947 44.3371C211.875 44.2645 211.816 44.1793 211.773 44.0858L210.377 40.7633L209.225 41.4613V45.5865C209.223 45.7337 209.19 45.8788 209.127 46.0123C209.077 46.1299 208.995 46.2314 208.89 46.3054L207.25 47.2478C207.216 47.2768 207.172 47.2927 207.128 47.2927C207.083 47.2927 207.04 47.2768 207.006 47.2478C206.934 47.1621 206.899 47.0519 206.908 46.9406V34.4534C206.91 34.3062 206.943 34.1611 207.006 34.0276C207.056 33.9079 207.141 33.8058 207.25 33.7345L210.649 31.7801ZM209.253 38.439L210.649 37.6223C210.987 37.4177 211.275 37.1413 211.494 36.8127C211.734 36.4158 211.853 35.9572 211.836 35.4934C211.836 34.949 211.717 34.6489 211.494 34.5721C211.343 34.544 211.187 34.5469 211.037 34.5805C210.888 34.6141 210.746 34.6777 210.621 34.7675L209.225 35.5842L209.253 38.439Z" fill="#FAFAFA"/>
<path d="M222.208 35.5146C222.241 35.4862 222.283 35.4705 222.327 35.4705C222.37 35.4705 222.412 35.4862 222.445 35.5146C222.483 35.5556 222.512 35.6041 222.53 35.657C222.549 35.71 222.555 35.7661 222.55 35.8218V37.8669C222.548 38.0149 222.512 38.1605 222.445 38.2927C222.399 38.4113 222.316 38.5117 222.208 38.5789L216.275 42.006C216.242 42.0345 216.2 42.0502 216.156 42.0502C216.113 42.0502 216.071 42.0345 216.038 42.006C216 41.9651 215.971 41.9166 215.953 41.8636C215.935 41.8107 215.928 41.7546 215.933 41.6989V29.2466C215.935 29.0985 215.97 28.9527 216.038 28.8208C216.084 28.7004 216.167 28.5977 216.275 28.5277L222.11 25.1633C222.143 25.1348 222.185 25.1191 222.229 25.1191C222.273 25.1191 222.315 25.1348 222.348 25.1633C222.384 25.2048 222.412 25.2536 222.429 25.3065C222.446 25.3594 222.451 25.4153 222.445 25.4704V27.5156C222.446 27.6632 222.413 27.8089 222.348 27.9413C222.297 28.059 222.215 28.1604 222.11 28.2345L218.25 30.4611V32.5551L221.831 30.4611C221.865 30.4321 221.909 30.4162 221.953 30.4162C221.998 30.4162 222.041 30.4321 222.075 30.4611C222.147 30.5467 222.182 30.657 222.173 30.7682V32.8134C222.172 32.9607 222.138 33.1059 222.075 33.2392C222.025 33.3589 221.94 33.461 221.831 33.5323L218.25 35.6263V37.7901L222.208 35.5146Z" fill="#FAFAFA"/>
<path d="M230.577 30.7122C230.61 30.6837 230.652 30.668 230.696 30.668C230.739 30.668 230.782 30.6837 230.814 30.7122C230.851 30.7537 230.879 30.8025 230.896 30.8554C230.913 30.9083 230.918 30.9641 230.912 31.0193V33.0644C230.913 33.2098 230.88 33.3533 230.814 33.4832C230.768 33.6034 230.685 33.706 230.577 33.7764L224.637 37.2036C224.604 37.2321 224.562 37.2477 224.519 37.2477C224.475 37.2477 224.433 37.2321 224.4 37.2036C224.328 37.118 224.293 37.0077 224.302 36.8965V24.4302C224.304 24.283 224.338 24.1379 224.4 24.0044C224.451 23.8868 224.533 23.7853 224.637 23.7112L230.479 20.3399C230.513 20.3127 230.555 20.2979 230.598 20.2979C230.641 20.2979 230.683 20.3127 230.717 20.3399C230.788 20.4255 230.823 20.5358 230.814 20.647V22.6922C230.811 22.8393 230.778 22.9842 230.717 23.1179C230.668 23.2351 230.586 23.3349 230.479 23.4041L226.62 25.6377V27.7317L230.2 25.6377C230.233 25.6092 230.275 25.5935 230.319 25.5935C230.362 25.5935 230.405 25.6092 230.438 25.6377C230.476 25.6787 230.505 25.7272 230.523 25.7801C230.541 25.833 230.547 25.8892 230.542 25.9448V27.99C230.542 28.1382 230.506 28.2841 230.438 28.4158C230.389 28.5348 230.307 28.6368 230.2 28.7089L226.62 30.8029V32.9597L230.577 30.7122Z" fill="#FAFAFA"/>
<path d="M200.249 53.2298C200.485 53.0826 200.753 52.9941 201.031 52.9716C201.242 52.955 201.453 53.0011 201.638 53.1042C201.811 53.2014 201.952 53.347 202.043 53.523C202.14 53.7059 202.193 53.9092 202.196 54.1163C202.195 54.179 202.181 54.2408 202.155 54.2978C202.136 54.3468 202.101 54.3884 202.057 54.4164L201.191 54.919C201.148 54.9487 201.097 54.9634 201.045 54.9609C201 54.957 200.958 54.9372 200.926 54.905C200.902 54.888 200.88 54.8667 200.863 54.8422C200.821 54.8025 200.77 54.7735 200.714 54.7577C200.658 54.742 200.599 54.7398 200.542 54.7515C200.438 54.7673 200.338 54.8054 200.249 54.8631C200.166 54.9102 200.086 54.9638 200.012 55.0237C199.937 55.0858 199.867 55.1534 199.802 55.2261C199.744 55.3 199.697 55.3823 199.663 55.4704C199.62 55.5596 199.598 55.6576 199.6 55.7566C199.59 55.7951 199.591 55.8355 199.601 55.8738C199.612 55.9121 199.632 55.947 199.661 55.9751C199.689 56.0033 199.724 56.0236 199.762 56.0342C199.8 56.0449 199.841 56.0454 199.879 56.0358C200.011 56.0336 200.143 56.0148 200.27 55.9799C200.438 55.9381 200.64 55.8892 200.877 55.8194C201.083 55.7596 201.298 55.7336 201.512 55.7426C201.679 55.7426 201.84 55.802 201.966 55.9101C202.101 56.0304 202.196 56.1886 202.238 56.3638C202.307 56.6186 202.337 56.882 202.329 57.1456C202.33 57.4889 202.279 57.8303 202.176 58.1577C202.071 58.4875 201.928 58.8038 201.75 59.1C201.386 59.6939 200.883 60.1899 200.284 60.5449C200.036 60.6992 199.757 60.7969 199.467 60.831C199.247 60.8585 199.023 60.8196 198.825 60.7194C198.648 60.6173 198.502 60.4674 198.406 60.2866C198.297 60.0704 198.242 59.8308 198.246 59.5886C198.247 59.5259 198.261 59.4641 198.288 59.4071C198.307 59.3581 198.341 59.3165 198.385 59.2885L199.251 58.7859C199.295 58.7579 199.345 58.7411 199.398 58.737C199.436 58.7444 199.472 58.7612 199.502 58.7859C199.534 58.8101 199.562 58.8382 199.586 58.8697C199.623 58.9152 199.671 58.9511 199.726 58.9744C199.795 59.0083 199.872 59.0228 199.949 59.0162C200.068 58.999 200.183 58.9561 200.284 58.8906C200.501 58.7698 200.699 58.6168 200.87 58.4369C201.018 58.2881 201.103 58.0882 201.108 57.8785C201.111 57.8398 201.105 57.8007 201.089 57.7652C201.073 57.7297 201.048 57.699 201.017 57.6761C200.937 57.6362 200.847 57.6216 200.759 57.6342C200.61 57.6515 200.463 57.6795 200.319 57.718C200.144 57.7738 199.928 57.8227 199.691 57.8855C199.524 57.9504 199.343 57.9685 199.167 57.9377C198.991 57.9069 198.827 57.8285 198.693 57.711C198.446 57.3542 198.334 56.9211 198.378 56.4895C198.379 56.1823 198.424 55.8767 198.511 55.5821C198.598 55.2617 198.723 54.9526 198.881 54.6607C199.048 54.365 199.247 54.0887 199.474 53.8371C199.701 53.5974 199.962 53.3927 200.249 53.2298Z" fill="#FAFAFA"/>
<path d="M206.894 49.5023C206.911 49.4861 206.933 49.4771 206.957 49.4771C206.98 49.4771 207.003 49.4861 207.02 49.5023C207.038 49.5243 207.052 49.5498 207.061 49.5775C207.069 49.6051 207.072 49.6342 207.069 49.6629V56.245C207.068 56.3221 207.052 56.3983 207.02 56.4684C206.991 56.529 206.948 56.5817 206.894 56.6219L206.022 57.1175C206.004 57.1323 205.982 57.1404 205.959 57.1404C205.936 57.1404 205.913 57.1323 205.896 57.1175C205.859 57.0724 205.842 57.0148 205.847 56.9569V54.4441L204.381 55.2957V57.7876C204.38 57.8653 204.361 57.9418 204.325 58.0109C204.301 58.0741 204.257 58.1279 204.2 58.1645L203.334 58.6671C203.317 58.6818 203.294 58.6899 203.271 58.6899C203.248 58.6899 203.226 58.6818 203.209 58.6671C203.188 58.6449 203.172 58.6184 203.162 58.5895C203.152 58.5605 203.149 58.5298 203.153 58.4995V51.9314C203.155 51.8537 203.174 51.7775 203.209 51.708C203.233 51.6448 203.277 51.5911 203.334 51.5544L204.2 51.0519C204.217 51.0371 204.24 51.029 204.263 51.029C204.286 51.029 204.308 51.0371 204.325 51.0519C204.346 51.073 204.361 51.0983 204.371 51.126C204.381 51.1537 204.384 51.1832 204.381 51.2124V53.6764L205.847 52.8318V50.3748C205.847 50.2977 205.864 50.2215 205.896 50.1514C205.922 50.0894 205.966 50.0361 206.022 49.9979L206.894 49.5023Z" fill="#FAFAFA"/>
<path d="M208.339 55.7912C208.321 55.806 208.299 55.8141 208.276 55.8141C208.253 55.8141 208.231 55.806 208.213 55.7912C208.193 55.7683 208.178 55.7417 208.169 55.713C208.159 55.6842 208.155 55.6539 208.157 55.6237V49.0415C208.159 48.9639 208.178 48.8876 208.213 48.8182C208.238 48.755 208.282 48.7013 208.339 48.6646L209.204 48.1621C209.222 48.1485 209.244 48.1411 209.267 48.1411C209.29 48.1411 209.312 48.1485 209.33 48.1621C209.35 48.1849 209.365 48.2115 209.375 48.2402C209.384 48.269 209.388 48.2993 209.386 48.3296V54.9047C209.385 54.9825 209.366 55.059 209.33 55.1281C209.305 55.1913 209.261 55.245 209.204 55.2817L208.339 55.7912Z" fill="#FAFAFA"/>
<path d="M212.548 46.2359C212.781 46.0922 213.039 45.9928 213.309 45.9427C213.508 45.9075 213.713 45.95 213.881 46.0614C214.06 46.1955 214.189 46.3842 214.251 46.5989C214.344 46.9111 214.387 47.2364 214.377 47.5621C214.379 47.9403 214.337 48.3175 214.251 48.6859C214.169 49.0169 214.045 49.336 213.881 49.6352C213.727 49.9205 213.534 50.1835 213.309 50.4169C213.082 50.6474 212.827 50.8468 212.548 51.0102L211.696 51.4988V53.5928C211.696 53.6699 211.68 53.7461 211.647 53.8162C211.621 53.8782 211.577 53.9315 211.522 53.9697L210.656 54.4444C210.639 54.4606 210.617 54.4696 210.593 54.4696C210.57 54.4696 210.548 54.4606 210.531 54.4444C210.511 54.423 210.495 54.3977 210.486 54.37C210.476 54.3424 210.472 54.313 210.475 54.2838V47.7017C210.478 47.6241 210.497 47.548 210.531 47.4783C210.557 47.4163 210.601 47.363 210.656 47.3248L212.548 46.2359ZM211.696 49.9144L212.513 49.4397C212.717 49.3215 212.884 49.1497 212.998 48.943C213.111 48.7363 213.165 48.5025 213.155 48.2671C213.155 47.9809 213.092 47.8134 212.974 47.7575C212.897 47.7309 212.814 47.7239 212.734 47.7373C212.653 47.7507 212.577 47.7841 212.513 47.8343L211.696 48.302V49.9144Z" fill="#FAFAFA"/>
<path d="M217.245 43.5204C217.48 43.3789 217.737 43.2797 218.006 43.2273C218.207 43.1923 218.414 43.2347 218.585 43.3459C218.762 43.4808 218.889 43.6695 218.948 43.8834C219.048 44.1944 219.093 44.5203 219.081 44.8466C219.085 45.2253 219.04 45.6029 218.948 45.9704C218.868 46.303 218.746 46.6243 218.585 46.9267C218.427 47.2089 218.232 47.4693 218.006 47.7014C217.783 47.9351 217.526 48.135 217.245 48.2947L216.401 48.7833V50.8773C216.398 50.9549 216.379 51.031 216.345 51.1007C216.32 51.1639 216.276 51.2176 216.219 51.2543L215.354 51.7568C215.336 51.7716 215.314 51.7797 215.291 51.7797C215.268 51.7797 215.246 51.7716 215.228 51.7568C215.209 51.7349 215.195 51.7093 215.187 51.6817C215.178 51.654 215.176 51.625 215.179 51.5963V44.9932C215.178 44.9138 215.195 44.8351 215.228 44.7629C215.255 44.7008 215.298 44.6475 215.354 44.6093L217.245 43.5204ZM216.38 47.1989L217.196 46.7242C217.398 46.6045 217.564 46.4322 217.676 46.2257C217.788 46.0192 217.842 45.7862 217.832 45.5516C217.832 45.2654 217.776 45.0979 217.65 45.0421C217.574 45.0153 217.493 45.0084 217.413 45.0218C217.334 45.0352 217.259 45.0686 217.196 45.1188L216.38 45.5865V47.1989Z" fill="#FAFAFA"/>
<path d="M220.058 49.0275C220.041 49.0423 220.018 49.0504 219.996 49.0504C219.973 49.0504 219.95 49.0423 219.933 49.0275C219.91 49.0063 219.893 48.9801 219.882 48.9511C219.871 48.922 219.867 48.8908 219.87 48.86V42.2778C219.871 42.2001 219.89 42.1236 219.926 42.0545C219.948 41.9899 219.993 41.9355 220.051 41.9009L220.917 41.3984C220.934 41.3836 220.957 41.3755 220.98 41.3755C221.003 41.3755 221.025 41.3836 221.043 41.3984C221.082 41.4424 221.102 41.5001 221.098 41.5589V48.162C221.096 48.2396 221.077 48.3159 221.043 48.3853C221.018 48.4485 220.974 48.5023 220.917 48.5389L220.058 49.0275Z" fill="#FAFAFA"/>
<path d="M225.203 46.0681C225.126 46.11 225.07 46.117 225.021 46.0681C224.984 46.0455 224.953 46.0144 224.93 45.9774L223.416 43.3669V46.808C223.417 46.8853 223.4 46.9617 223.367 47.0314C223.342 47.0945 223.298 47.1483 223.241 47.1849L222.376 47.6875C222.358 47.7023 222.336 47.7104 222.313 47.7104C222.29 47.7104 222.268 47.7023 222.25 47.6875C222.229 47.6667 222.213 47.6414 222.204 47.6136C222.194 47.5858 222.191 47.5562 222.194 47.5269V40.9378C222.193 40.8597 222.212 40.7826 222.25 40.7145C222.275 40.6513 222.319 40.5975 222.376 40.5609L223.074 40.1631C223.15 40.1212 223.213 40.1142 223.255 40.1631C223.292 40.1856 223.323 40.2167 223.346 40.2538L224.861 42.8643V39.4092C224.859 39.332 224.876 39.2555 224.909 39.1858C224.938 39.1253 224.981 39.0727 225.035 39.0323L225.908 38.5297C225.926 38.5161 225.948 38.5088 225.97 38.5088C225.993 38.5088 226.015 38.5161 226.033 38.5297C226.071 38.577 226.088 38.6372 226.082 38.6972V45.2724C226.083 45.3496 226.066 45.4259 226.033 45.4958C226.009 45.5589 225.965 45.6127 225.908 45.6493L225.203 46.0681Z" fill="#FAFAFA"/>
<path d="M229.055 38.2295C228.912 38.3111 228.785 38.4174 228.679 38.5436C228.58 38.6674 228.498 38.8035 228.434 38.9484C228.369 39.0932 228.322 39.2456 228.295 39.4021C228.261 39.5633 228.238 39.7265 228.225 39.8907C228.225 39.9814 228.225 40.1071 228.225 40.2676C228.225 40.4282 228.225 40.5887 228.225 40.7492C228.225 40.9098 228.225 41.0773 228.225 41.2378C228.225 41.3984 228.225 41.517 228.225 41.6008C228.23 41.74 228.251 41.8782 228.288 42.0126C228.313 42.1206 228.363 42.2211 228.434 42.3058C228.466 42.3415 228.504 42.3699 228.548 42.3892C228.591 42.4085 228.638 42.4181 228.686 42.4175C228.818 42.4137 228.946 42.3726 229.055 42.2988C229.175 42.2323 229.286 42.1501 229.384 42.0545C229.487 41.9501 229.576 41.8328 229.649 41.7055C229.725 41.5642 229.783 41.4142 229.823 41.2588C229.873 41.0769 229.896 40.8889 229.893 40.7004L229.335 41.0215C229.317 41.0351 229.295 41.0424 229.272 41.0424C229.249 41.0424 229.227 41.0351 229.209 41.0215C229.171 40.9742 229.154 40.914 229.16 40.8539V39.786C229.159 39.7066 229.176 39.628 229.209 39.5557C229.236 39.4936 229.279 39.4404 229.335 39.4021L230.94 38.4807C230.958 38.466 230.98 38.4579 231.003 38.4579C231.026 38.4579 231.048 38.466 231.066 38.4807C231.103 38.528 231.121 38.5882 231.115 38.6483V39.9465C231.118 40.373 231.064 40.798 230.954 41.2099C230.854 41.6046 230.709 41.9864 230.521 42.3477C230.341 42.6807 230.123 42.9921 229.872 43.276C229.636 43.5376 229.36 43.7612 229.055 43.9391C228.802 44.1011 228.511 44.1949 228.211 44.2113C227.968 44.2161 227.732 44.1316 227.548 43.974C227.358 43.8001 227.218 43.5783 227.143 43.3318C227.043 43.0179 226.989 42.6911 226.982 42.3616C226.982 42.0824 226.982 41.7893 226.982 41.4682C226.982 41.1471 226.982 40.84 226.982 40.5468C226.992 40.1558 227.046 39.7671 227.143 39.3881C227.234 39.0036 227.37 38.631 227.548 38.2783C227.717 37.9292 227.931 37.6032 228.183 37.3081C228.429 37.033 228.716 36.7976 229.035 36.6101C229.288 36.4545 229.575 36.3612 229.872 36.3379C230.093 36.3314 230.312 36.3896 230.5 36.5054C230.674 36.6261 230.813 36.7896 230.905 36.98C231.003 37.1778 231.055 37.3948 231.059 37.6152C231.064 37.6778 231.052 37.7404 231.024 37.7967C231 37.8468 230.964 37.89 230.919 37.9223L230.061 38.39C229.991 38.4249 229.942 38.4249 229.9 38.39L229.795 38.2713C229.731 38.1863 229.644 38.121 229.544 38.0829C229.457 38.0713 229.368 38.0784 229.284 38.1037C229.2 38.129 229.122 38.1718 229.055 38.2295Z" fill="#FAFAFA"/>
<path d="M184.872 65.612C184.204 65.6106 183.538 65.5262 182.89 65.3607C182.705 65.3162 182.545 65.2001 182.445 65.0378C182.346 64.8755 182.315 64.6803 182.359 64.4952C182.404 64.31 182.52 64.1501 182.682 64.0507C182.845 63.9512 183.04 63.9202 183.225 63.9647C184.562 64.3539 185.995 64.2392 187.254 63.6423C188.512 63.0454 189.507 62.0078 190.051 60.726C190.749 59.0228 190.812 56.538 188.523 55.0652C188.365 54.9643 188.255 54.805 188.215 54.6224C188.175 54.4398 188.209 54.2488 188.31 54.0915C188.411 53.9341 188.57 53.8233 188.753 53.7834C188.935 53.7434 189.126 53.7777 189.284 53.8786C192.117 55.6864 192.362 58.8972 191.378 61.2774C190.85 62.5666 189.948 63.6683 188.789 64.4408C187.629 65.2132 186.265 65.6211 184.872 65.612Z" fill="#37474F"/>
</svg>
