<svg width="163" height="151" viewBox="0 0 163 151" fill="none" xmlns="http://www.w3.org/2000/svg">
<g clip-path="url(#clip0_2973_4985)">
<path d="M30.232 98.9609C28.761 84.275 36.7979 69.0572 49.7696 61.9116C63.537 54.3325 81.4994 55.4327 93.523 45.3476C104.843 35.8551 107.195 19.6252 108.036 4.91646" stroke="#ECACAC" stroke-width="0.75" stroke-miterlimit="10"/>
<path d="M34.4715 103.431C33.0005 88.7451 41.0374 73.5273 54.0091 66.3817C67.7765 58.8026 85.7389 59.9028 97.7625 49.8177C109.083 40.3252 111.434 24.0953 112.276 9.38655" stroke="#ECACAC" stroke-width="0.75" stroke-miterlimit="10"/>
<path d="M39.6366 108.171C38.1655 93.4855 46.2025 78.2678 59.1741 71.1222C72.9415 63.543 90.9039 64.6433 102.928 54.5582C114.248 45.0656 116.599 28.8357 117.441 14.127" stroke="#ECACAC" stroke-width="0.75" stroke-miterlimit="10"/>
</g>
<g clip-path="url(#clip1_2973_4985)">
<path d="M47.4146 106.954L47.4529 104.388C44.5042 106.063 41.1652 107.049 37.7743 107.224C37.8855 106.752 38.0128 106.273 38.1317 105.818C33.6854 108.013 28.3982 105.893 23.8795 103.803C24.7311 101.482 26.2676 99.4304 28.2679 97.9721C27.5914 97.6798 26.8987 97.3952 26.2144 97.0868C28.3151 94.8038 30.953 93.0194 33.8371 91.9131C32.7459 91.5014 31.6546 91.0897 30.5633 90.678C34.3565 85.014 41.4527 82.9203 48.2614 83.4532C61.463 84.4799 65.3093 91.9105 65.3093 91.9105C65.3093 91.9105 63.3258 102.997 47.4224 106.971L47.4146 106.954Z" fill="#68ACAF"/>
<path d="M48.2619 83.4533C41.4531 82.9203 34.3569 85.0141 30.5554 90.702C31.6467 91.1137 32.738 91.5254 33.8292 91.937C30.9212 93.0349 28.2994 94.8116 26.2065 97.1107C26.883 97.403 27.5757 97.6876 28.26 97.9961C26.2758 99.4466 24.7232 101.506 23.8716 103.826C27.4968 104.057 33.9338 101.583 43.2556 96.3495C52.6986 91.0383 65.3014 91.9345 65.3014 91.9345C65.3014 91.9345 65.0898 91.618 64.7689 91.1151C63.3322 89.1571 58.7669 84.2817 48.2535 83.4772L48.2619 83.4533Z" fill="#489C9E"/>
<path d="M120.57 72.1021C120.286 71.303 119.994 70.4877 119.709 69.6886C123.04 70.3389 126.526 70.1976 129.8 69.2824C129.542 68.8689 129.268 68.4631 129.017 68.0657C133.934 68.7109 138.266 65.0377 141.858 61.6007C140.317 59.673 138.191 58.2248 135.831 57.4867C136.384 56.9826 136.944 56.4947 137.496 55.9906C134.771 54.4921 131.707 53.6538 128.593 53.5366C129.493 52.8058 130.401 52.051 131.301 51.3202C125.868 47.1601 118.479 47.4437 112.199 50.1209C100.026 55.3296 98.7894 63.5884 98.7894 63.5884C98.7894 63.5884 104.242 73.4532 120.594 72.1105L120.57 72.1021Z" fill="#68ACAF"/>
<path d="M112.191 50.1051C118.471 47.4278 125.861 47.1443 131.294 51.3043C130.394 52.0352 129.485 52.79 128.585 53.5208C131.675 53.6295 134.763 54.4763 137.488 55.9748C136.936 56.4789 136.376 56.9668 135.824 57.4709C138.184 58.209 140.309 59.6572 141.85 61.5849C138.481 62.9637 131.597 62.6862 121.093 60.7025C110.437 58.6921 98.7977 63.5648 98.7977 63.5648C98.7977 63.5648 98.8832 63.2053 99.044 62.6303C99.7593 60.3158 102.525 54.2492 112.207 50.0974L112.191 50.1051Z" fill="#489C9E"/>
<path d="M57.9521 115.831C57.8075 116.398 57.4722 116.858 57.113 117.309C56.4443 118.108 55.601 118.791 54.6801 119.313C54.147 119.609 53.6008 119.712 53.0342 119.566C52.4665 119.5 51.9585 119.187 51.7344 118.637C51.5945 118.346 51.5593 118.025 51.5641 117.704C51.4565 116.86 51.7744 115.95 52.3918 115.375C52.3918 115.375 52.3918 115.375 52.4079 115.367C52.9655 114.502 53.7293 113.777 54.6257 113.287C55.191 112.976 55.8341 112.826 56.4646 112.981C57.0311 113.127 57.5296 113.545 57.7782 114.063C58.0501 114.629 58.1051 115.24 57.9599 115.847L57.9521 115.831Z" fill="#F9C485"/>
<path d="M61.4273 122.902C61.1811 123.299 60.8722 123.607 60.4998 123.865C60.4263 123.96 60.3606 124.071 60.2709 124.174C60.0349 124.427 59.7283 124.574 59.4223 124.681C59.1313 124.861 58.8008 124.999 58.4554 125.066C58.1583 125.109 57.8703 125.088 57.6163 124.931C57.3862 124.783 57.1501 124.498 57.0982 124.224C57.0826 124.192 57.0993 124.144 57.1077 124.12C56.7073 123.576 56.6224 122.82 56.8167 122.15C56.926 121.799 57.0993 121.456 57.2882 121.147C57.4274 120.941 57.5828 120.727 57.7537 120.545C57.8278 120.41 57.902 120.275 58 120.148C58.4004 119.617 58.9101 119.273 59.5914 119.244C60.3929 119.218 61.1291 119.8 61.4955 120.48C61.9084 121.257 61.8708 122.171 61.4028 122.934L61.4273 122.902Z" fill="#F9C485"/>
<path d="M64.719 115.946C64.5271 116.456 64.2397 116.932 63.8572 117.335C63.7257 117.558 63.5387 117.747 63.2811 117.831C63.1514 117.933 62.9978 118.027 62.8604 118.112C62.4247 118.322 61.8647 118.272 61.5097 117.905C61.0842 117.432 60.8846 116.851 60.8697 116.241C60.8464 116.193 60.8231 116.144 60.832 116.08C60.6617 115.147 61.0191 114.278 61.5587 113.541C61.7141 113.327 61.8695 113.113 62.0404 112.932C62.3339 112.592 62.7857 112.375 63.2422 112.374C63.8668 112.393 64.4214 112.804 64.6694 113.361C65.0262 114.146 65.0196 115.124 64.7112 115.93L64.719 115.946Z" fill="#F9C485"/>
<path d="M42.4102 108.442C42.7359 108.624 43.1441 108.647 43.4208 108.892C43.8475 109.285 43.7877 110.07 44.2551 110.423C45.1103 111.087 46.4304 109.577 47.3592 110.147C47.6448 110.328 47.7918 110.676 48.0608 110.905C48.4958 111.273 49.1855 111.221 49.6546 110.916C50.1399 110.603 50.428 110.087 50.676 109.569C50.7088 109.514 50.71 109.434 50.7429 109.378C50.8385 111.024 51.1702 112.418 51.7493 113.334C52.2191 114.064 52.6595 115.147 53.5117 114.937C53.7048 114.884 53.9145 114.783 54.1064 114.811C54.7614 114.934 54.248 116.057 54.6568 116.577C55.0422 117.049 55.7929 116.669 56.2393 116.275C56.7018 115.874 57.4447 115.477 57.8224 115.933C58.0035 116.144 58.0071 116.441 58.1236 116.684C58.481 117.428 59.6774 117.232 60.1758 116.575C60.6743 115.917 64.3258 113.307 65.6836 107.121C66.1132 105.162 66.7115 103.183 67.0366 101.255C67.1567 102.332 67.1806 103.415 67.1083 104.505C66.8704 107.566 65.7296 110.483 65.6358 113.554C65.6107 114.164 65.6573 114.798 65.9537 115.333C66.2501 115.867 66.9015 116.232 67.489 116.049C67.6982 115.988 67.8763 115.863 68.0926 115.859C68.6048 115.891 68.6974 116.663 69.1337 116.951C69.6255 117.273 70.2566 116.85 70.608 116.383C70.9594 115.915 71.2803 115.343 71.8588 115.225C72.3166 115.144 72.7774 115.401 73.2346 115.36C73.9165 115.292 74.3671 114.617 74.4973 113.938C74.627 113.298 74.5726 112.647 74.694 112.032C75.037 112.126 75.346 112.356 75.5647 112.728C76.1904 113.742 77.5787 110.885 78.6604 111.401C78.9228 111.534 79.111 111.802 79.3817 111.911C79.9238 112.088 80.381 111.51 80.5889 110.992C81.3557 108.992 81.0372 106.716 80.2901 104.705C78.9431 101.032 76.298 97.9221 73.0953 95.6774C71.4781 94.5427 69.7295 93.6304 67.9061 92.8934C66.9427 92.5 63.9922 91.0698 62.9601 91.5256C62.4737 91.381 58.3327 91.8963 57.5044 92.1149C54.0143 93.0344 50.6204 94.485 47.7679 96.691C44.9154 98.897 42.6433 101.939 41.702 105.437C41.4217 106.508 41.4008 107.911 42.3785 108.417L42.4102 108.442Z" fill="#B05A5A"/>
<path d="M112.617 68.0145C116.609 68.3471 120.468 69.5199 124.245 70.8517C126.389 71.5942 128.563 72.4415 130.247 73.9624C131.259 74.8702 132.082 76.0876 132.221 77.4539C132.337 78.8118 131.586 80.3074 130.29 80.7106C129.735 80.8776 129.119 80.8752 128.68 81.2448C128.072 81.756 128.13 82.7037 128.44 83.431C128.749 84.1584 129.276 84.8011 129.465 85.5666C129.782 86.8476 128.944 88.2855 127.697 88.6655C126.916 88.9009 126.005 88.7812 125.38 89.3001C124.253 90.2196 125.067 92.0386 124.742 93.4692C124.425 94.8358 122.978 95.7098 121.591 95.7985C120.18 95.8788 118.826 95.3343 117.569 94.7433C108.334 90.3983 101.024 82.7002 91.9372 78.0448C91.0151 77.5718 86.1349 76.0928 86.2156 75.5165C86.3925 74.3963 90.9482 72.9253 91.948 72.485C96.117 70.6223 100.49 69.0599 105.01 68.3425C107.539 67.9442 110.113 67.8034 112.681 68.0236L112.617 68.0145Z" fill="#B05A5A"/>
<path d="M99.7716 92.0017C103.76 95.8003 108.407 98.9842 111.673 103.428C112.458 104.485 113.177 105.692 113.173 107.008C113.17 108.324 112.172 109.719 110.867 109.689C110.402 109.673 109.948 109.513 109.506 109.585C108.687 109.74 108.248 110.687 108.212 111.521C108.175 112.355 108.387 113.209 108.23 114.041C107.927 115.56 106.205 116.646 104.713 116.227C104.075 116.056 103.44 115.644 102.789 115.817C101.728 116.088 101.642 117.563 100.979 118.458C99.8104 120.035 97.2986 119.27 95.6569 118.167C90.7791 114.915 87.1264 110.079 84.3439 104.905C81.8888 100.331 80.0009 95.3242 79.8539 90.1388C79.7595 86.7995 80.4509 83.4015 82.0089 80.4434C82.8994 78.7416 86.1487 73.5577 88.48 75.6834C89.294 76.4273 89.7631 78.8101 90.3404 79.8469C91.1908 81.3697 92.1142 82.8375 93.102 84.2744C95.0629 87.0757 97.2908 89.689 99.771 92.0418L99.7716 92.0017Z" fill="#B05A5A"/>
<path d="M85.3012 121.826C86.5293 122.192 88.1071 121.673 88.486 120.436C88.7047 119.734 88.5583 118.809 89.1732 118.394C90.0637 117.767 91.1418 119.061 92.2301 119.136C93.0064 119.181 93.7044 118.567 93.9716 117.842C94.2387 117.116 94.1628 116.297 94.0301 115.524C93.8819 114.719 93.818 113.635 94.5752 113.351C95.2762 113.074 95.9306 113.775 96.631 114.076C98.2147 114.769 99.9938 113.098 100.124 111.383C100.253 109.669 99.2838 108.064 98.3683 106.612L90.8561 94.6903C88.9939 91.7222 87.0923 88.7133 86.0368 85.3578C85.6161 84.0268 85.3484 82.6423 85.2731 81.245C85.2402 80.763 85.4822 78.4966 85.4966 76.9965C85.6454 77.2237 85.7942 77.4509 85.8719 77.6127C87.0414 79.7587 88.1704 81.9441 89.0417 84.2134C89.4499 85.3115 89.8097 86.4328 90.2662 87.5076C90.7455 88.6711 91.3456 89.7965 91.9862 90.8825C95.1584 96.2477 99.5916 100.848 104.828 104.227C105.836 104.878 110.158 105.649 109.37 101.528C109.028 99.781 107.346 98.6372 106.513 97.0665C106.388 96.8077 106.298 96.4531 106.54 96.2968C106.726 96.1876 106.957 96.2958 107.131 96.4111C108.448 97.292 109.347 98.7514 110.804 99.3859C111.377 99.6284 112.056 99.7201 112.574 99.392C113.318 98.9152 113.358 97.8408 113.291 96.9571C113.224 96.0734 113.216 95.0223 113.913 94.4885C114.853 93.7584 116.46 94.4997 117.337 93.6803C117.873 93.1839 117.854 92.277 117.487 91.6369C117.121 90.9969 116.494 90.561 115.892 90.1336C114.496 89.1711 113.109 88.2249 111.729 87.2547C109.327 85.6012 106.917 83.9316 104.514 82.2781C102.825 81.1181 101.136 79.9582 99.3328 78.9728C97.3224 77.8876 95.1721 77.0487 92.9705 76.4336C91.6623 76.0664 90.3212 75.7547 88.9867 75.5395C88.5791 75.4764 87.9648 75.3135 87.3414 75.2147C92.3908 74.4822 97.0995 75.6453 102.225 77.8826C108.432 80.5957 113.948 85.6317 120.714 85.8269C121.579 85.8496 122.574 85.7301 123.041 85.008C124.049 83.4686 121.565 81.3966 122.366 79.7574C123.234 78.0071 126.106 79.3155 127.755 78.2845C129.3 77.3239 128.833 74.7807 127.449 73.5938C127.172 73.3484 126.839 73.1101 126.708 72.7549C126.294 71.5203 128.318 71.1856 129.417 70.4983C130.468 69.8342 130.755 68.3227 130.316 67.1599C129.877 65.9971 128.905 65.09 127.874 64.3905C124.028 61.7979 116.461 60.0165 111.825 59.8735C99.839 59.5173 87.4448 67.2014 85.2964 75.3805C85.1828 75.4748 85.0932 75.5776 85.0753 75.7057C82.8688 76.4865 80.3439 79.2918 79.6644 80.2751C76.3565 85.0889 75.2742 91.0638 74.9228 96.9066C74.4256 105.01 77.1221 113.271 82.3155 119.537C83.1259 120.522 84.0725 121.501 85.3006 121.866L85.3012 121.826Z" fill="#D96F6F"/>
<path d="M96.1088 71.1838C98.2202 68.7165 99.2792 65.3808 98.9989 62.1508C95.2996 62.0558 91.4282 62.7602 88.4789 65.0127C85.5296 67.2652 83.7792 71.3112 84.9762 74.8376C81.7168 74.2527 78.3384 76.2732 76.8049 79.1996C75.2552 82.1338 75.3539 85.7298 76.4529 88.8454C78.9826 88.9446 81.4281 87.7105 83.1851 85.9111C84.9344 84.0955 86.0507 81.7477 86.7518 79.3206C87.0787 81.5726 88.3773 83.6566 90.2323 84.9558C92.0874 86.255 94.491 86.7532 96.7249 86.2777C96.9257 86.241 97.1188 86.1881 97.2652 86.0381C97.4684 85.841 97.4809 85.5363 97.469 85.2634C97.4582 82.76 96.9216 80.6087 95.0414 78.3062C93.4995 76.4186 91.6278 75.7048 88.9791 75.5234C91.3176 74.4801 94.3882 73.2245 96.1088 71.1838Z" fill="#489C9E"/>
</g>
<defs>
<clipPath id="clip0_2973_4985">
<rect width="113.546" height="70.4767" fill="white" transform="translate(3.75952 47.3022) rotate(-21.9932)"/>
</clipPath>
<clipPath id="clip1_2973_4985">
<rect width="124.62" height="58.8483" fill="white" transform="translate(19.1094 93.8691) rotate(-25.6514)"/>
</clipPath>
</defs>
</svg>
