<svg width="30" height="25" viewBox="0 0 30 25" fill="none" xmlns="http://www.w3.org/2000/svg">
<path fill-rule="evenodd" clip-rule="evenodd" d="M13.6515 0.872631C14.02 0.536176 14.501 0.349609 15 0.349609C15.499 0.349609 15.98 0.536177 16.3485 0.872631L16.35 0.873974L26.3475 9.95923L26.3616 9.97227C26.5592 10.1589 26.7175 10.3832 26.8271 10.6319C26.9367 10.8807 26.9955 11.1488 26.9999 11.4206L27 11.4368V23.9993C27 24.5516 26.5523 24.9993 26 24.9993C25.4477 24.9993 25 24.5516 25 23.9993V11.4504C24.9996 11.4463 24.9986 11.4422 24.997 11.4385C24.9953 11.4348 24.9932 11.4315 24.9905 11.4285L15.0025 2.35186L15 2.34961L14.9975 2.35186L5.00947 11.4285C5.00682 11.4315 5.00465 11.4348 5.00305 11.4385C5.00138 11.4422 5.00035 11.4463 5 11.4504V23.9993C5 24.5516 4.55228 24.9993 4 24.9993C3.44772 24.9993 3 24.5516 3 23.9993V11.4368L3.00013 11.4206C3.00453 11.1488 3.06326 10.8807 3.17288 10.6319C3.28249 10.3832 3.44076 10.1589 3.63838 9.97227L3.65247 9.95923L13.65 0.873974L13.6515 0.872631Z" fill="#3F51B5"/>
<path fill-rule="evenodd" clip-rule="evenodd" d="M0 23.9993C0 23.447 0.447715 22.9993 1 22.9993H29C29.5523 22.9993 30 23.447 30 23.9993C30 24.5516 29.5523 24.9993 29 24.9993H1C0.447715 24.9993 0 24.5516 0 23.9993Z" fill="#3F51B5"/>
<path fill-rule="evenodd" clip-rule="evenodd" d="M11.5858 15.5851C11.9609 15.21 12.4696 14.9993 13 14.9993H17C17.5304 14.9993 18.0391 15.21 18.4142 15.5851C18.7893 15.9601 19 16.4688 19 16.9993V23.9993C19 24.5516 18.5523 24.9993 18 24.9993C17.4477 24.9993 17 24.5516 17 23.9993V16.9993H13V23.9993C13 24.5516 12.5523 24.9993 12 24.9993C11.4477 24.9993 11 24.5516 11 23.9993V16.9993C11 16.4688 11.2107 15.9601 11.5858 15.5851Z" fill="#3F51B5"/>
</svg>
