<svg width="15" height="15" viewBox="0 0 15 15" fill="none" xmlns="http://www.w3.org/2000/svg">
<path fill-rule="evenodd" clip-rule="evenodd" d="M7.5 5.375C6.3264 5.375 5.375 6.3264 5.375 7.5C5.375 8.6736 6.3264 9.625 7.5 9.625C8.6736 9.625 9.625 8.6736 9.625 7.5C9.625 6.3264 8.6736 5.375 7.5 5.375ZM4.3125 7.5C4.3125 5.73959 5.73959 4.3125 7.5 4.3125C9.26041 4.3125 10.6875 5.73959 10.6875 7.5C10.6875 9.26041 9.26041 10.6875 7.5 10.6875C5.73959 10.6875 4.3125 9.26041 4.3125 7.5Z" fill="#3F51B5"/>
<path fill-rule="evenodd" clip-rule="evenodd" d="M4.57812 1.92188C3.11112 1.92188 1.92188 3.11112 1.92188 4.57812V10.4219C1.92188 11.8889 3.11112 13.0781 4.57812 13.0781H10.4219C11.8889 13.0781 13.0781 11.8889 13.0781 10.4219V4.57812C13.0781 3.11112 11.8889 1.92188 10.4219 1.92188H4.57812ZM0.859375 4.57812C0.859375 2.52432 2.52432 0.859375 4.57812 0.859375H10.4219C12.4757 0.859375 14.1406 2.52432 14.1406 4.57812V10.4219C14.1406 12.4757 12.4757 14.1406 10.4219 14.1406H4.57812C2.52432 14.1406 0.859375 12.4757 0.859375 10.4219V4.57812Z" fill="#3F51B5"/>
<path d="M10.9531 4.84375C11.3932 4.84375 11.75 4.48698 11.75 4.04688C11.75 3.60677 11.3932 3.25 10.9531 3.25C10.513 3.25 10.1562 3.60677 10.1562 4.04688C10.1562 4.48698 10.513 4.84375 10.9531 4.84375Z" fill="#3F51B5"/>
</svg>
