<svg width="22" height="18" viewBox="0 0 22 18" fill="none" xmlns="http://www.w3.org/2000/svg">
<path d="M11 18C10.8734 18 10.7478 17.9682 10.6334 17.9044C10.235 17.6813 0.875 12.3619 0.875 5.62503C0.875 2.52378 3.39875 2.64018e-05 6.5 2.64018e-05C8.30281 2.64018e-05 9.95563 0.851277 11.0009 2.24815C12.5075 0.240026 15.2422 -0.576536 17.6637 0.433151C19.7666 1.30971 21.125 3.34784 21.125 5.62503C21.125 12.3619 11.765 17.6813 11.3666 17.9044C11.2531 17.9682 11.1266 18 11 18ZM6.5 1.50003C4.22563 1.50003 2.375 3.35065 2.375 5.62503C2.375 10.7963 9.31063 15.3469 11 16.3782C12.6894 15.3469 19.625 10.7963 19.625 5.62503C19.625 3.9544 18.6284 2.46003 17.0863 1.8169C16.0691 1.39315 14.9478 1.39034 13.9288 1.81034C12.9097 2.23034 12.1156 3.02065 11.6919 4.03784C11.5756 4.31721 11.3019 4.49909 11 4.49909C10.6981 4.49909 10.4244 4.31721 10.3081 4.03784C9.66594 2.49565 8.17062 1.49909 6.5 1.49909V1.50003Z" fill="black"/>
</svg>
