<svg width="1440" height="1854" viewBox="0 0 1440 1854" fill="none" xmlns="http://www.w3.org/2000/svg">
<g opacity="0.4" clip-path="url(#clip0_2525_3303)">
<path d="M-68 -6H1512.01V1854H-68V-6Z" fill="#EEF1F2"/>
<path d="M-67.9999 236.338H1512.17V239.438H-67.9999V236.338Z" fill="#80B5BC"/>
<path d="M-67.9999 321.131H1512.17V324.231H-67.9999V321.131Z" fill="#80B5BC"/>
<path d="M-67.9999 74.502H1512.17V77.6017H-67.9999V74.502Z" fill="#80B5BC"/>
<path d="M-67.9999 159.295H1512.17V162.395H-67.9999V159.295Z" fill="#80B5BC"/>
<path d="M-67.9999 406.619H1512.17V409.719H-67.9999V406.619Z" fill="#80B5BC"/>
<path d="M-67.9999 491.412H1512.17V494.512H-67.9999V491.412Z" fill="#80B5BC"/>
<path d="M-67.9999 576.205H1512.17V579.305H-67.9999V576.205Z" fill="#80B5BC"/>
<path d="M-67.5797 661.445H1512.59V664.545H-67.5797V661.445Z" fill="#80B5BC"/>
<path d="M-67.9999 747.34H1512.17V750.439H-67.9999V747.34Z" fill="#80B5BC"/>
<path d="M-67.9999 832.627H1512.17V835.727H-67.9999V832.627Z" fill="#80B5BC"/>
<path d="M-66.4906 917.688H1513.68V920.787H-66.4906V917.688Z" fill="#80B5BC"/>
<path d="M-66.1659 1002.84H1514V1005.94H-66.1659V1002.84Z" fill="#80B5BC"/>
<path d="M-66.1659 1087.63H1514V1090.73H-66.1659V1087.63Z" fill="#80B5BC"/>
<path d="M-66.1659 1172.4H1514V1175.5H-66.1659V1172.4Z" fill="#80B5BC"/>
<path d="M-67.9999 1259.46H1512.17V1262.56H-67.9999V1259.46Z" fill="#80B5BC"/>
<path d="M-67.9999 1344.93H1512.17V1348.03H-67.9999V1344.93Z" fill="#80B5BC"/>
<path d="M-67.9999 1429.72H1512.17V1432.82H-67.9999V1429.72Z" fill="#80B5BC"/>
<path d="M-67.9999 1514.52H1512.17V1517.62H-67.9999V1514.52Z" fill="#80B5BC"/>
<path d="M-67.9999 1599.31H1512.17V1602.41H-67.9999V1599.31Z" fill="#80B5BC"/>
<path d="M-67.9999 1685.13H1512.17V1688.23H-67.9999V1685.13Z" fill="#80B5BC"/>
<path d="M-67.9999 1770.38H1512.17V1773.47H-67.9999V1770.38Z" fill="#80B5BC"/>
<path d="M1255.48 -6H1259.43V1854H1255.48V-6Z" fill="#C11F2F"/>
</g>
<defs>
<clipPath id="clip0_2525_3303">
<rect width="1582" height="1860" fill="white" transform="matrix(-1 0 0 1 1514 -6)"/>
</clipPath>
</defs>
</svg>
