<svg width="19" height="19" viewBox="0 0 19 19" fill="none" xmlns="http://www.w3.org/2000/svg">
<path d="M5.47779 19C12.9338 19 19 12.9338 19 5.47779C19 2.83908 17.0261 0.597587 14.41 0.262349C13.7442 0.175957 13.0991 0.549696 12.8418 1.16946L10.9571 5.56606C10.759 6.02243 10.8012 6.54924 11.0707 6.97087L12.6408 9.35885C11.944 10.7946 10.7693 11.9675 9.33068 12.6586L6.98401 11.0867C6.56144 10.8003 6.02431 10.7505 5.55197 10.9571L1.16195 12.8427C0.549692 13.0972 0.176895 13.7423 0.262348 14.4081C0.597586 17.0243 2.83908 18.9972 5.47685 18.9981L5.47779 19ZM14.2259 1.75355C16.0918 1.99582 17.4975 3.59595 17.4975 5.47779C17.4975 12.1056 12.1056 17.4975 5.47779 17.4975C3.59595 17.4975 1.99676 16.0908 1.75355 14.2259L6.1492 12.3384L8.49681 13.9066C8.93159 14.2006 9.49971 14.2438 9.97768 14.0174C11.7262 13.1761 13.1507 11.7553 13.9949 10.0124L13.9968 10.0096C14.2203 9.54197 14.1846 8.98042 13.9029 8.5447L12.3319 6.15484L14.225 1.75449L14.2259 1.75355Z" fill="black"/>
</svg>
