<svg width="20" height="20" viewBox="0 0 20 20" fill="none" xmlns="http://www.w3.org/2000/svg">
<path fill-rule="evenodd" clip-rule="evenodd" d="M8.21088 11.9369C8.37596 11.8458 8.56145 11.798 8.75 11.798C8.93856 11.798 9.12404 11.8458 9.28913 11.9369C9.45055 12.026 9.58731 12.1537 9.68725 12.3085L13.8739 18.5838C14.0274 18.8139 14.0418 19.1099 13.9113 19.3538C13.7808 19.5977 13.5266 19.75 13.25 19.75H1.25C0.975752 19.75 0.723372 19.6003 0.59186 19.3597C0.460347 19.119 0.470676 18.8258 0.618794 18.595L3.67504 13.8325L3.6843 13.8184C3.78813 13.6643 3.92821 13.5381 4.09224 13.4508C4.25626 13.3636 4.43921 13.318 4.625 13.318C4.81079 13.318 4.99374 13.3636 5.15776 13.4508C5.32179 13.5381 5.46187 13.6643 5.5657 13.8184L5.57477 13.8322L6.17582 14.7678L7.81245 12.309C7.91242 12.154 8.04929 12.0261 8.21088 11.9369ZM8.75037 13.607L7.10327 16.0816C6.99872 16.2368 6.8571 16.3634 6.69125 16.4501C6.52541 16.5367 6.34057 16.5807 6.15346 16.5779C5.96635 16.5751 5.7829 16.5257 5.61972 16.4341C5.45765 16.3431 5.32065 16.2135 5.22094 16.0567L4.62516 15.1292L2.62245 18.25H11.848L8.75037 13.607Z" fill="#3F51B5"/>
<path fill-rule="evenodd" clip-rule="evenodd" d="M13.25 0.25C13.6642 0.25 14 0.585786 14 1V5.5H18.5C18.9142 5.5 19.25 5.83579 19.25 6.25C19.25 6.66421 18.9142 7 18.5 7H13.25C12.8358 7 12.5 6.66421 12.5 6.25V1C12.5 0.585786 12.8358 0.25 13.25 0.25Z" fill="#3F51B5"/>
<path fill-rule="evenodd" clip-rule="evenodd" d="M3.18934 0.68934C3.47064 0.408036 3.85217 0.25 4.25 0.25H13.25C13.4489 0.25 13.6397 0.329018 13.7803 0.46967L19.0303 5.71967C19.171 5.86032 19.25 6.05109 19.25 6.25V18.25C19.25 18.6478 19.092 19.0294 18.8107 19.3107C18.5294 19.592 18.1478 19.75 17.75 19.75H17C16.5858 19.75 16.25 19.4142 16.25 19C16.25 18.5858 16.5858 18.25 17 18.25H17.75V6.56066L12.9393 1.75L4.25 1.75L4.25 10.75C4.25 11.1642 3.91421 11.5 3.5 11.5C3.08579 11.5 2.75 11.1642 2.75 10.75V1.75C2.75 1.35217 2.90804 0.970644 3.18934 0.68934Z" fill="#3F51B5"/>
</svg>
