<svg width="26" height="22" viewBox="0 0 26 22" fill="none" xmlns="http://www.w3.org/2000/svg">
<path fill-rule="evenodd" clip-rule="evenodd" d="M26 2C26 0.89543 25.1046 0 24 0H2C0.895432 0 0 0.89543 0 2V20C0 21.1046 0.895432 22 2 22H24C25.1046 22 26 21.1046 26 20V2ZM24 6H22C21.4477 6 21 5.55228 21 5C21 4.44772 21.4477 4 22 4H24V2H19V20H24V14H22C21.4477 14 21 13.5523 21 13C21 12.4477 21.4477 12 22 12H24V10H22C21.4477 10 21 9.55229 21 9C21 8.44772 21.4477 8 22 8H24V6ZM17 20H2V2H17V20Z" fill="white"/>
</svg>
