<svg width="30" height="25" viewBox="0 0 30 25" fill="none" xmlns="http://www.w3.org/2000/svg">
<path fill-rule="evenodd" clip-rule="evenodd" d="M13.6515 0.873608C14.02 0.537153 14.501 0.350586 15 0.350586C15.499 0.350586 15.98 0.537153 16.3485 0.873607L16.35 0.87495L26.3475 9.9602L26.3616 9.97325C26.5592 10.1599 26.7175 10.3842 26.8271 10.6329C26.9367 10.8816 26.9955 11.1498 26.9999 11.4216L27 11.4378V24.0003C27 24.5526 26.5523 25.0003 26 25.0003C25.4477 25.0003 25 24.5526 25 24.0003V11.4514C24.9996 11.4473 24.9986 11.4432 24.997 11.4394C24.9953 11.4358 24.9932 11.4324 24.9905 11.4295L15.0025 2.35283L15 2.35059L14.9975 2.35283L5.00947 11.4295C5.00682 11.4324 5.00465 11.4358 5.00305 11.4394C5.00138 11.4432 5.00035 11.4473 5 11.4514V24.0003C5 24.5526 4.55228 25.0003 4 25.0003C3.44772 25.0003 3 24.5526 3 24.0003V11.4378L3.00013 11.4216C3.00453 11.1498 3.06326 10.8817 3.17288 10.6329C3.28249 10.3842 3.44076 10.1599 3.63838 9.97325L3.65247 9.9602L13.65 0.87495L13.6515 0.873608Z" fill="white"/>
<path fill-rule="evenodd" clip-rule="evenodd" d="M0 24.0002C0 23.448 0.447715 23.0002 1 23.0002H29C29.5523 23.0002 30 23.448 30 24.0002C30 24.5525 29.5523 25.0002 29 25.0002H1C0.447715 25.0002 0 24.5525 0 24.0002Z" fill="white"/>
<path fill-rule="evenodd" clip-rule="evenodd" d="M11.5858 15.586C11.9609 15.211 12.4696 15.0002 13 15.0002H17C17.5304 15.0002 18.0391 15.211 18.4142 15.586C18.7893 15.9611 19 16.4698 19 17.0002V24.0002C19 24.5525 18.5523 25.0002 18 25.0002C17.4477 25.0002 17 24.5525 17 24.0002V17.0002H13V24.0002C13 24.5525 12.5523 25.0002 12 25.0002C11.4477 25.0002 11 24.5525 11 24.0002V17.0002C11 16.4698 11.2107 15.9611 11.5858 15.586Z" fill="white"/>
</svg>
