<svg width="22" height="23" viewBox="0 0 22 23" fill="none" xmlns="http://www.w3.org/2000/svg">
<path fill-rule="evenodd" clip-rule="evenodd" d="M3.6875 6.5C2.79004 6.5 2.0625 7.22754 2.0625 8.125V19.5C2.0625 20.3975 2.79004 21.125 3.6875 21.125H18.3125C19.21 21.125 19.9375 20.3975 19.9375 19.5V8.125C19.9375 7.22754 19.21 6.5 18.3125 6.5H3.6875ZM0.4375 8.125C0.4375 6.33007 1.89257 4.875 3.6875 4.875H18.3125C20.1074 4.875 21.5625 6.33007 21.5625 8.125V19.5C21.5625 21.2949 20.1074 22.75 18.3125 22.75H3.6875C1.89257 22.75 0.4375 21.2949 0.4375 19.5V8.125Z" fill="#000C5E"/>
<path fill-rule="evenodd" clip-rule="evenodd" d="M7.34375 15.4375C6.67065 15.4375 6.125 15.9832 6.125 16.6562C6.125 17.3293 6.67065 17.875 7.34375 17.875H14.6562C15.3293 17.875 15.875 17.3293 15.875 16.6562C15.875 15.9832 15.3293 15.4375 14.6562 15.4375H7.34375ZM4.5 16.6562C4.5 15.0857 5.77319 13.8125 7.34375 13.8125H14.6562C16.2268 13.8125 17.5 15.0857 17.5 16.6562C17.5 18.2268 16.2268 19.5 14.6562 19.5H7.34375C5.77319 19.5 4.5 18.2268 4.5 16.6562Z" fill="#000C5E"/>
<path fill-rule="evenodd" clip-rule="evenodd" d="M13.0312 13.8125C13.48 13.8125 13.8438 14.1763 13.8438 14.625V18.6875C13.8438 19.1362 13.48 19.5 13.0312 19.5C12.5825 19.5 12.2188 19.1362 12.2188 18.6875V14.625C12.2188 14.1763 12.5825 13.8125 13.0312 13.8125Z" fill="#000C5E"/>
<path fill-rule="evenodd" clip-rule="evenodd" d="M8.96875 13.8125C9.41748 13.8125 9.78125 14.1763 9.78125 14.625V18.6875C9.78125 19.1362 9.41748 19.5 8.96875 19.5C8.52002 19.5 8.15625 19.1362 8.15625 18.6875V14.625C8.15625 14.1763 8.52002 13.8125 8.96875 13.8125Z" fill="#000C5E"/>
<path fill-rule="evenodd" clip-rule="evenodd" d="M11 0.8125C11.4487 0.8125 11.8125 1.17627 11.8125 1.625V5.6875C11.8125 6.13623 11.4487 6.5 11 6.5C10.5513 6.5 10.1875 6.13623 10.1875 5.6875V1.625C10.1875 1.17627 10.5513 0.8125 11 0.8125Z" fill="#000C5E"/>
<path d="M6.53125 12.1875C7.20435 12.1875 7.75 11.6418 7.75 10.9688C7.75 10.2957 7.20435 9.75 6.53125 9.75C5.85815 9.75 5.3125 10.2957 5.3125 10.9688C5.3125 11.6418 5.85815 12.1875 6.53125 12.1875Z" fill="#000C5E"/>
<path d="M15.4688 12.1875C16.1418 12.1875 16.6875 11.6418 16.6875 10.9688C16.6875 10.2957 16.1418 9.75 15.4688 9.75C14.7957 9.75 14.25 10.2957 14.25 10.9688C14.25 11.6418 14.7957 12.1875 15.4688 12.1875Z" fill="#000C5E"/>
</svg>
