<svg width="78" height="78" viewBox="0 0 78 78" fill="none" xmlns="http://www.w3.org/2000/svg">
<path fill-rule="evenodd" clip-rule="evenodd" d="M39 6.6875C21.1543 6.6875 6.6875 21.1543 6.6875 39C6.6875 56.8457 21.1543 71.3125 39 71.3125C56.8457 71.3125 71.3125 56.8457 71.3125 39C71.3125 21.1543 56.8457 6.6875 39 6.6875ZM0.8125 39C0.8125 17.9096 17.9096 0.8125 39 0.8125C60.0904 0.8125 77.1875 17.9096 77.1875 39C77.1875 60.0904 60.0904 77.1875 39 77.1875C17.9096 77.1875 0.8125 60.0904 0.8125 39Z" fill="#3F51B5"/>
<path fill-rule="evenodd" clip-rule="evenodd" d="M21.375 39C21.375 37.3777 22.6902 36.0625 24.3125 36.0625H53.6875C55.3098 36.0625 56.625 37.3777 56.625 39C56.625 40.6223 55.3098 41.9375 53.6875 41.9375H24.3125C22.6902 41.9375 21.375 40.6223 21.375 39Z" fill="#3F51B5"/>
<path fill-rule="evenodd" clip-rule="evenodd" d="M39 21.375C40.6223 21.375 41.9375 22.6902 41.9375 24.3125V53.6875C41.9375 55.3098 40.6223 56.625 39 56.625C37.3777 56.625 36.0625 55.3098 36.0625 53.6875V24.3125C36.0625 22.6902 37.3777 21.375 39 21.375Z" fill="#3F51B5"/>
</svg>
