<svg width="20" height="22" viewBox="0 0 20 22" fill="none" xmlns="http://www.w3.org/2000/svg">
<path fill-rule="evenodd" clip-rule="evenodd" d="M9.26365 0.429393C9.48778 0.30098 9.74163 0.233398 10 0.233398C10.2584 0.233398 10.5122 0.30098 10.7364 0.429392L18.986 5.06981C19.2168 5.20087 19.4089 5.39047 19.543 5.61948C19.6772 5.84849 19.7486 6.10881 19.75 6.37421L19.75 6.37824L19.75 15.622H19L19.75 15.626C19.7486 15.8914 19.6772 16.1517 19.543 16.3808C19.4089 16.6098 19.2168 16.7994 18.986 16.9304L18.9833 16.9319L10.7363 21.5709C10.5122 21.6993 10.2584 21.7668 10 21.7668C9.74164 21.7668 9.4878 21.6993 9.26367 21.5709L1.01668 16.9319L1.01402 16.9304C0.783231 16.7994 0.591084 16.6098 0.456949 16.3808C0.322815 16.1517 0.251436 15.8914 0.250011 15.626L0.25 15.622V6.37421C0.251425 6.10882 0.322815 5.84849 0.456949 5.61948C0.591084 5.39047 0.783231 5.20087 1.01402 5.06982L1.01668 5.06831L9.26365 0.429393ZM18.25 15.6184V6.38186C18.2499 6.38036 18.2495 6.37889 18.2487 6.37758C18.2479 6.37625 18.2468 6.37513 18.2455 6.37432L10 1.73621L1.75473 6.37417C1.75342 6.37497 1.75206 6.37625 1.75127 6.37758C1.75051 6.37889 1.75007 6.38036 1.75 6.38187V15.6184C1.75007 15.6199 1.75051 15.6213 1.75127 15.6227C1.75205 15.624 1.75315 15.6251 1.75445 15.6259L10 20.264L18.2453 15.6261C18.2466 15.6253 18.2479 15.624 18.2487 15.6227C18.2495 15.6213 18.2499 15.6199 18.25 15.6184Z" fill="black"/>
<path fill-rule="evenodd" clip-rule="evenodd" d="M4.84322 3.04417C5.04327 2.68147 5.49947 2.54961 5.86217 2.74966L14.9559 7.76528C15.1952 7.89722 15.3437 8.14881 15.3437 8.42201V13.297C15.3437 13.7112 15.0079 14.047 14.5937 14.047C14.1795 14.047 13.8437 13.7112 13.8437 13.297V8.86487L5.13774 4.06312C4.77503 3.86307 4.64318 3.40687 4.84322 3.04417Z" fill="black"/>
<path fill-rule="evenodd" clip-rule="evenodd" d="M0.44794 5.62869C0.649612 5.26689 1.1064 5.13708 1.4682 5.33875L10.0808 10.1395L18.5263 5.34173C18.8865 5.13713 19.3443 5.26323 19.5489 5.62339C19.7535 5.98355 19.6274 6.44137 19.2673 6.64597L10.4548 11.6522C10.2269 11.7817 9.94802 11.7828 9.71913 11.6552L0.73788 6.64895C0.376078 6.44728 0.246267 5.99049 0.44794 5.62869Z" fill="black"/>
<path fill-rule="evenodd" clip-rule="evenodd" d="M10.0907 10.2502C10.5049 10.2537 10.8378 10.5923 10.8343 11.0065L10.75 21.019C10.7465 21.4332 10.4079 21.7661 9.99368 21.7627C9.57948 21.7592 9.24654 21.4206 9.25003 21.0064L9.3344 10.9939C9.33789 10.5797 9.6765 10.2467 10.0907 10.2502Z" fill="black"/>
</svg>
