<svg width="26" height="22" viewBox="0 0 26 22" fill="none" xmlns="http://www.w3.org/2000/svg">
<path fill-rule="evenodd" clip-rule="evenodd" d="M18.2929 0.292893C18.6834 -0.0976311 19.3166 -0.0976311 19.7071 0.292893L25.7071 6.29289C26.0976 6.68342 26.0976 7.31658 25.7071 7.70711L19.7071 13.7071C19.3166 14.0976 18.6834 14.0976 18.2929 13.7071C17.9024 13.3166 17.9024 12.6834 18.2929 12.2929L23.5858 7L18.2929 1.70711C17.9024 1.31658 17.9024 0.683417 18.2929 0.292893Z" fill="#3F51B5"/>
<path fill-rule="evenodd" clip-rule="evenodd" d="M8 8C6.4087 8 4.88258 8.63214 3.75736 9.75736C2.63214 10.8826 2 12.4087 2 14C2 15.5913 2.63214 17.1174 3.75736 18.2426C4.88258 19.3679 6.4087 20 8 20H19C19.5523 20 20 20.4477 20 21C20 21.5523 19.5523 22 19 22H8C5.87827 22 3.84344 21.1571 2.34315 19.6569C0.842855 18.1566 0 16.1217 0 14C0 11.8783 0.842855 9.84344 2.34315 8.34315C3.84344 6.84286 5.87827 6 8 6H25C25.5523 6 26 6.44772 26 7C26 7.55228 25.5523 8 25 8H8Z" fill="#3F51B5"/>
</svg>
