<svg width="14" height="19" viewBox="0 0 14 19" fill="none" xmlns="http://www.w3.org/2000/svg">
<path fill-rule="evenodd" clip-rule="evenodd" d="M0.516847 0.43934C0.789627 0.158036 1.1596 0 1.54537 0H11.7272C12.113 0 12.4829 0.158035 12.7557 0.43934C13.0285 0.720645 13.1817 1.10218 13.1817 1.5V18C13.1817 18.2726 13.0383 18.5238 12.807 18.656C12.5758 18.7882 12.2932 18.7805 12.069 18.636L6.63628 15.1344L1.20355 18.636C0.979351 18.7805 0.696774 18.7882 0.465534 18.656C0.234294 18.5238 0.0908203 18.2726 0.0908203 18V1.5C0.0908203 1.10217 0.244067 0.720644 0.516847 0.43934ZM11.7272 1.5H1.54537L1.54537 16.6468L6.25082 13.614C6.48665 13.462 6.7859 13.462 7.02173 13.614L11.7272 16.6468V1.5Z" fill="black"/>
</svg>
