<svg width="26" height="24" viewBox="0 0 26 24" fill="none" xmlns="http://www.w3.org/2000/svg">
<path fill-rule="evenodd" clip-rule="evenodd" d="M3.75 0H22.2582C22.6894 0.00354958 23.1081 0.145534 23.4525 0.404974C23.7969 0.664415 24.0489 1.02762 24.1713 1.44108L24.1743 1.45102L25.9617 7.72604C25.9871 7.81515 26 7.90735 26 8V10C26 11.3261 25.4732 12.5979 24.5355 13.5355C24.3672 13.7038 24.1882 13.8589 24 14V22C24 22.5304 23.7893 23.0391 23.4142 23.4142C23.0391 23.7893 22.5304 24 22 24H4C3.46957 24 2.96086 23.7893 2.58579 23.4142C2.21071 23.0391 2 22.5304 2 22V14C1.81181 13.8589 1.63276 13.7038 1.46447 13.5355C0.526784 12.5979 0 11.3261 0 10V8C0 7.90735 0.0128763 7.81515 0.0382594 7.72604L1.8286 1.44107C1.95103 1.02761 2.20307 0.664414 2.5475 0.404974C2.89193 0.145535 3.31058 0.00358343 3.74177 3.38554e-05L3.75 0ZM3.61401 12.6606C3.54271 12.6051 3.46368 12.559 3.37881 12.5242C3.19952 12.4091 3.03169 12.2743 2.87868 12.1213C2.31607 11.5587 2 10.7956 2 10V9H8V10C8 10.7956 7.68393 11.5587 7.12132 12.1213C6.55871 12.6839 5.79565 13 5 13C4.51296 13 4.03813 12.8816 3.61401 12.6606ZM4 14.899V22H22V14.899C21.6733 14.9657 21.3384 15 21 15C19.6739 15 18.4021 14.4732 17.4645 13.5355C17.2962 13.3673 17.1411 13.1882 17 13C16.8589 13.1882 16.7038 13.3673 16.5355 13.5355C15.5979 14.4732 14.3261 15 13 15C11.6739 15 10.4021 14.4732 9.46447 13.5355C9.29619 13.3673 9.14114 13.1882 9 13C8.85886 13.1882 8.70381 13.3673 8.53553 13.5355C7.59785 14.4732 6.32608 15 5 15C4.66158 15 4.3267 14.9657 4 14.899ZM10 10C10 10.7956 10.3161 11.5587 10.8787 12.1213C11.4413 12.6839 12.2044 13 13 13C13.7956 13 14.5587 12.6839 15.1213 12.1213C15.6839 11.5587 16 10.7956 16 10V9H10V10ZM23.6754 7L22.2533 2.00793C22.2525 2.00577 22.251 2.00388 22.2492 2.00248C22.2473 2.00104 22.245 2.00018 22.2426 2H3.75741C3.75502 2.00018 3.75273 2.00104 3.75081 2.00248C3.74895 2.00388 3.74752 2.00578 3.74668 2.00794L2.32464 7H23.6754ZM24 9H18V10C18 10.7956 18.3161 11.5587 18.8787 12.1213C19.4413 12.6839 20.2044 13 21 13C21.487 13 21.9619 12.8816 22.386 12.6606C22.4573 12.6051 22.5363 12.559 22.6212 12.5242C22.8005 12.4091 22.9683 12.2743 23.1213 12.1213C23.6839 11.5587 24 10.7956 24 10V9Z" fill="#3F51B5"/>
</svg>
