<svg width="28" height="25" viewBox="0 0 28 25" fill="none" xmlns="http://www.w3.org/2000/svg">
<path fill-rule="evenodd" clip-rule="evenodd" d="M14 2C12.9391 2 11.9217 2.42143 11.1716 3.17157C10.662 3.68111 10.3042 4.31397 10.127 5H17.873C17.6958 4.31397 17.338 3.68111 16.8284 3.17157C16.0783 2.42143 15.0609 2 14 2ZM19.9161 5C19.7098 3.77969 19.1293 2.64405 18.2426 1.75736C17.1174 0.632141 15.5913 0 14 0C12.4087 0 10.8826 0.632141 9.75736 1.75736C8.87067 2.64405 8.29017 3.77969 8.0839 5H2.1125L2.10635 5.00002C1.82576 5.00174 1.54868 5.06249 1.2931 5.17832C1.03752 5.29414 0.809178 5.46245 0.622907 5.6723C0.436635 5.88215 0.296605 6.12885 0.211918 6.39636C0.127365 6.66344 0.0998683 6.94531 0.131204 7.22369L0.131353 7.22502L1.9061 23.2228L1.90765 23.2359C1.96803 23.7213 2.20309 24.1681 2.56889 24.4927C2.9347 24.8174 3.40622 24.9977 3.89531 25L3.9 25H24.1L24.1047 25C24.5938 24.9977 25.0653 24.8174 25.4311 24.4927C25.7969 24.1681 26.032 23.7213 26.0924 23.2359L27.8687 7.22502C27.9001 6.9464 27.8727 6.66367 27.7881 6.39636C27.7034 6.12885 27.5634 5.88215 27.3771 5.6723C27.1908 5.46245 26.9625 5.29414 26.7069 5.17832C26.4513 5.06249 26.1742 5.00174 25.8937 5.00002L19.9161 5ZM18 7V10C18 10.5523 18.4477 11 19 11C19.5523 11 20 10.5523 20 10V7H25.8813L24.1074 22.9904C24.1068 22.9929 24.1055 22.9951 24.1035 22.9969L24.0994 22.9993L24.0958 23H3.90422C3.90136 22.9999 3.89861 22.9988 3.89646 22.9969C3.89452 22.9951 3.89317 22.9929 3.89259 22.9904L2.11891 7.00224L2.11865 7H8V10C8 10.5523 8.44772 11 9 11C9.55229 11 10 10.5523 10 10V7H18Z" fill="#3F51B5"/>
</svg>
