<svg width="20" height="18" viewBox="0 0 20 18" fill="none" xmlns="http://www.w3.org/2000/svg">
<path fill-rule="evenodd" clip-rule="evenodd" d="M3.0625 0H16.9437C17.2671 0.00266218 17.5811 0.109151 17.8394 0.303731C18.0977 0.498311 18.2867 0.770718 18.3785 1.08081L18.3807 1.08827L19.7213 5.79453C19.7403 5.86136 19.75 5.93051 19.75 6V7.5C19.75 8.49456 19.3549 9.44839 18.6516 10.1516C18.5254 10.2779 18.3911 10.3942 18.25 10.5V16.5C18.25 16.8978 18.092 17.2794 17.8107 17.5607C17.5294 17.842 17.1478 18 16.75 18H3.25C2.85218 18 2.47065 17.842 2.18934 17.5607C1.90804 17.2794 1.75 16.8978 1.75 16.5V10.5C1.60885 10.3942 1.47457 10.2779 1.34835 10.1516C0.645088 9.44839 0.25 8.49456 0.25 7.5V6C0.25 5.93051 0.259657 5.86136 0.278695 5.79453L1.62145 1.0808C1.71327 0.770704 1.9023 0.49831 2.16062 0.303731C2.41894 0.109151 2.73293 0.00268757 3.05633 2.53916e-05L3.0625 0ZM2.96051 9.49549C2.90703 9.45383 2.84776 9.41926 2.78411 9.39318C2.64964 9.30683 2.52377 9.20575 2.40901 9.09099C1.98705 8.66903 1.75 8.09674 1.75 7.5V6.75H6.25V7.5C6.25 8.09674 6.01295 8.66903 5.59099 9.09099C5.16903 9.51295 4.59674 9.75 4 9.75C3.63472 9.75 3.2786 9.66117 2.96051 9.49549ZM3.25 11.1742V16.5H16.75V11.1742C16.505 11.2243 16.2538 11.25 16 11.25C15.0054 11.25 14.0516 10.8549 13.3483 10.1516C13.2221 10.0254 13.1059 9.89116 13 9.75002C12.8941 9.89116 12.7779 10.0254 12.6517 10.1516C11.9484 10.8549 10.9946 11.25 10 11.25C9.00544 11.25 8.05161 10.8549 7.34835 10.1516C7.22214 10.0254 7.10586 9.89116 7 9.75002C6.89414 9.89116 6.77786 10.0254 6.65165 10.1516C5.94839 10.8549 4.99456 11.25 4 11.25C3.74618 11.25 3.49502 11.2243 3.25 11.1742ZM7.75 7.5C7.75 8.09674 7.98705 8.66903 8.40901 9.09099C8.83097 9.51295 9.40326 9.75 10 9.75C10.5967 9.75 11.169 9.51295 11.591 9.09099C12.0129 8.66903 12.25 8.09674 12.25 7.5V6.75H7.75V7.5ZM18.0065 5.25L16.94 1.50595C16.9394 1.50433 16.9383 1.50291 16.9369 1.50186C16.9355 1.50078 16.9337 1.50013 16.9319 1.5H3.06806C3.06627 1.50013 3.06455 1.50078 3.06311 1.50186C3.06171 1.50291 3.06064 1.50433 3.06001 1.50595L1.99348 5.25H18.0065ZM18.25 6.75H13.75V7.5C13.75 8.09674 13.9871 8.66903 14.409 9.09099C14.831 9.51295 15.4033 9.75 16 9.75C16.3653 9.75 16.7214 9.66117 17.0395 9.49549C17.093 9.45383 17.1522 9.41926 17.2159 9.39318C17.3504 9.30683 17.4762 9.20575 17.591 9.09099C18.0129 8.66903 18.25 8.09674 18.25 7.5V6.75Z" fill="#000C5E"/>
</svg>
