<svg width="27" height="27" viewBox="0 0 27 27" fill="none" xmlns="http://www.w3.org/2000/svg">
<path d="M13.4988 6.5268C9.65354 6.5268 6.52556 9.65478 6.52556 13.5C6.52556 17.3452 9.65354 20.4732 13.4988 20.4732C17.344 20.4732 20.472 17.3452 20.472 13.5C20.472 9.65478 17.344 6.5268 13.4988 6.5268ZM13.4988 18.4809C10.7518 18.4809 8.5179 16.2469 8.5179 13.5C8.5179 10.7531 10.7518 8.51915 13.4988 8.51915C16.2457 8.51915 18.4796 10.7531 18.4796 13.5C18.4796 16.2469 16.2457 18.4809 13.4988 18.4809Z" fill="white"/>
<path d="M26.7976 16.2893L24.9448 13.8225C24.9485 13.6021 24.9448 13.3693 24.941 13.1825L26.7976 10.7107C26.9819 10.4654 27.0429 10.1491 26.9633 9.85277C26.6519 8.69846 26.1912 7.58773 25.5948 6.55171C25.4416 6.28648 25.1751 6.10592 24.8725 6.06234L21.818 5.62651C21.6736 5.47584 21.5242 5.32766 21.3722 5.18073L20.9364 2.12622C20.8928 1.82363 20.7135 1.55716 20.4483 1.40399C19.4123 0.805046 18.3003 0.344317 17.1447 0.0342589C16.8484 -0.0454348 16.5333 0.0155807 16.288 0.199872L13.83 2.04652C13.6096 2.03781 13.3892 2.03781 13.1675 2.04652L10.7095 0.201118C10.4642 0.0168259 10.1479 -0.0441896 9.85152 0.0355041C8.69721 0.346808 7.58648 0.807537 6.55046 1.40399C6.28523 1.55716 6.10468 1.82363 6.06109 2.12622L5.62402 5.18571C5.47584 5.33015 5.32891 5.47709 5.18446 5.62527L2.12497 6.06234C1.82239 6.10592 1.55591 6.28523 1.40275 6.55046C0.806291 7.58773 0.345562 8.6997 0.0342589 9.85526C-0.0454348 10.1516 0.0155807 10.4667 0.199872 10.712L2.05275 13.1787C2.04901 13.3991 2.05275 13.632 2.05649 13.8188L0.199872 16.2893C0.0155807 16.5346 -0.0454348 16.8509 0.0342589 17.1472C0.345562 18.3015 0.806291 19.4123 1.40275 20.4483C1.55591 20.7135 1.82239 20.8941 2.12497 20.9377L5.18446 21.3747C5.32891 21.5229 5.47584 21.6698 5.62402 21.8143L6.06109 24.8738C6.10468 25.1764 6.28399 25.4428 6.54922 25.596C7.58524 26.195 8.69721 26.6557 9.85152 26.9657C9.9362 26.9882 10.0234 26.9994 10.1093 26.9994C10.3222 26.9994 10.5327 26.9309 10.7082 26.8001L13.1663 24.9535C13.3867 24.9622 13.6083 24.9622 13.8275 24.9535L16.2855 26.8001C16.5309 26.9844 16.8471 27.0454 17.1435 26.9657C18.2978 26.6544 19.4085 26.1937 20.4446 25.5973C20.7098 25.4441 20.8903 25.1776 20.9339 24.875L21.371 21.8155C21.5217 21.6674 21.6811 21.5055 21.8081 21.376L24.87 20.9389C25.1726 20.8953 25.4391 20.716 25.5923 20.4508C26.1912 19.4148 26.6519 18.3028 26.962 17.1472C27.0417 16.8509 26.9807 16.5358 26.7964 16.2905L26.7976 16.2893ZM24.098 19.035L21.1904 19.4509C20.97 19.482 20.7671 19.5866 20.6127 19.7472C20.4558 19.9104 19.9975 20.3823 19.7609 20.6002C19.5916 20.7559 19.482 20.9651 19.4496 21.1917L19.035 24.0993C18.4111 24.4255 17.7586 24.6957 17.0875 24.9074L14.734 23.1392C14.5373 22.991 14.2932 22.9225 14.0479 22.9437C13.6843 22.9761 13.317 22.9761 12.9534 22.9437C12.708 22.9225 12.464 22.9923 12.2672 23.1392L9.91378 24.9074C9.24261 24.697 8.59012 24.4268 7.96752 24.1005L7.55161 21.1929C7.51924 20.97 7.4134 20.7646 7.25027 20.6102C6.9564 20.3325 6.66751 20.0436 6.39232 19.7522C6.23791 19.5891 6.03245 19.482 5.80956 19.4509L2.90199 19.0362C2.57574 18.4124 2.30553 17.7599 2.09384 17.0887L3.86205 14.7353C4.00026 14.551 4.07124 14.3231 4.06128 14.0927C4.04758 13.7914 4.03513 13.2148 4.05879 12.9546C4.07996 12.7093 4.01023 12.4652 3.86329 12.2685L2.09509 9.91503C2.30553 9.24386 2.57574 8.59137 2.90199 7.96876L5.80956 7.55286C6.03245 7.52048 6.23791 7.41464 6.39232 7.25152C6.66876 6.95889 6.95765 6.67125 7.25027 6.39357C7.4134 6.23916 7.52048 6.0337 7.55161 5.81081L7.96752 2.90323C8.59137 2.57699 9.24386 2.30677 9.91503 2.09509L12.2685 3.86329C12.4652 4.01147 12.7093 4.0812 12.9546 4.05879C13.3182 4.02641 13.6855 4.02641 14.0491 4.05879C14.2944 4.0812 14.5385 4.01023 14.7353 3.86329L17.09 2.09509C17.7611 2.30553 18.4136 2.57574 19.0362 2.90199L19.4521 5.80956C19.4845 6.03743 19.5941 6.24539 19.7634 6.40104C20.0573 6.67125 20.3387 6.95391 20.6015 7.23907C20.7571 7.40841 20.9663 7.51924 21.1942 7.55161L24.1018 7.96752C24.428 8.59137 24.6982 9.24386 24.9099 9.91503L23.1417 12.2685C23.0035 12.4528 22.9325 12.6806 22.9425 12.911C22.9562 13.2124 22.9686 13.7889 22.9449 14.0491C22.9238 14.2944 22.9935 14.5385 23.1404 14.7353L24.9086 17.09C24.6982 17.7611 24.428 18.4136 24.1018 19.0362L24.098 19.035Z" fill="white"/>
</svg>
