<svg width="28" height="26" viewBox="0 0 28 26" fill="none" xmlns="http://www.w3.org/2000/svg">
<path d="M19.195 6.0725C17.6663 2.505 14.12 0 10 0C4.48625 0 0 4.48625 0 10V18.25C0 19.215 0.785 20 1.75 20H8.83375C10.4125 23.6162 14.0087 26 17.9975 26H26.25C27.215 26 28 25.215 28 24.25V16.0012C28.0075 10.9025 24.19 6.66375 19.195 6.0725ZM2 10C2 5.58875 5.58875 2 10 2C13.4725 2 16.4338 4.22375 17.5375 7.32125C17.5425 7.33625 17.5462 7.35 17.5525 7.365C17.8412 8.19125 18 9.0775 18 10C18 14.4113 14.4113 18 10 18H2V10ZM26 24H17.9975C15.09 24 12.4438 22.4163 11.04 19.9463C16.0662 19.4238 20 15.1625 20 10C20 9.39 19.9425 8.7925 19.8363 8.2125C23.3913 9.0425 26.005 12.2262 26 16V24Z" fill="white"/>
</svg>
