<svg width="25" height="26" viewBox="0 0 25 26" fill="none" xmlns="http://www.w3.org/2000/svg">
<path d="M24.0247 9.49397C24.7989 8.70728 24.7889 7.43782 24.0084 6.6699L18.4128 1.07552C18.0326 0.700308 17.5261 0.492692 16.9945 0.500197C16.4605 0.503949 15.9589 0.716568 15.5887 1.09178L0.579079 16.1027C0.20387 16.4791 -0.00124501 16.9794 5.686e-06 17.5085V23.0991C5.686e-06 24.2022 0.898008 25.1002 2.00112 25.1002H23.0129C23.5657 25.1002 24.0134 24.6524 24.0134 24.0996C24.0134 23.5468 23.5657 23.0991 23.0129 23.0991H10.4196L24.0247 9.49397ZM17.0158 2.50632L22.5939 8.09569L20.0124 10.6771L14.4281 5.09276L17.0158 2.50632ZM1.99612 17.516L13.011 6.5073L18.5954 12.0917L7.5905 23.0991H2.00112L1.99612 17.516Z" fill="white"/>
</svg>
