<svg width="15" height="15" viewBox="0 0 15 15" fill="none" xmlns="http://www.w3.org/2000/svg">
<path fill-rule="evenodd" clip-rule="evenodd" d="M6.87895 0.254408C7.06093 0.126959 7.27772 0.0585938 7.49989 0.0585938C7.72206 0.0585938 7.93885 0.126959 8.12082 0.254408C8.30034 0.380128 8.4374 0.557335 8.51398 0.762529L9.97254 4.43544L9.9769 4.44679C9.97824 4.45042 9.98061 4.45358 9.98373 4.45588C9.98684 4.45818 9.99055 4.45953 9.99442 4.45975L9.99771 4.45994L13.9157 4.7123C14.9327 4.77834 15.2803 6.05148 14.5401 6.66681L14.5397 6.66715L11.539 9.16995L11.5372 9.1714C11.5305 9.17698 11.5255 9.18435 11.5227 9.19267C11.5201 9.20077 11.5197 9.20944 11.5216 9.21774L11.5218 9.21842L12.4905 13.0271C12.7251 13.953 11.7253 14.7869 10.8555 14.2383L10.8542 14.2374L7.50732 12.1124C7.50519 12.1111 7.50241 12.1102 7.49989 12.1102C7.49736 12.1102 7.49489 12.1109 7.49276 12.1122L7.49192 12.1128L4.37846 14.0844L4.37797 14.0847C3.42385 14.6913 2.32185 13.7691 2.58232 12.7481L3.47802 9.21842L3.47817 9.21781C3.48012 9.20949 3.47973 9.20079 3.47706 9.19267C3.47431 9.18435 3.46928 9.17698 3.46253 9.1714L3.46078 9.16995L0.460081 6.66715L0.459654 6.66679C-0.280531 6.05146 0.0667722 4.77836 1.08382 4.71231L5.00536 4.45974C5.00922 4.45952 5.01294 4.45818 5.01605 4.45588C5.01916 4.45358 5.02153 4.45042 5.02288 4.44679L5.02724 4.43544L6.48579 0.762529C6.56238 0.557337 6.69944 0.380129 6.87895 0.254408ZM8.07714 11.2156L11.4224 13.3396C11.4284 13.3434 11.4324 13.3449 11.4335 13.3452C11.4349 13.3449 11.4395 13.3436 11.4458 13.3389C11.4538 13.3328 11.459 13.3251 11.4613 13.3189C11.4623 13.3161 11.463 13.3131 11.4632 13.3093C11.4634 13.3057 11.4633 13.299 11.4607 13.2886L10.4905 9.47429C10.4402 9.27149 10.4482 9.05858 10.5136 8.86012C10.5789 8.66206 10.6987 8.48642 10.8592 8.35336L10.8602 8.35256L13.8609 5.84978C13.8671 5.84462 13.8697 5.84092 13.8708 5.83914C13.8721 5.83719 13.8731 5.83491 13.8739 5.83176C13.8758 5.8246 13.8765 5.81224 13.8721 5.79797C13.8677 5.78374 13.8611 5.77682 13.8592 5.77519L13.8581 5.77447C13.8581 5.77447 13.855 5.77311 13.8473 5.77259L9.9327 5.52046L9.93081 5.52035C9.72155 5.5078 9.52042 5.43476 9.35186 5.31007C9.1847 5.18642 9.05673 5.01727 8.98319 4.82289L7.52411 1.14868C7.52221 1.14388 7.52037 1.13906 7.51861 1.13421C7.51721 1.13036 7.51467 1.12704 7.51132 1.1247C7.50797 1.12235 7.50398 1.12109 7.49989 1.12109C7.4958 1.12109 7.49181 1.12235 7.48846 1.1247C7.48511 1.12704 7.48256 1.13036 7.48117 1.13421C7.4794 1.13906 7.47757 1.14388 7.47566 1.14868L6.01659 4.82289C5.94305 5.01727 5.81508 5.18642 5.64792 5.31007C5.47936 5.43476 5.27823 5.5078 5.06897 5.52035L1.15267 5.77258C1.14494 5.7731 1.14168 5.77445 1.14168 5.77445L1.14056 5.77519C1.13864 5.77682 1.1321 5.78374 1.1277 5.79797C1.12328 5.81224 1.12394 5.8246 1.12583 5.83176C1.12666 5.83491 1.12772 5.83719 1.12895 5.83914C1.13007 5.84092 1.1327 5.84462 1.13891 5.84978L1.13977 5.85049L4.13959 8.35256L4.14063 8.35342C4.30115 8.48648 4.42091 8.66209 4.48617 8.86012C4.55157 9.05858 4.55958 9.27148 4.50925 9.47429L4.50857 9.47702L3.61186 13.0107C3.59267 13.0858 3.61914 13.144 3.66767 13.1809C3.6925 13.1998 3.71759 13.2079 3.73742 13.2093C3.75381 13.2104 3.77651 13.2081 3.80803 13.188L6.92264 11.2156L6.92348 11.2151C7.09583 11.1057 7.29575 11.0477 7.49989 11.0477C7.70424 11.0477 7.90466 11.106 8.07714 11.2156Z" fill="#F5A623"/>
</svg>
