<svg width="24" height="16" viewBox="0 0 24 16" fill="none" xmlns="http://www.w3.org/2000/svg">
<path fill-rule="evenodd" clip-rule="evenodd" d="M12.0001 1.99805C8.81672 1.99805 5.76363 3.26193 3.51173 5.51193C2.86726 6.15721 2.48003 7.01524 2.42251 7.92542C2.36505 8.83476 2.64063 9.73388 3.19771 10.4548L3.19987 10.4539L7.62766 8.68475C7.63008 8.68358 7.63221 8.68191 7.63393 8.67984C7.63561 8.67781 7.63685 8.67545 7.63756 8.67292L8.17977 5.91513L8.18193 5.90452C8.23543 5.65177 8.35329 5.41713 8.52411 5.22331C8.69474 5.02972 8.91242 4.88342 9.15611 4.79856C10.9871 4.15842 12.9805 4.15486 14.8138 4.78846L14.5688 5.49732L14.8202 4.7907C15.0632 4.87715 15.2796 5.02517 15.4483 5.2203C15.6161 5.4144 15.7309 5.6485 15.7817 5.89993L16.3605 8.67245C16.3612 8.67487 16.3624 8.67711 16.3641 8.67905C16.3658 8.68116 16.3681 8.68284 16.3706 8.68399L20.8024 10.4548C21.3595 9.73391 21.6351 8.83477 21.5776 7.92542C21.5201 7.01514 21.1328 6.15703 20.4882 5.51173C18.2363 3.26185 15.1833 1.99805 12.0001 1.99805ZM14.3125 6.20226C12.8014 5.68286 11.1593 5.68715 9.65074 6.21466L9.64951 6.21509L9.10606 8.97919C9.05531 9.22151 8.94604 9.44774 8.78786 9.6382C8.62968 9.82866 8.42734 9.97756 8.19846 10.0719L8.19086 10.0751L3.76013 11.8454C3.45789 11.9694 3.12326 11.9906 2.8077 11.9058C2.49118 11.8207 2.21156 11.6336 2.01207 11.3737C1.23129 10.3641 0.845004 9.1046 0.925496 7.83082C1.00603 6.55643 1.54826 5.35508 2.45068 4.45166C4.98388 1.92042 8.41896 0.498047 12.0001 0.498047C15.5812 0.498047 19.0157 1.91992 21.5489 4.45116C22.4514 5.35458 22.9941 6.55643 23.0746 7.83082C23.1551 9.10459 22.7688 10.364 21.9881 11.3736C21.7886 11.6336 21.5089 11.8207 21.1924 11.9058C20.8768 11.9906 20.5422 11.9694 20.2399 11.8454L15.8038 10.0728C15.5772 9.98022 15.3763 9.83413 15.2182 9.64708C15.0602 9.46003 14.9497 9.23754 14.8963 8.99859L14.894 8.98808L14.3125 6.20226Z" fill="black"/>
<path fill-rule="evenodd" clip-rule="evenodd" d="M3.00006 14.7504C3.00006 14.3362 3.33585 14.0004 3.75006 14.0004H20.2501C20.6643 14.0004 21.0001 14.3362 21.0001 14.7504C21.0001 15.1646 20.6643 15.5004 20.2501 15.5004H3.75006C3.33585 15.5004 3.00006 15.1646 3.00006 14.7504Z" fill="black"/>
</svg>
