<svg width="17" height="15" viewBox="0 0 17 15" fill="none" xmlns="http://www.w3.org/2000/svg">
<path fill-rule="evenodd" clip-rule="evenodd" d="M14.9578 0.148164C15.1583 0.0704273 15.3762 0.0486037 15.5881 0.0850222C15.8001 0.12144 15.9982 0.214733 16.1612 0.354943C16.3243 0.495152 16.4462 0.677013 16.514 0.881112C16.5818 1.08521 16.5929 1.30388 16.5461 1.51379L16.5453 1.51711L13.7547 13.7038C13.7086 13.9046 13.611 14.0902 13.4717 14.2419C13.3323 14.3935 13.1559 14.5064 12.9598 14.5693C12.7636 14.6321 12.5545 14.6429 12.353 14.6006C12.1518 14.5583 11.9651 14.4645 11.811 14.3284L11.8101 14.3276L5.2586 8.56314L1.45868 7.80031L1.45623 7.79981C0.314875 7.56569 0.139482 5.96697 1.25499 5.52981L14.9554 0.149112L14.9578 0.148164ZM1.69201 6.63398L1.69237 6.63598L1.69421 6.6364L1.69485 6.63653L5.64827 7.43018C5.75043 7.45069 5.84539 7.49772 5.92362 7.56655L12.5959 13.4373L12.5972 13.4384L15.387 1.25537L1.69201 6.63398Z" fill="#3F51B5"/>
<path fill-rule="evenodd" clip-rule="evenodd" d="M16.114 0.368956C16.306 0.634788 16.2461 1.00593 15.9803 1.19794L5.87914 8.49364C5.61331 8.68564 5.24216 8.62579 5.05016 8.35995C4.85816 8.09412 4.91801 7.72298 5.18384 7.53098L15.285 0.235272C15.5508 0.0432717 15.922 0.103124 16.114 0.368956Z" fill="#3F51B5"/>
<path fill-rule="evenodd" clip-rule="evenodd" d="M5.53145 7.41857C5.85937 7.41857 6.1252 7.6844 6.1252 8.01232L6.1252 12.843L6.12839 12.8397L8.44403 10.5241C8.6759 10.2922 9.05184 10.2922 9.28371 10.5241C9.51559 10.756 9.51559 11.1319 9.28372 11.3638L6.96942 13.6781C6.80447 13.8448 6.59383 13.959 6.36404 14.0062C6.13338 14.0536 5.89385 14.0313 5.67588 13.9422C5.45792 13.8531 5.27136 13.7012 5.13992 13.5058C5.00848 13.3105 4.93809 13.0804 4.9377 12.845L4.9377 8.01232C4.9377 7.6844 5.20353 7.41857 5.53145 7.41857Z" fill="#3F51B5"/>
</svg>
