<svg width="28" height="26" viewBox="0 0 28 26" fill="none" xmlns="http://www.w3.org/2000/svg">
<path d="M27.705 15.1263L26.205 3.125C26.0175 1.635 24.7437 0.5075 23.2375 0.5H2C0.8975 0.5 0 1.3975 0 2.5V13.5C0 14.6025 0.8975 15.5 2 15.5H7.3825L12.1062 24.9475C12.275 25.2863 12.6213 25.5 13.0013 25.5C15.7587 25.5 18.0012 23.2575 18.0012 20.5V18.5H24.7437C25.5387 18.5 26.2875 18.1912 26.8512 17.63C27.4163 17.0675 27.73 16.3175 27.7313 15.52C27.7313 15.385 27.7225 15.25 27.7062 15.1263H27.705ZM7 13.5H2V2.5H7V13.5ZM25.4387 16.2125C25.2512 16.3987 25.0012 16.495 24.7375 16.5H17C16.4475 16.5 16 16.9475 16 17.5V20.5C16 21.9525 14.9625 23.1675 13.5887 23.4425L9 14.265V2.5H23.2325C23.7325 2.5025 24.1575 2.87875 24.22 3.37375L25.7213 15.3825C25.7275 15.4262 25.73 15.47 25.73 15.515C25.73 15.7788 25.6262 16.0262 25.4387 16.2125Z" fill="#3F51B5"/>
</svg>
