<svg width="28" height="26" viewBox="0 0 28 26" fill="none" xmlns="http://www.w3.org/2000/svg">
<path d="M24.745 7.5H18V5.5C18 2.7425 15.7575 0.5 13 0.5C12.6213 0.5 12.275 0.71375 12.105 1.0525L7.3825 10.5H2C0.8975 10.5 0 11.3975 0 12.5V23.5C0 24.6025 0.8975 25.5 2 25.5H23.2425C24.7437 25.4925 26.0175 24.365 26.205 22.8738L27.7038 10.8825C27.7213 10.75 27.73 10.615 27.73 10.48C27.7262 8.835 26.3863 7.5 24.745 7.5ZM1.99875 12.5H7V23.5H2V12.5H1.99875ZM25.7188 10.6263L24.2188 22.625C24.1562 23.1213 23.7313 23.4975 23.2362 23.5H9V11.7362L13.5887 2.5575C14.9625 2.8325 16 4.04625 16 5.5V8.5C16 9.0525 16.4475 9.5 17 9.5H24.7425C25.005 9.5 25.2525 9.6025 25.4387 9.7875C25.6262 9.97375 25.7288 10.2212 25.73 10.485C25.73 10.53 25.7275 10.5737 25.72 10.625L25.7188 10.6263Z" fill="#3F51B5"/>
</svg>
