<svg width="163" height="162" viewBox="0 0 163 162" fill="none" xmlns="http://www.w3.org/2000/svg">
<path d="M132.018 160.605C132.018 160.605 108.901 159.048 104.842 134.332C100.784 109.606 118.273 98.2407 104.989 76.4918C91.7055 54.7428 65.9951 64.2809 53.9968 66.6286C39.6948 69.4157 22.8709 60.3657 18.1994 47.945C15.1225 39.7718 15.9886 35.4898 15.9886 35.4898L130.786 34.3695L132.018 160.605Z" fill="#E29797" fill-opacity="0.6"/>
<g clip-path="url(#clip0_2973_5113)">
<path d="M143.784 107.729C143.128 88.8927 130.349 71.013 112.709 64.1942C93.9873 56.9631 71.4453 61.4345 54.5011 50.7334C38.5486 40.6615 32.7904 20.5263 29.2042 2.05727" stroke="#FFD6E3" stroke-width="0.75" stroke-miterlimit="10"/>
<path d="M139.185 114.112C138.529 95.2758 125.75 77.396 108.11 70.5772C89.3885 63.3462 66.8464 67.8176 49.9022 57.1165C33.9497 47.0445 28.1915 26.9094 24.6054 8.44033" stroke="#FFD6E3" stroke-width="0.75" stroke-miterlimit="10"/>
<path d="M133.462 120.997C132.806 102.161 120.026 84.2808 102.386 77.462C83.6651 70.2309 61.123 74.7023 44.1788 64.0012C28.2263 53.9293 22.4681 33.7942 18.882 15.3251" stroke="#FFD6E3" stroke-width="0.75" stroke-miterlimit="10"/>
</g>
<g clip-path="url(#clip1_2973_5113)">
<path d="M103.896 87.458L103.592 85.4342C106.1 86.4419 108.844 86.8637 111.542 86.6391C111.403 86.2785 111.252 85.9135 111.109 85.5665C114.857 86.8248 118.807 84.5842 122.153 82.4489C121.232 80.7069 119.799 79.2502 118.062 78.3121C118.566 78.0088 119.082 77.7098 119.59 77.3929C117.686 75.814 115.411 74.6865 113.014 74.1211C113.832 73.6791 114.65 73.237 115.468 72.795C111.865 68.726 106.035 67.8312 100.712 68.981C90.3919 71.2051 88.1483 77.4874 88.1483 77.4874C88.1483 77.4874 90.9019 86.0341 103.892 87.4717L103.896 87.458Z" fill="#68ACAF"/>
<path d="M100.712 68.9811C106.034 67.8314 111.865 68.7261 115.477 72.8131C114.659 73.2552 113.841 73.6972 113.023 74.1393C115.438 74.6954 117.7 75.8185 119.599 77.411C119.096 77.7144 118.579 78.0133 118.072 78.3303C119.794 79.264 121.241 80.725 122.163 82.467C119.323 83.0368 113.973 81.7711 106.048 78.6343C98.0186 75.4487 88.1575 77.5055 88.1575 77.5055C88.1575 77.5055 88.2907 77.2328 88.4905 76.8012C89.416 75.1005 92.5011 70.76 100.721 68.9991L100.712 68.9811Z" fill="#489C9E"/>
<path d="M42.3682 67.7517C42.5074 67.0899 42.6511 66.4145 42.7903 65.7527C40.2285 66.6229 37.4588 66.8844 34.7743 66.5118C34.934 66.1574 35.1073 65.8074 35.2626 65.4667C31.4472 66.5026 27.6313 64.0642 24.4258 61.7331C25.4372 60.0452 26.9612 58.6736 28.7468 57.8378C28.2565 57.4987 27.7619 57.1731 27.2717 56.8339C29.2644 55.3584 31.595 54.3681 34.0429 53.9423C33.2536 53.4612 32.4551 52.9621 31.6658 52.481C35.5131 48.6128 41.3818 48.046 46.6298 49.4891C56.8048 52.3015 58.6656 58.6942 58.6656 58.6942C58.6656 58.6942 55.4138 67.0716 42.3502 67.7609L42.3682 67.7517Z" fill="#68ACAF"/>
<path d="M46.6341 49.4754C41.3861 48.0323 35.5174 48.5991 31.6702 52.4674C32.4595 52.9484 33.2579 53.4476 34.0472 53.9286C31.6173 54.3453 29.2687 55.3447 27.276 56.8203C27.7662 57.1594 28.2609 57.485 28.7511 57.8242C26.9655 58.6599 25.4415 60.0315 24.4301 61.7195C27.2392 62.4483 32.6489 61.4923 40.7354 58.8008C48.9389 56.072 58.6563 58.6761 58.6563 58.6761C58.6563 58.6761 58.5503 58.4012 58.3618 57.9642C57.5489 56.2121 54.7145 51.7151 46.6205 49.471L46.6341 49.4754Z" fill="#489C9E"/>
<path d="M96.5212 95.5985C96.6961 96.0311 97.0102 96.3584 97.3423 96.6765C97.9561 97.2361 98.6955 97.686 99.479 97.9998C99.9318 98.1765 100.374 98.1994 100.806 98.0234C101.248 97.9106 101.616 97.6086 101.734 97.1505C101.813 96.9055 101.807 96.6477 101.769 96.3947C101.763 95.7162 101.415 95.0319 100.865 94.6435C100.865 94.6435 100.865 94.6435 100.852 94.6391C100.319 94.0153 99.6377 93.5242 98.877 93.2328C98.397 93.0473 97.873 92.998 97.3914 93.1881C96.9595 93.3641 96.6104 93.7474 96.4693 94.183C96.3151 94.6595 96.337 95.1479 96.5168 95.6121L96.5212 95.5985Z" fill="#F9C485"/>
<path d="M94.5324 101.557C94.7694 101.845 95.0465 102.055 95.3683 102.219C95.4365 102.286 95.5004 102.367 95.5822 102.439C95.7957 102.613 96.0537 102.696 96.3069 102.748C96.5561 102.859 96.8321 102.933 97.1121 102.949C97.3514 102.951 97.5767 102.904 97.7606 102.753C97.9265 102.611 98.0825 102.361 98.0943 102.139C98.1031 102.112 98.0848 102.076 98.0756 102.057C98.3337 101.585 98.3199 100.978 98.0947 100.469C97.9707 100.204 97.7971 99.952 97.6148 99.7275C97.4827 99.5795 97.337 99.4271 97.1826 99.3019C97.1095 99.203 97.0365 99.1042 96.9455 99.0146C96.5724 98.6381 96.1328 98.4206 95.5915 98.471C94.9554 98.5358 94.436 99.0746 94.2194 99.6512C93.9763 100.309 94.1039 101.028 94.5552 101.58L94.5324 101.557Z" fill="#F9C485"/>
<path d="M91.1872 96.4136C91.3933 96.7962 91.6714 97.1419 92.0167 97.4191C92.1444 97.5808 92.3125 97.7104 92.5249 97.7491C92.6383 97.8159 92.7697 97.8734 92.8875 97.9266C93.2541 98.0453 93.6912 97.9461 93.9324 97.6181C94.218 97.1992 94.3135 96.7188 94.26 96.2352C94.2732 96.1944 94.2865 96.1535 94.2725 96.1039C94.3072 95.3481 93.9319 94.7002 93.4266 94.1757C93.281 94.0233 93.1353 93.8708 92.9808 93.7456C92.7126 93.5084 92.3324 93.3853 91.9717 93.434C91.4803 93.5156 91.086 93.8993 90.9498 94.3666C90.7518 95.0244 90.8618 95.7969 91.1916 96.4L91.1872 96.4136Z" fill="#F9C485"/>
<path d="M108.01 88.0976C107.772 88.2763 107.452 88.3381 107.259 88.5616C106.964 88.9173 107.096 89.5313 106.764 89.8601C106.16 90.4766 104.955 89.4249 104.282 89.9741C104.076 90.148 103.997 90.4383 103.809 90.6482C103.505 90.9858 102.954 91.0182 102.551 90.8275C102.134 90.6324 101.851 90.2551 101.6 89.8729C101.568 89.8325 101.558 89.7693 101.526 89.7288C101.627 91.0398 101.514 92.1764 101.155 92.9624C100.862 93.5895 100.63 94.4919 99.9338 94.4171C99.7756 94.396 99.5991 94.3389 99.4505 94.381C98.9462 94.5486 99.4719 95.3806 99.2046 95.8355C98.9506 96.2496 98.3169 96.0294 97.922 95.7662C97.5136 95.4986 96.8843 95.2648 96.6346 95.6653C96.5142 95.8519 96.5432 96.0869 96.4771 96.2911C96.2744 96.9173 95.3081 96.8903 94.8439 96.4242C94.3798 95.9581 91.2156 94.2871 89.4807 89.5445C88.9316 88.0432 88.2471 86.5433 87.7839 85.0548C87.8043 85.9186 87.9013 86.7772 88.0751 87.6306C88.5906 90.0234 89.8042 92.206 90.207 94.6224C90.292 95.1012 90.3231 95.6075 90.1461 96.0616C89.9692 96.5157 89.4935 96.873 89.0098 96.7917C88.838 96.7662 88.6839 96.6862 88.5125 96.7059C88.1114 96.7866 88.1208 97.4063 87.807 97.6807C87.4528 97.9872 86.9089 97.7209 86.5813 97.3892C86.2536 97.0576 85.9388 96.6398 85.4691 96.6081C85.0988 96.5935 84.7622 96.8455 84.3967 96.8626C83.8506 96.8813 83.4224 96.3968 83.2467 95.8737C83.0758 95.3822 83.0491 94.8622 82.8874 94.3887C82.6264 94.4998 82.4069 94.7145 82.274 95.0324C81.8881 95.9001 80.4856 93.7917 79.6861 94.315C79.4931 94.4481 79.373 94.6799 79.1708 94.7949C78.7616 94.9933 78.3385 94.5857 78.1187 94.1987C77.2988 92.7 77.3069 90.8678 77.682 89.1994C78.3531 86.153 80.1101 83.413 82.4002 81.2967C83.5564 80.2271 84.8403 79.3192 86.202 78.5418C86.921 78.1278 89.0991 76.6821 89.9633 76.9318C90.3321 76.7655 93.6589 76.7294 94.3367 76.8134C97.1926 77.1664 100.029 77.9493 102.519 79.3869C105.009 80.8245 107.13 82.9849 108.248 85.6479C108.584 86.4635 108.75 87.5703 108.032 88.0748L108.01 88.0976Z" fill="#B05A5A"/>
<path d="M48.2147 63.6708C45.0962 64.3609 42.1725 65.7005 39.3309 67.157C37.7167 67.973 36.0897 68.8751 34.9224 70.2569C34.2201 71.0824 33.7003 72.1324 33.736 73.2268C33.7897 74.312 34.5433 75.4132 35.6101 75.5931C36.0666 75.6657 36.5537 75.5978 36.9393 75.8429C37.4747 76.1817 37.5303 76.9366 37.3636 77.5444C37.1968 78.1522 36.8492 78.7164 36.7819 79.3414C36.6683 80.3875 37.4846 81.4338 38.5107 81.6005C39.1525 81.703 39.8598 81.5108 40.4087 81.8539C41.3976 82.4598 40.9492 83.9841 41.3597 85.0795C41.7562 86.1253 42.9928 86.6609 44.0982 86.5826C45.2216 86.4951 46.2328 85.92 47.1625 85.3185C53.9938 80.8973 58.946 74.0328 65.6265 69.3823C66.3045 68.9099 70.0019 67.2191 69.8765 66.7724C69.6168 65.9063 65.8601 65.2316 65.023 64.9908C61.5298 63.9653 57.9078 63.1989 54.2595 63.1159C52.2187 63.0719 50.1705 63.2361 48.1651 63.6848L48.2147 63.6708Z" fill="#B05A5A"/>
<path d="M60.9308 81.2478C58.1861 84.6757 54.8558 87.6886 52.751 91.5493C52.2437 92.4679 51.8049 93.499 51.9485 94.5381C52.0922 95.5773 53.03 96.5727 54.058 96.4091C54.4232 96.3469 54.7649 96.1717 55.1216 96.1819C55.7855 96.2163 56.2334 96.9178 56.3515 97.5726C56.4695 98.2275 56.3937 98.9249 56.6065 99.5653C57.0085 100.733 58.4855 101.407 59.6192 100.916C60.1051 100.713 60.5625 100.319 61.0957 100.387C61.9633 100.487 62.1891 101.643 62.8081 102.28C63.9004 103.4 65.803 102.527 66.982 101.48C70.4878 98.3886 72.8561 94.1771 74.5008 89.7914C75.9508 85.9142 76.9066 81.7568 76.4678 77.6442C76.185 74.9959 75.2751 72.3852 73.7275 70.2148C72.8419 68.9656 69.7199 65.2177 68.1055 67.1466C67.542 67.8215 67.4264 69.7543 67.0812 70.6352C66.5723 71.9293 65.9999 73.1879 65.3732 74.4288C64.1238 76.8519 62.6433 79.1551 60.9356 81.2794L60.9308 81.2478Z" fill="#B05A5A"/>
<path d="M75.5552 103.263C74.6241 103.683 73.3221 103.442 72.8903 102.505C72.6423 101.974 72.659 101.227 72.1287 100.965C71.3581 100.565 70.6449 101.703 69.793 101.879C69.1845 101.997 68.5673 101.587 68.2786 101.042C67.9899 100.498 67.9622 99.8421 67.9843 99.2176C68.0153 98.5659 67.9498 97.7024 67.3211 97.5591C66.7376 97.4154 66.2957 98.0393 65.7745 98.3519C64.5974 99.0688 63.0129 97.9393 62.727 96.5984C62.441 95.2575 63.0351 93.8856 63.603 92.6407L68.2623 82.4178C69.4159 79.8735 70.5963 77.2927 71.071 74.5286C71.261 73.4321 71.3243 72.3095 71.2343 71.1975C71.2087 70.8132 70.7749 69.0485 70.603 67.8649C70.5097 68.0603 70.4165 68.2557 70.3724 68.3918C69.6781 70.2125 69.02 72.0599 68.5745 73.9461C68.3695 74.8574 68.2053 75.7818 67.9596 76.6798C67.7054 77.6504 67.3518 78.6037 66.9619 79.5303C65.0298 84.1087 62.0197 88.2178 58.2441 91.4474C57.5177 92.0696 54.1856 93.1417 54.3668 89.8013C54.4504 88.3846 55.6562 87.301 56.1468 85.9708C56.2173 85.753 56.2511 85.4631 56.0427 85.3656C55.8842 85.2992 55.7135 85.4094 55.5879 85.5192C54.642 86.356 54.0876 87.6054 53.0049 88.2625C52.578 88.5154 52.051 88.6606 51.607 88.4567C50.9681 88.1597 50.8215 87.3151 50.7798 86.6098C50.7381 85.9045 50.6322 85.0731 50.0245 84.726C49.2037 84.2497 48.0133 85.0074 47.2325 84.4539C46.7558 84.1191 46.6734 83.4006 46.8948 82.8556C47.1162 82.3106 47.5644 81.8992 47.9946 81.4971C48.9941 80.5873 49.9892 79.6912 50.9752 78.7771C52.6963 77.2136 54.4218 75.6365 56.143 74.073C57.3532 72.9758 58.5634 71.8786 59.8829 70.907C61.3551 69.8345 62.9642 68.9416 64.6378 68.22C65.6321 67.7898 66.6583 67.4001 67.6896 67.0872C68.0049 66.9938 68.4728 66.7993 68.9547 66.6545C64.887 66.6162 61.2913 68.0391 57.4814 70.3553C52.8674 73.1631 49.0483 77.7323 43.7238 78.6106C43.043 78.7211 42.2441 78.7332 41.7975 78.2127C40.8362 77.1044 42.5773 75.2014 41.7687 73.9922C40.8962 72.7021 38.767 74.0432 37.3535 73.4052C36.0306 72.8115 36.1272 70.7522 37.0937 69.6664C37.2861 69.4429 37.5236 69.219 37.589 68.9243C37.784 67.9046 36.1495 67.8567 35.2071 67.4314C34.3055 67.0192 33.9171 65.8557 34.1397 64.89C34.3623 63.9243 35.033 63.1037 35.7726 62.4407C38.534 59.9807 44.3219 57.7634 47.9692 57.1543C57.4008 55.5901 68.0154 60.3345 70.5882 66.5666C70.688 66.629 70.7699 66.7006 70.7977 66.7999C72.6245 67.1807 74.9197 69.1268 75.5618 69.831C78.6904 73.2802 80.1849 77.8849 81.0879 82.4636C82.3479 88.8122 81.1017 95.628 77.6692 101.134C77.1343 101.999 76.4912 102.874 75.56 103.294L75.5552 103.263Z" fill="#D96F6F"/>
<path d="M61.5966 64.408C59.6644 62.6846 58.4707 60.1626 58.3465 57.5806C61.259 57.1097 64.3931 57.2519 66.9643 58.7158C69.5355 60.1798 71.3515 63.1891 70.7832 66.1033C73.2958 65.2924 76.1812 66.5272 77.7059 68.6751C79.2443 70.8275 79.5512 73.6791 79.0164 76.2583C77.0283 76.6074 74.9641 75.8941 73.3834 74.6605C71.807 73.4133 70.6738 71.6778 69.8602 69.8352C69.8429 71.6495 69.0399 73.435 67.7134 74.66C66.3868 75.885 64.5411 76.5358 62.7252 76.3992C62.5626 76.3917 62.4045 76.3706 62.2727 76.2678C62.0911 76.1338 62.0486 75.8944 62.0288 75.6775C61.7694 73.6984 61.9632 71.9413 63.2022 69.921C64.2183 68.2647 65.6208 67.5004 67.694 67.0736C65.7347 66.4995 63.1744 65.8362 61.5966 64.408Z" fill="#489C9E"/>
</g>
<defs>
<clipPath id="clip0_2973_5113">
<rect width="145" height="90" fill="white" transform="matrix(-0.969108 -0.246638 -0.246638 0.969108 162.718 35.7626)"/>
</clipPath>
<clipPath id="clip1_2973_5113">
<rect width="99.3577" height="46.9189" fill="white" transform="matrix(-0.951396 -0.307969 -0.307969 0.951396 124.859 74.0902)"/>
</clipPath>
</defs>
</svg>
