<svg width="121" height="126" viewBox="0 0 121 126" fill="none" xmlns="http://www.w3.org/2000/svg">
<path d="M114.026 124.899C114.026 124.899 91.3334 123.371 87.3493 99.1089C83.365 74.8366 100.533 63.68 87.4931 42.3304C74.4535 20.9808 49.2152 30.3438 37.4372 32.6483C23.3978 35.3843 6.8828 26.5004 2.29703 14.3078C-0.723336 6.28469 0.126859 2.08129 0.126859 2.08129L112.817 0.981518L114.026 124.899Z" fill="#E29797" fill-opacity="0.7"/>
<g clip-path="url(#clip0_2973_4915)">
<path d="M97.3683 96.6064C96.0703 97.1831 94.4169 97.0461 93.6119 95.7479C92.9336 94.6624 93.3558 93.4825 93.1064 92.319C92.9864 91.7504 92.5368 91.4161 92.2774 90.9114C91.9225 90.2197 91.9879 89.4677 92.3444 88.7895C93.2191 87.1403 94.992 86.116 96.3941 84.9797C97.5798 84.0231 98.8813 82.6648 98.689 81.0173C98.0244 79.4706 97.0984 78.0384 96.0385 76.7272C94.749 80.9305 93.0135 84.997 91.0127 88.9585C90.0155 90.3859 89.4879 95.2033 90.5251 97.9288C91.0603 99.3593 91.7272 100.787 91.5625 102.362C91.4288 103.713 90.6833 104.977 89.3525 105.441C88.7374 105.658 88.0401 105.706 87.4216 105.497C87.1875 105.418 86.9348 105.287 86.7303 105.146C86.6009 105.029 86.5137 104.825 86.2481 104.948C85.4876 106.108 84.447 107.079 83.0614 107.429C81.7721 107.76 80.5113 107.234 80.0447 105.956C79.4994 104.455 81.4147 101.834 81.4616 101.759C84.9704 95.9612 88.4914 90.1149 91.2599 83.931C90.6659 84.1042 90.0765 84.2905 89.4783 84.4725C87.6465 85.6429 87.0007 89.7511 85.7987 91.9946C85.2422 93.0233 84.4061 94.1361 83.2493 94.5083C82.6861 94.6853 82.1801 94.6286 81.6406 94.4144C81.1365 94.2172 80.867 94.3713 80.3789 94.5733C79.3765 94.9866 78.3047 95.2036 77.3952 94.4429C76.3432 93.5706 76.3259 92.1264 76.7565 90.9287C77.7345 88.1975 80.1661 86.2041 82.6854 84.9379C85.6832 83.4215 89.0537 82.6054 92.2539 81.5991C92.2539 81.5991 92.267 81.5945 92.2801 81.5898C92.6458 80.6875 92.9984 79.7898 93.3286 78.8706C95.1767 73.7483 96.131 68.4929 96.4343 63.1658C95.6525 63.641 94.907 64.177 94.1927 64.7387C91.7479 67.2154 93.2703 70.0638 93.476 72.2072C93.5786 73.2679 93.5503 74.3748 93.0761 75.345C92.8518 75.8145 92.5344 76.2285 92.1099 76.548C91.6681 76.8809 91.1661 77.0436 90.8233 77.5109C90.1846 78.3698 90.0339 79.5054 89.3555 80.3563C88.7972 81.0469 88.004 81.6145 87.073 81.605C84.6311 81.5701 84.0804 78.5548 84.4621 76.5941C87.8631 64.5985 96.3126 61.0517 96.4932 61.0835C96.5466 58.694 96.4945 56.2976 96.3234 53.877C96.0008 49.154 95.3364 44.4636 94.6767 39.7862C94.5004 38.538 96.43 38.165 96.6062 39.4132C97.0144 42.3169 97.4272 45.2337 97.7611 48.1562C97.902 48.18 98.0391 48.2346 98.1858 48.3374C103.863 52.7132 107.677 61.856 107.839 67.4162C107.881 68.7634 107.699 70.1015 107.622 71.4464C107.56 72.6242 107.606 73.9187 107.169 75.0374C106.783 76.006 106.024 76.7969 104.932 76.8298C103.87 76.8666 102.956 76.1367 102.479 75.2233C101.983 74.2575 102.064 73.1759 102.076 72.1263C102.076 71.876 102.115 71.5899 102.031 71.3543C101.934 71.0575 101.789 71.0645 101.505 70.9291C100.992 70.6838 100.611 70.2735 100.391 69.755C99.5844 67.8904 100.506 65.4368 101.199 63.668C101.996 61.6119 103.512 58.8008 102.847 56.7316C101.607 54.4752 99.99 52.4408 98.0362 50.7462C98.5043 55.5061 98.7225 60.288 98.3477 65.0588C98.0904 68.3082 97.5153 71.4711 96.6845 74.5772C96.8085 74.6364 96.946 74.713 97.0539 74.8515C98.382 76.4214 99.5549 78.1565 100.401 80.0292C100.5 80.1415 100.581 80.2894 100.611 80.4776C100.612 80.4996 100.612 80.5215 100.612 80.5435C100.939 81.3411 101.208 82.166 101.403 83.0099C101.767 84.6411 101.77 86.2963 101.532 87.9559C101.291 89.6464 101.007 91.4254 100.386 93.0216C99.8063 94.4855 98.8492 95.9429 97.3641 96.6152L97.3683 96.6064ZM81.8595 104.821C81.7705 105.486 82.1556 105.659 82.7277 105.486C83.9985 105.103 84.2978 103.929 85.2322 103.157C85.6044 102.856 86.1322 102.662 86.6119 102.728C87.1576 102.793 87.361 103.119 87.7747 103.414C89.0158 104.301 89.7098 102.62 89.6384 101.585C89.5554 100.392 88.9337 99.2792 88.5404 98.1667C88.1694 97.0757 87.9474 95.9688 87.8871 94.8196C87.8956 94.8018 87.891 94.7888 87.8906 94.7668C86.3669 97.4332 84.7901 100.074 83.1998 102.698C82.4711 103.677 81.9485 104.156 81.8637 104.812L81.8595 104.821ZM84.2529 90.7668C85.1045 89.0521 85.5004 87.1526 86.3882 85.4988C85.507 85.8177 84.6482 86.1581 83.8125 86.564C82.4414 87.2255 81.1308 88.079 80.0976 89.2173C79.7101 89.6415 77.4563 92.7206 78.8314 93.0075C79.1972 93.0843 79.7695 92.6832 80.0967 92.5675C80.5983 92.3828 81.0969 92.2728 81.6341 92.3553C82.2636 92.4493 82.5472 92.8349 83.1053 92.3726C83.6071 91.9596 83.9649 91.3472 84.2487 90.7756L84.2529 90.7668ZM103.486 63.2051C103.058 64.2623 102.616 65.324 102.333 66.44C102.21 66.9033 102.13 67.3657 102.095 67.8494C102.078 68.1351 102.044 68.4342 102.106 68.7141C102.184 69.0991 102.289 69.106 102.617 69.2845C103.836 69.921 104.036 70.9844 104.032 72.2665C104.025 72.8506 103.945 73.4975 104.118 74.0696C104.215 74.3664 104.493 74.9234 104.879 74.8901C105.729 74.7957 105.598 72.4051 105.633 71.8995C105.678 71.0293 105.575 68.9236 105.587 68.6687C105.752 65.8645 105.341 63.0574 104.45 60.4128C104.204 61.3612 103.856 62.294 103.491 63.2182L103.486 63.2051ZM91.0775 67.7764C88.7607 70.5318 87.1034 73.8197 86.2983 77.3731C86.2367 78.0943 86.1426 79.2025 86.8339 79.5544C87.4278 79.8598 87.9225 79.0518 88.1517 78.6173C88.576 77.7974 88.7923 76.889 89.3806 76.1583C89.9173 75.4899 90.9402 75.2387 91.3302 74.4677C92.0841 72.9349 91.2058 70.7422 91.0848 69.1505C91.0499 68.677 91.0504 68.2203 91.0817 67.7675L91.0775 67.7764ZM98.4123 92.6666C99.0153 91.2901 99.2555 89.7622 99.5011 88.2913C99.7103 86.9878 99.8097 85.6864 99.6411 84.3766C99.0421 85.2436 98.2612 86.0129 97.4388 86.6645C96.3304 87.5275 94.9312 88.3388 94.1761 89.5555C93.8306 90.1194 94.3583 90.404 94.6481 90.8905C94.9109 91.3424 95.0382 91.8275 95.0828 92.3492C95.1428 92.9979 94.8017 94.5321 95.4804 94.9106C96.7001 95.591 98.0454 93.503 98.4123 92.6666Z" fill="#F2DED5"/>
</g>
<path d="M17.119 12.845C20.1523 11.225 23.6726 10.5798 27.0829 11.001C26.4507 10.2673 25.8308 9.53519 25.1986 8.80144C28.8608 7.21859 33.129 7.09935 36.8833 8.4507C36.552 7.24879 36.1702 6.05234 35.7484 4.87523C36.135 4.86646 36.5355 4.84717 36.9204 4.8506C42.1662 4.85392 47.2055 7.25294 50.9948 10.8717C57.7195 17.2703 59.4696 22.0621 59.4696 22.0621C59.4696 22.0621 52.5337 29.3466 42.9777 29.407L44.561 27.2139C40.3941 28.1303 35.9494 27.7279 32.0142 26.0656C32.3976 25.3602 32.7914 24.6687 33.1748 23.9633C29.014 23.5752 24.9796 21.9117 21.7694 19.2306C22.1914 18.9657 22.6028 18.6868 23.0248 18.4219C20.0814 18.0403 17.3541 16.1843 15.9242 13.5751C16.2309 13.2445 16.7193 13.0384 17.1102 12.8189L17.119 12.845Z" fill="#68ACAF"/>
<path d="M27.0852 10.9887C26.453 10.255 25.8331 9.52293 25.2009 8.78918C28.8631 7.20633 33.1313 7.08709 36.8856 8.43845C36.5543 7.23653 36.1847 6.04177 35.7507 4.86298C36.1373 4.8542 36.5378 4.83491 36.9227 4.83833C42.1685 4.84166 47.2078 7.24069 50.9971 10.8595C57.7218 17.2581 59.4719 22.0498 59.4719 22.0498C59.4719 22.0498 50.2526 15.891 37.3873 17.4089C27.885 18.521 15.9231 13.5872 15.9231 13.5872C16.2298 13.2566 16.7183 13.0506 17.1091 12.831C20.1424 11.2111 23.6627 10.5659 27.073 10.9871L27.0852 10.9887Z" fill="#489C9E"/>
<g clip-path="url(#clip1_2973_4915)">
<path d="M65.2065 24.4714C60.072 27.7562 55.5118 31.9023 51.4664 36.4677C50.9982 36.9959 50.5306 37.5487 50.349 38.2181C50.1675 38.8875 50.3715 39.7204 50.9951 40.0509C51.3942 40.2634 51.8861 40.2273 52.2615 40.4773C52.7865 40.8101 52.9022 41.5465 52.8059 42.1769C52.7094 42.7951 52.4648 43.4044 52.4794 44.0323C52.4939 44.6602 52.9165 45.3525 53.5449 45.3626C54.1857 45.3724 54.6994 44.6829 55.3299 44.7792C55.8739 44.8651 56.1596 45.4991 56.1971 46.0525C56.2345 46.606 56.1248 47.1875 56.3461 47.6997C56.6332 48.3952 57.4549 48.7703 58.2051 48.716C58.9552 48.6616 59.6356 48.2517 60.2157 47.7701C61.0372 47.0736 61.6943 46.1961 62.3395 45.3312C65.8515 40.6057 69.3129 35.8199 73.2767 31.4536C77.2406 27.0872 81.7438 23.1395 86.9527 20.4073C87.2084 20.2782 87.5113 20.0618 87.4552 19.7674C87.4143 19.5959 87.264 19.4885 87.1139 19.3935C85.8765 18.6215 84.4089 18.0149 82.9513 17.8393C81.741 17.7072 80.3962 18.1449 79.2202 18.4309C76.0349 19.1822 72.9572 20.3252 70.022 21.7729C68.3656 22.5874 66.7607 23.4992 65.2191 24.4834L65.2065 24.4714Z" fill="#B05A5A"/>
<path d="M80.6929 21.9198C80.6836 24.1743 80.9084 26.4357 80.6646 28.6709C80.1798 33.2646 77.7764 37.4592 74.8534 41.0254C71.9304 44.5916 68.4417 47.6658 65.3051 51.0521C64.7763 51.6187 64.2365 52.2471 64.0818 53.0144C63.9395 53.7815 64.3552 54.708 65.1216 54.8258C65.4924 54.8788 65.8835 54.7465 66.2557 54.8611C66.9629 55.0787 67.0831 56.0121 67.0756 56.7514C67.0681 57.4907 67.2129 58.4235 67.9195 58.6165C68.6012 58.7978 69.3489 58.103 69.9839 58.3962C70.7558 58.7479 70.5163 60.1084 71.2527 60.5225C71.7268 60.7825 72.3115 60.498 72.7476 60.1799C73.8989 59.3648 74.7736 59.8989 75.7351 58.8665C78.5962 55.8192 81.445 52.7721 84.2054 49.6285C86.9654 46.4726 89.7591 41.5791 91.2823 37.6759C91.9685 35.9231 92.4053 34.0406 92.1895 32.1732C91.7866 28.6102 89.1335 25.7523 86.4907 23.3376C85.5972 22.5206 84.6916 21.7163 83.9066 20.7983C83.5012 20.315 83.1199 19.8064 82.8113 19.2469C82.5928 18.8578 82.4337 17.8391 82.144 17.5625C80.8851 16.3968 80.6781 21.2796 80.6809 21.9324L80.6929 21.9198Z" fill="#B05A5A"/>
<path d="M89.5713 40.3762C88.1346 46.9505 85.6455 53.2906 82.2318 59.0731C81.2004 60.8092 80.0707 62.56 79.6858 64.5522C79.5869 65.0718 79.6144 65.724 80.0756 65.9597C80.8235 66.3366 81.535 65.1498 82.3737 65.192C83.2615 65.233 83.4748 66.4599 83.3473 67.3374C83.2198 68.215 83.1358 69.3749 83.957 69.7254C85.0269 70.181 86.1348 68.5539 87.2282 68.9597C87.7624 69.1568 88.0104 69.7546 88.4135 70.1394C89.4836 71.1371 91.2299 70.4807 92.3793 69.5794C95.6942 66.9773 97.5221 62.9315 98.7716 58.9114C99.9523 55.1146 100.724 51.1918 101.088 47.2415C101.285 45.1182 101.345 42.9242 100.67 40.895C99.9942 38.8535 98.6114 37.124 97.1218 35.5695C94.8996 33.2313 92.0624 30.4022 89.0759 29.1041C90.2381 33.0067 90.4623 36.3028 89.5713 40.3762Z" fill="#B05A5A"/>
<path d="M42.635 22.1614C42.1064 22.7403 41.5698 23.5042 41.8203 24.2128C42.2674 25.4343 44.5783 25.2206 44.7686 26.5219C44.8573 27.1604 44.191 27.644 43.9714 28.265C43.3353 30.0535 45.2018 29.8009 45.6837 29.8636C46.277 29.9484 46.467 30.7077 46.3945 31.3007C46.3097 31.8939 45.9218 32.1616 46.1682 32.6979C46.4408 33.2952 47.2098 33.5237 47.8721 33.3975C48.5343 33.2713 49.1162 32.8636 49.6736 32.4688C52.0608 30.7628 54.4222 29.0082 56.7455 27.2051C58.3307 25.9735 59.8909 24.7301 61.5654 23.6319C68.1058 19.3537 76.2579 17.6496 83.7909 18.9901C82.69 18.7939 81.3707 17.6789 80.3374 17.2101C79.08 16.6356 77.775 16.1362 76.4594 15.7109C73.7783 14.8369 70.9808 14.2489 68.1531 13.9572C63.041 13.4228 56.3769 13.4295 51.5268 15.6976C48.2609 17.2269 45.0869 19.5301 42.6479 22.1858L42.635 22.1614Z" fill="#B05A5A"/>
<path d="M89.3816 44.9507C88.2348 46.4925 85.1727 48.3127 83.5716 49.3845C82.8557 49.8569 81.8273 50.1271 81.21 49.5378C80.9581 49.2973 80.8267 48.9431 80.5507 48.7278C79.6729 48.0583 78.023 49.1559 77.4347 48.221C77.2555 47.9295 77.2836 47.547 77.141 47.2424C76.5447 45.9628 74.0345 47.1419 73.3652 45.901C73.2237 45.6456 73.2166 45.3378 73.0749 45.0701C72.7148 44.4132 71.7785 44.4103 71.1292 44.0312C70.4921 43.6517 70.1406 42.8346 70.321 42.1159C70.5015 41.3973 69.3247 41.1166 68.6003 41.2196C67.8639 41.3352 66.8924 41.407 66.6176 40.7112C66.4739 40.3573 66.5996 39.9356 66.4806 39.5811C66.1368 38.5667 64.3472 38.9531 63.7962 38.0297C63.4761 37.5074 63.7307 36.7994 63.4593 36.2513C62.8905 35.0943 60.585 35.5419 60.334 34.2789C60.2095 33.6905 60.6877 33.0635 60.4773 32.4895C60.2145 31.7811 59.1557 31.8056 58.626 31.2759C58.2098 30.8544 58.1821 30.1899 58.2422 29.5972C58.7056 24.6099 62.5981 20.356 67.2621 18.5603C71.9383 16.7643 77.2194 17.1469 81.9971 18.6622C83.7345 19.2132 85.4887 19.9609 86.7512 21.2867C87.7994 22.3956 88.1317 23.977 89.0226 25.2128C95.6413 34.409 92.7398 40.4999 89.4308 44.9496L89.3816 44.9507Z" fill="#F9C485"/>
<path d="M93.9145 67.7947C93.2183 66.9855 93.7312 65.7294 94.3514 64.8528C94.9716 63.9761 95.7115 62.9489 95.3554 61.9347C95.1968 61.4703 94.8192 61.1218 94.5389 60.7218C93.7743 59.6186 93.6908 58.1423 93.9929 56.8296C94.2951 55.5168 94.9446 54.3069 95.5325 53.0984C96.4726 51.1426 97.9588 48.2996 98.2911 46.1608C98.7096 43.4904 98.5892 41.4853 98.1956 39.9177C98.1962 39.9423 98.1968 39.9669 98.1976 40.0038C98.3931 41.5268 98.3924 43.0912 97.9957 44.5786C97.2373 47.4664 95.0737 49.7831 92.7267 51.6236C92.2307 52.017 91.6976 52.3989 91.084 52.4994C90.4707 52.6121 89.738 52.3581 89.5027 51.7723C89.294 51.2721 89.4375 50.5543 88.9754 50.2817C88.6757 50.1038 88.2969 50.2358 87.939 50.2071C87.2484 50.1739 86.6895 49.4477 86.8216 48.7672C86.9207 48.2598 87.2872 47.5985 86.8377 47.3379C86.6754 47.2431 86.4787 47.26 86.2937 47.2519C85.4308 47.2227 84.7113 46.4756 84.4949 45.643C84.2785 44.8104 84.4549 43.9193 84.7937 43.1231C85.9008 40.3998 88.5251 38.2941 88.8763 35.3788C89.1247 33.3405 87.8223 28.7021 87.0265 26.7866C87.1538 28.5575 87.5534 33.0444 87.1625 34.778C86.9394 35.781 86.5682 36.775 86.0219 37.65C84.8573 39.4878 82.9268 40.7027 80.9915 41.7084C80.5168 41.9535 79.9433 42.1885 79.4815 41.9282C78.6704 41.4789 79.0066 40.0422 78.2196 39.5677C77.3575 39.0457 76.0784 40.1963 75.336 39.5237C74.6063 38.8631 75.4828 37.3523 74.6814 36.7919C74.0805 36.3747 73.2083 37.0108 72.5366 36.7307C71.9895 36.5094 71.8381 35.8231 71.8001 35.245C71.5836 31.7516 73.081 28.3293 75.222 25.5697C76.2746 24.2149 78.6812 22.2867 79.9603 21.1361C78.3317 21.5557 76.2331 20.8283 70.8835 24.9312C69.5039 25.9979 68.0098 26.9071 66.5412 27.8527C65.5943 28.4536 64.5736 29.0562 63.4532 29.0822C63.2808 29.0862 63.1079 29.0656 62.9582 28.9828C62.2951 28.5424 63.2 27.1911 62.5008 26.7885C61.7334 27.1635 60.9045 27.5399 60.0754 27.3744C59.2462 27.2088 58.5336 26.2275 58.9849 25.5026C59.1038 25.3151 59.2844 25.1384 59.267 24.9171C59.2206 24.5117 58.63 24.5377 58.2377 24.6207C57.4655 24.7864 56.4368 24.5146 56.3446 23.7284C56.282 23.1509 56.8392 22.7438 57.2234 22.3161C58.9171 20.4537 60.1482 18.8238 64.3781 16.9026C65.6703 16.3183 67.0944 16.1129 68.5086 16.0062C70.7098 15.8443 72.9402 15.8788 75.1168 16.2472C75.8463 16.3658 76.5767 16.5213 77.3056 16.6153C73.3136 15.5129 66.7261 13.5099 57.4322 18.5665C56.1669 19.2487 54.8626 20.3752 53.5204 19.8643C52.8121 19.5974 52.3042 18.944 51.6067 18.6153C50.3115 18.0047 48.8125 18.7047 47.4949 19.2526C46.1772 19.8005 44.4358 20.1365 43.487 19.0622C42.7658 18.2412 42.8954 16.9202 43.5024 16.0069C44.1095 15.0936 45.0687 14.4924 46.0041 13.9287C47.073 13.2757 48.1545 12.6347 49.2107 11.9697C57.3088 6.86693 64.4998 8.86825 71.497 9.9502C73.3515 10.2398 83.2909 16.0207 86.1246 15.5116C88.1978 15.1433 89.2057 15.046 89.5197 15.8394C89.6248 16.1203 90.0355 17.8969 90.1463 18.424C90.9228 22.1631 92.7023 25.5956 94.4938 29.0155C96.5176 31.8265 97.9817 32.815 99.7879 35.8034C102.489 40.2 103.206 45.6404 102.463 50.7697C101.732 55.8864 99.6268 60.7394 97.0327 65.2095C96.322 66.4331 95.3307 67.7742 93.9268 67.7944L93.9145 67.7947Z" fill="#D96F6F"/>
<path d="M94.3752 28.6856C93.4936 28.9155 88.9571 22.9231 88.3357 20.56C88.3739 22.2098 87.7476 23.3576 86.9183 24.7811C86.3737 25.7299 85.4271 26.3432 84.5174 26.9555C84.0522 26.0178 83.6712 24.9919 83.6839 23.9445C83.6983 22.9711 84.0339 22.0394 84.432 21.1433C84.8647 20.1478 85.3389 19.3484 85.8961 18.4116C84.5372 19.3054 83.1542 20.2244 81.5743 20.6182C80.0802 20.9978 77.7305 20.0668 76.2084 19.7695C76.632 18.9097 77.418 18.2756 78.2829 17.8613C79.1479 17.4471 80.0791 17.2284 81.0225 17.0094C81.917 16.8039 82.7118 16.5515 83.6186 16.3457C80.1381 16.0568 76.5882 14.3652 74.8428 11.3384C76.5375 11.1144 78.3023 11.2583 79.8702 11.9364C81.3384 12.5675 82.5703 13.6353 84.0033 14.3412C85.4362 15.0471 87.2538 15.3375 88.5629 14.4203C89.0356 14.089 89.7786 14.2566 90.0855 14.7422C90.3924 15.2278 90.4067 15.8434 90.3585 16.4235C90.3104 17.0036 90.2007 17.5851 90.2754 18.15C90.5226 19.7826 91.4559 21.2515 92.5318 22.4953C95.405 25.8162 94.8085 27.7148 94.3741 28.6364L94.3752 28.6856Z" fill="#489C9E"/>
</g>
<defs>
<clipPath id="clip0_2973_4915">
<rect width="68.2828" height="28.3006" fill="white" transform="matrix(-0.430968 0.902367 0.902367 0.430968 95.1982 38.2838)"/>
</clipPath>
<clipPath id="clip1_2973_4915">
<rect width="60.442" height="70.3186" fill="white" transform="translate(103.285 70.2998) rotate(178.672)"/>
</clipPath>
</defs>
</svg>
