<svg width="22" height="24" viewBox="0 0 22 24" fill="none" xmlns="http://www.w3.org/2000/svg">
<path fill-rule="evenodd" clip-rule="evenodd" d="M0.5 5.125C0.5 4.64175 0.891751 4.25 1.375 4.25H20.625C21.1082 4.25 21.5 4.64175 21.5 5.125C21.5 5.60825 21.1082 6 20.625 6H1.375C0.891751 6 0.5 5.60825 0.5 5.125Z" fill="#3F51B5"/>
<path fill-rule="evenodd" clip-rule="evenodd" d="M8.375 9.5C8.85825 9.5 9.25 9.89175 9.25 10.375V17.375C9.25 17.8582 8.85825 18.25 8.375 18.25C7.89175 18.25 7.5 17.8582 7.5 17.375V10.375C7.5 9.89175 7.89175 9.5 8.375 9.5Z" fill="#3F51B5"/>
<path fill-rule="evenodd" clip-rule="evenodd" d="M13.625 9.5C14.1082 9.5 14.5 9.89175 14.5 10.375V17.375C14.5 17.8582 14.1082 18.25 13.625 18.25C13.1418 18.25 12.75 17.8582 12.75 17.375V10.375C12.75 9.89175 13.1418 9.5 13.625 9.5Z" fill="#3F51B5"/>
<path fill-rule="evenodd" clip-rule="evenodd" d="M3.125 4.25C3.60825 4.25 4 4.64175 4 5.125V21.75H18V5.125C18 4.64175 18.3918 4.25 18.875 4.25C19.3582 4.25 19.75 4.64175 19.75 5.125V21.75C19.75 22.2141 19.5656 22.6592 19.2374 22.9874C18.9092 23.3156 18.4641 23.5 18 23.5H4C3.53587 23.5 3.09075 23.3156 2.76256 22.9874C2.43437 22.6592 2.25 22.2141 2.25 21.75V5.125C2.25 4.64175 2.64175 4.25 3.125 4.25Z" fill="#3F51B5"/>
<path fill-rule="evenodd" clip-rule="evenodd" d="M6.51885 1.51884C7.01113 1.02656 7.67881 0.75 8.375 0.75H13.625C14.3212 0.75 14.9889 1.02656 15.4812 1.51884C15.9734 2.01113 16.25 2.67881 16.25 3.375V5.125C16.25 5.60825 15.8582 6 15.375 6C14.8918 6 14.5 5.60825 14.5 5.125V3.375C14.5 3.14294 14.4078 2.92038 14.2437 2.75628C14.0796 2.59219 13.8571 2.5 13.625 2.5H8.375C8.14294 2.5 7.92038 2.59219 7.75628 2.75628C7.59219 2.92038 7.5 3.14294 7.5 3.375V5.125C7.5 5.60825 7.10825 6 6.625 6C6.14175 6 5.75 5.60825 5.75 5.125V3.375C5.75 2.67881 6.02656 2.01113 6.51885 1.51884Z" fill="#3F51B5"/>
</svg>
