<svg width="337" height="330" viewBox="0 0 337 330" fill="none" xmlns="http://www.w3.org/2000/svg">
<g clip-path="url(#clip0_2515_3302)">
<path d="M234.146 259.105C258.018 253.937 281.598 245.344 300.828 230.285C320.057 215.226 334.59 193.071 336.724 168.721C339.801 133.642 316.604 100.329 286.685 81.7916C256.767 63.2539 221.093 56.8187 186.225 52.119C153.161 47.665 119.267 44.4705 86.6632 51.5661C21.5315 65.742 -12.6458 120.057 4.32003 184.64C17.1499 233.464 79.9873 251.372 123.71 259.904C160.082 267.007 197.897 266.961 234.146 259.113V259.105Z" fill="#C5DAFF"/>
<path d="M173.603 0C140.669 0 113.973 26.7161 113.973 59.6754C113.973 92.6347 173.603 160.442 173.603 160.442C173.603 160.442 233.233 92.627 233.233 59.6754C233.233 26.7238 206.537 0 173.603 0ZM173.603 74.9417C161.602 74.9417 151.88 65.2044 151.88 53.2018C151.88 41.1991 161.61 31.4618 173.603 31.4618C185.597 31.4618 195.326 41.1991 195.326 53.2018C195.326 65.2044 185.597 74.9417 173.603 74.9417Z" fill="#1A62E2"/>
<path d="M179.281 125.724C176.672 130.532 163.965 134.548 154.258 147.265C152.632 149.392 150.629 154.56 150.598 157.225H144.129C143.324 142.565 150.299 127.652 161.755 118.475C164.533 116.264 167.71 114.321 171.24 113.991C173.519 113.775 175.943 114.405 177.731 115.764C178.153 116.079 178.537 116.448 178.867 116.839C179.335 117.377 179.719 118.007 179.987 118.683C180.877 120.94 180.44 123.574 179.281 125.724Z" fill="#88B3FF"/>
<path d="M178.874 116.847C175.866 117.968 172.974 119.389 170.242 121.078C157.619 128.927 149.271 142.45 147.836 157.232H146.416C146.815 153.062 147.72 148.946 149.14 144.999C154.005 131.607 164.556 120.917 177.739 115.772C178.161 116.087 178.545 116.455 178.874 116.847Z" fill="#6B9EF9"/>
<path d="M150.598 157.225H137.921C135.159 145.245 128.637 134.609 119.605 126.262C115.224 122.215 110.274 118.844 105.839 114.851C102.309 111.672 98.9022 107.64 98.8639 102.887C98.8485 99.5384 100.621 96.4436 103.215 94.2704C103.667 93.9018 104.135 93.5486 104.634 93.2491C105.425 92.7346 106.261 92.3122 107.143 91.9897C111.694 90.3002 116.827 90.8992 121.408 92.5119C128.199 94.9078 134.123 99.4769 138.635 105.083C143.155 110.704 146.308 117.331 148.388 124.227C151.58 134.84 152.47 146.305 150.598 157.217V157.225Z" fill="#6B9EF9"/>
<path d="M146.853 157.225H145.434C145.418 152.74 145.035 148.256 144.244 143.848C141.958 130.924 136.279 118.606 127.071 109.153C120.48 102.372 112.239 97.0811 103.207 94.2782C103.66 93.9096 104.128 93.5563 104.627 93.2568C108.156 94.4241 111.563 95.9369 114.794 97.7953C125.966 104.192 134.814 114.198 140.162 125.894C144.674 135.7 146.815 146.451 146.853 157.225Z" fill="#407BFF"/>
<path d="M238.113 136.092C239.771 139.14 247.828 141.69 253.982 149.753C255.018 151.105 256.284 154.376 256.299 156.073H260.397C260.911 146.774 256.483 137.32 249.216 131.499C247.452 130.094 245.441 128.866 243.201 128.658C241.75 128.52 240.216 128.919 239.08 129.779C238.811 129.979 238.566 130.209 238.359 130.463C238.059 130.808 237.821 131.2 237.645 131.63C237.077 133.058 237.361 134.732 238.098 136.092H238.113Z" fill="#407BFF"/>
<path d="M238.374 130.463C240.277 131.177 242.111 132.075 243.853 133.143C251.856 138.119 257.151 146.697 258.056 156.073H258.954C258.701 153.424 258.125 150.82 257.227 148.317C254.143 139.824 247.451 133.043 239.087 129.779C238.819 129.979 238.573 130.209 238.366 130.463H238.374Z" fill="#6B9EF9"/>
<path d="M256.306 156.073H264.348C266.105 148.478 270.241 141.728 275.966 136.437C278.744 133.873 281.882 131.73 284.698 129.204C286.939 127.192 289.095 124.634 289.126 121.617C289.133 119.489 288.013 117.531 286.363 116.157C286.079 115.926 285.78 115.696 285.465 115.512C284.959 115.189 284.429 114.92 283.877 114.713C280.992 113.645 277.738 114.022 274.83 115.043C270.525 116.564 266.765 119.459 263.903 123.014C261.033 126.577 259.038 130.778 257.718 135.155C255.693 141.89 255.132 149.154 256.314 156.081L256.306 156.073Z" fill="#6B9EF9"/>
<path d="M258.678 156.073H259.576C259.583 153.232 259.829 150.383 260.328 147.588C261.778 139.386 265.384 131.577 271.216 125.587C275.398 121.287 280.624 117.931 286.348 116.157C286.064 115.926 285.765 115.696 285.45 115.512C283.21 116.249 281.053 117.209 279.005 118.391C271.922 122.446 266.305 128.797 262.921 136.207C260.059 142.427 258.701 149.247 258.678 156.073Z" fill="#407BFF"/>
<path d="M266.988 104.069C265.684 106.135 263.781 107.725 261.901 109.299C253.115 116.617 244.336 123.928 235.55 131.246C238.504 129.749 240.239 129.357 243.5 128.766C246.761 128.159 250.368 128.604 252.923 130.693C253.959 131.538 254.749 132.682 255.225 133.942C255.432 134.448 255.555 134.978 255.639 135.516C255.846 136.929 255.639 138.365 254.879 139.586C253.007 142.627 248.933 143.226 245.411 143.74C231.629 145.76 218.231 151.85 209.522 162.731H201.166C203.944 148.878 200.644 135.07 195.986 121.747C194.444 117.324 192.526 112.954 192.234 108.277C191.942 103.601 193.715 98.4327 197.843 96.2518C198.541 95.8832 199.27 95.6144 200.022 95.4532H200.038C200.575 95.3226 201.104 95.2612 201.641 95.2458C205.424 95.0692 209.384 97.1196 211.778 100.191C215.024 104.307 215.975 109.783 216.183 115.028C216.39 120.272 216.037 125.825 215.515 131.185C220.127 119.766 221.493 107.755 219.804 95.5453C219.121 90.5845 217.894 85.6084 218.531 80.6399C219.168 75.6714 222.237 70.5724 227.094 69.4436C227.424 69.3668 227.762 69.313 228.092 69.267H228.107C228.659 69.2055 229.22 69.2055 229.772 69.2516C232.297 69.4129 234.76 70.5571 236.686 72.2388C239.295 74.5272 240.991 77.6911 242.172 80.9394C245.618 90.4847 245.955 101.919 241.359 110.95C243.676 105.797 247.114 101.535 251.258 97.7032C253.69 95.4762 256.522 93.4719 259.775 93.0112C262.461 92.6118 265.446 93.5487 267.103 95.6067C267.433 96.0061 267.709 96.4515 267.917 96.9429C267.947 96.989 267.963 97.0197 267.978 97.0735C268.883 99.3312 268.277 101.988 266.98 104.069H266.988Z" fill="#335991"/>
<path d="M212.829 152.986C212.783 153.047 212.722 153.094 212.668 153.163C216.597 146.912 220.887 140.914 225.544 135.193C234.346 124.366 244.39 114.505 255.394 105.897C259.445 102.748 263.627 99.7612 267.932 96.9429C267.725 96.4515 267.456 96.0061 267.119 95.6067C257.634 101.781 248.733 108.838 240.53 116.648C233.202 123.628 226.434 131.215 220.319 139.294C222.191 135.608 223.956 131.868 225.544 128.021C230.977 114.912 234.269 100.713 233.302 86.4608C232.903 80.5938 231.76 74.7883 229.788 69.2516C229.235 69.2055 228.675 69.2055 228.123 69.267C232.32 80.686 232.734 93.2799 230.678 105.229C228.23 119.451 222.306 132.744 215.354 145.276C213.927 147.833 212.461 150.383 210.95 152.894C210.857 153.024 210.773 153.147 210.712 153.293C209.775 154.883 208.801 156.472 207.834 158.047C207.742 158.193 207.658 158.346 207.566 158.507C210.903 141.475 210.221 123.69 205.609 106.941C204.512 102.963 203.192 99.0547 201.634 95.2381C201.097 95.2535 200.567 95.3149 200.03 95.4455C207.182 113.131 209.614 132.713 207.105 151.634C206.614 155.305 205.931 158.953 205.072 162.562V162.577C205.026 162.623 204.995 162.67 204.964 162.723H207.22C215.93 149.269 229.88 139.724 245.664 136.606C248.956 135.953 252.294 135.585 255.647 135.508C255.57 134.971 255.44 134.441 255.233 133.934C239.28 134.456 223.864 141.298 212.829 152.986Z" fill="#1D4896"/>
<path d="M115.439 116.61C115.485 118.138 115.047 119.628 114.625 121.102C112.622 127.967 110.62 134.832 108.617 141.698C109.63 139.885 110.39 139.079 111.87 137.635C113.351 136.184 115.377 135.155 117.434 135.339C118.262 135.416 119.076 135.731 119.759 136.215C120.043 136.407 120.296 136.637 120.526 136.89C121.125 137.551 121.516 138.365 121.554 139.271C121.639 141.506 119.743 143.241 118.086 144.739C111.64 150.606 106.821 158.446 106.1 167.131L101.765 170.057C98.373 161.902 91.8429 155.897 84.7757 150.606C82.4354 148.855 79.9108 147.257 78.1306 144.931C76.3504 142.604 75.4602 139.309 76.8414 136.729C77.0793 136.291 77.3632 135.9 77.6932 135.554H77.7009C77.9387 135.293 78.1843 135.078 78.4605 134.878C80.3635 133.465 83.1336 133.143 85.4433 133.903C88.5664 134.909 90.9682 137.413 92.9095 140.062C94.8509 142.711 96.6004 145.714 98.2042 148.678C96.6081 141.145 93.1244 134.441 87.9909 128.689C85.9037 126.355 83.5326 124.197 82.1284 121.401C80.7242 118.606 80.5324 114.882 82.6656 112.601C82.8113 112.44 82.9648 112.302 83.126 112.163H83.1336C83.4022 111.933 83.6861 111.733 83.993 111.564C85.3589 110.766 87.0394 110.497 88.6201 110.697C90.7687 110.973 92.7561 112.017 94.4979 113.292C99.6161 117.04 103.783 122.853 104.55 129.142C103.952 125.656 104.251 122.246 105.064 118.806C105.548 116.802 106.315 114.774 107.842 113.392C109.093 112.248 110.973 111.687 112.546 112.179C112.86 112.271 113.152 112.401 113.436 112.586C113.467 112.601 113.49 112.609 113.513 112.632C114.771 113.484 115.385 115.074 115.439 116.61Z" fill="#335991"/>
<path d="M104.42 160.919C104.42 160.965 104.404 161.019 104.397 161.065C104.251 156.449 104.381 151.842 104.803 147.242C105.594 138.549 107.359 129.918 110.06 121.616C111.065 118.568 112.185 115.558 113.436 112.586C113.16 112.401 112.86 112.263 112.546 112.179C109.776 118.698 107.627 125.471 106.1 132.39C104.734 138.572 103.875 144.877 103.522 151.205C103.207 148.632 102.816 146.082 102.302 143.525C100.545 134.825 97.2988 126.308 91.82 119.259C89.564 116.356 86.9474 113.745 83.9931 111.557C83.6862 111.726 83.4023 111.918 83.1337 112.148C89.2955 116.602 93.9072 122.991 97.0149 129.91C100.706 138.142 102.271 147.112 103.046 156.042C103.2 157.87 103.33 159.705 103.422 161.533C103.422 161.633 103.422 161.725 103.438 161.825C103.507 162.977 103.56 164.144 103.606 165.296C103.606 165.403 103.622 165.511 103.629 165.626C99.4167 155.62 92.8559 146.635 84.6224 139.563C82.6656 137.881 80.6168 136.315 78.476 134.878C78.1997 135.078 77.9542 135.293 77.7163 135.547C87.5996 142.22 95.6951 151.527 100.997 162.224C102.026 164.305 102.939 166.432 103.752 168.606C103.744 168.652 103.744 168.69 103.744 168.729L103.775 168.706L103.875 168.636L103.952 168.583L104.619 168.13L104.719 168.06L104.819 167.991L104.918 167.922C104.742 157.901 108.648 148.071 115.746 140.937C117.227 139.448 118.83 138.096 120.542 136.883C120.311 136.629 120.066 136.399 119.774 136.207C111.679 142.059 106.069 150.99 104.427 160.911L104.42 160.919Z" fill="#1D4896"/>
<path d="M189.479 279.363H173.94C166.958 279.363 161.302 289.991 161.302 303.107C161.302 316.224 166.965 326.852 173.94 326.852C174.163 326.852 174.385 326.844 174.608 326.821H188.811C189.034 326.844 189.256 326.852 189.479 326.852C196.462 326.852 202.117 316.224 202.117 303.107C202.117 289.991 196.454 279.363 189.479 279.363Z" fill="#21255C"/>
<path d="M285.619 305.066H255.125C255.125 288.817 261.947 275.654 270.372 275.654C278.797 275.654 285.619 288.817 285.619 305.066Z" fill="#10164F"/>
<path d="M268.423 279.363H252.885C245.902 279.363 240.247 289.991 240.247 303.107C240.247 316.224 245.91 326.852 252.885 326.852C253.107 326.852 253.33 326.844 253.552 326.821H267.756C267.978 326.844 268.201 326.852 268.423 326.852C275.406 326.852 281.061 316.224 281.061 303.107C281.061 289.991 275.398 279.363 268.423 279.363Z" fill="#21255C"/>
<path d="M268.423 326.844C275.403 326.844 281.061 316.213 281.061 303.1C281.061 289.986 275.403 279.355 268.423 279.355C261.443 279.355 255.785 289.986 255.785 303.1C255.785 316.213 261.443 326.844 268.423 326.844Z" fill="#495375"/>
<path d="M266.766 291.381C267.441 290.744 268.185 290.398 268.96 290.398C272.114 290.398 274.677 296.173 274.677 303.3C274.677 310.426 272.122 316.201 268.96 316.201C268.185 316.201 267.441 315.847 266.766 315.218C268.83 313.275 270.288 308.675 270.288 303.307C270.288 297.939 268.837 293.332 266.766 291.397V291.381Z" fill="#C7D2D7"/>
<path d="M266.766 291.381C268.83 293.324 270.288 297.924 270.288 303.292C270.288 308.66 268.838 313.267 266.766 315.202C264.702 313.259 263.244 308.66 263.244 303.292C263.244 297.924 264.694 293.317 266.766 291.381Z" fill="#99A3B0"/>
<path d="M199.309 152.495H74.0869V305.066H199.309V152.495Z" fill="#407BFF"/>
<path d="M188.144 152.487V305.066H255.133C255.133 303.868 255.163 302.685 255.24 301.525C255.256 301.318 255.263 301.111 255.279 300.903C255.432 298.899 255.678 296.979 256.023 295.129C256.061 294.921 256.107 294.714 256.146 294.507C256.552 292.456 257.082 290.521 257.703 288.732C257.772 288.525 257.841 288.317 257.926 288.11C258.709 285.952 259.652 284.009 260.711 282.335C260.842 282.128 260.98 281.913 261.118 281.713C263.174 278.68 265.645 276.629 268.339 275.938C269.006 275.769 269.682 275.677 270.372 275.677C271.063 275.677 271.738 275.769 272.406 275.938C275.107 276.629 277.57 278.68 279.626 281.713C279.764 281.913 279.902 282.128 280.033 282.335C281.092 284.009 282.036 285.952 282.818 288.11C282.903 288.317 282.979 288.525 283.041 288.732C283.662 290.521 284.192 292.456 284.599 294.507C284.637 294.714 284.683 294.921 284.721 295.129C285.067 296.979 285.312 298.907 285.466 300.903C285.481 301.111 285.489 301.318 285.504 301.525C285.581 302.685 285.611 303.868 285.611 305.066H293.492V152.487H188.144Z" fill="#88B3FF"/>
<path d="M242.487 273.704H199.984C199.251 273.704 198.657 274.298 198.657 275.032V295.543C198.657 296.277 199.251 296.872 199.984 296.872H242.487C243.22 296.872 243.815 296.277 243.815 295.543V275.032C243.815 274.298 243.22 273.704 242.487 273.704Z" fill="#C5DAFF"/>
<path d="M259.415 152.487H222.229V224.434H259.415V152.487Z" fill="#A9C8FF"/>
<path opacity="0.4" d="M205.248 280H237.208" stroke="#407BFF" stroke-width="3" stroke-miterlimit="10" stroke-linecap="round"/>
<path opacity="0.4" d="M205.248 285.284H237.208" stroke="#407BFF" stroke-width="3" stroke-miterlimit="10" stroke-linecap="round"/>
<path opacity="0.4" d="M205.248 290.567H225.936" stroke="#407BFF" stroke-width="3" stroke-miterlimit="10" stroke-linecap="round"/>
<path d="M311.678 177.475H206.315L188.144 152.487H293.5L311.678 177.475Z" fill="#407BFF"/>
<path d="M55.6323 177.475H170.081L188.252 152.487H73.8106L55.6323 177.475Z" fill="#88B3FF"/>
<path d="M65.6994 229.471H46.8382C46.608 229.471 46.4238 229.287 46.4238 229.056V201.764C46.4238 201.534 46.608 201.35 46.8382 201.35H53.9975C54.2277 201.35 54.4118 201.534 54.4118 201.764C54.4118 201.995 54.2277 202.179 53.9975 202.179H47.2526V228.634H65.6994C65.9296 228.634 66.1138 228.818 66.1138 229.049C66.1138 229.279 65.9296 229.463 65.6994 229.463V229.471Z" fill="#21255C"/>
<path d="M44.2907 225.747H49.3782C50.5605 225.747 51.519 224.787 51.519 223.604V207.232C51.519 206.049 50.5605 205.089 49.3782 205.089H44.2907C43.1083 205.089 42.1498 206.049 42.1498 207.232V223.604C42.1498 224.787 43.1083 225.747 44.2907 225.747Z" fill="#21255C"/>
<path d="M172.544 305.065H142.05C142.05 288.816 148.871 275.654 157.297 275.654C165.722 275.654 172.544 288.816 172.544 305.065Z" fill="#10164F"/>
<path d="M155.701 279.363H140.162C133.18 279.363 127.524 289.991 127.524 303.107C127.524 316.224 133.187 326.852 140.162 326.852C140.385 326.852 140.608 326.844 140.83 326.821H155.034C155.256 326.844 155.479 326.852 155.701 326.852C162.684 326.852 168.339 316.224 168.339 303.107C168.339 289.991 162.676 279.363 155.701 279.363Z" fill="#21255C"/>
<path d="M155.701 326.844C162.931 326.844 168.792 316.213 168.792 303.1C168.792 289.986 162.931 279.355 155.701 279.355C148.471 279.355 142.61 289.986 142.61 303.1C142.61 316.213 148.471 326.844 155.701 326.844Z" fill="#495375"/>
<path d="M154.412 291.381C155.087 290.744 155.832 290.398 156.607 290.398C159.76 290.398 162.323 296.173 162.323 303.3C162.323 310.426 159.768 316.201 156.607 316.201C155.832 316.201 155.087 315.847 154.412 315.218C156.476 313.275 157.934 308.675 157.934 303.307C157.934 297.939 156.484 293.332 154.412 291.397V291.381Z" fill="#C7D2D7"/>
<path d="M154.412 291.381C156.476 293.324 157.934 297.924 157.934 303.292C157.934 308.66 156.484 313.267 154.412 315.202C152.348 313.259 150.89 308.66 150.89 303.292C150.89 297.924 152.34 293.317 154.412 291.381Z" fill="#99A3B0"/>
<path d="M70.2192 279.363H54.6806C47.6978 279.363 42.0425 289.991 42.0425 303.107C42.0425 316.224 47.7054 326.852 54.6806 326.852C54.9031 326.852 55.1256 326.844 55.3481 326.821H69.5516C69.7741 326.844 69.9966 326.852 70.2192 326.852C77.202 326.852 82.8573 316.224 82.8573 303.107C82.8573 289.991 77.1943 279.363 70.2192 279.363Z" fill="#21255C"/>
<path d="M181.33 189.562V305.065H172.605C172.605 288.816 165.784 275.654 157.358 275.654C148.933 275.654 142.111 288.816 142.111 305.065H29.3433V260.756C29.3433 258.629 29.7653 256.533 30.594 254.567L56.2001 193.563C57.213 191.136 59.5918 189.562 62.2161 189.562H181.33Z" fill="#335991"/>
<path d="M173.603 244.445H164.326V246.465H173.603V244.445Z" fill="#407BFF"/>
<path d="M43.3854 251.572H38.4591C37.638 251.572 37.239 250.904 37.5613 250.082L39.5103 245.152C39.8326 244.33 40.7611 243.662 41.5822 243.662H46.5085C47.3295 243.662 47.7285 244.33 47.4063 245.152L45.4572 250.082C45.1349 250.904 44.2065 251.572 43.3854 251.572Z" fill="white"/>
<path d="M43.3856 251.987H38.4592C37.9374 251.987 37.5154 251.779 37.2622 251.403C36.9936 251.004 36.9629 250.466 37.1778 249.928L39.1268 244.998C39.5182 244.015 40.5924 243.248 41.59 243.248H46.5163C47.0381 243.248 47.4601 243.455 47.7133 243.831C47.9819 244.23 48.0126 244.768 47.7978 245.306L45.8487 250.236C45.465 251.219 44.3831 251.987 43.3856 251.987ZM41.5823 244.085C40.9301 244.085 40.1551 244.645 39.8942 245.306L37.9451 250.236C37.8377 250.52 37.8377 250.773 37.9451 250.934C38.0679 251.111 38.2904 251.149 38.4516 251.149H43.3779C44.0301 251.149 44.8051 250.589 45.066 249.928L47.0151 244.998C47.1225 244.714 47.1225 244.461 47.0151 244.3C46.8923 244.123 46.6698 244.085 46.5009 244.085H41.5746H41.5823Z" fill="#1D4896"/>
<path d="M121.401 251.572H116.475C115.654 251.572 115.255 250.904 115.577 250.082L117.526 245.152C117.848 244.33 118.777 243.662 119.598 243.662H124.524C125.345 243.662 125.744 244.33 125.422 245.152L123.473 250.082C123.151 250.904 122.222 251.572 121.401 251.572Z" fill="white"/>
<path d="M121.409 251.987H116.482C115.96 251.987 115.538 251.779 115.285 251.403C115.017 251.004 114.986 250.466 115.201 249.928L117.15 244.998C117.541 244.015 118.615 243.248 119.613 243.248H124.539C125.061 243.248 125.483 243.455 125.736 243.831C126.005 244.23 126.036 244.768 125.821 245.306L123.872 250.236C123.488 251.219 122.406 251.987 121.409 251.987ZM119.605 244.085C118.953 244.085 118.178 244.645 117.917 245.306L115.968 250.236C115.861 250.52 115.861 250.773 115.968 250.934C116.091 251.111 116.313 251.149 116.475 251.149H121.401C122.053 251.149 122.828 250.589 123.089 249.928L125.038 244.998C125.145 244.714 125.145 244.461 125.038 244.3C124.915 244.123 124.693 244.085 124.524 244.085H119.598H119.605Z" fill="#1D4896"/>
<path d="M127.209 263.06V302.516C127.209 302.685 127.348 302.831 127.524 302.831C127.701 302.831 127.839 302.692 127.839 302.516V253.353L134.952 236.897V289.108C134.952 289.277 135.09 289.423 135.267 289.423H140.676C140.814 289.423 140.937 289.331 140.976 289.2L142.725 283.464C144.421 277.888 148.48 273.411 153.867 271.177C156.23 270.194 158.732 269.695 161.295 269.695H177.156C177.324 269.695 177.47 269.556 177.47 269.38V195.605C177.47 195.436 177.332 195.291 177.156 195.291H152.463C152.34 195.291 152.225 195.367 152.179 195.483L134.983 235.261L127.248 253.161C127.232 253.2 127.225 253.246 127.225 253.284V262.223M176.849 269.065H161.302C158.655 269.065 156.077 269.579 153.637 270.593C148.081 272.897 143.891 277.52 142.142 283.272L140.461 288.785H135.596V235.445L152.685 195.913H176.856V269.065H176.849Z" fill="#1D4896"/>
<path d="M132.796 287.104V302.823C132.796 305.28 130.985 307.262 128.767 307.262H29.3508C27.1255 307.262 25.3223 305.28 25.3223 302.823V287.104C25.3223 284.654 27.1332 282.665 29.3508 282.665H128.767C130.993 282.665 132.796 284.654 132.796 287.104Z" fill="#103D8C"/>
<path d="M118.746 287.104V302.823C118.746 305.28 116.935 307.262 114.717 307.262H29.3508C27.1255 307.262 25.3223 305.28 25.3223 302.823V287.104C25.3223 284.654 27.1332 282.665 29.3508 282.665H114.71C116.935 282.665 118.738 284.654 118.738 287.104H118.746Z" fill="#1D4896"/>
<path d="M46.2858 300.619H31.9212C31.3381 300.619 30.8623 300.097 30.8623 299.452V293.524C30.8623 292.879 31.3381 292.356 31.9212 292.356H43.3776C43.7689 292.356 44.1296 292.595 44.3138 292.971L47.2296 298.899C47.6133 299.675 47.0992 300.627 46.2935 300.627L46.2858 300.619Z" fill="white"/>
<path d="M45.4799 299.629H38.6046C38.3207 299.629 38.0981 299.375 38.0981 299.068V296.227C38.0981 295.919 38.3283 295.666 38.6046 295.666H44.0911C44.2752 295.666 44.4517 295.781 44.5361 295.958L45.9327 298.799C46.1168 299.175 45.8713 299.629 45.4876 299.629H45.4799Z" fill="#407BFF"/>
<path d="M34.4151 299.56C36.0509 299.56 37.377 298.098 37.377 296.296C37.377 294.493 36.0509 293.032 34.4151 293.032C32.7792 293.032 31.4531 294.493 31.4531 296.296C31.4531 298.098 32.7792 299.56 34.4151 299.56Z" fill="#D6E9EA"/>
<path d="M98.1579 300.619H112.523C113.106 300.619 113.581 300.097 113.581 299.452V293.524C113.581 292.879 113.106 292.356 112.523 292.356H101.066C100.675 292.356 100.314 292.595 100.13 292.971L97.2141 298.899C96.8304 299.675 97.3446 300.627 98.1503 300.627L98.1579 300.619Z" fill="white"/>
<path d="M98.9639 299.629H105.839C106.123 299.629 106.346 299.375 106.346 299.068V296.227C106.346 295.919 106.115 295.666 105.839 295.666H100.353C100.169 295.666 99.9921 295.781 99.9077 295.958L98.5112 298.799C98.327 299.175 98.5726 299.629 98.9562 299.629H98.9639Z" fill="#407BFF"/>
<path d="M107.067 296.296C107.067 298.101 108.394 299.56 110.029 299.56C111.663 299.56 112.991 298.101 112.991 296.296C112.991 294.491 111.663 293.032 110.029 293.032C108.394 293.032 107.067 294.491 107.067 296.296Z" fill="#D6E9EA"/>
<path d="M91.7736 299.951H52.7391C52.4782 299.951 52.2326 299.805 52.1022 299.56L48.7873 293.616C48.4803 293.063 48.841 292.356 49.4242 292.356H95.0885C95.6794 292.356 96.0323 293.063 95.7254 293.616L92.4105 299.56C92.2724 299.805 92.0345 299.951 91.7736 299.951Z" fill="#1D4896"/>
<path d="M146.086 202.049L132.972 232.735C132.481 233.887 131.346 234.624 130.11 234.624H46.3858C44.1529 234.624 42.6489 232.343 43.5236 230.277L56.6451 199.591C57.1362 198.439 58.2642 197.702 59.5073 197.702H143.232C145.465 197.702 146.969 199.983 146.086 202.049Z" fill="#7DD3E9"/>
<path d="M143.232 199.369C143.73 199.369 144.168 199.607 144.444 200.021C144.72 200.436 144.759 200.935 144.567 201.388L131.445 232.082C131.215 232.62 130.693 232.965 130.11 232.965H46.3858C45.8871 232.965 45.4497 232.727 45.1734 232.312C44.8972 231.898 44.8588 231.399 45.0506 230.946L58.1721 200.252C58.4023 199.714 58.9241 199.369 59.5073 199.369H143.224M143.224 197.702H59.5073C58.2566 197.702 57.1362 198.447 56.6451 199.591L43.5236 230.285C42.6412 232.343 44.1529 234.632 46.3858 234.632H130.103C131.353 234.632 132.474 233.887 132.965 232.743L146.086 202.049C146.969 199.991 145.457 197.702 143.224 197.702Z" fill="#26407A"/>
<path d="M76.143 234.094C76.0509 234.094 75.9512 234.048 75.8898 233.971L71.7078 228.342H53.2917C53.1228 228.342 52.9771 228.204 52.9771 228.027C52.9771 227.851 53.1152 227.712 53.2917 227.712H71.8613C71.961 227.712 72.0531 227.758 72.1145 227.835L76.3886 233.587C76.4883 233.725 76.4653 233.925 76.3272 234.025C76.2735 234.063 76.2044 234.086 76.143 234.086V234.094Z" fill="#214084"/>
<path d="M115.661 234.094C115.569 234.094 115.469 234.048 115.408 233.971L111.226 228.342H92.8097C92.6409 228.342 92.4951 228.204 92.4951 228.027C92.4951 227.851 92.6332 227.712 92.8097 227.712H111.379C111.479 227.712 111.571 227.758 111.633 227.835L115.907 233.587C116.006 233.725 115.983 233.925 115.845 234.025C115.792 234.063 115.722 234.086 115.661 234.086V234.094Z" fill="#214084"/>
<g opacity="0.4">
<path d="M109.63 197.702L72.7364 234.624H59.7837L96.6774 197.702H109.63Z" fill="white"/>
<path d="M118.945 197.702L82.0441 234.624H78.5757L115.477 197.702H118.945Z" fill="white"/>
</g>
<path d="M175.069 199.883V232.428C175.069 233.633 174.086 234.624 172.874 234.624H141.851C141.574 234.624 141.321 234.57 141.083 234.486C139.955 234.079 139.326 232.766 139.832 231.575L144.222 221.316L153.744 199.031C154.09 198.224 154.888 197.702 155.762 197.702H172.874C174.079 197.702 175.069 198.677 175.069 199.883Z" fill="#7DD3E9"/>
<path d="M172.882 199.369C173.173 199.369 173.404 199.607 173.404 199.891V232.435C173.404 232.727 173.166 232.958 172.882 232.958H141.858C141.613 232.958 141.482 232.812 141.421 232.719C141.36 232.635 141.283 232.451 141.375 232.228L155.287 199.683C155.371 199.491 155.555 199.369 155.77 199.369H172.882ZM172.882 197.702H155.77C154.895 197.702 154.105 198.224 153.76 199.031L139.848 231.575C139.226 233.019 140.293 234.624 141.858 234.624H172.882C174.094 234.624 175.069 233.641 175.069 232.435V199.891C175.069 198.677 174.087 197.702 172.882 197.702Z" fill="#26407A"/>
<g opacity="0.4">
<path d="M175.069 199.883V200.474L141.091 234.478C139.963 234.071 139.334 232.758 139.84 231.567L144.229 221.308L167.817 197.694H172.882C174.087 197.694 175.077 198.67 175.077 199.875L175.069 199.883Z" fill="white"/>
<path d="M175.069 204.49V208.829L149.294 234.624H144.958L175.069 204.49Z" fill="white"/>
</g>
<path d="M93.7461 280.285H79.4429C78.1538 280.285 77.1102 279.24 77.1102 277.95V271.361C77.1102 270.071 78.1538 269.027 79.4429 269.027H93.7461C95.0353 269.027 96.0789 270.071 96.0789 271.361V277.95C96.0789 279.24 95.0353 280.285 93.7461 280.285ZM71.6698 277.95V271.361C71.6698 270.071 70.6262 269.027 69.3371 269.027H55.0339C53.7448 269.027 52.7012 270.071 52.7012 271.361V277.95C52.7012 279.24 53.7448 280.285 55.0339 280.285H69.3371C70.6262 280.285 71.6698 279.24 71.6698 277.95Z" fill="#214084"/>
<mask id="mask0_2515_3302" style="mask-type:luminance" maskUnits="userSpaceOnUse" x="52" y="269" width="45" height="12">
<path d="M93.7461 280.285H79.4429C78.1538 280.285 77.1102 279.24 77.1102 277.95V271.361C77.1102 270.071 78.1538 269.027 79.4429 269.027H93.7461C95.0353 269.027 96.0789 270.071 96.0789 271.361V277.95C96.0789 279.24 95.0353 280.285 93.7461 280.285ZM71.6698 277.95V271.361C71.6698 270.071 70.6262 269.027 69.3371 269.027H55.0339C53.7448 269.027 52.7012 270.071 52.7012 271.361V277.95C52.7012 279.24 53.7448 280.285 55.0339 280.285H69.3371C70.6262 280.285 71.6698 279.24 71.6698 277.95Z" fill="white"/>
</mask>
<g mask="url(#mask0_2515_3302)">
<path d="M99.6779 278.917L98.1816 279.916H48.7573L47.5449 278.917H99.6779Z" fill="#21255C"/>
<path d="M103.223 276.591L101.726 277.574H45.8872L44.6748 276.591H103.223Z" fill="#21255C"/>
<path d="M106.776 274.256L105.264 275.247H43.0251L41.7974 274.256H106.776Z" fill="#21255C"/>
<path d="M110.321 271.914L108.824 272.912H40.1475L38.9351 271.914H110.321Z" fill="#21255C"/>
<path d="M113.873 269.58L112.362 270.57H37.2777L36.0576 269.58H113.873Z" fill="#21255C"/>
</g>
<path d="M46.6852 269.718H32.9498C32.1192 269.718 31.4458 270.392 31.4458 271.223V278.38C31.4458 279.211 32.1192 279.885 32.9498 279.885H46.6852C47.5158 279.885 48.1891 279.211 48.1891 278.38V271.223C48.1891 270.392 47.5158 269.718 46.6852 269.718Z" fill="white"/>
<path d="M40.4853 274.801C40.4853 277.282 38.659 279.294 36.403 279.294C34.1471 279.294 32.3208 277.282 32.3208 274.801C32.3208 272.321 34.1471 270.309 36.403 270.309C38.659 270.309 40.4853 272.321 40.4853 274.801Z" fill="#D6E9EA"/>
<path d="M36.5794 273.373C36.5794 274.302 35.8965 275.055 35.0524 275.055C34.2083 275.055 33.5254 274.302 33.5254 273.373C33.5254 272.444 34.2083 271.691 35.0524 271.691C35.8965 271.691 36.5794 272.444 36.5794 273.373Z" fill="white"/>
<path d="M47.6597 275.37C47.6597 277.405 46.1634 279.048 44.3218 279.048C42.4802 279.048 40.9839 277.405 40.9839 275.37C40.9839 273.335 42.4802 271.691 44.3218 271.691C46.1634 271.691 47.6597 273.335 47.6597 275.37Z" fill="#D6E9EA"/>
<path d="M44.46 274.195C44.46 274.955 43.8999 275.569 43.2093 275.569C42.5187 275.569 41.9585 274.955 41.9585 274.195C41.9585 273.435 42.5187 272.82 43.2093 272.82C43.8999 272.82 44.46 273.435 44.46 274.195Z" fill="white"/>
<path d="M101.772 279.893H115.508C116.338 279.893 117.012 279.219 117.012 278.388V271.231C117.012 270.4 116.338 269.726 115.508 269.726H101.772C100.942 269.726 100.268 270.4 100.268 271.231V278.388C100.268 279.219 100.942 279.893 101.772 279.893Z" fill="white"/>
<path d="M107.973 274.801C107.973 277.282 109.799 279.294 112.055 279.294C114.311 279.294 116.137 277.282 116.137 274.801C116.137 272.321 114.311 270.309 112.055 270.309C109.799 270.309 107.973 272.321 107.973 274.801Z" fill="#D6E9EA"/>
<path d="M111.878 273.373C111.878 274.302 112.561 275.055 113.405 275.055C114.249 275.055 114.932 274.302 114.932 273.373C114.932 272.444 114.249 271.691 113.405 271.691C112.561 271.691 111.878 272.444 111.878 273.373Z" fill="white"/>
<path d="M100.798 275.37C100.798 277.405 102.294 279.048 104.136 279.048C105.977 279.048 107.474 277.405 107.474 275.37C107.474 273.335 105.977 271.691 104.136 271.691C102.294 271.691 100.798 273.335 100.798 275.37Z" fill="#D6E9EA"/>
<path d="M103.998 274.195C103.998 274.955 104.558 275.569 105.248 275.569C105.939 275.569 106.499 274.955 106.499 274.195C106.499 273.435 105.939 272.82 105.248 272.82C104.558 272.82 103.998 273.435 103.998 274.195Z" fill="white"/>
<path d="M109.223 259.174H39.9019V262.83H109.223V259.174Z" fill="#1D4896"/>
<path d="M160.98 229.471H142.119C141.889 229.471 141.705 229.287 141.705 229.056C141.705 228.826 141.889 228.642 142.119 228.642H160.566V202.187H153.821C153.591 202.187 153.407 202.002 153.407 201.772C153.407 201.542 153.591 201.357 153.821 201.357H160.98C161.21 201.357 161.395 201.542 161.395 201.772V229.064C161.395 229.295 161.21 229.479 160.98 229.479V229.471Z" fill="#21255C"/>
<path d="M163.528 205.082H158.44C157.258 205.082 156.299 206.041 156.299 207.225V223.597C156.299 224.78 157.258 225.739 158.44 225.739H163.528C164.71 225.739 165.669 224.78 165.669 223.597V207.225C165.669 206.041 164.71 205.082 163.528 205.082Z" fill="#21255C"/>
<path d="M21.8462 328.464H315.146" stroke="#59595B" stroke-width="4" stroke-miterlimit="10" stroke-linecap="round"/>
</g>
<defs>
<clipPath id="clip0_2515_3302">
<rect width="337" height="330" fill="white"/>
</clipPath>
</defs>
</svg>
