<svg width="19" height="18" viewBox="0 0 19 18" fill="none" xmlns="http://www.w3.org/2000/svg">
<path fill-rule="evenodd" clip-rule="evenodd" d="M9.5 2.28125C6.96294 2.28125 4.90625 4.33794 4.90625 6.875C4.90625 9.41206 6.96294 11.4688 9.5 11.4688C12.0371 11.4688 14.0938 9.41206 14.0938 6.875C14.0938 4.33794 12.0371 2.28125 9.5 2.28125ZM3.59375 6.875C3.59375 3.61307 6.23807 0.96875 9.5 0.96875C12.7619 0.96875 15.4063 3.61307 15.4063 6.875C15.4063 10.1369 12.7619 12.7812 9.5 12.7812C6.23807 12.7812 3.59375 10.1369 3.59375 6.875Z" fill="#3F51B5"/>
<path fill-rule="evenodd" clip-rule="evenodd" d="M9.50011 12.7804C8.00243 12.7804 6.53114 13.1747 5.23415 13.9236C3.93715 14.6725 2.86016 15.7497 2.11144 17.0468C1.93025 17.3606 1.5289 17.4682 1.21501 17.287C0.901109 17.1059 0.793529 16.7045 0.974719 16.3906C1.83863 14.894 3.08131 13.6511 4.57784 12.787C6.07438 11.9229 7.77202 11.4679 9.50011 11.4679C11.2282 11.4679 12.9258 11.9229 14.4224 12.787C15.9189 13.6511 17.1616 14.894 18.0255 16.3906C18.2067 16.7045 18.0991 17.1059 17.7852 17.287C17.4713 17.4682 17.07 17.3606 16.8888 17.0468C16.1401 15.7497 15.0631 14.6725 13.7661 13.9236C12.4691 13.1747 10.9978 12.7804 9.50011 12.7804Z" fill="#3F51B5"/>
</svg>
