<svg width="20" height="19" viewBox="0 0 20 19" fill="none" xmlns="http://www.w3.org/2000/svg">
<path fill-rule="evenodd" clip-rule="evenodd" d="M10 1.75C7.1005 1.75 4.75 4.1005 4.75 7C4.75 9.8995 7.1005 12.25 10 12.25C12.8995 12.25 15.25 9.8995 15.25 7C15.25 4.1005 12.8995 1.75 10 1.75ZM3.25 7C3.25 3.27208 6.27208 0.25 10 0.25C13.7279 0.25 16.75 3.27208 16.75 7C16.75 10.7279 13.7279 13.75 10 13.75C6.27208 13.75 3.25 10.7279 3.25 7Z" fill="black"/>
<path fill-rule="evenodd" clip-rule="evenodd" d="M10.0001 13.7491C8.28849 13.7491 6.60702 14.1997 5.12474 15.0556C3.64246 15.9114 2.41161 17.1425 1.55593 18.6249C1.34886 18.9836 0.890174 19.1065 0.531435 18.8995C0.172697 18.6924 0.049748 18.2337 0.256822 17.875C1.24415 16.1645 2.66435 14.7441 4.37468 13.7566C6.085 12.769 8.02516 12.2491 10.0001 12.2491C11.9751 12.2491 13.9153 12.769 15.6256 13.7566C17.3359 14.7441 18.7561 16.1645 19.7434 17.875C19.9505 18.2337 19.8276 18.6924 19.4688 18.8995C19.1101 19.1065 18.6514 18.9836 18.4443 18.6249C17.5886 17.1425 16.3578 15.9114 14.8755 15.0556C13.3932 14.1997 11.7118 13.7491 10.0001 13.7491Z" fill="black"/>
</svg>
