<svg width="28" height="25" viewBox="0 0 28 25" fill="none" xmlns="http://www.w3.org/2000/svg">
<path fill-rule="evenodd" clip-rule="evenodd" d="M14 2C10.134 2 7 5.13401 7 9C7 12.866 10.134 16 14 16C17.866 16 21 12.866 21 9C21 5.13401 17.866 2 14 2ZM5 9C5 4.02944 9.02944 0 14 0C18.9706 0 23 4.02944 23 9C23 13.9706 18.9706 18 14 18C9.02944 18 5 13.9706 5 9Z" fill="#3F51B5"/>
<path fill-rule="evenodd" clip-rule="evenodd" d="M14.0002 17.9988C11.718 17.9988 9.47602 18.5996 7.49965 19.7407C5.52328 20.8819 3.88215 22.5233 2.74124 24.4998C2.46514 24.9781 1.85356 25.1421 1.37525 24.866C0.896929 24.5899 0.732997 23.9783 1.0091 23.5C2.32553 21.2194 4.21914 19.3255 6.49957 18.0087C8.78 16.692 11.3669 15.9988 14.0002 15.9988C16.6335 15.9988 19.2203 16.692 21.5008 18.0087C23.7812 19.3255 25.6748 21.2194 26.9912 23.5C27.2673 23.9783 27.1034 24.5899 26.6251 24.866C26.1468 25.1421 25.5352 24.9781 25.2591 24.4998C24.1182 22.5233 22.4771 20.8819 20.5007 19.7407C18.5243 18.5996 16.2823 17.9988 14.0002 17.9988Z" fill="#3F51B5"/>
</svg>
