<svg width="14" height="14" viewBox="0 0 14 14" fill="none" xmlns="http://www.w3.org/2000/svg">
<path d="M12.5891 3.68446C10.7619 0.601196 6.76656 -0.42051 3.6839 1.40705C0.663783 3.19707 -0.377744 7.06804 1.29871 10.1238L0.768873 11.9951C0.715702 12.1778 0.715702 12.3705 0.768873 12.5532C0.922757 13.08 1.47636 13.3828 1.99869 13.2302L3.87343 12.699C4.84678 13.2327 5.92208 13.4998 6.99739 13.4998C8.14338 13.4998 9.28937 13.197 10.3115 12.5908C11.8047 11.7054 12.8643 10.2914 13.2941 8.60904C13.7245 6.92664 13.4736 5.17791 12.5885 3.68383L12.5891 3.68446ZM12.3251 8.36128C11.9611 9.78466 11.0653 10.9809 9.80169 11.7298C8.07269 12.7547 5.92396 12.7547 4.19434 11.7298C4.11614 11.6835 4.02794 11.6598 3.93912 11.6598C3.89345 11.6598 3.84779 11.666 3.80275 11.6785L1.73283 12.2648L2.31896 10.1945C2.3565 10.0625 2.33773 9.92105 2.26767 9.8028C0.721958 7.19442 1.58583 3.81397 4.19434 2.26796C6.80222 0.721949 10.182 1.58599 11.7277 4.195C12.4765 5.45883 12.6886 6.93852 12.3245 8.36128H12.3251Z" fill="#3F51B5"/>
<path d="M10.2846 7.93333L9.00663 7.20068C8.69386 7.02487 8.3079 7.02987 7.99826 7.21381L7.25324 7.65991C6.87228 7.4403 6.55638 7.12435 6.33682 6.74332L6.78345 5.9969C6.96674 5.68845 6.97112 5.30242 6.79346 4.98521L6.06283 3.71136C5.89769 3.41667 5.58492 3.23461 5.25213 3.23836C4.01481 3.23836 3.00456 4.24505 3.00018 5.48261V5.51076C3.00393 6.97982 3.57943 8.3594 4.62033 9.3955C5.6581 10.4285 7.03492 10.9966 8.49806 10.9966C8.50369 10.9966 8.50932 10.9966 8.51433 10.9966C9.74602 10.9878 10.7519 9.97799 10.7563 8.74794C10.7588 8.41008 10.578 8.0985 10.2834 7.93333H10.2846ZM8.50932 9.99551H8.49931C7.30203 9.99551 6.17605 9.53064 5.32719 8.686C4.47583 7.83823 4.0048 6.71016 4.00167 5.50764V5.48636C4.00417 4.81315 4.54214 4.26319 5.21334 4.24004L5.92396 5.47885L5.92459 5.48386L5.33658 6.46615C5.25275 6.6063 5.24212 6.77898 5.30968 6.92851C5.66123 7.71122 6.28615 8.33563 7.0687 8.68787C7.2182 8.75482 7.39085 8.74481 7.53098 8.66097L8.5137 8.0716L9.75665 8.78423C9.73226 9.45118 9.18178 9.9905 8.50995 9.99613L8.50932 9.99551Z" fill="#3F51B5"/>
</svg>
